<?xml version="1.0" encoding="UTF-8"?> <!-- Generator: Adobe Illustrator 22.1.0, SVG Export Plug-In . SVG Version: 6.00 Build 0) --> <svg xmlns="http://www.w3.org/2000/svg" xmlns:xlink="http://www.w3.org/1999/xlink" version="1.1" id="Layer_1" x="0px" y="0px" viewBox="0 0 1144.6 505.6" style="enable-background:new 0 0 1144.6 505.6;" xml:space="preserve"> <style type="text/css"> .st0{fill:#FFFFFF;} </style> <g> <g> <path class="st0" d="M52.3,299.8c7.8,0,14.6,1.2,20.6,3.8c0.6,0.2,1.2,0.4,1.6,0.4c0.7,0,1.5-0.3,1.5-2.6V294 c0-1.9-0.5-2.7-2.2-3.2c-7-2.3-13.3-3.8-23.1-3.8c-24.5,0-50.7,13-50.7,49.6c0,36.5,26.6,49.5,51.4,49.5c8.1,0,15.2-1,22.4-3.2 c1.5-0.5,2.2-1.3,2.2-2.8v-7.8c0-1.9-1-2.4-3.3-1.8c-6,2-12.6,3-20.1,3c-22.5,0-37-14.5-37-37C15.5,313.9,29.6,299.8,52.3,299.8z"></path> <path class="st0" d="M158,287.8h-5.5c-3.9,0-4.7,0.9-4.7,4.8v35.6h-47v-35.6c0-4-0.8-4.8-4.7-4.8h-5.6c-3.9,0-4.7,0.9-4.7,4.8 v87.5c0,3.9,0.8,4.7,4.7,4.7h5.6c3.9,0,4.7-0.8,4.7-4.7v-38.7h47v38.7c0,3.9,0.8,4.7,4.7,4.7h5.5c3.9,0,4.8-0.9,4.8-4.7v-87.5 C162.8,288.7,161.9,287.8,158,287.8z"></path> <path class="st0" d="M359.8,383.6c0,0,0.1-0.1,0.1-0.1c0-0.1-0.1-0.1-0.1-0.2V383.6z"></path> <path class="st0" d="M366.5,384.8h28.8c23.9,0,51.9-12.6,51.9-48.1c0-36.1-27.4-48.9-53-48.9h-27.7c-3.9,0-4.7,0.9-4.7,4.8v87.5 C361.8,383.9,362.6,384.8,366.5,384.8z M376.6,299.9h17.6c23,0,36.8,13.7,36.8,36.7c0,22.5-13.7,35.9-36.6,35.9h-17.7V299.9z"></path> <path class="st0" d="M515.6,372.2h-1.5h-40.9v-79.7c0-4.1-0.9-5.3-5.1-5.3h-5.3c-4.1,0-5.3,1.2-5.3,5.3V380c0,4.1,1.2,5.3,5.3,5.3 h52.7c3.5,0,4.8-0.8,5.2-3.5c0.1-0.5,0.1-1.1,0.1-1.8v-2.5C520.9,373.1,519.8,372.2,515.6,372.2z"></path> </g> <path class="st0" d="M593.3,299.4c-7.4-9-18.4-14-32.8-14c-27.6,0-44.5,20.1-44.5,50.7c0,5.4,0.5,10.5,1.5,15.3 c2.7,11.5,10.2,28.2,30.8,34l0-0.1c1.7,0.5,3.4,0.9,5.1,1.2c0,0,0,0,0,0c0,0,0.1,0,0.1,0c0.6,0.1,1.1,0.2,1.7,0.3 c0.4,0.1,0.9,0.1,1.3,0.2c0.2,0,0.3,0,0.5,0.1c0.5,0.1,1.1,0.1,1.6,0.2c0.2,0,0.3,0,0.5,0c0.5,0,0.9,0.1,1.4,0.1 c4.5,0.2,9.1-0.1,13.5-0.8c7.7-1.2,14.4-3.3,20.8-6.4c2.4-1.1,2.3-3.5,2.3-3.5l0,0v-3.6l0-3.3c0-0.1,0-0.5,0-1.5 c0-1.3-1-1.3-1.3-1.3c-0.1,0-0.1,0-0.1,0l0,0c-0.6,0-1.3,0.5-2.2,0.8c-5.5,2.9-11.1,4.9-18.5,6.1c-2.7,0.4-5.3,0.6-7.8,0.6 c-0.1,0-0.2,0-0.4,0c-1,0-1.9,0-2.9,0c-1.2,0-2.4-0.1-3.7-0.3c-4.2-0.5-8.5-1.6-12.5-3.7c-5.9-3-11.1-8.2-14.3-16.6 c-0.1-0.3-0.2-0.7-0.4-1c-0.6-1.8-1.2-3.8-1.6-5.9c0,0,0,0,0,0c-0.3-1.8-0.5-3.7-0.7-5.7h16.3v0h42.2h0.5h0.5h0.7h8.1 c1.5,0,2.7-1,3.2-2.3c0.1-0.3,0.2-0.7,0.3-1C603.2,335.3,606.3,316.2,593.3,299.4z M588.8,328.3h-57.5 c2.3-18.9,13.1-30.3,29.4-30.3c13.5,0,22.9,7.9,26.9,21.7c0.7,2.5,1,4.9,1.1,6.5C588.8,327.4,588.8,328.3,588.8,328.3L588.8,328.3z "></path> <path class="st0" d="M249.7,299.4c-7.4-9-18.5-14-32.8-14c-27.6,0-44.5,20.1-44.5,50.7c0,5.4,0.5,10.5,1.5,15.3 c2.7,11.5,10.2,28.2,30.8,34l0-0.1c1.7,0.5,3.4,0.9,5.1,1.2c0,0,0,0,0,0c0,0,0.1,0,0.1,0c0.6,0.1,1.1,0.2,1.7,0.3 c0.4,0.1,0.9,0.1,1.3,0.2c0.2,0,0.3,0,0.5,0.1c0.5,0.1,1.1,0.1,1.6,0.2c0.2,0,0.3,0,0.5,0c0.5,0,0.9,0.1,1.4,0.1 c4.5,0.2,9.1-0.1,13.5-0.8c7.7-1.2,14.4-3.3,20.8-6.4c2.4-1.1,2.3-3.5,2.3-3.5l0,0l0-3.6v-3.3c0-0.1,0-0.5,0-1.5 c0-1.3-1-1.3-1.3-1.3c-0.1,0-0.1,0-0.1,0l0,0c-0.6,0-1.3,0.5-2.2,0.8c-5.5,2.9-11.1,4.9-18.5,6.1c-2.6,0.4-5.3,0.6-7.8,0.6 c-0.1,0-0.2,0-0.4,0c-1,0-1.9,0-2.9,0c-1.2,0-2.4-0.1-3.7-0.3c-4.2-0.5-8.5-1.6-12.5-3.7c-5.8-3-11.1-8.2-14.3-16.6 c-0.1-0.3-0.2-0.7-0.4-1c-0.6-1.8-1.2-3.8-1.6-5.9c0,0,0,0,0,0c-0.3-1.8-0.5-3.7-0.7-5.7h16.3v0h42.2h0.5h0.5h0.7h8.1 c1.5,0,2.7-1,3.2-2.3c0.1-0.3,0.2-0.7,0.3-1C259.5,335.3,262.7,316.2,249.7,299.4z M245.1,328.3h-57.5 c2.3-18.9,13.1-30.3,29.4-30.3c13.5,0,22.9,7.9,26.9,21.7c0.7,2.5,1,4.9,1.1,6.5C245.2,327.4,245.1,328.3,245.1,328.3L245.1,328.3z "></path> <path class="st0" d="M308.7,285.1c-24.8,0-40.1,14.8-40.1,47.1v47.3c0,4.2,0.9,5.3,5.3,5.3h3.9c4.2,0,5.1-1.2,5.1-5.3v-25h51.5v25 c0,4.2,1.2,5.3,5.3,5.3h3.9c4.2,0,5.3-1.2,5.3-5.3v-47.3C349.1,299.9,333.5,285.1,308.7,285.1z M283,341.2v-9.5 c0-22,8.8-34.1,25.7-34.1c17.2,0,25.7,12.1,25.7,34.1v9.5H283z"></path> </g> <g> <path class="st0" d="M779.7,309.6l-0.3-0.1c-6.5-1.8-13.1-3.6-13.1-9c0-5.2,4.7-8.6,11.9-8.6c6.7,0,11.7,3.9,12.7,9.9l0.1,0.5 l4.9-1.3l-0.1-0.5c-1.5-8-8.5-13.3-17.4-13.3c-9.9,0-17.1,5.6-17.1,13.4c0,8.6,8.6,11.1,14.3,12.7l0.2,0.1c0.8,0.2,1.6,0.4,2.4,0.7 c6.2,1.7,13.3,3.7,13.3,10.5c0,5.8-5.1,9.6-12.6,9.6c-8.8,0-13.3-5.6-13.8-11.2l-0.1-0.6l-4.8,1.3l0.1,0.4 c1.2,8.9,8.4,14.7,18.4,14.7c10.6,0,17.9-5.9,17.9-14.4C796.5,314.3,786.4,311.5,779.7,309.6z"></path> <rect x="803.8" y="288.3" class="st0" width="5" height="49.7"></rect> <path class="st0" d="M857.9,288.3h-6.2l-12.2,16.1l-0.8,1.2c-0.6,0.9-1.5,2.2-1.9,2.8c-0.7-0.9-2.2-3.1-2.8-4l-12.2-16.1h-6.2 l18,23.8l-19.6,25.9h6.2l13.9-18c0.7-1,1.5-2.1,2.1-3c0.2-0.3,0.5-0.7,0.7-1c0.1,0.1,0.2,0.3,0.3,0.5c0.6,0.9,1.6,2.4,2.5,3.6 l13.8,18h6.2l-19.6-25.9L857.9,288.3z"></path> <polygon class="st0" points="859.6,293.1 876.2,293.1 876.2,337.9 881.3,337.9 881.3,293.1 897.9,293.1 897.9,288.3 859.6,288.3 "></polygon> <polygon class="st0" points="937,309.6 909.1,309.6 909.1,288.3 904.2,288.3 904.2,337.9 909.1,337.9 909.1,314.4 937,314.4 937,337.9 942.1,337.9 942.1,288.3 937,288.3 "></polygon> <polygon class="st0" points="965.5,337.9 970.4,337.9 970.4,315.1 992,315.1 992,310.5 970.4,310.5 970.4,293.1 997.4,293.1 997.4,288.3 965.5,288.3 "></polygon> <path class="st0" d="M1025,287.3c-14.7,0-25.7,11.1-25.7,25.8s11.1,25.8,25.7,25.8c14.7,0,25.8-11.1,25.8-25.8 S1039.7,287.3,1025,287.3z M1025,334c-12,0-20.6-8.8-20.6-20.9c0-12.1,8.7-20.9,20.6-20.9c12,0,20.7,8.8,20.7,20.9 C1045.7,325.2,1037,334,1025,334z"></path> <path class="st0" d="M1090.4,303.8c0-9.6-7-15.5-18.4-15.5h-14.3v49.7h5v-18.8h9.4c1,0,2-0.1,3-0.2l11.6,18.9h5.7l-12.2-20 C1086.8,315.8,1090.4,310.8,1090.4,303.8z M1085.3,303.8c0,6.8-4.9,10.8-13.1,10.8h-9.6v-21.5h9.6 C1080.5,293.1,1085.3,297.1,1085.3,303.8z"></path> <path class="st0" d="M1127,310.7c-2.9,5-4.3,7.7-4.9,8.8c-0.6-1.2-1.9-3.8-4.9-8.8l-13-22.4h-4.5v49.7h5v-25.2 c0-3.8-0.1-9-0.2-12.8c0-0.9,0-1.8-0.1-2.6c0.7,1.2,1.8,3.1,2.7,4.9l13.6,23.7h2.7l13.1-22.7l0.6-1c1-1.7,2-3.6,2.7-4.9 c0,0.7,0,1.6-0.1,2.6c-0.1,3.8-0.2,9-0.2,12.8v25.2h5v-49.7h-4.5L1127,310.7z"></path> </g> <path class="st0" d="M265.4,406h-5.5c-3.9,0-4.7,0.9-4.7,4.8v35.6h-47v-35.6c0-4-0.8-4.8-4.7-4.8h-5.6c-3.9,0-4.7,0.9-4.7,4.8v87.5 c0,3.9,0.8,4.7,4.7,4.7h5.6c3.9,0,4.7-0.8,4.7-4.7v-38.7h47v38.7c0,3.9,0.8,4.7,4.7,4.7h5.5c3.9,0,4.8-0.9,4.8-4.7v-87.5 C270.2,406.9,269.3,406,265.4,406z"></path> <path class="st0" d="M429.4,490.4h-1.5h-37.2v-79.7c0-4.1-0.9-5.3-5.1-5.3h-5.3c-4.1,0-5.3,1.2-5.3,5.3v87.5c0,4.1,1.2,5.3,5.3,5.3 h49c3.5,0,4.8-0.8,5.2-3.5c0.1-0.5,0.1-1.1,0.1-1.8v-2.5C434.7,491.3,433.5,490.4,429.4,490.4z"></path> <path class="st0" d="M358.2,406.1h-4c-4.3,0-5.2,1.1-5.2,5.3v47c0,21.7-9,33.6-26.2,33.6c-17.5,0-26.2-11.9-26.2-33.6v-47 c0-4.1-1.2-5.3-5.4-5.3h-4c-4.3,0-5.4,1.1-5.4,5.3v46.6c0,31.7,15.8,46.3,41.1,46.3s40.9-14.6,40.9-46.3v-46.6 C363.6,407.2,362.7,406.1,358.2,406.1z"></path> <path class="st0" d="M555.6,436.7c0-17.5-14.5-31.8-32.3-31.8c-9.4,0-18.6,4.3-24.7,11.3c-6.1-7-15.2-11.3-24.7-11.3 c-17.8,0-32.3,14.3-32.3,31.8l-0.1,3.6v58c0,3.8,0.9,4.7,4.9,4.7h5.4c3.8,0,4.8-0.9,4.8-4.7v-57.5l0.2-5.6c0-9.4,7.5-16.8,17.1-16.8 c9.6,0,16.9,7.4,16.9,16.8l0,5.6v57.5c0,3.8,0.9,4.7,4.8,4.7h2.9h0h2.9c3.8,0,4.8-0.9,4.8-4.7v-57.5l0-5.6c0-9.4,7.4-16.8,16.9-16.8 c9.6,0,17.1,7.4,17.1,16.8l0.2,5.6v57.5c0,3.8,0.9,4.7,4.8,4.7h5.4c4,0,4.9-0.9,4.9-4.7v-58L555.6,436.7z"></path> <path class="st0" d="M639.6,417.6c-7.3-9-18.2-14-32.4-14c-27.3,0-43.9,20.1-43.9,50.7c0,5.4,0.5,10.5,1.5,15.3 c2.7,11.5,10.1,28.2,30.4,34l0-0.1c1.7,0.5,3.3,0.9,5,1.2c0,0,0,0,0,0c0,0,0.1,0,0.1,0c0.6,0.1,1.1,0.2,1.7,0.3 c0.4,0.1,0.9,0.1,1.3,0.2c0.2,0,0.3,0,0.5,0.1c0.5,0.1,1.1,0.1,1.6,0.2c0.2,0,0.3,0,0.5,0c0.5,0,0.9,0.1,1.4,0.1 c4.4,0.2,8.9-0.1,13.3-0.8c7.6-1.2,14.2-3.3,20.6-6.4c2.4-1.1,2.2-3.5,2.2-3.5l0,0v-3.6l0-3.3c0-0.1,0-0.5,0-1.5 c0-1.3-0.9-1.3-1.2-1.3c-0.1,0-0.1,0-0.1,0l0,0c-0.6,0-1.3,0.5-2.1,0.8c-5.4,2.9-11,4.9-18.3,6.1c-2.6,0.4-5.2,0.6-7.7,0.6 c-0.1,0-0.2,0-0.3,0c-0.9,0-1.9,0-2.9,0c-1.2,0-2.4-0.1-3.6-0.3c-4.1-0.5-8.4-1.6-12.4-3.7c-5.8-3-10.9-8.2-14.1-16.6 c-0.1-0.3-0.2-0.7-0.4-1c-0.6-1.8-1.2-3.8-1.6-5.9c0,0,0,0,0,0c-0.3-1.8-0.5-3.7-0.7-5.7h16v0h41.6h0.5h0.5h0.6h8 c1.5,0,2.7-1,3.1-2.3c0.1-0.3,0.2-0.7,0.3-1C649.4,453.5,652.5,434.4,639.6,417.6z M635.2,446.5h-56.7c2.3-18.9,12.9-30.3,29-30.3 c13.3,0,22.6,7.9,26.5,21.7c0.7,2.5,1,4.9,1.1,6.5C635.2,445.7,635.2,446.5,635.2,446.5L635.2,446.5z"></path> <g> <path class="st0" d="M814,154c-1.4,0.4-2.3-0.6-3.5-0.7c-1.9-0.1-3.8,0.8-6.3,0.5c-0.5,0.1-0.4,0.8-1.2,0.7 c-0.4-0.4-1.6-0.2-2.3-0.2c-1,0.7-2,0.4-3.3,0.7c-0.4,0.1-0.6,0.4-0.9,0.5c-0.3,0-0.8-0.2-1.2-0.2c-0.7,0-1.4,0-2.1,0 c-0.6-0.3-0.9-0.8-1.6-0.9c-0.9,0.4-1.8-0.2-2.6,0c-0.5,0.1-0.7,1-1.4,0.7c-0.1,0.4,0.3,1.4-0.2,1.4c-0.5-0.1-0.2-0.9-0.9-0.7 c-0.6,0.7-1.9,0.8-2.6,1.4c-0.6-0.4-1.2-0.5-1.9-0.5c-1.2,0-2.2,1.1-3.1,1.4c-2.2-0.1-4.3,0.1-5.6,0.5c-0.6,0.2-1.2,0.5-1.6,0.7 c-0.9,0.6-1.1,0.9-1.9,1.4c-0.9,1.3-3.6,1.4-5.1,1.4c-0.8,0.8-1.4,1.9-1.9,3c-1.6,0.7-3.4,1.2-5.6,1.2c-1.2,1.1-2.9,1.8-3.3,3.7 c-0.9,0.2-0.4-1-1.4-0.7c-1.2,0.2-2.1,0.7-3.5,0.7c-0.5,0.1-0.1,1-0.7,0.9c-0.6,0.1-0.5-0.4-1.2-0.2c-0.8,1.4-2.8,1.6-3.7,2.8 c-0.9,0.4-1.8,0.8-2.6,1.4c-0.9-0.1-1.2,0.4-2.1,0.2c-0.5,0.8-1.8,1-2.6,1.4c-0.3,0.1-0.4,0.4-0.7,0.5c-0.5,0.2-1.1,0-1.6,0.2 c-0.1,0-0.3,0.4-0.5,0.5c-0.3,0.2-0.5,0.1-0.9,0.2c-0.5,0.2-0.9,0.5-1.4,0.7c-0.6,0.3-1.1,0.1-1.9,0.2c-0.4,0.1-0.9,0.4-1.2,0.5 c-0.5,0-0.9-0.5-1.4-0.2c-0.7,0-0.8,0.6-1.6,0.5c-0.6-0.9-1.2-2-1.4-3.5c-0.1-0.7,0.1-1.5,0-2.1c-0.2-1.7-1-2.5-2.1-3.3 c-0.1-0.6-0.9-1.2-0.2-1.9c-1.3-2.6-2.4-5.2-4.5-7c0.1-1.3-1.3-2-1.9-3.3c-0.7,0.2-0.8-0.2-1.4-0.2c-0.4-0.5-0.6-1.2-1.2-1.6 c0.1-0.3,0.3-0.4,0.2-0.9c-1.4-2.4-4.2-3.3-5.4-5.8c-0.6-0.1-0.8-0.4-1.4-0.7c-0.4-0.2-1.1-0.2-1.6-0.5c-0.5-0.3-0.9-0.9-1.4-1.2 c-0.7-0.3-1.5-0.3-2.1-0.7c-1-0.7-1.4-1.9-2.3-2.6c-1.6-0.2-2.2,0.6-3.5,0.7c-0.8-0.1-1.2-0.6-2.3-0.5c-0.4,0.2-0.9,0.3-1.2,0.7 c-2.6,0.5-4.4,1.9-6.5,2.8c-0.5,0.2-0.5,0.9-0.9,1.2c-0.4,0-0.7,0-0.9-0.2c0,0.8-1,1.2-1.4,1.4c-0.1,0-0.2,0.4-0.2,0.5 c-0.7,0.6-1.2,0.9-1.9,1.2c-0.7,0.3-0.9,1.5-1.6,1.6c-1.2,0.1-1.8,0.8-2.3,1.6c0.7,1.4,4.1,1.8,2.8,3.7c1.6,1.4,3.6,2.4,4.9,4.2 c0.6,0.3,1-0.7,1.2,0c0.2,0.7-0.3,0.6-0.2,1.2c1.1,1.2,2.1,2.4,2.8,4c0.3,0.2,0.6,0.3,1.2,0.2c0,0.6,0,1.1,0.5,1.2 c0-0.4,1.4-0.4,1.4,0c0.1,0.9-1,0.7-0.9,1.6c0.8,0.9,1,2.6,2.1,3.3c0.2,0.7,0.4,1.1,0.7,1.6c0.2,0.4,0.9,0.9,0.7,1.6 c0.6-0.1,0.7,0.5,0.9,0.9c0.8,1.2,1.2,2.8,2.1,3.7c0.6-0.2,0.5-1.1,1.4-0.9c0,0.9-1,0.7-0.7,1.9c0.2,0.8,1.1,0.8,1.2,1.6 c0.4,0.3,0.2,1.2,0.2,1.9c0.8,0.9,1,2.5,2.1,3c0,1.3,1,1.5,0.9,2.8c-1,0.4-2,0.6-3.3,0.7c-0.5,0.2-0.3,1.1-0.9,1.2 c-0.2-0.3-0.2-0.9-0.9-0.7c-1.1,0.6-2.2-0.2-3.7,0c0,0.7,0.2,1.6-0.5,1.6c-0.2,0-0.3,0-0.5,0l0.1,0.4l-0.4,0.3 c0.1,0.4,0.7,0.4,0.5,1.2c-1,0.7-1.8-0.5-1.6-1.6l-0.3,0.1l-0.1-0.4c-0.9,0-1.5,0.4-1.9,0.9c-1.8,0-2.8,0.8-4,1.4 c-0.7,0.1-0.7-0.5-1.4-0.5c-0.3,0.6-0.4,1.3-1.2,1.4c-0.8-0.4-2.4,0-2.8-0.7c-1.6,1.2-4.9,0.8-6.5,1.9l0.4,0.3l-0.1,0.4 c0.7,0,1.3,0,1.2,0.7c-0.6,1.1-2.1-0.2-3.5,0.2c0.2-0.7-0.6-0.4-0.5-1.2c-1,0.2-1.7,0.8-3,0.7c-0.5,0.5-1.1,0.9-2.3,0.7 c-0.1-0.2-0.2-0.3-0.5-0.2c-0.2-1.2-0.8-2.2-1.4-3c0.9-0.7,0.1-1.1,0-2.1c0.1-0.3,0.5-0.3,0.7-0.5c-0.1-0.9-0.3-1.9-0.2-2.6 c0-0.3,0.3-0.3,0.2-0.7c-0.1-0.9-0.5-1.9-0.5-2.8c0-1,0.6-2,0.7-3c0-0.3-0.2-0.8-0.2-1.2c-0.1-0.8,0-1.7,0-2.6 c-0.1-1.4-0.4-3.1-0.5-4.7c0-1.7,0.4-3.3,0.2-4.9c-0.1-0.7-0.4-1.4-0.5-2.1c-0.1-0.7,0.1-1.4,0-1.9c-0.2-0.8-0.9-1.7-1.2-2.6 c-0.1-0.4,0.1-0.8,0-1.2c0-0.1-0.4-0.6-0.5-0.7c-0.2-0.4-0.1-1-0.2-1.2c-0.4-0.7-1.1-1.2-1.4-1.9c-0.2-0.3,0.1-0.8,0-1.2 c-0.2-0.5-1.1,0.1-0.7-0.7c0.2-0.6,0.5-1,0.5-1.6c0-0.8-0.5-1.6-0.7-2.1c-0.1-0.2-0.2-0.3-0.5-0.2l-0.1,0.4l-0.4-0.1 c0,0.2,0,0.3,0,0.5c-0.2,0-0.3,0-0.5,0c0-0.2,0-0.3,0-0.5l0.1-0.4l0.3,0.1c-0.3-0.9,0.6-0.7,0.5-1.4c-0.9-0.9-1.9-2.3-3-2.8 c-0.3-0.1-0.8,0-1.2-0.2c-0.2-0.1-0.5-0.5-0.7-0.7c-0.8-0.6-1.4-0.6-2.3-0.9c-0.5-0.2-0.8-0.4-1.2-0.5c-1.1-0.2-2.2-0.1-3.3-0.5 c-0.8,0.1-0.8,0.9-1.4,1.2c-0.4,0.4-1.6,0-1.4,0.9c-0.8,0.4,0.4,0.8,0.2,1.4c-0.4,2-0.6,4.3-1.4,5.8c0.1,0.9,0.9,1.2,0.9,2.1 c-0.3,0.4-0.6,0.8-1.2,0.9l0.1,0.3l-0.1,0.4c0.3,0,0.6,0,0.9,0c0.1,0.7-0.6,0.8-0.9,0.5l-0.2-0.1l-0.2-0.1c-0.4,0.7-0.3,2.1-0.5,3 c-0.2,0.8-0.5,1.7-0.7,2.6c-0.4,2.2-0.4,3.8-0.7,5.8c-0.1,0.7-0.5,1.7-0.5,2.1c0,0.1,0.2,0.3,0.2,0.2c-0.3,2-0.8,3.6-0.9,5.4 c-0.2,2-0.4,3.4-0.5,4.9c0,0.8,0.1,1.6,0,2.3c0,0.4-0.4,0.6-0.5,0.9c0,0.5,0.3,1.1,0.2,1.6c0,0.4-0.2,0.8-0.2,1.2 c0,0.4,0.3,0.8,0.2,1.2c0,0.6-0.4,1-0.5,1.6c0,0.3,0.2,0.6,0.2,0.7c0,0.3-0.2,0.3-0.2,0.7c0,2.3,0.1,3.9-0.2,5.6 c0.3,0.7,1.4,0.6,1.4,1.6c-0.5,0-0.9,0-1.4,0c-0.6,1.7,1.2,6-1.9,6.1l0.1,0.3l-0.4,0.1c0,0.4-0.3,0.6-0.2,0l-0.3-0.1l0.1-0.3 c-0.9,0.3-1.8,0-2.6,0.2c-0.8,0.2-1.3,1-2.1,1.2c-0.6,0.1-0.5-0.4-1.2-0.2c-0.4,0.7-0.9,1.3-1.4,1.9c-1.2,0.2-3.4,0.8-4.4,0.7 c-0.6-0.1-1-0.5-1.6-0.5c-1.3,0-2.6,0.5-4.2,0.2c-0.3,0.3-0.1,1.1-0.7,1.2c-0.7,0.2-0.7-0.4-1.4-0.2c-1.4,0.8-3,0-4.2,1.2 c-1.8-0.4-3.6,1.1-5.6,1.2c-0.1,0.7,0.6,1.2-0.2,1.4c-1.5-1-3.4-0.3-5.6-0.7c-0.6,0.2-0.5,1.1-1.2,1.2c-0.7,0-0.4-1-1.2-0.9 c-1.1,0.2-2.4,0.6-3.1,0.9c-0.8,0.4-1.2,0.3-2.1,0.5c-0.4,0.1-1,0.3-1.4,0.5c-1.1,0.3-1.7,0.6-2.6,0.2c-1.1,0.8-2.3,0.5-3.7,0.7 c-2.1,0.3-5.2,1.8-6.5,2.6c-1.1,0.6-2.2,1.3-3.3,1.6c-2.2,0.8-5.1,0-7.7,0.5c-0.5,0.1-1.2,0.5-1.9,0.7c-0.3,0.1-0.8,0.1-1.2,0.2 c-1.2,0.3-1.5,0.7-2.3,0.9c-1.1,0.3-2.3,0.2-3.3,0.5c0,0.4,0,0.8-0.5,0.7c-0.4-0.1-0.2-0.7-0.9-0.5c-1.5,0.4-3.1,1.2-4.7,1.6 c-1.4,0.4-2.3,0.2-3.5,0.2c-0.9,0-1.8,0.5-2.6,0.7c-0.4,0.1-1,0.1-1.4,0.2c-0.5,0.2-0.6,0.6-1.2,0.7c-1.6-0.6-2.6,0.5-4,0.9 c-0.5,0.2-1,0.3-1.6,0.5c-0.5,0.2-1.2,0.4-1.6,0.5c-0.8,0.1-1.4-0.4-2.1,0.2c-1-1-3.2-0.2-4,0.5c-0.9-0.5-2.7-0.1-4-0.2 c0,1.3-0.8,1.8-1.4,2.6l0.1,0.4l-0.1,0.4c0.3,0.3,0.3,0.8,0.2,1.4c-1.2,0.2-1-0.8-0.7-1.4c0.1,0,0.2,0,0.2,0l-0.1-0.4l0.1-0.4 c-0.2-0.8,1-0.9,0.2-1.6c-1-0.2-0.4,1.1-1.4,0.9c-0.2,0.6-0.9,0.8-1.4,1.2c-0.6,1.4-0.5,3.4-0.7,5.1c1.5-0.2,2.3,0.4,3.7,0.2 c0.7-0.1,0.3-1.2,1.4-0.9c0.5,0.3,0.8,0.7,0.9,1.4c1.1-0.1,2.1,0.4,3.3,0.5c1.8,0.1,3.9-0.3,4.9-0.2c0.3,0,0.6,0.4,0.9,0.5 c1.5,0.4,2.5,0.4,3.5,0c0.8,0.9,2.2,1.1,4,1.2c2.2,0.1,3.5-0.1,4.4-0.7c0.8,0.7,2.3,0,3.7,0c0.7,0,1.4,0.3,2.1,0.2 c0.6-0.1,0.9-0.4,1.4-0.5c0.9,0.7,2.4,0.7,4,0.7c0.5-0.8,0.6-2.1,1.9-2.1c0.1,0.7,0.3,1.2,0.5,1.9c1.6-0.1,3.7,0.3,4.7-0.5 c0.4,0.4,1.5,0.2,2.3,0.2c0.6-0.3,0.8-0.9,1.6-0.9c0.7,0.2,0.4,1.3,1.4,1.2c2,0.1,3.6-0.3,5.1-0.7c1.9,0.8,5,0.5,6.6,0 c1.8,1.1,3.4-0.1,5.6-0.2c0.6-0.4-0.3-2.3,0.9-2.1c-0.1,0.8,0.2,1.1,0.2,1.6c3.3-0.1,6.3-0.2,10.5-0.2c0.5-0.1,0.4-0.8,1.2-0.7 c2.6,1.1,5.5-0.7,8.9-0.2c0.4,0.3,0.6,0.9,1.4,0.9c0.3,0,0.5-0.1,0.7-0.2l-0.1-0.4l0.3-0.1c0-0.2,0.2-0.3,0.5-0.2l0.2,0.1l0.2,0.1 c0.5-0.8,1.8-0.9,3-0.7c0.3,0,0.3,0.4,0.7,0.5c0.4,0.1,1.1-0.1,1.4,0c0.5,0.1,0.5,0.7,0.9,0.5c1.1-0.5,3.2-1.1,4.7-0.5 c0.3-0.9,1.8-0.5,2.6-0.7c1-0.3,2.2-1,2.3,0.2l0.2-0.1l0.2,0.1c0.6-0.4,0.8,0.1,1.6,0c1.8-0.1,4.1-1,5.8-0.5c0.5,1.3,0,2.8,0.2,4.2 c0.1,0.9,1,1.6,0.5,2.3c0.4,0.3,0.8,0.6,0.9,1.2c-0.1,0.4-0.2,0.9-0.2,1.4c0,1,0.7,3.5,0.7,4.2c0,0.1-0.3,0.1-0.2,0.5 c0.1,0.7,0.8,1,0.7,1.6c-0.1,0.4-0.7,0.4-0.5,1.2c0.7,0.7,0.4,1.8,0.7,2.3c0.3,0.6,0.8,1.5,0.7,2.1c0.5,0.3,1.2,0.4,1.2,1.2 c-0.1,0.6-0.7,0.7-0.7,1.4c0.8,0,0.2,0.6,0.2,0.9c0,0.2,0.5,0.6,0.5,0.9c0,0.3-0.3,0.3-0.2,0.7c0.1,0.6,0.4,0.6,0.5,1.2 c0,0.6-0.2,1.4-0.2,2.1c-0.1,0.6,1.1-0.1,0.7,0.7c0.3,1,0.1,1-0.2,1.9c0.3,0.6,0.4,1.4,0.5,2.3c0.2,0.3,0.9,0.1,0.7,0.7 c0.5,0.5-0.3,0.7-0.2,1.4c0.5,3,1.8,6.2,2.1,8.9c0.1,1.2,0.2,1.6,0.5,2.3c0.4,1.2,0.2,1.8,0.9,2.3c-0.6,1.3,0.5,1,0.7,2.1 c-0.5,1.1,0,2.2,0.2,3.5c0.3,1.7,0.6,2.7,0.9,3.7c0.6,2.2,0.8,4.2,1.9,5.6c-0.2,1.9,1.2,2.2,1.4,3.7c0,0.8-0.8,0.8-0.9,1.4 c0.4,0,0.2,0.8,0.7,0.7l0.1-0.4l0.4,0.1c0.2,0,0.3,0,0.5,0c0,0.2,0,0.3,0,0.5c-0.2,0-0.3,0-0.5,0l-0.1,0.4l-0.3-0.1 c0.4,1.1,0.5,1.9,0.7,2.8c0.3,1.2,0.7,1.7,0.9,2.6c0.2,0.6,0,1.3,0.2,1.9c0.1,0.4,0.6,0.9,0.7,1.4c0.2,0.6,0.2,1.2,0.2,1.9 c0.9,0.9,1.2,2.5,1.6,4c0.6,0.4,0.9,0.9,1.4,1.4c0.8,1.1,0.6,2.8,0.9,3.5c0.1,0.2,0.1,0.4,0.2,0.7c0.4,1,1.3,1.6,1.4,2.6 c0.4,0,0.8,0,1.2,0c-1.7,1.1,0,2.5,0.2,4.2c0.2,0.5,1.3-0.1,1.4,0.5c0.1,0.7-0.7,0.5-0.5,1.4c0.6,1.2,0.8,2.8,1.6,3.7 c-0.1,1.3,0.8,2.4,1.2,3.5c0.1,0.3-0.1,0.7,0,0.9c0.1,0.3,0.3,0.6,0.5,0.9c0.4,1.1,1,1.9,1.4,2.8c0.1,0.2-0.1,0.5,0,0.7 c0,0.1,0.4,0.1,0.5,0.2c0.1,0.2-0.1,0.5,0,0.7c0,0.1,0.4,0.1,0.5,0.2c0.3,0.7,0.7,1.3,0.9,1.9c0.1,0.3,0.1,0.8,0.2,1.2 c0.1,0.3,0.3,0.6,0.5,0.9c0.8,2.3,1.5,4.2,2.3,6.3c0.6,0.2,1.2,0.4,1.6,0.7c0,0.7-0.8,0.5-0.5,1.4c0,0.6,0.9,0.3,0.9,0.9 c0.7,2.4,2.2,3.9,2.6,6.5c0.5,0.3,0.8,0.8,0.9,1.4c-0.1,2.6,1.9,3.3,2.3,5.4c0.1,0.4,1.1,0,1.2,0.5c0.1,0.6-0.4,0.5-0.2,1.2 c0.6,0.4,0.4,1.1,0.7,1.6c0.3,0.6,0.7,1.1,0.9,1.6c0.1,0.4,0.1,0.8,0.2,1.2c0.6,2,1.8,3.5,2.8,4.9c0.4,0.6,0.9,1.2,1.4,1.9 c2,2.8,3.5,6.8,5.6,9.1c0.3,1.1,1.2,1.6,1.4,2.8c0.3,0.3,1.2,0.1,1.2,0.7c-0.5,0.5,0,0.8,0.2,1.2c0.1,0.2,0.1,0.5,0.2,0.7 c0.4,0.6,1.4,0.6,1.6,1.2c0,0.4-0.3,0.5-0.2,0.9c2.3,2.6,4.7,5.1,6.1,8.7c1.3,0.1,1.3,1.5,2.1,2.1c0.1,0.8-0.4,0.7,0,1.2 c1.2,1.2,2,2.9,3.3,4c0.2,0.6,0.8,0.9,0.9,1.6c0.6,0.1,1.7-0.3,1.9,0.2c0.2,0.9-0.6,0.7-0.5,1.4c0.7,1,1.2,2.1,1.9,3 c0.8,0,1.2-0.5,1.6,0.2c-0.3,0.9,0.1,1.3,0,2.6c1.6,1.6,2.9,3.4,4.4,4.9c0.7,0.4,0.5,1.7,1.9,1.4c0.2-2.4-0.9-3.5-1.2-5.4 c-0.2-0.5-0.9-0.7-1.2-1.2c0.5-0.5-0.3-1-0.5-1.6c-0.9-0.3-1.9,0.5-2.1,0c-0.1-1.1,1.2-0.8,1.2-1.9c-0.5-0.9-1.2-1.6-1.6-2.6 c-0.8,0.1-2.1,0.7-1.9-0.7c0-0.5,0.8-0.1,1.2-0.2c-0.2-1.6-1.4-2.3-1.6-4c-0.3-0.3-1-0.3-1.2-0.7c0-0.6,0.4-0.7,0.2-1.4 c-0.7-0.8-0.9-1.9-1.4-2.8c-0.5-1-1.1-1.8-1.6-2.8c-0.2-0.3-0.1-0.8-0.2-1.2c-0.2-0.4-0.7-0.8-0.9-1.2c-0.3-0.6-0.2-1.1-0.5-1.6 c-0.5-1-1.1-1.9-1.4-3c-0.7,0.1-0.8-0.4-1.2-0.7c-0.1-0.6,0.4-0.5,0.2-1.2c-0.9-1-1.6-2.3-1.9-4c-0.4,0-0.9,0.1-0.9-0.2 c0.1-0.8,0.6-0.6,0.2-1.4c-0.5-1.6-1.5-2.7-1.4-4.9c-0.8-0.9-1-2.2-1.9-3c0.6-1.2-0.9-2.1-0.9-3.5c-0.5,0.1-0.9-0.1-0.9-0.5 c0.6-1-0.2-2.1-0.2-3.5c0-1.2,0.4-2.4,0.2-3.5c-0.3-1.2-1.1-2-1.9-2.3c-0.2-0.9,0.3-1.1,0.2-1.9c-0.5-0.8-0.6-2-1.4-2.3 c0.1-1.7-0.7-3.5-1.2-5.4c-0.5-2-1-3.9-1.6-5.6c-0.3-0.6-1-0.8-1.4-1.4c0.2-1.7-1-2.5-1.2-3.7c-0.1-0.6,0.2-1.4,0.2-2.1 c0-1.6-1.6-5.3-0.9-5.8c0.2-0.1-0.2-0.3-0.2-0.2c0-0.4-0.1-0.8,0-1.2c0.2-1.3,1.9-1.9,2.1-3c0.2-1.5-1.2-3.1-1.6-4.7 c-0.2-0.6,0.1-1.1,0-1.6c-0.2-0.8-0.7-1-0.9-1.9c0.4-2.3-0.8-3.1-0.7-5.1c-0.2-0.6-0.8-0.9-0.9-1.6c0-0.6,0.4-0.5,0-0.9 c-0.9-1.6-1.4-3.5-2.1-5.4c-0.4-0.3-1-0.3-1.2-0.7c-0.2-0.9,0.6-0.7,0.5-1.4c-0.7-1.3-1-2.9-0.9-4.9c-0.3-0.7-0.9-1.2-0.9-2.1 c-0.1-0.9,0.4-1.3,0.2-2.3c-0.3-0.4-0.8-0.5-0.7-1.2c0.2-0.6,1.3-0.4,0.9-1.6c0.3-1-0.9-0.5-0.7-1.4c0.6-1.6-1.2-2.6-0.9-4.7 c-0.5-0.1-1-0.2-1.2-0.7c0.5-0.5,0.1-1.2,0.2-1.9c0.1-0.6,0.5-0.6,0.5-1.4c-0.1-1.5-0.9-2.4-2.3-2.8c-0.3-0.9,0.9-0.4,0.7-1.2 c-0.6-2.1-1-4.5-1.6-6.5c-0.7-0.3-1.1-0.8-1.6-1.2c0-0.7,0.6-0.8,0.7-1.4c-0.3-0.3-0.7-0.6-0.7-1.2c-0.1-1.3,0-2.4-0.2-3.7 c-0.2-1-0.8-1.9-0.9-2.8c-0.1-0.8,0.1-1.6,0-2.3c-0.2-1.5-1.2-2.9-1.4-4.4c-0.1-0.7,0.1-1.6,0-2.3c-0.3-1.6-1.6-3.1-1.4-4.9 c-0.2-0.4-0.9-0.4-0.9-0.9c0.4-1.2-0.7-1-0.7-1.9c1.2-1.9-0.7-3.6-0.9-5.6c-0.1-1.1,0.6-2.1,0-3.3c-0.5-0.3-1.5-0.3-1.4-1.2 c0.2-0.8,0.8-1,0.9-1.9c0.3-1.9-1.1-2.6-1.4-4c-0.1-0.4,0.2-0.9,0.2-1.2c0-1.2-0.4-1.8-0.9-2.6c0.4-0.6,0-1.5,0-2.3 c0-1.3,0.7-2.8-0.2-3.7c0.3-1.2,0.6-2.7,0.2-4c0.2,0,0.3-0.2,0.2-0.5c0.5-0.3,1-0.6,1.9-0.5c0.5-0.1,0.4-0.8,1.2-0.7 c1.3,0.4,1.9,0,3-0.2c3.2-0.7,6-1.1,8.9-1.6c1.2-0.2,2.4-0.7,3.5-0.9c0.9-0.2,1.2,0,1.9-0.2c0.9-0.3,1.8-0.7,2.6-0.9l-0.1-0.4 l0.4-0.3c-0.2-0.3-0.3-0.6-0.2-1.2c0.4,0,0.7,0,0.9,0.2c0,0.2,0,0.5,0,0.7l0.4,0.3l-0.1,0.4c1.1,0.1,1.3-0.5,2.3-0.5 c0.4-0.4,0.1-1.3,0.9-1.2c2.3,1.1,4.7-1,7.5-0.9c0.1-0.6-0.9-2,0.2-2.1c0.8-0.1,0.3,0.8,0.5,1.2c0.2,0.6,0.5,0.8,0.7,1.2 c1.7,0.1,2.5-0.7,3.3-1.4H704v-0.2c-0.4-0.1,0-0.3,0.5-0.2l0.1-0.3l0.1,0.3c2-1.1,4.6-1.7,7.3-2.1c0,2.2,0.7,4,1.2,6.3 c0.4,0.1,1,0.1,0.9,0.7c0.2,1.1-0.3,1.4-0.5,2.1c0.5,1.6,0.3,3.2,0.5,4.9c0.1,1.3,0.5,2.7,0.7,4c0.1,0.9,0.2,1.9,0.2,2.8 c0.1,0.8,0.2,1.9,0.2,2.6c0,0.4-0.3,0.8-0.2,1.2c0.1,1.4,0.4,3,0.5,4.4c0,0.6-0.2,1.2-0.2,1.9c0,0.7,0.3,1.2,0.2,1.9 c0,0.4-0.3,0.8-0.2,1.2c0,0.8,0.5,1.5,0.5,2.3c0,0.9-0.3,1.9-0.5,2.8c0.5,0.5,0.4,1.5,0.9,1.9c-0.9,0.7-0.6,1.3-0.2,2.3 c0,0.6-0.7,0.5-0.7,1.2c0,2,0.2,3.4,0,5.4c-0.3,2.5-0.8,5.5-0.9,7.5c-0.1,1.4,0,2.3-0.2,3c-0.2,0.5-0.6,0.7-0.7,1.2 c-0.3,1.1,0,2.1-0.2,3c-0.2,0.6-0.7,1-0.7,1.6c-0.1,1,0.1,1.9,0.5,2.8c0,0.7-1.1,0.3-0.9,1.2c-0.4,0.9-0.3,1.8-0.5,2.8 c-0.1,0.7-0.5,1.4-0.7,2.1c-0.2,0.8-0.3,1.6-0.5,2.3c-0.2,0.8-0.6,1.6-0.7,2.1c-0.3,1.5-0.2,3.1-0.5,4.4c-0.1,0.5-0.3,0.9-0.5,1.4 c-0.3,1.1-0.7,1.9-0.9,2.8c-0.3,0.9-0.3,1.8-0.5,2.8c-0.1,0.6-0.7,1-0.9,1.6c-0.1,0.4,0.1,0.8,0,1.2c-0.1,0.3-0.5,1-0.7,1.4 c-0.2,0.5-0.7,1.1-0.2,1.6c1.3,0.2,1.3-0.9,2.1-1.2c0.4,0.2,0.6,0.7,1.4,0.5c0.4-0.3,0.9-0.7,1.4-0.9c0.5-0.3,1.2-0.4,1.6-0.7 c0.5-0.4,0.8-1.1,1.4-1.6c0.8-0.8,1.4-1.4,1.9-2.1c0.4-0.6,1.2-1.3,0.9-2.1c0.6-0.6,1-1.5,0.9-2.8c1.1-0.9,1.6-2.4,1.9-4.2 c-0.5-0.5-1.3,0.6-1.4-0.5c0.4-0.9,1.3,0.1,1.9-0.7c0.3-0.7,0.3-1.2,0-1.9c0.8-0.3,0.7-1.5,0.7-2.6c1.2-1.3,1.7-3.3,1.6-5.8 c1.2-2.4,3.5-4.8,2.8-8.4c0.6-1.4,1.1-2.8,1.4-4.4l-0.4,0.1l-0.3-0.4c-1.2,0.2-1.2-0.7-1.2-1.6c0.3,0,0.6,0,0.9,0 c0.1,0.5,0.4,0.9,0.2,1.6l0.4-0.1l0.3,0.4c0.2,0,0.2-0.2,0.2-0.5c0.3-2.1,0.6-5,0.7-8c0.2-0.7-0.6-0.4-0.5-1.2c1.1-1,0.8-2.2,0.9-4 c0.1-1.4,0.7-3.1,0.7-4.4c0-0.6-0.3-1.3-0.2-1.9c0-0.5,0.4-1,0.5-1.6c0.3-1.5,0.5-3.1,0.2-4c0.8-1.1,0.1-2.6,0.2-4 c0.1-0.5,0.6-0.9,0.7-1.4c0.5-1.8-0.3-3.1,0.2-4.4c-0.2-0.7-0.9-0.8-0.7-1.9c-0.3-0.9,0.9-0.4,0.7-1.2c0-3.1-0.3-5.7,0.2-8.7 c-0.1-0.6-0.8-0.4-0.7-1.2c0.6-0.1,0.4-0.7,0.5-0.9c0.4-2.9-0.4-6.1-0.5-8.9c0.1-0.4,0.7-0.2,0.5-0.9c-0.1-1-0.4-1.6-0.7-2.3 c0.4-0.8,0.5-1.8,0.5-3c1.2-1,2.9-1.6,4.7-2.1c0.1-0.3-0.3-1.2,0.2-1.2c0.8-0.2,0.9,0.5,1.6,0.5c1-0.7,2.1-1.2,3.3-1.6 c0.1-0.5-0.3-1.5,0.2-1.6c1.2-0.3,1,0.7,1.9,0.7c2-0.8,3.7-2,5.8-2.1c1-1.2,3.1-1.2,4.2-2.3c-0.3-0.4-0.8-0.7-0.7-1.6 c0.5-0.3,1-0.6,1.9-0.5c0,1-1.2,0.7-0.9,1.9c2.3-0.6,3.7-2,5.8-2.8c0.5-0.1,0.1-1,0.7-0.9c0.5,0,0.9,0,1.4,0 c0.4-0.8,1.6-0.9,2.1-1.6c2-0.4,2.9-1.9,4.9-2.3c0.3-0.5,0.3-1.5,0.9-1.6c0.7-0.1,0.5,0.7,1.4,0.5c2.4-1.7,4.7-3.4,7.3-4.9 c-0.3,0-0.3-0.7,0-0.7c0.5-0.5,0.9,0.1,1.6,0c1.9-1,3.2-2.5,5.1-3.5c0.2-0.6-0.7-1.3,0-1.6c0.9-0.1,1,0.6,1.6,0.7 c1.1-1.1,2.7-1.7,3.7-2.8c0-0.7-0.5-1.3,0-1.9c0.8-0.1,1.1,0.2,1.6,0.2c0.8-0.7,1.4-1.3,2.3-1.9c0.5-0.3,1.2-0.4,1.6-0.7 c1.5-1.1,2.1-2.9,3.7-3.7c-0.3-1.9,1-2.3,1.2-3.7c0.4,0,0.5,0.3,0.9,0.2l-0.1-0.4l0.3,0.1c0.8-0.8,1,0.4,1.6,0.5 c0.5-0.4,0.1-0.9,0-1.4c0.4-0.2,0.6-0.7,1.4-0.5c0.3-1.4,1.6-2,2.8-2.6c0.3-1.5,1.9-1.7,1.6-3.7c0.3-0.2,0.9-0.2,1.2-0.5 c0.3-2.3,1.8-3.4,3-4.7c0.3-1.5,1.3-2.1,1.9-3.3c0.4-0.5,1.3-0.4,1.4-1.2C814.7,154.9,814.3,154.5,814,154z M688.1,151.4 c0-0.4-0.3-0.5-0.2-0.9c0.4,0.1,1.4-0.3,1.4,0.2C689.4,151.4,688.5,151.2,688.1,151.4z M690.5,167.3c0-0.2,0-0.3,0-0.5 c0.5-0.1,0.7,0,0.7,0.5C690.9,167.3,690.7,167.3,690.5,167.3z M694,173.4c0-0.3,0-0.6,0-0.9c0.2,0,0.5,0,0.7,0 C694.6,172.9,694.6,173.4,694,173.4z M695.6,175.5c-0.2,0-0.5,0-0.7,0c0-0.2,0-0.5,0-0.7c0.2,0,0.5,0,0.7,0 C695.6,175,695.6,175.2,695.6,175.5z M529.3,239.3c-0.5,0-0.8-0.2-0.7-0.7c0.2,0,0.5,0,0.7,0C529.3,238.9,529.3,239.1,529.3,239.3z M538.4,235.4c-0.1-0.8,0.3-1.1,0.5-1.6C539.3,234,539.2,235.7,538.4,235.4z M576.7,243.1c0-0.2,0-0.5,0-0.7 C577.4,242,577.4,243.4,576.7,243.1z M580.2,225.5c0-0.2,0-0.3,0-0.5c0.3,0,0.6,0,0.9,0C581.4,225.8,580.7,225.5,580.2,225.5z M581.2,242.4c0-0.3,0-0.6,0-0.9c0.3,0,0.6,0,0.9,0C582.2,242.2,581.9,242.5,581.2,242.4z M588.4,223.9c-0.1,0.4-0.3-0.1-0.2-0.5 C588.3,223,588.5,223.6,588.4,223.9z M597.8,222.3c-0.1,0-0.3,0-0.5,0c0-0.2,0-0.3,0-0.5c0.2,0,0.3,0,0.5,0 C597.8,222,597.8,222.1,597.8,222.3z M609.7,238.4c-0.2,0-0.3,0-0.5,0c0-0.2,0-0.3,0-0.5c0.2,0,0.3,0,0.5,0 C609.7,238.1,609.7,238.3,609.7,238.4z M611.6,239.8c-0.9,0.2-0.9-1.1,0-0.9C611.6,239.2,611.6,239.5,611.6,239.8z M618.6,218.3 c-0.2,0-0.3,0-0.5,0c0-0.2,0-0.3,0-0.5c0.2,0,0.3,0,0.5,0C618.6,218,618.6,218.1,618.6,218.3z M622.1,217.1c-1,0.2-0.6-1.1-0.7-1.9 C622.4,215.1,622.6,216.5,622.1,217.1z M622.6,218.1c0-0.2,0-0.3,0-0.5c0.5-0.1,0.7,0,0.7,0.5C623.1,218.1,622.8,218.1,622.6,218.1 z M626.6,239.6c-0.2,0-0.5,0-0.7,0c-0.1-0.4,0.2-0.4,0.2-0.7c0.2,0,0.3,0,0.5,0C626.6,239.1,626.6,239.3,626.6,239.6z M634.5,213.4 c0.6-0.1,1,0.1,0.9,0.7C634.9,214.1,634.3,214.2,634.5,213.4z M637.6,212.7c0-0.2,0-0.5,0-0.7C638.3,211.6,638.3,213,637.6,212.7z M643.9,161.7c-0.2,0-0.3,0-0.5,0c0-0.2,0-0.3,0-0.5c0.2,0,0.3,0,0.5,0C643.9,161.4,643.9,161.5,643.9,161.7z M651.9,310 c0-0.2,0-0.3,0-0.5c0.5-0.1,0.7,0,0.7,0.5C652.3,310,652.1,310,651.9,310z M654.2,310.9c0.5-0.1,0.7,0,0.7,0.5c-0.2,0-0.5,0-0.7,0 C654.2,311.2,654.2,311.1,654.2,310.9z M654.4,317.9c0-0.2,0-0.3,0-0.5c0.3,0,0.6,0,0.9,0C655.6,318.2,654.8,317.9,654.4,317.9z M657.2,176.9c0.6-0.1,1,0.1,0.9,0.7C657.6,177.7,657,177.7,657.2,176.9z M658.2,182.3c0,0.2,0,0.5,0,0.7c-0.2,0-0.5,0-0.7,0 c0-0.2,0-0.5,0-0.7C657.7,182.3,657.9,182.3,658.2,182.3z M659.3,197c-0.2,0-0.3,0-0.5,0c0-0.1,0-0.2,0-0.2l-0.4,0.1l-0.4-0.1 c-0.4,0-0.2,0.6-0.7,0.5c0.2-0.7-0.3-0.6-0.2-1.2c0.4,0,0.7,0,0.9,0.2c0,0.1,0,0.2,0,0.2l0.4-0.1l0.4,0.1c0.2,0,0.3,0,0.5,0 C659.3,196.7,659.3,196.8,659.3,197z M711.3,426.7c0.2,0,0.3,0,0.5,0c0,0.2,0,0.3,0,0.5c-0.2,0-0.3,0-0.5,0 C711.3,427,711.3,426.9,711.3,426.7z M709.4,422.5c0.1,0.6-0.1,1-0.7,0.9C708.6,422.8,708.8,422.4,709.4,422.5z M701.4,411.5 c0.5-0.1,0.7,0,0.7,0.5c-0.2,0-0.5,0-0.7,0C701.4,411.8,701.4,411.7,701.4,411.5z M698.2,407.5c0,0.6,0,1.2,0,1.9 C696.4,409.9,696.7,407.1,698.2,407.5z M693,392.3c0,0.6-0.3,0.9-0.9,0.9c-0.2-0.2-0.3-0.5-0.2-0.9 C692.2,392.3,692.6,392.3,693,392.3z M688.6,392.6c0.7-0.2,0.4,0.5,0.5,0.9c-0.2,0-0.5,0-0.7,0C688.2,393,688.5,392.9,688.6,392.6z M687.4,369.6c-0.5,0.9,0.5,0.7,0.2,1.9C686.7,371.9,686.6,369.5,687.4,369.6z M686,363.1c-0.1,0.5-0.2,1.1-0.9,0.9 C685.3,363.7,685.3,363,686,363.1z M681.6,334.8c0.5-0.1,0.6,0.2,0.9,0.2c0.1,0.5-0.2,0.6-0.2,0.9c-0.4,0-0.5-0.3-0.9-0.2 C681.3,335.3,681.6,335.2,681.6,334.8z M680.4,377.4c0.4,1.2-1.6,1.3-1.4,0.2C679.5,377.6,679.7,377.2,680.4,377.4z M678.3,373.2 l-0.1-0.4l0.4,0.1c0-0.4,0.2-0.5,0.7-0.5c0,0.3-0.1,0.5-0.2,0.7c-0.2,0-0.3,0-0.5,0l0.1,0.4l-0.3-0.1c0,0.3,0,0.6,0,0.9 c-0.4,0-0.8,0-1.2,0C676.9,373.4,677.5,373.1,678.3,373.2z M675.7,304.4c-1,0.2-1.3-0.4-1.4-1.2 C675.1,302.8,675.9,303.2,675.7,304.4z M674.1,365.9c0.2,0,0.5,0,0.7,0c0,0.2,0,0.5,0,0.7c-0.2,0-0.5,0-0.7,0 C674.1,366.4,674.1,366.1,674.1,365.9z M671.7,287.5c0,0.3,0,0.6,0,0.9c-0.9,0.2-1.1-0.3-1.2-0.9 C671,287.5,671.3,287.5,671.7,287.5z M670.1,284.3c0.5-0.1,0.7,0,0.7,0.5c-0.2,0-0.5,0-0.7,0C670.1,284.6,670.1,284.4,670.1,284.3z M663.3,253.1c0.2,0,0.3,0,0.5,0c0.1,0.4-0.2,0.4-0.2,0.7c-0.2,0-0.3,0-0.5,0C663,253.5,663.3,253.4,663.3,253.1z M664,261.8 c-0.2,0-0.3,0-0.5,0c0-0.2,0-0.3,0-0.5c0.2,0,0.3,0,0.5,0C664,261.5,664,261.6,664,261.8z M667.8,270.5c-0.6,0.1-0.8-0.3-0.7-0.9 c0.2,0,0.5,0,0.7,0C667.8,269.8,667.8,270.1,667.8,270.5z M667.3,267.2c0,0.2,0,0.5,0,0.7c-0.5,0-0.8-0.2-0.7-0.7 C666.8,267.2,667.1,267.2,667.3,267.2z M667.3,346c0.3,1-1.7,1-1.4,0C666.6,346.1,666.8,345.5,667.3,346z M665.7,271.2 c0.2,0,0.3,0,0.5,0c0,0.2,0,0.3,0,0.5c-0.2,0-0.3,0-0.5,0C665.7,271.5,665.7,271.3,665.7,271.2z M665.2,267.4 c0.3,0.8-1.3,1.1-0.9,0C664.6,267.4,664.9,267.4,665.2,267.4z M665.4,205.4c-0.2-0.4-0.8-0.4-0.7-0.9c0.3-0.3,0.6-0.3,0.9,0 C665.7,204.9,665.4,205,665.4,205.4z M667.5,205c0-0.2,0-0.5,0-0.7c0.5,0,0.7,0.2,0.7,0.7C668,205,667.8,205,667.5,205z M671,205 c0-0.2,0-0.5,0-0.7c0.5,0,0.7,0.2,0.7,0.7C671.5,205,671.3,205,671,205z M675.5,201.7c-0.2,0-0.3,0-0.5,0c0-0.2,0-0.3,0-0.5 c0.2,0,0.3,0,0.5,0C675.5,201.4,675.5,201.5,675.5,201.7z M685.3,201c0.3-0.2,0.6-0.3,1.2-0.2C686.8,201.5,685.1,201.9,685.3,201z M686.9,225.8c-0.2,0-0.5,0-0.7,0c0-0.2,0-0.5,0-0.7c0.2,0,0.5,0,0.7,0C686.9,225.3,686.9,225.5,686.9,225.8z M694.2,196.1 c0.2,0,0.5,0,0.7,0c0,0.2,0,0.5,0,0.7c-0.2,0-0.5,0-0.7,0C694.2,196.5,694.2,196.3,694.2,196.1z M694.9,198.9c0-0.2,0-0.3,0-0.5 c0.5-0.1,0.7,0,0.7,0.5C695.4,198.9,695.1,198.9,694.9,198.9z M698.9,196.8c0.4-0.4,1.4-0.7,1.4,0.2 C699.6,197.2,699.4,196.8,698.9,196.8z M700.7,149.7c-0.5,0-0.7-0.2-0.7-0.7c0.2,0,0.5,0,0.7,0 C700.7,149.3,700.7,149.5,700.7,149.7z M704,153c0-0.2,0-0.3,0-0.5c0.5-0.1,0.7,0,0.7,0.5C704.5,153,704.3,153,704,153z M714.1,223.9c-0.4,0-1.2,0.2-0.9-0.5c0.2-0.2,0.5-0.3,0.9-0.2C714.1,223.4,714.1,223.7,714.1,223.9z M714.5,165 c-0.6-0.2-1.2-0.4-1.6-0.7c-0.1-0.9,1.3-0.3,1.9-0.5C715,164.4,714.4,164.4,714.5,165z M713.8,307.4c-0.2,0-0.3,0-0.5,0 c0-0.2,0-0.3,0-0.5c0.2,0,0.3,0,0.5,0C713.8,307.1,713.8,307.3,713.8,307.4z M715.2,292.9c0-0.2,0-0.5,0-0.7 c0.3-0.2,0.6-0.3,1.2-0.2C716.6,292.8,716,293,715.2,292.9z M716.6,240.7c-0.2,0-0.3,0-0.5,0c-0.1-0.4,0.2-0.4,0.2-0.7 c0.2,0,0.3,0,0.5,0C716.9,240.4,716.7,240.4,716.6,240.7z M719,244.5c-0.5,0.1-0.9,0-1.2-0.2c0.3-0.7,0.4-1.6,1.6-1.4 c0.1,0.5-0.4,0.3-0.5,0.7c0,0.8,0.6,1.1,0.7,1.9C719.1,245.5,718.9,245.1,719,244.5z M721.6,179c-0.2,0-0.5,0-0.7,0 c-0.1-0.4,0.2-0.4,0.2-0.7c0.2,0,0.3,0,0.5,0C721.6,178.5,721.6,178.8,721.6,179z M725.3,222.3c-0.2,0-0.2,0.1-0.2,0.2 c-0.8-0.7,1.3-0.6,0.7,0.5C725.3,223.1,725.3,222.6,725.3,222.3z M725.5,268.6c-0.1-0.6,0.3-0.8,0.9-0.7 C726.5,268.5,726.1,268.7,725.5,268.6z M727.6,252.2c-0.2,0-0.5,0-0.7,0c0-0.3,0-0.6,0-0.9C727.6,251.2,727.7,251.6,727.6,252.2z M731.6,180.2c0.2-0.2,1.3-0.5,1.4,0C733.1,181,731.6,181,731.6,180.2z M734.9,210.6c-0.6,0.2-0.5-0.5-0.9-0.5 c0-0.4,0.3-0.5,0.2-0.9C735,209.1,735.3,210.1,734.9,210.6z M737.7,177.6c-0.1,0-0.3,0-0.5,0c0-0.2,0-0.3,0-0.5c0.2,0,0.3,0,0.5,0 C737.7,177.3,737.7,177.4,737.7,177.6z M749.9,173.6c0-0.2,0-0.3,0-0.5c0.5-0.1,0.7,0,0.7,0.5C750.3,173.6,750.1,173.6,749.9,173.6 z M755.7,171.5c0-0.2,0-0.3,0-0.5c0.5-0.1,0.7,0,0.7,0.5C756.2,171.5,756,171.5,755.7,171.5z M769.3,193.7 c-0.8,0.1-1.1-0.3-1.2-0.9c0.3-0.3,1.3-0.3,1.6,0C769.9,193.4,769.3,193.3,769.3,193.7z M782.4,183.7c-0.1,0-0.2,0-0.2,0l0.1,0.4 l-0.4-0.1c-0.1,0.3-0.3,0.5-0.7,0.5c0-0.3,0.1-0.6,0.5-0.5l-0.1-0.4l0.4,0.1c0-0.2,0-0.3,0-0.5c0.2,0,0.3,0,0.5,0 C782.4,183.4,782.4,183.5,782.4,183.7z M784.3,159.1c0.2,0.4,0.6,0.6,0.7,1.2C784,160.6,784.3,159.7,784.3,159.1z M791,157.2 c0.2,0,0.3,0,0.5,0c0,0.2,0,0.3,0,0.5c-0.2,0-0.3,0-0.5,0C791,157.5,791,157.4,791,157.2z M793.4,178.8c-1.2,0.1-1.4-0.8-2.6-0.7 c-0.3-0.9,0.7-0.4,0.5-1.2c0.4,0,0.8,0,1.2,0C792,178.3,793.6,177.6,793.4,178.8z M800.2,157.7c0-0.2,0-0.3,0-0.5 c0.5-0.1,0.7,0,0.7,0.5C800.6,157.7,800.4,157.7,800.2,157.7z M809.8,158.2c-0.2,0-0.5,0-0.7,0c0-0.2,0-0.5,0-0.7 c0.2,0,0.5,0,0.7,0C809.8,157.7,809.8,157.9,809.8,158.2z"></path> <path class="st0" d="M620.7,93.8c0.2,1.5,0.9,3.6,1.2,4.9c0.3,1.5,0.6,2.3,0.9,3.3c0.5,1.8,0.9,3.4,1.4,4.9c0.3,0,0.9-0.1,0.9,0.2 c-0.4,0-0.6,0.2-0.7,0.5c0.5,1.4,1.3,3.1,1.9,4c0.5,0.8,0.9,1.2,1.4,1.9c0.2,0.3,0.3,0.6,0.5,0.9c0.7,1.2,1.2,1.3,2.1,2.3 c0.2,0.2,0.2,0.7,0.5,0.9c0.4,0.5,0.9,1.1,1.6,1.2c0.4,1,1.1,1.7,2.1,2.1c0.5-0.1,1-0.5,1.4,0c0.2,0.7-0.4,0.7-0.2,1.4 c0.9,0.7,1.6,1.5,2.8,1.9c0.7,0,0.8-0.9,1.4-0.2c0.1,0.6-0.4,0.5-0.2,1.2c1.3,0.7,2.2,1.8,4,2.1c0.2,0.9,1.3,1.1,1.9,1.4 c0.3,0.2,0.5,0.6,0.7,0.7c0.6,0.3,1.6,0.2,1.9,0.9c1.3-0.2,1.9,0.4,3,0.5c0.3,0.4,0.5,0.9,1.2,0.9c1.2-0.1,1.8,0.4,3,0.2 c0,0.3,0.1,0.5,0.2,0.7c1.4,0.1,2.6,0.3,4.2,0.2c0.6-0.1,0.6-1,1.4-0.9c0.3,0.3,0.3,1,0.9,0.9c2.2,0.3,3.6-0.3,4.9-0.9 c1.1,0.5,2.5,0.1,3.7,0.2c0.5,0,0.9,0.3,1.4,0.2c1-0.1,1.8-0.9,2.8-0.9c0.7,0,1.1,0.3,1.6,0.5c0.5-0.6,1.6-0.7,2.3-1.2 c0.1-0.6,0.1-1.5,0.5-1.9c0.8,0,1.1,0.7,1.9,0.7c0.3-0.4,0.4-1.2,0.9-1.4c1.6,0.2,1.8-1,2.6-1.6c1.1-0.1,2.2-0.3,3.5-0.2 c0.7-0.5,1-1.3,2.1-1.4c0.4-0.5,0.5-1.2,1.2-1.4c0.8-0.2,1.6-0.8,2.3-1.4c0.5-0.4,1.2-0.9,1.6-1.2c0.5-0.4,0.5-0.9,0.7-1.4 c0.1-0.2,0.7-0.6,0.7-0.7c0.1-0.3-0.1-0.7,0-0.9c0.1-0.2,0.5-0.4,0.5-0.5c0.1-0.5-0.5-0.8-0.2-1.2c0.9-0.6,1.2-1.7,1.6-2.8 c0.5-0.2,0.8-0.6,1.2-0.9c0.1-1.3-0.3-1.8,0-2.8c0.6-0.6,1.3,0.5,1.4-0.5c0.6-0.5-1.2-0.5-0.9-1.4c0.5-0.3,1.2-0.4,1.6-0.7 c0.2-0.8,0.7-1.4,0.5-2.6c0.4-1,1.5-1.3,1.6-2.6c-0.1-0.8-1.3-0.6-1.4-1.4c0.7,0.2,0.6-0.3,1.2-0.2c0.1-1.8,0.6-2.8,0.2-4.4 c0.3,0,0.6,0,0.9,0c0.6-1.8,2.4-3.1,1.6-5.6c1.4-1.7,0.4-4.9-0.2-6.5c-0.5-0.6-1.4-0.7-1.9-1.4c-0.3-1.8-1.9-2.3-2.8-3.5 c-0.2-0.9-0.6-1.6-0.9-2.3c0.2-0.5,0.6-0.6,1.2-0.7c-0.7-0.9-0.7-3-1.4-3.5l-0.3,0.4l-0.4-0.1c0,0.6-0.1,1-0.5,1.2 c-0.7,0.2-0.7-0.4-1.4-0.2c0.1,1.9-2.2,2.4-1.4,4.2c-0.7,0-0.6,0.7-0.9,1.2c-0.6,1-0.8,1.5-1.2,2.6c-0.1,0.3-0.3,0.6-0.5,0.9 c-0.9,2-1.7,3.9-2.6,5.8c-0.6,1.3-1.3,2.5-1.9,3.7c-0.3,0.6-0.3,1.2-0.5,1.6c0,0.1-0.4,0.1-0.5,0.2c-0.1,0.3-0.1,0.8-0.2,1.2 c-0.2,0.4-0.9,0.6-0.5,1.2c-0.6,0-0.8,0.5-1.2,0.9c-1,1.2-2.1,3.2-3,4.2c-0.4,0.5-0.6,0.8-0.9,1.2c-0.6,0.7-0.9,1.3-1.4,1.9 c-0.4,0.4-0.6,0.8-0.9,1.2c-0.6,0.6-1.3,0.9-1.6,1.4c-0.8,1.2-2,2.1-3,2.8c0,0.4-0.3,0.5-0.2,0.9c-1.1,0.2-1.5,1.1-2.1,1.9 c-1.3,0.4-2.1,1.5-3.3,2.3c-0.1,0.1-0.4,0-0.5,0c-0.1,0-0.1,0.4-0.2,0.5c-0.3,0.2-0.6,0.2-0.9,0.5c-0.6,0.4-1,0.9-1.6,1.2 c-0.2,0.1-0.5-0.1-0.7,0c-0.1,0.1-0.2,0.4-0.5,0.5c-0.5,0.2-1,0.1-1.4,0.2c-0.1,0-0.3,0.4-0.5,0.5c-0.2,0.1-0.5,0.1-0.7,0.2 c-0.4,0.2-1.1,0.3-1.4,0.5c-0.9,0.4-1.6,1.2-2.3,1.4c-0.5,0.2-1.1-0.1-1.6,0c-0.6,0.1-0.6,0.4-1.2,0.5c-0.9-0.7-2.2-0.6-3.3-0.9 c-1.1-0.4-1.8-1.1-2.8-1.4c-0.3-1.1-1.5-1.6-2.1-2.6c-0.6-1-0.9-2.4-1.4-3.7c-0.4-1.1-1.1-2.1-1.4-3c-0.3-0.8-0.2-1.6-0.5-2.3 c-0.1-0.4-0.4-0.5-0.5-0.9c-0.3-1.4-0.3-2.9-0.5-4.4c0-0.7-1.1-0.3-0.9-1.2c0.7,0.1,0.9-0.3,1.4-0.5c0.2-1.2-1.2-0.9-0.9-2.1 c0.2-0.4,1.1,0,0.9-0.7c-0.3-2.9,1.3-4.8,0.7-7.3c0.4-0.3,0.3-0.8,0.7-1.4c0.3-0.4,1-0.8,1.2-1.2c0.1-0.2,0.1-0.8,0.2-1.2 c0.3-0.6,0.5-0.5,0.5-0.9c-0.1-0.7-0.6-0.8-0.9-1.4l-0.4,0.1l-0.4-0.1c-0.2,0-0.5,0-0.7,0c0-0.2,0-0.3,0-0.5c0.2,0,0.5,0,0.7,0 l0.4,0.1l0.4,0.1c0-0.1,0-0.2,0-0.2c0.3-0.3,0.8-0.3,1.4-0.2c0.1-0.8-0.8-0.6-0.7-1.4c0.7-0.2,1.4-0.3,2.1-0.5 c-0.1-1.7,0.9-2.2,1.4-3.3c-0.4-0.2-0.8-0.4-0.7-1.2c0.5,0,0.9,0,1.4,0c0.4-0.5,1-0.7,1.2-1.4c0.6-0.2,0.9-0.7,1.4-0.9 c-0.1-1.8,1.5-1.8,1.2-3.7c0.8-1,1.7-2,3-2.6c0.7-0.1,0.8,0.4,1.6,0.2c0.6-0.6,0.6-1.9,1.9-1.9c0-0.7,0-1.4,0.5-1.6 c0.4-0.5,1.1-0.1,1.6,0c0.4-1.3,2.3-1.2,1.9-3.5c0.9-0.4,1.8-0.8,1.9-2.1c-0.4-0.1-1.4,0.3-1.4-0.2c0.1-0.7,0.7-1,0.9-1.6 c1,0.3,1.7,0.6,2.8,0.2c0.3-0.7,0.3-1.9,1.2-2.1c0.3-0.3,0.8-0.3,1.4-0.2c0.9-2.6,4.5-2.7,5.1-5.6c2.1-1,2.4-3.7,4.4-4.7 c0.1-0.7-0.5-0.9,0-1.4c0.6-0.1,0.5,0.4,1.2,0.2c0.1-0.3,0.3-0.5,0.7-0.5c1-1.2,1.3-3,2.3-4.2c-0.2-1,0.4-1.3,0.2-2.3 c2.4-0.3,0.5-5,3.1-5.1c0.1-1.1,0.7-1.4,0.2-2.6c0.2-0.6,0.9-0.7,1.2-1.2c-0.1-2.2,0.7-4.4-0.5-5.8c0.3-0.3,0.2-1,0.2-1.6 c0.2-0.7-0.6-0.4-0.5-1.2c-0.1-0.6,0.9-0.2,0.7-0.9c-0.9-1.1-0.2-2.6-0.5-3.7c-0.1-0.4-0.5-0.9-0.7-1.2c-0.4-0.8-0.6-0.8-1.2-1.4 c-0.4-0.5-0.7-1.6-1.4-1.4l-0.1,0.4l-0.4-0.1c0,0.4-0.4-0.1,0-0.2l0.1-0.4l0.4,0.1c0.2-1.5-1.8-2.6-3-3.3c-0.8,0-0.6,1-1.4,0.9 c-0.2-0.9,0.7-0.7,0.5-1.6c-0.6-0.8-1.6-1.1-2.3-1.4c-0.1,0-0.1-0.4-0.2-0.5c-0.4-0.2-1.2-0.1-1.6-0.2c-0.8-0.3-1.6-1.1-2.8-0.7 c-1.2-0.5-1.5-1.9-3.3-1.9c0-0.7-0.2-1.4-0.9-1.4c-2-0.3-4,2.3-5.1,3.7c0.6-0.1,1.2-0.1,0.9,0.7c-0.9,0.3-0.8-0.8-1.4-0.2 c-0.3,0-0.3,0.3-0.7,0.2c-0.5,0.5-1.3,0.9-1.6,1.2c-0.2,0.2-0.2,0.1-0.5,0.2c-1.1,0.6-1.3,1.1-2.1,1.9c-0.8,0.7-1.6,1.2-2.1,1.9 c-0.7,0.8-1.6,1.5-2.1,2.1c-0.2,0.3-0.3,0.9-0.5,1.2c-0.1,0.2-0.4,0.3-0.5,0.5c-0.6,1.1-1.1,2.2-1.4,3.3c-1.2,0.9-2.3,1.9-2.8,3.5 c-0.3,0.8,0.8,0.2,0.5,0.9c-0.5,1-1.5,1.6-2.1,2.6l0.4,0.3l-0.1,0.4c0.6-0.1,0.8,0.1,0.7,0.7c-0.5,0.1-0.9-0.1-0.9-0.5l-0.4,0.1 l-0.3-0.4c-0.2,0-0.3,0.2-0.5,0.2c-0.7-0.8-1.1,0.6-1.6,0.7c-0.2,1,0.9,2.5-0.5,2.6c-0.6-0.1,0.1-1.5-0.7-1.4 c-0.3,0.6-0.6,1.2-1.2,1.6c0.3,1.2-0.2,1.9-0.2,2.6c0.1,0.5-0.5,0.2-0.7,0.9c-0.5,0.4,0.6,1.2,0.5,2.1c-0.3,0.2-0.6,0.3-1.2,0.2 c-0.1-0.9,0.7-1.9-0.5-2.1c-0.6-0.2-0.9,0.8-1.2,1.2c-0.2,0.2-0.3,0.6-0.5,0.9c-0.7,1.1-1.3,1.5-1.9,2.6c-0.8,1.3-1,2.7-0.7,4.4 c-0.2,0.5-1.3,0.3-1.6,0.7c0.5,0,0.5,0.6,0.5,1.2c-0.7,0.3-1.7,0.2-2.3,0.5c-0.7,1.4-1.4,2.6-2.1,4c0.5,0.4,1.9,1.2,1.2,2.1 c-0.9,0.1-0.9-1.3-1.6-0.7c-1.4,1.4-1.9,3.7-3.3,5.1c-0.1,0.7-0.3,1.7-0.5,1.9c-0.4,0.4-0.5,0.9-0.7,1.4c-0.3,0.6-0.8,1.5-0.9,1.9 c-0.1,0.4,0.1,0.8,0,1.2c0,0.1-0.4,0.1-0.5,0.2c-0.1,0.2-0.2,0.6-0.2,0.7c-0.1,0.3-0.1,0.5-0.2,0.7c-0.1,0.1-0.4,0.3-0.5,0.5 c-0.1,0.3,0.1,0.8,0,1.2c-0.2,0.7-1.1,1.6-0.9,2.6c-0.3,0.3-0.6,0.7-0.9,0.9c0.5,0.7-0.5,2-0.5,3l0.3-0.1l0.1,0.4 c0.7,0,1.2,0.1,1.4,0.5c0,1.2-1.2,0.5-1.6,0.2l-0.1,0.4l-0.3-0.1c-0.8,1-0.8,2.6-1.4,3.7c0.5,0,0.5,0.6,0.5,1.2 c0.1,0.6-0.9,0.2-0.7,0.9c-0.2,1.7-0.4,3.5-0.7,5.1c-1.1,0.7-1.9,2.2-1.4,3.7c0.2,0.7-0.6,0.4-0.5,1.2 C620.8,88.9,620.4,91.7,620.7,93.8z M704.9,90.1c0.6,0.1,0.8,0.6,0.9,1.2c-0.2,0.2-0.5,0.3-0.9,0.2 C704.5,91.1,704.9,90.6,704.9,90.1z M698.2,78.9c0.2,0,0.3,0,0.5,0c0,0.2,0,0.3,0,0.5c-0.2,0-0.3,0-0.5,0 C698.2,79.2,698.2,79,698.2,78.9z M696.8,83.5c0.2,0,0.3,0,0.5,0l0.1-0.4l0.1,0.4c0.3-0.3,0.6-0.3,0.9,0c0.1,0.5-0.6,1.4-0.9,0.7 l-0.3,0.1l0.1-0.3c-0.2,0-0.3,0-0.5,0C696.8,83.9,696.8,83.7,696.8,83.5z M696.5,107.4c0.5-0.1,0.7,0,0.7,0.5c-0.2,0-0.5,0-0.7,0 C696.5,107.7,696.5,107.6,696.5,107.4z M694.2,116.1c-0.1,0.3-0.5,0.2-0.5,0C693.8,115.7,693.9,116.1,694.2,116.1z M691.6,121 c0.6,0,1.1,0,1.4,0.2C692.9,121.6,691.3,122.2,691.6,121z M689.3,122.1c0.3,0,0.6,0,0.9,0C690.4,123,689.1,123,689.3,122.1z M688.3,122.1c-0.7-0.2-0.5-0.2-1.2,0C686.8,121.4,688.7,121.4,688.3,122.1z M659.1,123.1c0.2,0,0.3,0,0.5,0c0,0.2,0,0.3,0,0.5 c-0.2,0-0.3,0-0.5,0C659.1,123.4,659.1,123.2,659.1,123.1z M649.7,125.9c0.5,0,1.1,0,1.6,0c-0.5,0.8-0.7,2-1.6,2.3 C649,127.1,650.3,126.8,649.7,125.9z M648.8,120.3c0.6-0.1,0.8,0.3,0.7,0.9c-0.6,0.1-1-0.1-0.9-0.7 C648.8,120.5,648.8,120.4,648.8,120.3z M689.5,21.3c0.5-0.1,0.7,0,0.7,0.5c-0.2,0-0.5,0-0.7,0C689.5,21.6,689.5,21.5,689.5,21.3z M687.4,25.5c0.4,0.3,0.5,0.8,1.2,0.7c0.1,0.5,0,0.9-0.2,1.2c-0.7-0.2-0.9-0.9-1.4-1.2C687.1,26,687.5,26,687.4,25.5z M686.2,30.2 c0.5-0.1,0.7,0,0.7,0.5c-0.2,0-0.5,0-0.7,0C686.2,30.5,686.2,30.4,686.2,30.2z M682.7,38.4c0.5-0.1,0.7,0,0.7,0.5 c-0.2,0-0.5,0-0.7,0C682.7,38.7,682.7,38.5,682.7,38.4z M680.4,40.3c0.2,0,0.3,0,0.5,0c0,0.2,0,0.5,0,0.7c-0.2,0-0.5,0-0.7,0 C680.1,40.6,680.4,40.6,680.4,40.3z M678.3,7.5c0.2,0,0.3,0,0.5,0c0,0.2,0,0.3,0,0.5c-0.2,0-0.3,0-0.5,0 C678.3,7.8,678.3,7.7,678.3,7.5z M677.3,43.8c0.5-0.1,0.4,0.3,0.5,0.7c-0.2,0-0.5,0-0.7,0C677.2,44.3,677.4,44.1,677.3,43.8z M677.1,46.3c0.1,0,0.3,0,0.5,0c0,0.2,0,0.3,0,0.5c-0.2,0-0.3,0-0.5,0C677.1,46.7,677.1,46.5,677.1,46.3z M675,46.8 c0.2,0,0.3,0,0.5,0c0,0.2,0,0.3,0,0.5c-0.2,0-0.3,0-0.5,0C675,47.1,675,47,675,46.8z M667.3,55.5c0.2,0,0.3,0,0.5,0l0.2,0.1 l0.2,0.1c0.2-0.6,0.5-1,1.4-0.9c0.2,1.1-0.4,1.3-1.4,1.2l-0.2,0.1l-0.2-0.1c-0.1,0.2-0.2,0.3-0.5,0.2 C667.3,55.9,667.3,55.7,667.3,55.5z M665,9.4c-0.1,0.9-0.3,0.9,0,1.6c-0.4,0-0.5-0.3-0.9-0.2C664.2,10.2,664.1,9.3,665,9.4z M661.9,61.6c0.5-0.1,0.6,0.2,0.9,0.2C662.8,62.5,661.7,62.4,661.9,61.6z M657.9,62.5c0.3,0,0.3,0.4,0.2,0.7l0.1,0.2l-0.1,0.2 c0.5,0-0.1,0.6-0.5,0.5c0-0.2,0-0.3,0-0.5l-0.1-0.4l0.4-0.1C657.8,62.9,657.7,62.8,657.9,62.5z M655.4,67.9c0.2,0,0.3,0,0.5,0 c0,0.2,0,0.3,0,0.5c-0.2,0-0.3,0-0.5,0C655.4,68.2,655.4,68,655.4,67.9z M653.7,70.2c0.7-0.1,0.7,0.5,0.7,1.2c-0.4,0-0.8,0-1.2,0 C653,70.6,653.6,70.7,653.7,70.2z M651.9,68.6c0.7,0.1,0.7,0.9,0.9,1.4l0.3,0.3l0.2,0.4l-0.4,0.1l-0.3-0.3 c-0.7,0.2-0.6-0.3-1.2-0.2C651.4,69.3,652.4,69.5,651.9,68.6z M647.6,34.9c0.1,0.6-0.3,0.8-0.9,0.7C646.6,35,647,34.8,647.6,34.9z M643.7,83.8c0.2,0,0.3,0,0.5,0c0,0.2,0,0.3,0,0.5c-0.2,0-0.3,0-0.5,0C643.7,84.1,643.7,83.9,643.7,83.8z M642.3,41 c0.5,0,0.1,0.8,0.2,1.2C642.1,41.9,641.9,41.3,642.3,41z M641.8,109.5l-0.1-0.4l0.1-0.4c0-0.2,0-0.3,0-0.5c0.4,0,0.8,0,0.7,0.5 c-0.1,0-0.2,0-0.2,0l0.1,0.4l-0.4,0.3c0,0.3-0.1,0.6-0.5,0.5c0.2,0.5,0.6,0.8,0.5,1.6C641,111.9,641.1,109.5,641.8,109.5z M631.3,60.6c0.8-0.1,1.3,0.1,1.2,0.9c-0.4,0-0.8,0-1.2,0C631.3,61.2,631.3,60.9,631.3,60.6z M630.8,63.9c0.5-0.1,0.7,0,0.7,0.5 c-0.2,0-0.5,0-0.7,0C630.8,64.2,630.8,64,630.8,63.9z M627,77c0.1,0.9-0.6,1-1.2,1.2C625.9,77.4,626.3,77,627,77z M625.2,90.3 c-0.6,0.1-0.8-0.3-0.7-0.9C625.1,89.3,625.2,89.7,625.2,90.3z M624.2,81c0.2,0,0.5,0,0.7,0c0,0.2,0,0.5,0,0.7c-0.2,0-0.5,0-0.7,0 C624.2,81.4,624.2,81.2,624.2,81z M624.9,88.2c-0.7,0.3-0.6-0.4-0.9-0.5C624.1,87.3,625.1,87.7,624.9,88.2z M623.1,83.5 c0.7-0.1,0.7,0.5,0.7,1.2c-0.3,0-0.6,0-0.9,0C622.8,84.2,622.9,83.8,623.1,83.5z"></path> <path class="st0" d="M700,72.3l0.3-0.4l0.4,0.1c0.1-1.2-1.1-2.1-2.1-1.4c0,0.3,0,0.6,0,0.9C698.6,72.3,699.7,71.9,700,72.3z"></path> <path class="st0" d="M697.9,84c0-0.1-0.2-0.3-0.2,0C697.7,84.1,697.9,84.3,697.9,84z"></path> </g> </svg> 