<?xml version="1.0" encoding="UTF-8" standalone="no"?> <svg xmlns="http://www.w3.org/2000/svg" xmlns:xlink="http://www.w3.org/1999/xlink" width="100%" height="100%" viewBox="0 0 1049 506" version="1.1" xml:space="preserve" style="fill-rule:evenodd;clip-rule:evenodd;stroke-linejoin:round;stroke-miterlimit:1.41421;"><path d="M52.29,299.804c7.834,0 14.583,1.249 20.63,3.818c0.633,0.231 1.183,0.354 1.616,0.354c0.733,0 1.482,-0.305 1.482,-2.561l0,-7.418c0,-1.908 -0.545,-2.707 -2.164,-3.169c-6.975,-2.324 -13.264,-3.761 -23.105,-3.761c-24.534,0 -50.749,13.036 -50.749,49.621c0,36.483 26.577,49.479 51.449,49.479c8.112,0 15.229,-1.015 22.397,-3.197c1.52,-0.506 2.172,-1.328 2.172,-2.75l0,-7.838c0.001,-1.945 -0.986,-2.374 -3.304,-1.766c-5.953,1.987 -12.551,2.955 -20.145,2.955c-22.495,0 -37.03,-14.533 -37.03,-37.023c0,-22.664 14.082,-36.744 36.751,-36.744Z" style="fill:#fff;fill-rule:nonzero;"></path><path d="M157.986,287.767l-5.46,0c-3.857,0 -4.689,0.858 -4.689,4.83l0,35.624l-47.012,0l0,-35.624c0,-3.972 -0.832,-4.83 -4.689,-4.83l-5.6,0c-3.857,0 -4.69,0.858 -4.69,4.83l0,87.483c0,3.858 0.833,4.689 4.69,4.689l5.6,0c3.857,0 4.689,-0.831 4.689,-4.689l0,-38.703l47.012,0l0,38.703c0,3.858 0.832,4.689 4.689,4.689l5.46,0c3.927,0 4.829,-0.875 4.829,-4.689l0,-87.483c0,-3.928 -0.902,-4.83 -4.829,-4.83Z" style="fill:#fff;fill-rule:nonzero;"></path><path d="M359.801,383.634c0.025,-0.037 0.053,-0.072 0.075,-0.11c-0.023,-0.058 -0.053,-0.111 -0.075,-0.17l0,0.28Z" style="fill:#fff;fill-rule:nonzero;"></path><path d="M376.604,299.943l17.583,0c23.011,0 36.75,13.738 36.75,36.745c0,22.482 -13.686,35.905 -36.612,35.905l-17.721,0l0,-72.65ZM366.456,384.769l28.85,0c23.927,0 51.87,-12.59 51.87,-48.081c0,-36.07 -27.373,-48.921 -52.989,-48.921l-27.731,0c-3.857,0 -4.69,0.858 -4.69,4.83l0,87.483c0,3.858 0.833,4.689 4.69,4.689Z" style="fill:#fff;fill-rule:nonzero;"></path><path d="M515.624,372.159l-1.473,0l-40.865,0l0,-79.668c0,-4.137 -0.92,-5.287 -5.064,-5.287l-5.295,0c-4.144,0 -5.295,1.15 -5.295,5.287l0,87.484c0,4.137 1.151,5.285 5.295,5.285l52.697,0c3.464,0 4.834,-0.808 5.191,-3.489c0.071,-0.526 0.104,-1.117 0.104,-1.796l0,-2.529c0,-4.367 -1.151,-5.287 -5.295,-5.287Z" style="fill:#fff;fill-rule:nonzero;"></path><path d="M588.806,328.265l-57.514,0c2.292,-18.897 13.117,-30.321 29.408,-30.321c13.475,0 22.908,7.859 26.879,21.666c0.688,2.53 0.99,4.909 1.123,6.528c0.108,1.308 0.106,2.127 0.106,2.127l-0.002,0ZM593.315,299.376c-7.433,-8.985 -18.449,-14.049 -32.794,-14.049c-27.649,0 -44.522,20.067 -44.522,50.742c0,5.389 0.522,10.497 1.537,15.255c2.73,11.468 10.233,28.193 30.824,33.991l-0.002,-0.054c1.682,0.491 3.385,0.899 5.112,1.211c0.002,0.002 0.004,0.002 0.006,0.002c0.041,0.007 0.086,0.013 0.127,0.021c0.562,0.1 1.125,0.186 1.691,0.269c0.443,0.061 0.891,0.12 1.344,0.174c0.174,0.021 0.345,0.04 0.519,0.059c0.537,0.06 1.08,0.113 1.633,0.159c0.168,0.013 0.34,0.025 0.51,0.036c0.467,0.037 0.939,0.068 1.416,0.092c4.504,0.219 9.055,-0.066 13.5,-0.777c7.711,-1.235 14.353,-3.276 20.847,-6.396c2.42,-1.139 2.256,-3.475 2.256,-3.475l0.004,0.004l0,-3.584l-0.002,-3.324c0.004,-0.137 0.012,-0.525 0.012,-1.482c0,-1.274 -0.955,-1.302 -1.254,-1.28c-0.055,0.004 -0.094,0.008 -0.094,0.008l-0.002,0.003c-0.593,0.014 -1.328,0.471 -2.166,0.841c-5.513,2.892 -11.107,4.882 -18.531,6.069c-2.65,0.423 -5.258,0.615 -7.805,0.596c-0.119,0.004 -0.236,0.007 -0.355,0.009c-0.951,0.016 -1.924,0.006 -2.914,-0.032c-1.207,-0.046 -2.44,-0.141 -3.686,-0.283c-4.172,-0.488 -8.498,-1.58 -12.525,-3.673c-5.852,-3.036 -11.068,-8.175 -14.267,-16.589c-0.126,-0.33 -0.248,-0.672 -0.368,-1.014c-0.637,-1.818 -1.185,-3.775 -1.627,-5.894c-0.008,0.002 -0.014,0.003 -0.022,0.005c-0.316,-1.831 -0.546,-3.744 -0.692,-5.739l16.261,0l0,-0.016l51.951,0c1.477,-0.03 2.719,-0.997 3.18,-2.336c0.102,-0.326 0.176,-0.672 0.266,-1.006c0.511,-2.644 3.627,-21.754 -9.368,-38.543Z" style="fill:#fff;fill-rule:nonzero;"></path><path d="M245.148,328.265l-57.502,0c2.291,-18.897 13.116,-30.321 29.401,-30.321c13.472,0 22.903,7.859 26.876,21.666c0.687,2.53 0.989,4.909 1.121,6.528c0.107,1.308 0.105,2.127 0.105,2.127l-0.001,0ZM249.659,299.376c-7.433,-8.985 -18.45,-14.049 -32.793,-14.049c-27.64,0 -44.513,20.067 -44.513,50.742c0,5.389 0.522,10.497 1.536,15.255c2.729,11.468 10.233,28.193 30.823,33.991l-0.002,-0.054c1.678,0.491 3.381,0.899 5.108,1.211c0.002,0.002 0.004,0.002 0.005,0.002c0.043,0.007 0.086,0.013 0.127,0.021c0.563,0.1 1.127,0.186 1.692,0.269c0.443,0.061 0.891,0.12 1.343,0.174c0.174,0.021 0.347,0.04 0.52,0.059c0.537,0.06 1.08,0.113 1.631,0.159c0.17,0.013 0.34,0.025 0.51,0.036c0.466,0.037 0.938,0.068 1.416,0.092c4.501,0.219 9.05,-0.066 13.496,-0.777c7.712,-1.235 14.354,-3.276 20.847,-6.396c2.422,-1.139 2.258,-3.475 2.258,-3.475l0.004,0.004l-0.002,-3.584l0,-3.324c0.004,-0.137 0.01,-0.525 0.01,-1.482c0,-1.274 -0.953,-1.302 -1.253,-1.28c-0.054,0.004 -0.095,0.008 -0.095,0.008l-0.001,0.003c-0.594,0.014 -1.327,0.471 -2.165,0.841c-5.515,2.892 -11.107,4.882 -18.533,6.069c-2.649,0.423 -5.258,0.615 -7.804,0.596c-0.118,0.004 -0.235,0.007 -0.355,0.009c-0.95,0.016 -1.923,0.006 -2.915,-0.032c-1.206,-0.046 -2.438,-0.141 -3.682,-0.283c-4.17,-0.488 -8.494,-1.58 -12.521,-3.673c-5.85,-3.036 -11.066,-8.175 -14.264,-16.589c-0.126,-0.33 -0.248,-0.672 -0.367,-1.014c-0.637,-1.818 -1.186,-3.775 -1.627,-5.894c-0.008,0.002 -0.016,0.003 -0.024,0.005c-0.314,-1.831 -0.545,-3.744 -0.691,-5.739l16.262,0l0,-0.016l51.939,0c1.478,-0.03 2.72,-0.997 3.18,-2.336c0.1,-0.326 0.176,-0.672 0.267,-1.006c0.512,-2.644 3.625,-21.754 -9.367,-38.543Z" style="fill:#fff;fill-rule:nonzero;"></path><path d="M282.956,341.197l0,-9.532c0,-22.023 8.815,-34.082 25.746,-34.082c17.166,0 25.746,12.059 25.746,34.082l0,9.532l-51.492,0ZM308.702,285.06c-24.816,0 -40.127,14.84 -40.127,47.068l0,47.308c0,4.172 0.93,5.333 5.336,5.333l3.942,0c4.177,0 5.103,-1.161 5.103,-5.333l0,-25.029l51.492,0l0,25.029c0,4.172 1.16,5.333 5.334,5.333l3.944,0c4.175,0 5.336,-1.161 5.336,-5.333l0,-47.308c0,-32.228 -15.54,-47.068 -40.36,-47.068Z" style="fill:#fff;fill-rule:nonzero;"></path><path d="M778.445,313.932l-9.37,0l0,-21.798l9.37,0c8.428,0 13.262,3.972 13.262,10.898c0,6.927 -4.834,10.9 -13.262,10.9ZM778.445,287.312l-14.331,0l0,49.652l4.961,0l0,-18.21l9.37,0c11.498,0 18.363,-5.877 18.363,-15.722c0,-9.844 -6.865,-15.72 -18.363,-15.72Z" style="fill:#fff;fill-rule:nonzero;"></path><path d="M817.644,313.653l-9.579,0l0,-21.519l9.579,0c8.172,0 13.052,3.996 13.052,10.69c0,6.781 -4.88,10.829 -13.052,10.829ZM808.065,318.198l9.37,0c1.031,0 2.042,-0.057 3.008,-0.173l11.585,18.939l5.691,0l-12.224,-19.951c6.651,-2.17 10.302,-7.186 10.302,-14.189c0,-9.568 -7.036,-15.512 -18.362,-15.512l-14.331,0l0,49.652l4.961,0l0,-18.766Z" style="fill:#fff;fill-rule:nonzero;"></path><rect x="844.873" y="287.312" width="4.962" height="49.652" style="fill:#fff;fill-rule:nonzero;"></rect><path d="M900.753,311.79l0,25.174l4.961,0l0,-49.652l-4.541,0l-13.001,22.417c-2.942,4.996 -4.306,7.651 -4.887,8.817c-0.58,-1.166 -1.944,-3.821 -4.884,-8.814l-13.003,-22.42l-4.541,0l0,49.652l4.962,0l0,-25.174c0,-3.799 -0.12,-9.004 -0.207,-12.805c-0.022,-0.95 -0.043,-1.842 -0.057,-2.562c0.696,1.23 1.722,3.07 2.67,4.77l13.694,23.816l2.732,0l13.077,-22.706l0.571,-1.024c0.966,-1.732 2.012,-3.608 2.718,-4.855c-0.015,0.721 -0.036,1.617 -0.057,2.569c-0.088,3.799 -0.207,9.001 -0.207,12.797Z" style="fill:#fff;fill-rule:nonzero;"></path><path d="M945.315,318.24l-20.92,0l8.663,-19.811c0.556,-1.337 1.133,-2.852 1.562,-3.976c0.079,-0.208 0.159,-0.419 0.234,-0.616c0.077,0.199 0.159,0.412 0.239,0.623c0.428,1.123 1.003,2.635 1.562,3.977l8.66,19.803ZM936.952,287.312l-4.195,0l-22.06,49.652l5.476,0l6.185,-14.179l24.994,0l6.185,14.179l5.476,0l-22.061,-49.652Z" style="fill:#fff;fill-rule:nonzero;"></path><path d="M978.535,313.653l-9.578,0l0,-21.519l9.578,0c8.173,0 13.053,3.996 13.053,10.69c0,6.781 -4.88,10.829 -13.053,10.829ZM968.957,318.198l9.369,0c1.031,0 2.042,-0.057 3.009,-0.173l11.585,18.939l5.69,0l-12.223,-19.951c6.65,-2.17 10.301,-7.186 10.301,-14.189c0,-9.568 -7.036,-15.512 -18.362,-15.512l-14.331,0l0,49.652l4.962,0l0,-18.766Z" style="fill:#fff;fill-rule:nonzero;"></path><path d="M1021.29,336.964l0,-24.862l19.43,-24.79l-5.92,0l-13.22,16.875c-0.42,0.544 -0.92,1.205 -1.4,1.829c-0.47,0.623 -0.99,1.303 -1.31,1.711c-0.59,-0.734 -1.87,-2.394 -2.63,-3.377l-13.42,-17.038l-5.924,0l19.434,24.79l0,24.862l4.96,0Z" style="fill:#fff;fill-rule:nonzero;"></path><path d="M779.689,375.616l-0.326,-0.089c-6.459,-1.765 -13.137,-3.59 -13.137,-9.019c0,-5.228 4.66,-8.606 11.872,-8.606c6.749,0 11.738,3.901 12.713,9.937l0.087,0.546l4.874,-1.306l-0.084,-0.455c-1.483,-7.977 -8.496,-13.336 -17.451,-13.336c-9.915,0 -17.111,5.618 -17.111,13.358c0,8.607 8.615,11.082 14.316,12.719l0.22,0.064c0.763,0.225 1.555,0.445 2.36,0.668c6.219,1.723 13.268,3.676 13.268,10.459c0,5.77 -5.078,9.647 -12.637,9.647c-8.812,0 -13.256,-5.6 -13.75,-11.15l-0.052,-0.596l-4.82,1.313l0.056,0.433c1.164,8.92 8.397,14.684 18.428,14.684c10.566,0 17.945,-5.922 17.945,-14.401c0,-10.201 -10.091,-13.01 -16.771,-14.87Z" style="fill:#fff;fill-rule:nonzero;"></path><path d="M844.651,388.938c-3.457,6.778 -10.504,10.988 -18.39,10.988c-11.953,0 -20.629,-8.764 -20.629,-20.838c0,-12.114 8.676,-20.907 20.629,-20.907c7.485,0 14.08,3.597 17.64,9.623l0.192,0.324l5.027,-1.3l-0.322,-0.567c-4.61,-8.123 -13.035,-12.973 -22.537,-12.973c-14.668,0 -25.73,11.092 -25.73,25.8c0,14.708 11.062,25.799 25.73,25.799c10.187,0 19.095,-5.517 23.25,-14.397l0.249,-0.534l-4.922,-1.382l-0.187,0.364Z" style="fill:#fff;fill-rule:nonzero;"></path><path d="M888.311,375.599l-27.914,0l0,-21.337l-4.961,0l0,49.652l4.961,0l0,-23.492l27.914,0l0,23.492l5.031,0l0,-49.652l-5.031,0l0,21.337Z" style="fill:#fff;fill-rule:nonzero;"></path><path d="M926.617,399.995c-11.953,0 -20.629,-8.793 -20.629,-20.907c0,-12.114 8.676,-20.907 20.629,-20.907c11.994,0 20.699,8.793 20.699,20.907c0,12.114 -8.705,20.907 -20.699,20.907ZM926.617,353.288c-14.668,0 -25.729,11.092 -25.729,25.8c0,14.708 11.061,25.799 25.729,25.799c14.708,0 25.8,-11.091 25.8,-25.799c0,-14.708 -11.092,-25.8 -25.8,-25.8Z" style="fill:#fff;fill-rule:nonzero;"></path><path d="M983.537,399.995c-11.953,0 -20.629,-8.793 -20.629,-20.907c0,-12.114 8.676,-20.907 20.629,-20.907c11.994,0 20.703,8.793 20.703,20.907c0,12.114 -8.709,20.907 -20.703,20.907ZM983.537,353.288c-14.668,0 -25.729,11.092 -25.729,25.8c0,14.708 11.061,25.799 25.729,25.799c14.708,0 25.803,-11.091 25.803,-25.799c0,-14.708 -11.095,-25.8 -25.803,-25.8Z" style="fill:#fff;fill-rule:nonzero;"></path><path d="M1021.57,399.092l0,-44.83l-4.97,0l0,49.652l31.93,0l0,-4.822l-26.96,0Z" style="fill:#fff;fill-rule:nonzero;"></path><path d="M265.396,406.012l-5.459,0c-3.858,0 -4.69,0.858 -4.69,4.83l0,35.624l-47.012,0l0,-35.624c0,-3.972 -0.832,-4.83 -4.689,-4.83l-5.6,0c-3.857,0 -4.691,0.858 -4.691,4.83l0,87.483c0,3.859 0.834,4.689 4.691,4.689l5.6,0c3.857,0 4.689,-0.83 4.689,-4.689l0,-38.703l47.012,0l0,38.703c0,3.859 0.832,4.689 4.69,4.689l5.459,0c3.927,0 4.83,-0.875 4.83,-4.689l0,-87.483c0,-3.928 -0.903,-4.83 -4.83,-4.83Z" style="fill:#fff;fill-rule:nonzero;"></path><path d="M429.392,490.404l-1.473,0l-37.18,0l0,-79.668c0,-4.136 -0.922,-5.287 -5.064,-5.287l-5.295,0c-4.145,0 -5.295,1.151 -5.295,5.287l0,87.484c0,4.137 1.15,5.285 5.295,5.285l49.012,0c3.464,0 4.834,-0.808 5.191,-3.488c0.07,-0.527 0.105,-1.118 0.105,-1.797l0,-2.529c0,-4.367 -1.152,-5.287 -5.296,-5.287Z" style="fill:#fff;fill-rule:nonzero;"></path><path d="M358.196,406.1l-4.017,0c-4.258,0 -5.201,1.139 -5.201,5.25l0,47.035c0,21.681 -8.983,33.555 -26.241,33.555c-17.492,0 -26.236,-11.874 -26.236,-33.555l0,-47.035c0,-4.111 -1.182,-5.25 -5.438,-5.25l-4.019,0c-4.254,0 -5.436,1.139 -5.436,5.25l0,46.577c0,31.729 15.836,46.344 41.129,46.344c25.293,0 40.897,-14.615 40.897,-46.344l0,-46.577c0,-4.111 -0.947,-5.25 -5.438,-5.25Z" style="fill:#fff;fill-rule:nonzero;"></path><path d="M555.552,436.687c0,-17.521 -14.475,-31.777 -32.268,-31.777c-9.437,0 -18.599,4.257 -24.66,11.287c-6.062,-7.03 -15.225,-11.287 -24.66,-11.287c-17.795,0 -32.27,14.256 -32.27,31.777l-0.072,3.637l0,58.001c0,3.814 0.916,4.689 4.902,4.689l5.405,0c3.824,0 4.759,-0.918 4.759,-4.689l0,-57.475l0.196,-5.551c0,-9.432 7.502,-16.82 17.08,-16.82c9.574,0 16.935,7.388 16.935,16.82l0.047,5.567l0,57.459c0,3.771 0.936,4.689 4.762,4.689l5.83,0c3.826,0 4.762,-0.918 4.762,-4.689l0,-57.459l0.047,-5.567c0,-9.432 7.361,-16.82 16.937,-16.82c9.576,0 17.078,7.388 17.078,16.82l0.196,5.551l0,57.475c0,3.771 0.935,4.689 4.761,4.689l5.403,0c3.986,0 4.902,-0.875 4.902,-4.689l0,-58.001l-0.072,-3.637Z" style="fill:#fff;fill-rule:nonzero;"></path><path d="M635.192,446.51l-56.74,0c2.262,-18.897 12.94,-30.321 29.01,-30.321c13.293,0 22.601,7.859 26.519,21.666c0.68,2.53 0.977,4.909 1.108,6.528c0.105,1.308 0.103,2.127 0.103,2.127ZM639.642,417.621c-7.334,-8.985 -18.204,-14.049 -32.36,-14.049c-27.271,0 -43.918,20.067 -43.918,50.742c0,5.389 0.516,10.498 1.516,15.255c2.693,11.468 10.096,28.193 30.408,33.992l-0.002,-0.055c1.656,0.491 3.338,0.899 5.043,1.211c0.002,0.002 0.004,0.002 0.004,0.002c0.043,0.008 0.086,0.013 0.125,0.021c0.557,0.1 1.113,0.186 1.67,0.269c0.437,0.061 0.881,0.12 1.326,0.175c0.172,0.02 0.342,0.039 0.514,0.058c0.529,0.06 1.064,0.113 1.607,0.159c0.168,0.013 0.336,0.025 0.504,0.036c0.461,0.038 0.926,0.068 1.397,0.092c4.443,0.219 8.933,-0.066 13.32,-0.777c7.609,-1.234 14.162,-3.275 20.57,-6.396c2.387,-1.139 2.225,-3.475 2.225,-3.475l0.004,0.004l0,-3.584l-0.002,-3.323c0.004,-0.138 0.011,-0.526 0.011,-1.483c0,-1.274 -0.941,-1.302 -1.236,-1.28c-0.055,0.004 -0.094,0.008 -0.094,0.008l-0.002,0.004c-0.585,0.013 -1.308,0.47 -2.136,0.84c-5.442,2.892 -10.959,4.882 -18.285,6.069c-2.616,0.424 -5.188,0.615 -7.702,0.596c-0.117,0.004 -0.232,0.007 -0.349,0.009c-0.94,0.016 -1.899,0.006 -2.877,-0.032c-1.19,-0.046 -2.406,-0.141 -3.635,-0.283c-4.113,-0.488 -8.381,-1.58 -12.353,-3.673c-5.774,-3.036 -10.918,-8.175 -14.073,-16.589c-0.125,-0.33 -0.246,-0.672 -0.363,-1.014c-0.629,-1.818 -1.17,-3.775 -1.605,-5.894c-0.008,0.002 -0.016,0.003 -0.022,0.005c-0.312,-1.831 -0.539,-3.743 -0.684,-5.739l16.043,0l0,-0.016l51.252,0c1.457,-0.029 2.684,-0.997 3.137,-2.336c0.1,-0.326 0.174,-0.672 0.264,-1.006c0.506,-2.644 3.578,-21.754 -9.242,-38.543Z" style="fill:#fff;fill-rule:nonzero;"></path><path d="M809.757,158.167c-0.233,0 -0.477,0 -0.701,0c0,-0.234 0,-0.469 0,-0.703c0.224,0 0.468,0 0.701,0c0,0.234 0,0.469 0,0.703ZM800.155,157.698c0,-0.156 0,-0.312 0,-0.468c0.479,-0.078 0.742,0.049 0.713,0.468c-0.234,0 -0.478,0 -0.713,0ZM793.382,178.752c-1.248,0.146 -1.365,-0.818 -2.582,-0.701c-0.332,-0.888 0.652,-0.448 0.476,-1.17c0.391,0 0.78,0 1.161,0c-0.45,1.384 1.209,0.672 0.945,1.871ZM791.042,157.23c0.156,0 0.312,0 0.469,0c0,0.156 0,0.312 0,0.468c-0.157,0 -0.313,0 -0.469,0c0,-0.156 0,-0.312 0,-0.468ZM784.259,159.102c0.195,0.429 0.594,0.643 0.691,1.169c-0.916,0.292 -0.691,-0.554 -0.691,-1.169ZM782.388,183.665c-0.078,0 -0.157,0 -0.235,0l0.118,0.351l-0.352,-0.117c-0.098,0.292 -0.303,0.477 -0.701,0.467c0.019,-0.281 0.068,-0.554 0.467,-0.467l-0.127,-0.351l0.361,0.117c0,-0.155 0,-0.312 0,-0.468c0.156,0 0.312,0 0.469,0c0,0.156 0,0.313 0,0.468ZM769.276,193.725c-0.759,0.057 -1.121,-0.284 -1.16,-0.936c0.313,-0.332 1.326,-0.332 1.639,0c0.166,0.634 -0.469,0.468 -0.479,0.936ZM755.708,171.501c0,-0.156 0,-0.313 0,-0.469c0.479,-0.078 0.742,0.05 0.711,0.469c-0.232,0 -0.467,0 -0.711,0ZM749.86,173.606c0,-0.156 0,-0.312 0,-0.468c0.479,-0.078 0.741,0.049 0.711,0.468c-0.232,0 -0.467,0 -0.711,0ZM737.696,177.583c-0.146,0 -0.302,0 -0.459,0c0,-0.156 0,-0.312 0,-0.468c0.157,0 0.313,0 0.459,0c0,0.156 0,0.312 0,0.468ZM734.897,210.568c-0.642,0.165 -0.476,-0.468 -0.945,-0.468c-0.019,-0.419 0.293,-0.497 0.235,-0.936c0.769,-0.039 1.13,0.955 0.71,1.404ZM731.624,180.156c0.156,-0.185 1.295,-0.516 1.402,0c0.049,0.886 -1.463,0.886 -1.402,0ZM727.646,252.208c-0.233,0 -0.467,0 -0.702,0c0,-0.313 0,-0.623 0,-0.936c0.616,-0.068 0.76,0.322 0.702,0.936ZM725.54,268.583c-0.078,-0.613 0.322,-0.77 0.928,-0.701c0.078,0.614 -0.322,0.77 -0.928,0.701ZM725.306,222.265c-0.203,-0.039 -0.223,0.088 -0.233,0.233c-0.847,-0.672 1.268,-0.624 0.701,0.468c-0.507,0.108 -0.447,-0.331 -0.468,-0.701ZM721.554,178.986c-0.225,0 -0.457,0 -0.692,0c-0.068,-0.381 0.215,-0.399 0.235,-0.702c0.154,0 0.31,0 0.457,0c0,0.234 0,0.468 0,0.702ZM718.991,244.488c-0.547,0.078 -0.908,-0.039 -1.17,-0.234c0.283,-0.731 0.43,-1.589 1.637,-1.404c0.127,0.517 -0.447,0.333 -0.467,0.703c0.01,0.847 0.574,1.131 0.701,1.871c-0.623,0.068 -0.769,-0.321 -0.701,-0.936ZM716.642,240.745c-0.157,0 -0.313,0 -0.457,0c-0.071,-0.38 0.212,-0.399 0.222,-0.702c0.156,0 0.313,0 0.479,0c0.056,0.381 -0.225,0.399 -0.244,0.702ZM715.247,292.912c0,-0.233 0,-0.467 0,-0.701c0.264,-0.195 0.625,-0.313 1.16,-0.234c0.166,0.867 -0.361,1.034 -1.16,0.935ZM713.845,307.416c-0.157,0 -0.313,0 -0.469,0c0,-0.156 0,-0.311 0,-0.467c0.156,0 0.312,0 0.469,0c0,0.156 0,0.311 0,0.467ZM714.536,164.95c-0.613,-0.156 -1.189,-0.37 -1.627,-0.702c-0.148,-0.926 1.276,-0.273 1.862,-0.467c0.195,0.662 -0.323,0.604 -0.235,1.169ZM714.079,223.902c-0.42,-0.049 -1.18,0.234 -0.937,-0.468c0.205,-0.185 0.527,-0.253 0.937,-0.234c0,0.234 0,0.468 0,0.702ZM704.009,153.019c0,-0.156 0,-0.311 0,-0.467c0.478,-0.078 0.74,0.048 0.701,0.467c-0.223,0 -0.457,0 -0.701,0ZM700.733,149.744c-0.505,0.039 -0.74,-0.195 -0.691,-0.702c0.234,0 0.469,0 0.691,0c0,0.234 0,0.468 0,0.702ZM698.862,196.766c0.381,-0.43 1.385,-0.673 1.414,0.234c-0.722,0.165 -0.857,-0.244 -1.414,-0.234ZM694.886,198.871c0,-0.156 0,-0.312 0,-0.469c0.476,-0.077 0.74,0.05 0.711,0.469c-0.235,0 -0.477,0 -0.711,0ZM694.192,196.063c0.235,0 0.469,0 0.694,0c0,0.234 0,0.468 0,0.703c-0.225,0 -0.459,0 -0.694,0c0,-0.235 0,-0.469 0,-0.703ZM686.942,225.773c-0.234,0 -0.478,0 -0.703,0c0,-0.234 0,-0.468 0,-0.701c0.225,0 0.469,0 0.703,0c0,0.233 0,0.467 0,0.701ZM685.294,200.977c0.273,-0.197 0.635,-0.313 1.17,-0.235c0.351,0.741 -1.336,1.122 -1.17,0.235ZM675.47,201.678c-0.157,0 -0.303,0 -0.459,0c0,-0.156 0,-0.312 0,-0.468c0.156,0 0.302,0 0.459,0c0,0.156 0,0.312 0,0.468ZM671.034,204.954c0,-0.234 0,-0.469 0,-0.703c0.506,-0.039 0.74,0.195 0.692,0.703c-0.235,0 -0.457,0 -0.692,0ZM667.524,204.954c0,-0.234 0,-0.469 0,-0.703c0.508,-0.039 0.743,0.195 0.704,0.703c-0.245,0 -0.469,0 -0.704,0ZM665.419,205.421c-0.186,-0.37 -0.75,-0.351 -0.701,-0.936c0.342,-0.273 0.584,-0.273 0.935,0c0.03,0.419 -0.293,0.497 -0.234,0.936ZM665.187,267.413c0.271,0.81 -1.317,1.092 -0.938,0c0.303,0 0.625,0 0.938,0ZM665.653,271.156c0.157,0 0.313,0 0.469,0c0,0.156 0,0.313 0,0.469c-0.156,0 -0.312,0 -0.469,0c0,-0.156 0,-0.313 0,-0.469ZM667.292,346.017c0.252,0.974 -1.668,0.974 -1.404,0c0.73,0.116 0.906,-0.508 1.404,0ZM667.292,267.181c0,0.232 0,0.466 0,0.701c-0.518,0.039 -0.752,-0.195 -0.703,-0.701c0.234,0 0.469,0 0.703,0ZM667.759,270.455c-0.623,0.068 -0.77,-0.322 -0.701,-0.935c0.234,0 0.466,0 0.701,0c0,0.311 0,0.623 0,0.935ZM664.017,261.799c-0.157,0 -0.313,0 -0.469,0c0,-0.155 0,-0.312 0,-0.467c0.156,0 0.312,0 0.469,0c0,0.155 0,0.312 0,0.467ZM663.313,253.144c0.157,0 0.313,0 0.469,0c0.059,0.379 -0.224,0.4 -0.234,0.702c-0.156,0 -0.313,0 -0.477,0c-0.058,-0.38 0.223,-0.401 0.242,-0.702ZM670.099,284.257c0.466,-0.078 0.73,0.049 0.701,0.469c-0.235,0 -0.467,0 -0.701,0c0,-0.157 0,-0.313 0,-0.469ZM671.726,287.532c0,0.312 0,0.624 0,0.936c-0.868,0.176 -1.131,-0.264 -1.161,-0.936c0.391,0 0.782,0 1.161,0ZM674.075,365.9c0.235,0 0.467,0 0.692,0c0,0.235 0,0.468 0,0.703c-0.225,0 -0.457,0 -0.692,0c0,-0.235 0,-0.468 0,-0.703ZM675.702,304.375c-1.043,0.186 -1.295,-0.419 -1.392,-1.169c0.837,-0.448 1.558,-0.011 1.392,1.169ZM678.286,373.152l-0.117,-0.351l0.352,0.117c-0.04,-0.418 0.224,-0.545 0.691,-0.467c0.019,0.32 -0.108,0.516 -0.225,0.701c-0.156,0 -0.312,0 -0.466,0l0.107,0.351l-0.342,-0.116c0,0.311 0,0.623 0,0.935c-0.39,0 -0.789,0 -1.17,0c-0.195,-0.965 0.35,-1.199 1.17,-1.17ZM680.392,377.362c0.437,1.17 -1.608,1.308 -1.405,0.235c0.547,0.009 0.684,-0.4 1.405,-0.235ZM681.552,334.787c0.496,-0.098 0.623,0.156 0.945,0.234c0.098,0.488 -0.166,0.614 -0.234,0.936c-0.428,0.029 -0.498,-0.283 -0.946,-0.234c-0.019,-0.419 0.293,-0.497 0.235,-0.936ZM686.007,363.093c-0.09,0.547 -0.156,1.092 -0.947,0.935c0.283,-0.349 0.205,-1.043 0.947,-0.935ZM687.399,369.643c-0.496,0.877 0.459,0.711 0.245,1.872c-0.916,0.371 -1.082,-1.989 -0.245,-1.872ZM688.579,392.569c0.701,-0.234 0.41,0.517 0.457,0.936c-0.223,0 -0.457,0 -0.691,0c-0.106,-0.487 0.156,-0.624 0.234,-0.936ZM693.015,392.335c-0.02,0.595 -0.332,0.906 -0.928,0.935c-0.184,-0.204 -0.252,-0.526 -0.233,-0.935c0.389,0 0.78,0 1.161,0ZM698.161,407.541c0,0.624 0,1.247 0,1.872c-1.746,0.526 -1.433,-2.301 0,-1.872ZM701.446,411.518c0.467,-0.078 0.731,0.048 0.701,0.467c-0.234,0 -0.466,0 -0.701,0c0,-0.156 0,-0.311 0,-0.467ZM709.399,422.513c0.059,0.613 -0.087,1.004 -0.711,0.935c-0.058,-0.614 0.086,-1.004 0.711,-0.935ZM711.271,426.724c0.156,0 0.312,0 0.468,0c0,0.156 0,0.312 0,0.467c-0.156,0 -0.312,0 -0.468,0c0,-0.155 0,-0.311 0,-0.467ZM659.337,197c-0.166,0 -0.311,0 -0.467,0c0,-0.078 0,-0.156 0,-0.234l-0.351,0.116l-0.352,-0.116c-0.369,0.019 -0.186,0.593 -0.701,0.468c0.185,-0.664 -0.332,-0.605 -0.244,-1.171c0.41,-0.019 0.732,0.049 0.945,0.234c0,0.078 0,0.156 0,0.234l0.352,-0.117l0.351,0.117c0.156,0 0.301,0 0.467,0c0,0.156 0,0.313 0,0.469ZM658.167,182.261c0,0.234 0,0.468 0,0.702c-0.232,0 -0.467,0 -0.701,0c0,-0.234 0,-0.468 0,-0.702c0.234,0 0.469,0 0.701,0ZM657.222,176.881c0.615,-0.069 1.013,0.088 0.945,0.702c-0.613,0.067 -1.18,0.078 -0.945,-0.702ZM654.425,317.943c0,-0.155 0,-0.311 0,-0.467c0.31,0 0.623,0 0.935,0c0.235,0.702 -0.527,0.409 -0.935,0.467ZM654.19,310.926c0.469,-0.078 0.733,0.049 0.702,0.468c-0.233,0 -0.467,0 -0.702,0c0,-0.157 0,-0.313 0,-0.468ZM651.851,309.99c0,-0.156 0,-0.312 0,-0.469c0.468,-0.077 0.732,0.049 0.703,0.469c-0.235,0 -0.469,0 -0.703,0ZM643.897,161.676c-0.156,0 -0.312,0 -0.466,0c0,-0.156 0,-0.313 0,-0.469c0.154,0 0.31,0 0.466,0c0,0.156 0,0.313 0,0.469ZM637.581,212.674c0,-0.235 0,-0.469 0,-0.703c0.674,-0.341 0.674,1.044 0,0.703ZM634.54,213.374c0.606,-0.067 1.004,0.089 0.936,0.702c-0.614,0.069 -1.18,0.078 -0.936,-0.702ZM626.587,239.575c-0.234,0 -0.469,0 -0.703,0c-0.069,-0.38 0.215,-0.399 0.234,-0.701c0.156,0 0.313,0 0.469,0c0,0.233 0,0.468 0,0.701ZM622.606,218.054c0,-0.157 0,-0.313 0,-0.469c0.469,-0.078 0.733,0.05 0.706,0.469c-0.237,0 -0.471,0 -0.706,0ZM622.138,217.118c-1.026,0.155 -0.635,-1.083 -0.703,-1.872c0.959,-0.126 1.191,1.268 0.703,1.872ZM618.626,218.288c-0.156,0 -0.313,0 -0.469,0c0,-0.156 0,-0.312 0,-0.469c0.156,0 0.313,0 0.469,0c0,0.157 0,0.313 0,0.469ZM611.606,239.81c-0.906,0.184 -0.906,-1.122 0,-0.936c0,0.312 0,0.624 0,0.936ZM609.735,238.406c-0.156,0 -0.312,0 -0.468,0c0,-0.156 0,-0.312 0,-0.468c0.156,0 0.312,0 0.468,0c0,0.156 0,0.312 0,0.468ZM597.792,222.265c-0.146,0 -0.303,0 -0.457,0c0,-0.157 0,-0.313 0,-0.469c0.154,0 0.311,0 0.457,0c0,0.156 0,0.312 0,0.469ZM588.442,223.902c-0.095,0.449 -0.3,-0.147 -0.232,-0.468c0.086,-0.449 0.291,0.146 0.232,0.468ZM581.19,242.383c0,-0.313 0,-0.624 0,-0.936c0.311,0 0.623,0 0.936,0c0.107,0.731 -0.205,1.043 -0.936,0.936ZM580.245,225.539c0,-0.156 0,-0.311 0,-0.467c0.32,0 0.633,0 0.945,0c0.233,0.701 -0.527,0.418 -0.945,0.467ZM576.745,243.084c0,-0.234 0,-0.467 0,-0.701c0.682,-0.341 0.682,1.043 0,0.701ZM538.38,235.364c-0.147,-0.837 0.264,-1.131 0.467,-1.636c0.459,0.252 0.4,1.939 -0.467,1.636ZM529.257,239.342c-0.518,0.039 -0.751,-0.196 -0.702,-0.702c0.233,0 0.467,0 0.702,0c0,0.234 0,0.467 0,0.702ZM695.597,175.478c-0.235,0 -0.477,0 -0.711,0c0,-0.235 0,-0.468 0,-0.703c0.234,0 0.476,0 0.711,0c0,0.235 0,0.468 0,0.703ZM693.96,173.372c0,-0.312 0,-0.624 0,-0.936c0.232,0 0.467,0 0.701,0c-0.107,0.449 -0.088,1.004 -0.701,0.936ZM690.45,167.289c0,-0.155 0,-0.311 0,-0.468c0.469,-0.078 0.731,0.05 0.692,0.468c-0.233,0 -0.457,0 -0.692,0ZM688.11,151.382c0.03,-0.419 -0.291,-0.497 -0.232,-0.935c0.408,0.135 1.375,-0.284 1.393,0.233c0.087,0.712 -0.76,0.488 -1.161,0.702ZM813.958,153.955c-1.402,0.38 -2.281,-0.614 -3.498,-0.702c-1.92,-0.136 -3.793,0.85 -6.326,0.469c-0.547,0.068 -0.43,0.808 -1.16,0.701c-0.45,-0.419 -1.551,-0.175 -2.34,-0.234c-0.975,0.732 -2.008,0.401 -3.276,0.702c-0.371,0.087 -0.574,0.449 -0.945,0.467c-0.283,0.02 -0.838,-0.213 -1.16,-0.233c-0.701,-0.048 -1.412,0.039 -2.106,0c-0.613,-0.254 -0.876,-0.848 -1.636,-0.936c-0.907,0.448 -1.764,-0.195 -2.574,0c-0.536,0.126 -0.672,0.985 -1.405,0.702c-0.135,0.41 0.274,1.374 -0.232,1.404c-0.459,-0.098 -0.186,-0.906 -0.936,-0.702c-0.635,0.692 -1.861,0.79 -2.574,1.403c-0.623,-0.438 -1.197,-0.497 -1.871,-0.468c-1.238,0.049 -2.203,1.053 -3.051,1.405c-2.203,-0.06 -4.328,0.087 -5.615,0.467c-0.604,0.176 -1.246,0.467 -1.627,0.702c-0.936,0.565 -1.082,0.936 -1.871,1.404c-0.926,1.325 -3.617,1.374 -5.147,1.403c-0.789,0.848 -1.355,1.93 -1.871,3.041c-1.57,0.702 -3.363,1.17 -5.615,1.17c-1.219,1.121 -2.885,1.794 -3.275,3.743c-0.907,0.204 -0.391,-1.024 -1.405,-0.702c-1.179,0.225 -2.132,0.672 -3.507,0.702c-0.489,0.068 -0.059,1.033 -0.702,0.935c-0.566,0.098 -0.517,-0.428 -1.17,-0.234c-0.789,1.404 -2.769,1.599 -3.744,2.808c-0.925,0.409 -1.841,0.81 -2.572,1.403c-0.906,-0.127 -1.15,0.419 -2.105,0.235c-0.528,0.78 -1.832,1.023 -2.584,1.402c-0.274,0.147 -0.409,0.362 -0.692,0.469c-0.478,0.184 -1.111,0.029 -1.637,0.234c-0.087,0.029 -0.332,0.39 -0.478,0.468c-0.293,0.166 -0.547,0.059 -0.936,0.233c-0.496,0.235 -0.945,0.488 -1.394,0.702c-0.565,0.263 -1.082,0.108 -1.871,0.234c-0.438,0.068 -0.858,0.449 -1.17,0.469c-0.526,0.018 -0.906,-0.497 -1.412,-0.235c-0.733,-0.039 -0.781,0.624 -1.629,0.469c-0.594,-0.928 -1.151,-2.048 -1.404,-3.51c-0.127,-0.702 0.087,-1.462 0,-2.104c-0.235,-1.668 -1.002,-2.516 -2.106,-3.277c-0.105,-0.633 -0.885,-1.199 -0.232,-1.872c-1.258,-2.572 -2.438,-5.214 -4.455,-7.016c0.058,-1.287 -1.288,-1.989 -1.871,-3.276c-0.713,0.165 -0.848,-0.244 -1.395,-0.233c-0.428,-0.519 -0.633,-1.249 -1.17,-1.639c0.068,-0.311 0.332,-0.448 0.225,-0.935c-1.385,-2.359 -4.202,-3.285 -5.371,-5.849c-0.623,-0.097 -0.809,-0.428 -1.405,-0.702c-0.447,-0.194 -1.148,-0.204 -1.646,-0.468c-0.496,-0.272 -0.858,-0.896 -1.405,-1.17c-0.662,-0.331 -1.5,-0.292 -2.093,-0.701c-0.996,-0.673 -1.375,-1.938 -2.35,-2.573c-1.59,-0.194 -2.154,0.643 -3.5,0.702c-0.838,-0.099 -1.248,-0.624 -2.349,-0.468c-0.428,0.185 -0.936,0.302 -1.17,0.702c-2.592,0.517 -4.375,1.851 -6.539,2.807c-0.469,0.234 -0.538,0.868 -0.936,1.169c-0.41,0.02 -0.732,-0.048 -0.936,-0.233c0.04,0.77 -1.023,1.228 -1.414,1.404c-0.058,0.028 -0.166,0.409 -0.224,0.467c-0.721,0.604 -1.178,0.858 -1.881,1.17c-0.662,0.302 -0.858,1.481 -1.637,1.637c-1.228,0.088 -1.834,0.809 -2.33,1.638c0.701,1.364 4.113,1.843 2.807,3.742c1.629,1.415 3.627,2.447 4.914,4.211c0.574,0.303 0.965,-0.682 1.168,0c0.185,0.663 -0.332,0.605 -0.233,1.17c1.1,1.151 2.123,2.398 2.807,3.978c0.262,0.194 0.623,0.31 1.17,0.233c-0.039,0.575 -0.049,1.13 0.467,1.17c-0.039,-0.381 1.433,-0.381 1.404,0c0.059,0.926 -1.004,0.711 -0.936,1.638c0.838,0.945 1.014,2.563 2.096,3.274c0.164,0.653 0.418,1.093 0.711,1.639c0.205,0.409 0.858,0.867 0.692,1.636c0.644,-0.145 0.673,0.537 0.937,0.936c0.838,1.228 1.178,2.777 2.113,3.743c0.576,-0.194 0.489,-1.072 1.395,-0.934c0.019,0.876 -1.004,0.71 -0.692,1.871c0.176,0.759 1.122,0.75 1.161,1.636c0.369,0.341 0.212,1.201 0.242,1.872c0.82,0.897 0.955,2.465 2.107,3.04c-0.031,1.278 1.031,1.462 0.936,2.809c-0.967,0.359 -2.028,0.623 -3.285,0.701c-0.508,0.186 -0.303,1.102 -0.926,1.17c-0.205,-0.341 -0.196,-0.906 -0.938,-0.703c-1.138,0.557 -2.23,-0.232 -3.742,0c-0.049,0.664 0.195,1.609 -0.478,1.639c-0.155,0 -0.301,0 -0.457,0l0.117,0.429l-0.352,0.272c0.098,0.449 0.662,0.419 0.459,1.17c-0.955,0.674 -1.765,-0.467 -1.638,-1.638l-0.34,0.118l-0.118,-0.351c-0.947,0 -1.511,0.37 -1.871,0.935c-1.775,0.02 -2.818,0.78 -3.976,1.404c-0.694,0.058 -0.723,-0.526 -1.414,-0.468c-0.293,0.555 -0.44,1.267 -1.16,1.404c-0.772,-0.409 -2.37,0.028 -2.817,-0.702c-1.59,1.209 -4.855,0.751 -6.541,1.871l0.352,0.273l-0.117,0.429c0.662,-0.049 1.265,-0.029 1.169,0.702c-0.605,1.092 -2.144,-0.156 -3.519,0.234c0.176,-0.721 -0.635,-0.449 -0.457,-1.169c-1.006,0.243 -1.707,0.799 -3.043,0.701c-0.506,0.517 -1.141,0.887 -2.348,0.701c-0.05,-0.184 -0.195,-0.271 -0.468,-0.233c-0.245,-1.229 -0.809,-2.154 -1.395,-3.041c0.877,-0.683 0.068,-1.15 0,-2.106c0.059,-0.331 0.508,-0.262 0.703,-0.468c-0.127,-0.916 -0.264,-1.94 -0.234,-2.573c0.01,-0.311 0.254,-0.311 0.234,-0.701c-0.068,-0.936 -0.517,-1.852 -0.469,-2.809c0.039,-0.963 0.635,-1.977 0.694,-3.04c0.019,-0.302 -0.196,-0.828 -0.225,-1.17c-0.088,-0.848 0.049,-1.725 0,-2.573c-0.088,-1.443 -0.449,-3.148 -0.469,-4.679c-0.029,-1.715 0.352,-3.314 0.235,-4.912c-0.059,-0.683 -0.42,-1.433 -0.469,-2.105c-0.068,-0.741 0.117,-1.365 0,-1.872c-0.174,-0.751 -0.896,-1.667 -1.168,-2.573c-0.117,-0.351 0.076,-0.81 0,-1.169c-0.031,-0.088 -0.43,-0.575 -0.469,-0.703c-0.175,-0.449 -0.146,-0.975 -0.234,-1.169c-0.369,-0.721 -1.082,-1.18 -1.402,-1.871c-0.157,-0.322 0.134,-0.84 0,-1.171c-0.206,-0.488 -1.073,0.059 -0.713,-0.702c0.234,-0.604 0.468,-0.955 0.478,-1.637c0.01,-0.799 -0.478,-1.57 -0.703,-2.106c-0.059,-0.185 -0.203,-0.273 -0.467,-0.233l-0.117,0.35l-0.351,-0.117c0,0.157 0,0.312 0,0.468c-0.157,0 -0.311,0 -0.467,0c0,-0.156 0,-0.311 0,-0.468l0.117,-0.35l0.35,0.117c-0.254,-0.877 0.576,-0.663 0.468,-1.404c-0.906,-0.945 -1.871,-2.31 -3.041,-2.807c-0.283,-0.118 -0.828,-0.049 -1.17,-0.234c-0.195,-0.097 -0.468,-0.537 -0.701,-0.703c-0.849,-0.593 -1.365,-0.623 -2.34,-0.934c-0.537,-0.166 -0.789,-0.381 -1.17,-0.469c-1.062,-0.234 -2.164,-0.126 -3.275,-0.468c-0.779,0.078 -0.838,0.887 -1.402,1.171c-0.362,0.419 -1.61,-0.05 -1.405,0.935c-0.798,0.438 0.399,0.818 0.235,1.404c-0.44,1.979 -0.596,4.25 -1.405,5.848c0.137,0.877 0.877,1.15 0.936,2.104c-0.342,0.363 -0.594,0.821 -1.17,0.938l0.117,0.349l-0.117,0.352c0.313,0 0.625,0 0.936,0c0.107,0.731 -0.594,0.839 -0.936,0.468l-0.234,-0.117l-0.233,-0.117c-0.371,0.692 -0.293,2.085 -0.478,3.041c-0.156,0.848 -0.537,1.697 -0.692,2.574c-0.4,2.203 -0.429,3.781 -0.703,5.847c-0.097,0.712 -0.467,1.745 -0.467,2.107c0,0.097 0.215,0.331 0.235,0.232c-0.264,1.96 -0.811,3.637 -0.936,5.381c-0.156,1.989 -0.381,3.423 -0.468,4.913c-0.049,0.79 0.087,1.6 0,2.34c-0.049,0.359 -0.45,0.614 -0.467,0.934c-0.039,0.459 0.261,1.103 0.232,1.639c-0.029,0.42 -0.232,0.798 -0.232,1.17c-0.012,0.359 0.261,0.759 0.232,1.168c-0.049,0.557 -0.398,1.034 -0.467,1.639c-0.048,0.322 0.223,0.623 0.235,0.701c0,0.294 -0.235,0.332 -0.235,0.703c-0.048,2.339 0.098,3.908 -0.234,5.614c0.293,0.712 1.394,0.623 1.404,1.637c-0.468,0 -0.935,0 -1.404,0c-0.557,1.686 1.199,5.955 -1.871,6.083l0.117,0.35l-0.352,0.118c0.049,0.399 -0.273,0.575 -0.244,0l-0.341,-0.118l0.117,-0.35c-0.877,0.282 -1.823,0.019 -2.573,0.234c-0.837,0.244 -1.335,1.033 -2.105,1.168c-0.564,0.099 -0.518,-0.427 -1.17,-0.233c-0.428,0.673 -0.887,1.307 -1.404,1.871c-1.151,0.196 -3.385,0.8 -4.449,0.702c-0.567,-0.058 -1.026,-0.458 -1.639,-0.468c-1.297,-0.019 -2.623,0.497 -4.211,0.235c-0.332,0.302 -0.109,1.149 -0.703,1.17c-0.721,0.165 -0.692,-0.401 -1.403,-0.234c-1.365,0.769 -3.042,0.029 -4.212,1.169c-1.784,-0.419 -3.579,1.072 -5.625,1.17c-0.088,0.711 0.623,1.189 -0.225,1.403c-1.529,-1.014 -3.432,-0.283 -5.625,-0.702c-0.613,0.166 -0.486,1.063 -1.16,1.17c-0.682,-0.029 -0.408,-0.995 -1.17,-0.935c-1.111,0.224 -2.359,0.643 -3.051,0.935c-0.848,0.37 -1.17,0.264 -2.096,0.468c-0.41,0.087 -0.955,0.331 -1.404,0.468c-1.082,0.322 -1.658,0.614 -2.574,0.234c-1.102,0.789 -2.35,0.507 -3.744,0.701c-2.086,0.284 -5.225,1.824 -6.549,2.574c-1.141,0.643 -2.232,1.267 -3.275,1.638c-2.155,0.75 -5.098,0.009 -7.721,0.467c-0.526,0.088 -1.151,0.478 -1.881,0.702c-0.313,0.098 -0.818,0.147 -1.16,0.234c-1.209,0.293 -1.539,0.731 -2.34,0.935c-1.063,0.274 -2.25,0.195 -3.275,0.469c-0.028,0.37 0.031,0.808 -0.467,0.701c-0.371,-0.097 -0.205,-0.74 -0.936,-0.467c-1.502,0.399 -3.09,1.159 -4.679,1.637c-1.432,0.429 -2.338,0.224 -3.508,0.234c-0.906,0.01 -1.785,0.468 -2.574,0.702c-0.381,0.108 -1.043,0.087 -1.403,0.234c-0.537,0.205 -0.635,0.614 -1.17,0.702c-1.599,-0.614 -2.642,0.468 -3.976,0.936c-0.528,0.174 -1.044,0.272 -1.639,0.467c-0.516,0.166 -1.179,0.39 -1.637,0.468c-0.79,0.136 -1.404,-0.409 -2.105,0.235c-0.994,-0.985 -3.236,-0.225 -3.977,0.466c-0.916,-0.497 -2.691,-0.117 -3.977,-0.233c0.019,1.346 -0.839,1.812 -1.404,2.573l0.117,0.352l-0.117,0.35c0.263,0.273 0.263,0.829 0.234,1.404c-1.159,0.205 -0.965,-0.77 -0.702,-1.404c0.078,0 0.156,0 0.234,0l-0.117,-0.35l0.117,-0.352c-0.167,-0.847 0.965,-0.906 0.234,-1.637c-0.964,-0.185 -0.449,1.121 -1.404,0.936c-0.243,0.623 -0.945,0.77 -1.403,1.169c-0.556,1.404 -0.478,3.432 -0.702,5.146c1.501,-0.184 2.3,0.352 3.743,0.235c0.662,-0.117 0.331,-1.219 1.403,-0.936c0.527,0.253 0.849,0.711 0.937,1.403c1.139,-0.136 2.143,0.38 3.274,0.468c1.775,0.147 3.87,-0.321 4.913,-0.234c0.263,0.02 0.644,0.391 0.937,0.469c1.529,0.438 2.474,0.38 3.508,0c0.847,0.945 2.242,1.062 3.976,1.17c2.242,0.145 3.529,-0.147 4.445,-0.703c0.77,0.742 2.321,-0.019 3.743,0c0.742,0.01 1.414,0.302 2.105,0.234c0.576,-0.058 0.945,-0.36 1.404,-0.467c0.858,0.701 2.379,0.731 3.977,0.701c0.517,-0.8 0.586,-2.066 1.871,-2.105c0.117,0.653 0.342,1.219 0.469,1.871c1.636,-0.068 3.693,0.273 4.677,-0.467c0.44,0.418 1.541,0.165 2.34,0.233c0.586,-0.272 0.782,-0.936 1.639,-0.936c0.682,0.177 0.447,1.268 1.402,1.17c2.008,0.058 3.608,-0.292 5.147,-0.701c1.871,0.818 4.982,0.536 6.551,0c1.754,1.092 3.412,-0.069 5.615,-0.235c0.586,-0.419 -0.303,-2.319 0.935,-2.105c-0.134,0.761 0.157,1.092 0.235,1.637c3.324,-0.136 6.26,-0.233 10.529,-0.233c0.545,-0.068 0.43,-0.809 1.17,-0.703c2.555,1.064 5.469,-0.691 8.891,-0.232c0.429,0.339 0.615,0.935 1.404,0.935c0.322,0.009 0.508,-0.107 0.701,-0.234l-0.115,-0.352l0.349,-0.117c0.049,-0.185 0.196,-0.271 0.469,-0.232l0.233,0.116l0.234,0.116c0.459,-0.828 1.756,-0.896 3.043,-0.701c0.33,0.049 0.252,0.37 0.701,0.469c0.43,0.096 1.053,-0.088 1.404,0c0.487,0.116 0.467,0.68 0.936,0.466c1.092,-0.505 3.219,-1.081 4.686,-0.466c0.3,-0.859 1.773,-0.479 2.572,-0.704c1.004,-0.291 2.174,-0.984 2.34,0.235l0.234,-0.117l0.234,0.117c0.633,-0.429 0.75,0.068 1.637,0c1.832,-0.146 4.123,-1.014 5.85,-0.468c0.457,1.316 0.047,2.836 0.232,4.211c0.108,0.868 0.985,1.588 0.469,2.339c0.379,0.312 0.799,0.596 0.935,1.17c-0.136,0.439 -0.244,0.945 -0.234,1.403c0.01,0.956 0.74,3.49 0.701,4.211c-0.008,0.127 -0.32,0.117 -0.232,0.468c0.146,0.654 0.838,1.043 0.691,1.64c-0.097,0.448 -0.662,0.416 -0.459,1.168c0.664,0.731 0.44,1.785 0.703,2.338c0.291,0.645 0.76,1.453 0.692,2.106c0.488,0.302 1.189,0.371 1.179,1.17c-0.097,0.604 -0.701,0.702 -0.701,1.403c0.75,0 0.174,0.605 0.233,0.936c0.029,0.205 0.459,0.586 0.468,0.935c0,0.294 -0.322,0.333 -0.234,0.703c0.127,0.575 0.449,0.575 0.469,1.17c0.01,0.643 -0.215,1.364 -0.235,2.105c-0.097,0.555 1.063,-0.127 0.702,0.702c0.293,1.023 0.068,1.043 -0.233,1.872c0.35,0.584 0.447,1.423 0.467,2.338c0.215,0.255 0.857,0.069 0.701,0.703c0.508,0.497 -0.301,0.691 -0.232,1.403c0.515,3.002 1.793,6.151 2.105,8.89c0.125,1.208 0.233,1.569 0.467,2.339c0.361,1.208 0.244,1.823 0.936,2.339c-0.565,1.257 0.546,1.023 0.701,2.105c-0.467,1.122 -0.008,2.164 0.234,3.51c0.293,1.667 0.625,2.67 0.936,3.743c0.615,2.163 0.791,4.249 1.873,5.614c-0.166,1.871 1.248,2.184 1.392,3.742c0.049,0.82 -0.789,0.771 -0.926,1.405c0.44,0.028 0.157,0.77 0.704,0.702l0.115,-0.352l0.351,0.118c0.157,0 0.313,0 0.469,0c0,0.156 0,0.311 0,0.467c-0.156,0 -0.312,0 -0.469,0l-0.117,0.351l-0.349,-0.117c0.408,1.112 0.496,1.882 0.691,2.808c0.264,1.169 0.711,1.744 0.945,2.573c0.166,0.624 0.049,1.257 0.235,1.872c0.127,0.438 0.554,0.925 0.701,1.403c0.185,0.634 0.224,1.18 0.234,1.872c0.916,0.945 1.239,2.494 1.637,3.977c0.566,0.36 0.926,0.935 1.404,1.403c0.819,1.053 0.584,2.767 0.936,3.51c0.068,0.165 0.107,0.388 0.234,0.701c0.379,0.984 1.346,1.628 1.403,2.573c0.39,0 0.781,0 1.169,0c-1.695,1.053 0.049,2.466 0.235,4.211c0.156,0.458 1.297,-0.059 1.404,0.467c0.108,0.742 -0.723,0.527 -0.469,1.404c0.567,1.229 0.77,2.817 1.629,3.743c-0.068,1.326 0.77,2.368 1.178,3.509c0.098,0.274 -0.086,0.653 0,0.937c0.088,0.301 0.313,0.584 0.469,0.935c0.449,1.052 0.984,1.91 1.404,2.808c0.086,0.193 -0.098,0.506 0,0.701c0.039,0.088 0.408,0.127 0.467,0.234c0.088,0.185 -0.098,0.506 0,0.701c0.039,0.088 0.41,0.127 0.469,0.235c0.339,0.652 0.662,1.266 0.925,1.871c0.137,0.302 0.108,0.838 0.245,1.17c0.125,0.322 0.339,0.623 0.466,0.935c0.838,2.252 1.483,4.192 2.34,6.317c0.613,0.155 1.19,0.37 1.637,0.701c0.039,0.663 -0.799,0.459 -0.467,1.404c0.02,0.605 0.906,0.331 0.936,0.936c0.662,2.379 2.222,3.85 2.562,6.55c0.479,0.312 0.801,0.77 0.945,1.404c-0.078,2.642 1.874,3.275 2.34,5.38c0.137,0.399 1.102,-0.02 1.17,0.468c0.088,0.565 -0.429,0.506 -0.234,1.17c0.556,0.389 0.449,1.082 0.693,1.637c0.262,0.584 0.721,1.072 0.936,1.637c0.146,0.361 0.127,0.839 0.244,1.17c0.642,1.97 1.812,3.471 2.807,4.913c0.408,0.614 0.906,1.188 1.404,1.871c2.015,2.798 3.469,6.814 5.613,9.124c0.264,1.131 1.18,1.628 1.395,2.807c0.302,0.322 1.15,0.097 1.177,0.702c-0.496,0.546 0.039,0.839 0.235,1.17c0.107,0.185 0.088,0.516 0.234,0.701c0.449,0.565 1.356,0.614 1.639,1.17c0.047,0.438 -0.274,0.516 -0.235,0.935c2.331,2.584 4.68,5.148 6.082,8.656c1.327,0.069 1.268,1.531 2.106,2.106c0.137,0.751 -0.44,0.721 0,1.17c1.17,1.247 1.969,2.856 3.275,3.977c0.244,0.604 0.838,0.867 0.926,1.637c0.565,0.147 1.705,-0.293 1.881,0.234c0.244,0.878 -0.586,0.663 -0.477,1.403c0.672,0.975 1.207,2.066 1.881,3.041c0.78,-0.028 1.239,-0.467 1.637,0.234c-0.254,0.946 0.088,1.288 0,2.574c1.561,1.559 2.887,3.353 4.445,4.912c0.682,0.4 0.487,1.687 1.871,1.404c0.235,-2.427 -0.906,-3.47 -1.179,-5.38c-0.244,-0.537 -0.907,-0.654 -1.16,-1.17c0.468,-0.498 -0.34,-1.043 -0.467,-1.638c-0.858,-0.283 -1.854,0.468 -2.115,0c-0.098,-1.121 1.197,-0.837 1.179,-1.872c-0.537,-0.876 -1.189,-1.618 -1.648,-2.573c-0.78,0.088 -2.076,0.702 -1.871,-0.701c-0.039,-0.507 0.838,-0.107 1.179,-0.234c-0.244,-1.628 -1.423,-2.32 -1.638,-3.977c-0.35,-0.273 -0.965,-0.292 -1.178,-0.702c0,-0.556 0.408,-0.691 0.242,-1.403c-0.73,-0.82 -0.945,-1.891 -1.402,-2.808c-0.508,-1.004 -1.131,-1.822 -1.639,-2.807c-0.174,-0.34 -0.088,-0.828 -0.234,-1.17c-0.213,-0.448 -0.74,-0.77 -0.946,-1.169c-0.261,-0.555 -0.232,-1.131 -0.457,-1.638c-0.459,-1.004 -1.13,-1.94 -1.414,-3.041c-0.672,0.059 -0.798,-0.439 -1.16,-0.701c-0.097,-0.566 0.42,-0.508 0.225,-1.17c-0.916,-1.024 -1.559,-2.329 -1.862,-3.978c-0.351,-0.039 -0.867,0.088 -0.935,-0.233c0.078,-0.828 0.642,-0.575 0.234,-1.403c-0.547,-1.57 -1.511,-2.71 -1.404,-4.914c-0.75,-0.886 -1.033,-2.241 -1.881,-3.041c0.594,-1.218 -0.945,-2.105 -0.935,-3.508c-0.528,0.067 -0.879,-0.059 -0.926,-0.468c0.642,-1.015 -0.196,-2.136 -0.235,-3.509c-0.048,-1.151 0.448,-2.389 0.235,-3.51c-0.254,-1.247 -1.102,-1.998 -1.873,-2.339c-0.186,-0.878 0.283,-1.121 0.234,-1.871c-0.486,-0.77 -0.555,-1.95 -1.412,-2.34c0.147,-1.696 -0.674,-3.547 -1.162,-5.38c-0.525,-1.951 -0.963,-3.928 -1.637,-5.615c-0.312,-0.624 -1.033,-0.838 -1.414,-1.403c0.235,-1.735 -0.953,-2.524 -1.158,-3.743c-0.107,-0.585 0.232,-1.413 0.232,-2.106c-0.009,-1.598 -1.646,-5.283 -0.945,-5.847c0.156,-0.117 -0.234,-0.294 -0.223,-0.235c-0.021,-0.37 -0.058,-0.809 0,-1.17c0.194,-1.326 1.911,-1.872 2.094,-3.041c0.244,-1.471 -1.187,-3.06 -1.637,-4.678c-0.156,-0.605 0.098,-1.141 0,-1.638c-0.156,-0.839 -0.681,-1.004 -0.935,-1.871c0.39,-2.33 -0.809,-3.08 -0.692,-5.147c-0.234,-0.634 -0.81,-0.906 -0.935,-1.637c-0.029,-0.634 0.379,-0.469 0,-0.936c-0.879,-1.618 -1.443,-3.549 -2.106,-5.381c-0.351,-0.273 -0.966,-0.293 -1.179,-0.702c-0.244,-0.877 0.584,-0.663 0.476,-1.403c-0.672,-1.276 -0.984,-2.925 -0.935,-4.913c-0.303,-0.711 -0.867,-1.17 -0.936,-2.106c-0.078,-0.935 0.41,-1.296 0.235,-2.339c-0.264,-0.36 -0.772,-0.487 -0.711,-1.169c0.222,-0.634 1.275,-0.449 0.935,-1.638c0.321,-1.023 -0.896,-0.497 -0.693,-1.403c0.566,-1.648 -1.209,-2.593 -0.936,-4.679c-0.545,-0.078 -1.013,-0.244 -1.17,-0.701c0.459,-0.469 0.069,-1.152 0.235,-1.872c0.136,-0.605 0.537,-0.566 0.469,-1.404c-0.137,-1.52 -0.938,-2.408 -2.34,-2.807c-0.254,-0.878 0.877,-0.37 0.701,-1.17c-0.623,-2.106 -0.955,-4.513 -1.637,-6.55c-0.682,-0.253 -1.131,-0.751 -1.648,-1.17c0.009,-0.701 0.615,-0.8 0.713,-1.404c-0.274,-0.35 -0.684,-0.575 -0.713,-1.169c-0.145,-1.286 0.021,-2.448 -0.235,-3.742c-0.174,-0.966 -0.758,-1.873 -0.924,-2.809c-0.146,-0.759 0.106,-1.568 0,-2.339c-0.214,-1.471 -1.218,-2.856 -1.404,-4.445c-0.088,-0.711 0.117,-1.647 0,-2.338c-0.293,-1.639 -1.619,-3.101 -1.414,-4.913c-0.205,-0.409 -0.857,-0.391 -0.926,-0.936c0.391,-1.248 -0.701,-1.013 -0.711,-1.872c1.237,-1.861 -0.683,-3.636 -0.925,-5.614c-0.147,-1.141 0.603,-2.096 0,-3.273c-0.537,-0.324 -1.463,-0.255 -1.405,-1.171c0.244,-0.8 0.819,-1.015 0.936,-1.872c0.264,-1.95 -1.111,-2.623 -1.402,-3.977c-0.088,-0.361 0.232,-0.897 0.232,-1.17c-0.01,-1.17 -0.438,-1.842 -0.936,-2.573c0.44,-0.585 -0.019,-1.452 0,-2.34c0.02,-1.335 0.664,-2.826 -0.234,-3.742c0.332,-1.19 0.625,-2.71 0.234,-3.978c0.176,-0.048 0.264,-0.195 0.235,-0.467c0.506,-0.263 0.955,-0.604 1.871,-0.468c0.547,-0.069 0.43,-0.809 1.17,-0.701c1.267,0.418 1.929,0 3.041,-0.235c3.217,-0.672 6.025,-1.092 8.881,-1.638c1.236,-0.233 2.435,-0.72 3.507,-0.935c0.936,-0.186 1.249,-0.049 1.872,-0.234c0.947,-0.283 1.824,-0.682 2.584,-0.936l-0.118,-0.429l0.352,-0.272c-0.205,-0.274 -0.313,-0.625 -0.234,-1.17c0.4,-0.02 0.72,0.049 0.935,0.234c0,0.234 0,0.467 0,0.701l0.352,0.274l-0.118,0.428c1.073,0.147 1.346,-0.526 2.329,-0.467c0.361,-0.352 0.078,-1.336 0.945,-1.17c2.322,1.053 4.689,-0.995 7.488,-0.936c0.106,-0.594 -0.859,-2.027 0.233,-2.105c0.838,-0.147 0.322,0.76 0.468,1.17c0.205,0.584 0.469,0.76 0.692,1.17c1.658,0.096 2.457,-0.674 3.285,-1.405l-0.244,0l0,-0.234c-0.369,-0.078 0.019,-0.331 0.478,-0.234l0.117,-0.35l0.106,0.35c1.98,-1.15 4.572,-1.666 7.262,-2.105c-0.03,2.164 0.732,4.026 1.17,6.316c0.439,0.098 1.005,0.087 0.937,0.702c0.223,1.082 -0.312,1.413 -0.469,2.105c0.469,1.609 0.33,3.246 0.469,4.913c0.096,1.335 0.535,2.652 0.692,3.977c0.117,0.868 0.156,1.891 0.244,2.807c0.068,0.829 0.242,1.872 0.232,2.574c-0.01,0.448 -0.264,0.75 -0.232,1.169c0.068,1.443 0.408,3.022 0.466,4.445c0.02,0.633 -0.244,1.198 -0.234,1.871c0,0.673 0.264,1.238 0.234,1.872c-0.029,0.4 -0.253,0.789 -0.234,1.171c0.029,0.759 0.469,1.548 0.459,2.338c0,0.878 -0.293,1.9 -0.459,2.808c0.459,0.467 0.41,1.461 0.938,1.871c-0.909,0.702 -0.577,1.267 -0.235,2.339c0,0.625 -0.742,0.507 -0.703,1.169c0.049,2.047 0.215,3.354 0,5.381c-0.271,2.534 -0.848,5.458 -0.945,7.487c-0.059,1.354 0.019,2.261 -0.223,3.041c-0.156,0.458 -0.596,0.701 -0.703,1.17c-0.254,1.051 0,2.115 -0.234,3.04c-0.157,0.586 -0.672,1.034 -0.711,1.638c-0.059,0.964 0.146,1.901 0.478,2.807c-0.049,0.662 -1.123,0.292 -0.937,1.17c-0.369,0.867 -0.262,1.773 -0.467,2.806c-0.147,0.693 -0.547,1.424 -0.711,2.107c-0.166,0.759 -0.273,1.598 -0.459,2.339c-0.215,0.808 -0.604,1.637 -0.701,2.105c-0.332,1.51 -0.196,3.099 -0.469,4.445c-0.107,0.487 -0.342,0.877 -0.477,1.403c-0.273,1.141 -0.654,1.92 -0.927,2.808c-0.282,0.877 -0.272,1.813 -0.467,2.806c-0.127,0.625 -0.74,1.024 -0.936,1.639c-0.117,0.35 0.088,0.808 0,1.169c-0.087,0.332 -0.546,0.955 -0.703,1.404c-0.183,0.517 -0.652,1.062 -0.232,1.637c1.314,0.234 1.297,-0.887 2.105,-1.17c0.41,0.206 0.584,0.654 1.393,0.469c0.41,-0.341 0.898,-0.654 1.414,-0.936c0.459,-0.254 1.228,-0.41 1.637,-0.702c0.488,-0.352 0.849,-1.082 1.404,-1.638c0.799,-0.799 1.404,-1.364 1.871,-2.105c0.371,-0.604 1.209,-1.257 0.938,-2.106c0.632,-0.604 1.041,-1.452 0.935,-2.806c1.119,-0.908 1.627,-2.418 1.871,-4.211c-0.517,-0.518 -1.297,0.565 -1.404,-0.469c0.4,-0.936 1.297,0.068 1.871,-0.701c0.264,-0.654 0.264,-1.219 0,-1.872c0.818,-0.273 0.713,-1.462 0.691,-2.573c1.219,-1.287 1.737,-3.256 1.649,-5.848c1.209,-2.408 3.547,-4.825 2.806,-8.422c0.567,-1.375 1.053,-2.847 1.395,-4.444l-0.42,0.116l-0.273,-0.351c-1.188,0.243 -1.217,-0.653 -1.178,-1.637c0.31,0 0.633,0 0.945,0c0.069,0.545 0.36,0.877 0.233,1.637l0.429,-0.117l0.264,0.352c0.244,-0.049 0.205,-0.205 0.234,-0.469c0.274,-2.125 0.633,-4.981 0.711,-7.954c0.166,-0.721 -0.642,-0.448 -0.476,-1.169c1.109,-0.986 0.799,-2.223 0.935,-3.977c0.118,-1.384 0.682,-3.139 0.701,-4.445c0.02,-0.585 -0.273,-1.286 -0.224,-1.872c0.039,-0.535 0.351,-1.014 0.459,-1.636c0.281,-1.502 0.525,-3.052 0.242,-3.977c0.801,-1.112 0.07,-2.623 0.234,-3.978c0.059,-0.526 0.555,-0.896 0.704,-1.403c0.486,-1.765 -0.313,-3.139 0.232,-4.446c-0.154,-0.701 -0.906,-0.818 -0.701,-1.871c-0.254,-0.878 0.877,-0.37 0.701,-1.17c-0.02,-3.147 -0.281,-5.721 0.225,-8.655c-0.069,-0.556 -0.809,-0.438 -0.692,-1.17c0.594,-0.096 0.428,-0.653 0.467,-0.935c0.371,-2.944 -0.418,-6.073 -0.467,-8.89c0.098,-0.37 0.731,-0.205 0.467,-0.936c-0.068,-0.955 -0.447,-1.588 -0.701,-2.339c0.359,-0.809 0.547,-1.794 0.469,-3.041c1.226,-1.034 2.884,-1.637 4.668,-2.106c0.136,-0.341 -0.274,-1.209 0.244,-1.17c0.847,-0.154 0.896,0.508 1.627,0.468c0.964,-0.682 2.056,-1.219 3.285,-1.638c0.136,-0.487 -0.291,-1.54 0.234,-1.636c1.16,-0.303 0.994,0.721 1.871,0.702c1.989,-0.771 3.684,-1.99 5.85,-2.106c0.953,-1.218 3.129,-1.238 4.199,-2.34c-0.35,-0.419 -0.838,-0.721 -0.701,-1.636c0.517,-0.264 0.965,-0.606 1.881,-0.469c0.039,0.984 -1.151,0.722 -0.946,1.872c2.252,-0.644 3.725,-2.047 5.85,-2.808c0.486,-0.067 0.057,-1.032 0.711,-0.935c0.467,0 0.926,0 1.402,0c0.45,-0.79 1.59,-0.897 2.108,-1.638c2.017,-0.389 2.933,-1.89 4.912,-2.34c0.349,-0.506 0.252,-1.452 0.935,-1.636c0.731,-0.118 0.526,0.721 1.393,0.468c2.369,-1.687 4.68,-3.442 7.262,-4.914c-0.311,0 -0.301,-0.653 0,-0.701c0.517,-0.546 0.906,0.078 1.638,0c1.92,-0.965 3.227,-2.535 5.147,-3.51c0.185,-0.613 -0.711,-1.286 0,-1.637c0.896,-0.126 0.955,0.594 1.627,0.703c1.062,-1.131 2.711,-1.668 3.744,-2.809c0.039,-0.721 -0.547,-1.325 0,-1.871c0.76,-0.137 1.092,0.156 1.646,0.234c0.75,-0.692 1.415,-1.315 2.331,-1.872c0.515,-0.302 1.169,-0.36 1.646,-0.701c1.453,-1.063 2.107,-2.934 3.744,-3.744c-0.283,-1.919 1.004,-2.261 1.17,-3.742c0.438,-0.048 0.506,0.264 0.936,0.234l-0.118,-0.35l0.34,0.116c0.801,-0.76 0.996,0.39 1.649,0.468c0.457,-0.439 0.068,-0.858 0,-1.404c0.41,-0.205 0.593,-0.652 1.402,-0.467c0.342,-1.444 1.57,-2.019 2.799,-2.575c0.32,-1.48 1.851,-1.734 1.646,-3.742c0.303,-0.234 0.858,-0.234 1.17,-0.468c0.313,-2.261 1.774,-3.372 3.032,-4.678c0.253,-1.472 1.326,-2.116 1.871,-3.276c0.351,-0.507 1.345,-0.37 1.404,-1.17c-0.408,-0.437 -0.828,-0.877 -1.17,-1.403Z" style="fill:#fff;fill-rule:nonzero;"></path><path d="M623.075,83.541c0.723,-0.106 0.742,0.498 0.703,1.169c-0.31,0 -0.634,0 -0.937,0c-0.078,-0.545 0.029,-0.896 0.234,-1.169ZM624.948,88.22c-0.74,0.264 -0.574,-0.37 -0.935,-0.468c0.068,-0.497 1.101,-0.049 0.935,0.468ZM624.247,80.967c0.234,0 0.467,0 0.701,0c0,0.235 0,0.469 0,0.703c-0.234,0 -0.467,0 -0.701,0c0,-0.234 0,-0.468 0,-0.703ZM625.183,90.326c-0.623,0.067 -0.77,-0.323 -0.702,-0.936c0.614,-0.069 0.76,0.321 0.702,0.936ZM627.044,76.991c0.088,0.868 -0.574,0.974 -1.16,1.171c0.039,-0.732 0.429,-1.123 1.16,-1.171ZM630.798,63.891c0.467,-0.078 0.73,0.049 0.701,0.468c-0.234,0 -0.469,0 -0.701,0c0,-0.156 0,-0.313 0,-0.468ZM631.265,60.617c0.798,-0.099 1.326,0.067 1.17,0.934c-0.391,0 -0.78,0 -1.17,0c0,-0.311 0,-0.624 0,-0.934ZM641.792,109.508l-0.127,-0.352l0.127,-0.35c0,-0.157 0,-0.313 0,-0.468c0.361,0.019 0.809,-0.029 0.701,0.468c-0.076,0 -0.154,0 -0.232,0l0.117,0.428l-0.352,0.274c-0.029,0.282 -0.078,0.555 -0.468,0.468c0.195,0.507 0.605,0.798 0.468,1.637c-1.033,0.264 -0.945,-2.066 -0.234,-2.105ZM642.261,40.965c0.506,-0.04 0.097,0.828 0.232,1.169c-0.408,-0.214 -0.613,-0.818 -0.232,-1.169ZM643.663,83.776c0.156,0 0.313,0 0.469,0c0,0.156 0,0.311 0,0.467c-0.156,0 -0.313,0 -0.469,0c0,-0.156 0,-0.311 0,-0.467ZM647.64,34.883c0.068,0.614 -0.33,0.77 -0.936,0.701c-0.078,-0.614 0.322,-0.769 0.936,-0.701ZM651.851,68.57c0.664,0.116 0.664,0.886 0.935,1.403l0.303,0.303l0.166,0.398l-0.43,0.117l-0.271,-0.349c-0.664,0.194 -0.616,-0.332 -1.18,-0.235c0.029,-0.925 1.023,-0.711 0.477,-1.637ZM653.724,70.207c0.72,-0.107 0.74,0.498 0.701,1.169c-0.391,0 -0.779,0 -1.17,0c-0.205,-0.75 0.361,-0.721 0.469,-1.169ZM655.36,67.868c0.157,0 0.313,0 0.467,0c0,0.156 0,0.312 0,0.468c-0.154,0 -0.31,0 -0.467,0c0,-0.156 0,-0.312 0,-0.468ZM657.935,62.488c0.261,0.038 0.252,0.369 0.232,0.701l0.117,0.233l-0.117,0.235c0.547,0 -0.088,0.633 -0.467,0.467c0,-0.155 0,-0.311 0,-0.467l-0.117,-0.351l0.352,-0.117c-0.098,-0.332 -0.284,-0.4 0,-0.701ZM661.911,61.551c0.486,-0.097 0.613,0.156 0.936,0.235c-0.049,0.681 -1.121,0.564 -0.936,-0.235ZM664.952,9.384c-0.058,0.858 -0.322,0.897 0,1.637c-0.43,0.029 -0.498,-0.281 -0.935,-0.234c0.222,-0.555 0.068,-1.481 0.935,-1.403ZM667.292,55.468c0.154,0 0.311,0 0.467,0l0.224,0.118l0.245,0.117c0.195,-0.576 0.535,-1.013 1.392,-0.935c0.244,1.091 -0.4,1.306 -1.392,1.169l-0.245,0.117l-0.224,-0.117c-0.059,0.185 -0.205,0.272 -0.467,0.234c0,-0.234 0,-0.468 0,-0.703ZM675.011,46.814c0.156,0 0.302,0 0.459,0c0,0.156 0,0.312 0,0.468c-0.157,0 -0.303,0 -0.459,0c0,-0.156 0,-0.312 0,-0.468ZM677.116,46.345c0.147,0 0.303,0 0.459,0c0,0.156 0,0.313 0,0.469c-0.156,0 -0.312,0 -0.459,0c0,-0.156 0,-0.313 0,-0.469ZM677.341,43.772c0.506,-0.107 0.447,0.332 0.476,0.702c-0.242,0 -0.476,0 -0.701,0c0.117,-0.185 0.244,-0.381 0.225,-0.702ZM678.286,7.512c0.156,0 0.311,0 0.467,0c0,0.156 0,0.313 0,0.469c-0.156,0 -0.311,0 -0.467,0c0,-0.156 0,-0.313 0,-0.469ZM680.392,40.263c0.156,0 0.312,0 0.466,0c0,0.234 0,0.468 0,0.702c-0.242,0 -0.466,0 -0.701,0c-0.068,-0.381 0.215,-0.399 0.235,-0.702ZM682.731,38.392c0.467,-0.078 0.731,0.049 0.692,0.468c-0.235,0 -0.457,0 -0.692,0c0,-0.156 0,-0.313 0,-0.468ZM686.239,30.204c0.469,-0.079 0.731,0.049 0.703,0.468c-0.234,0 -0.478,0 -0.703,0c0,-0.156 0,-0.312 0,-0.468ZM687.399,25.526c0.372,0.263 0.489,0.76 1.18,0.701c0.068,0.546 -0.039,0.897 -0.234,1.17c-0.701,-0.165 -0.858,-0.858 -1.403,-1.17c0.145,-0.233 0.536,-0.244 0.457,-0.701ZM689.515,21.315c0.468,-0.078 0.73,0.049 0.701,0.469c-0.233,0 -0.467,0 -0.701,0c0,-0.157 0,-0.313 0,-0.469ZM648.81,120.269c0.615,-0.069 0.761,0.321 0.703,0.936c-0.616,0.067 -1.014,-0.089 -0.938,-0.702c0.196,0.039 0.215,-0.088 0.235,-0.234ZM649.745,125.883c0.547,0 1.092,0 1.629,0c-0.527,0.8 -0.691,1.959 -1.629,2.34c-0.711,-1.102 0.537,-1.404 0,-2.34ZM659.103,123.076c0.156,0 0.312,0 0.468,0c0,0.155 0,0.312 0,0.468c-0.156,0 -0.312,0 -0.468,0c0,-0.156 0,-0.313 0,-0.468ZM688.345,122.14c-0.721,-0.165 -0.457,-0.165 -1.18,0c-0.35,-0.722 1.531,-0.722 1.18,0ZM689.271,122.14c0.322,0 0.634,0 0.945,0c0.176,0.896 -1.119,0.896 -0.945,0ZM691.62,120.971c0.574,-0.03 1.121,-0.04 1.395,0.234c-0.088,0.438 -1.746,0.944 -1.395,-0.234ZM694.192,116.058c-0.056,0.293 -0.466,0.233 -0.466,0c0.097,-0.341 0.205,0.019 0.466,0ZM696.532,107.402c0.469,-0.078 0.733,0.048 0.694,0.468c-0.235,0 -0.469,0 -0.694,0c0,-0.156 0,-0.311 0,-0.468ZM696.757,83.541c0.156,0 0.312,0 0.469,0l0.127,-0.35l0.115,0.35c0.342,-0.273 0.586,-0.273 0.937,0c0.108,0.527 -0.595,1.404 -0.937,0.702l-0.35,0.117l0.108,-0.35c-0.157,0 -0.313,0 -0.469,0c0,-0.156 0,-0.312 0,-0.469ZM698.161,78.862c0.166,0 0.322,0 0.477,0c0,0.156 0,0.312 0,0.469c-0.155,0 -0.311,0 -0.477,0c0,-0.157 0,-0.313 0,-0.469ZM704.944,90.091c0.623,0.078 0.801,0.615 0.946,1.17c-0.213,0.185 -0.536,0.253 -0.946,0.235c-0.447,-0.44 -0.068,-0.859 0,-1.405ZM620.731,93.835c0.235,1.51 0.938,3.645 1.172,4.912c0.266,1.511 0.635,2.28 0.938,3.274c0.529,1.755 0.888,3.374 1.406,4.914c0.342,0.039 0.857,-0.088 0.936,0.234c-0.411,-0.01 -0.604,0.175 -0.702,0.467c0.487,1.414 1.334,3.06 1.872,3.977c0.488,0.848 0.935,1.189 1.404,1.871c0.183,0.283 0.291,0.644 0.467,0.936c0.691,1.19 1.199,1.315 2.105,2.34c0.186,0.214 0.244,0.662 0.469,0.935c0.437,0.546 0.916,1.074 1.637,1.17c0.41,0.994 1.111,1.697 2.105,2.106c0.547,-0.069 0.965,-0.459 1.404,0c0.164,0.711 -0.41,0.691 -0.234,1.403c0.906,0.653 1.617,1.491 2.807,1.871c0.693,0.05 0.791,-0.867 1.404,-0.233c0.088,0.564 -0.43,0.507 -0.244,1.169c1.316,0.712 2.242,1.813 3.986,2.106c0.215,0.887 1.277,1.101 1.861,1.403c0.342,0.176 0.479,0.585 0.713,0.703c0.643,0.331 1.598,0.165 1.871,0.935c1.327,-0.156 1.911,0.419 3.041,0.468c0.293,0.4 0.477,0.916 1.17,0.935c1.229,-0.136 1.764,0.41 3.041,0.234c-0.019,0.322 0.108,0.517 0.235,0.703c1.353,0.116 2.611,0.341 4.211,0.233c0.632,-0.146 0.574,-0.974 1.402,-0.936c0.342,0.273 0.273,0.974 0.928,0.936c2.201,0.254 3.556,-0.34 4.922,-0.936c1.109,0.547 2.523,0.138 3.742,0.234c0.496,0.039 0.926,0.292 1.404,0.235c0.994,-0.128 1.822,-0.869 2.807,-0.937c0.722,-0.019 1.111,0.283 1.636,0.468c0.518,-0.644 1.649,-0.682 2.34,-1.169c0.147,-0.624 0.098,-1.462 0.459,-1.871c0.828,0.028 1.053,0.672 1.871,0.7c0.342,-0.438 0.352,-1.218 0.946,-1.402c1.59,0.184 1.756,-1.044 2.574,-1.638c1.109,-0.137 2.154,-0.341 3.508,-0.234c0.664,-0.506 1.023,-1.316 2.105,-1.403c0.391,-0.459 0.547,-1.171 1.17,-1.404c0.809,-0.214 1.57,-0.839 2.34,-1.404c0.486,-0.36 1.238,-0.868 1.637,-1.169c0.498,-0.381 0.459,-0.927 0.703,-1.405c0.096,-0.204 0.662,-0.613 0.691,-0.701c0.108,-0.273 -0.068,-0.653 0,-0.936c0.059,-0.204 0.469,-0.39 0.477,-0.468c0.058,-0.507 -0.457,-0.77 -0.242,-1.17c0.906,-0.574 1.236,-1.734 1.636,-2.807c0.469,-0.233 0.828,-0.584 1.18,-0.935c0.107,-1.346 -0.342,-1.775 0,-2.808c0.564,-0.574 1.344,0.508 1.404,-0.467c0.604,-0.478 -1.218,-0.487 -0.935,-1.404c0.515,-0.254 1.17,-0.39 1.636,-0.701c0.215,-0.8 0.653,-1.375 0.457,-2.574c0.391,-1.024 1.532,-1.287 1.649,-2.574c-0.107,-0.829 -1.258,-0.613 -1.414,-1.403c0.662,0.194 0.615,-0.332 1.17,-0.234c0.097,-1.763 0.556,-2.806 0.244,-4.444c0.301,0 0.613,0 0.935,0c0.604,-1.833 2.389,-3.11 1.627,-5.614c1.405,-1.677 0.43,-4.854 -0.232,-6.55c-0.498,-0.585 -1.443,-0.741 -1.873,-1.404c-0.301,-1.804 -1.9,-2.301 -2.797,-3.51c-0.156,-0.935 -0.584,-1.608 -0.945,-2.339c0.166,-0.458 0.635,-0.623 1.179,-0.701c-0.662,-0.897 -0.662,-3.022 -1.414,-3.509l-0.261,0.351l-0.43,-0.118c0.029,0.585 -0.127,0.975 -0.467,1.17c-0.722,0.165 -0.693,-0.4 -1.414,-0.234c0.059,1.881 -2.154,2.379 -1.404,4.211c-0.672,0.039 -0.643,0.681 -0.926,1.169c-0.586,0.965 -0.769,1.54 -1.17,2.574c-0.107,0.273 -0.342,0.644 -0.469,0.936c-0.875,1.959 -1.705,3.898 -2.572,5.848c-0.564,1.257 -1.287,2.476 -1.871,3.743c-0.273,0.585 -0.254,1.179 -0.478,1.638c-0.04,0.087 -0.409,0.116 -0.458,0.234c-0.146,0.311 -0.078,0.798 -0.234,1.169c-0.185,0.428 -0.857,0.615 -0.469,1.17c-0.603,-0.049 -0.838,0.517 -1.168,0.936c-1.025,1.247 -2.127,3.215 -3.041,4.21c-0.439,0.458 -0.644,0.8 -0.935,1.169c-0.586,0.712 -0.918,1.268 -1.414,1.871c-0.352,0.43 -0.596,0.819 -0.936,1.171c-0.556,0.585 -1.316,0.897 -1.629,1.404c-0.759,1.227 -1.968,2.095 -3.041,2.806c0.049,0.44 -0.273,0.518 -0.244,0.937c-1.109,0.204 -1.51,1.139 -2.105,1.871c-1.266,0.438 -2.145,1.55 -3.264,2.34c-0.107,0.068 -0.352,-0.05 -0.479,0c-0.068,0.038 -0.136,0.409 -0.234,0.467c-0.33,0.214 -0.603,0.245 -0.926,0.468c-0.584,0.409 -1.033,0.877 -1.636,1.17c-0.196,0.087 -0.508,-0.078 -0.704,0c-0.146,0.058 -0.242,0.38 -0.466,0.467c-0.469,0.166 -0.965,0.059 -1.405,0.234c-0.117,0.049 -0.293,0.38 -0.466,0.468c-0.245,0.118 -0.518,0.147 -0.704,0.234c-0.398,0.175 -1.052,0.293 -1.402,0.468c-0.916,0.447 -1.59,1.179 -2.34,1.404c-0.517,0.156 -1.131,-0.098 -1.636,0c-0.596,0.107 -0.577,0.428 -1.18,0.467c-0.877,-0.73 -2.242,-0.574 -3.266,-0.936c-1.082,-0.379 -1.843,-1.11 -2.806,-1.403c-0.332,-1.062 -1.541,-1.598 -2.108,-2.573c-0.603,-1.013 -0.857,-2.417 -1.402,-3.744c-0.449,-1.062 -1.072,-2.056 -1.404,-3.04c-0.274,-0.79 -0.245,-1.618 -0.467,-2.34c-0.127,-0.39 -0.391,-0.526 -0.469,-0.935c-0.293,-1.374 -0.342,-2.924 -0.467,-4.445c-0.049,-0.662 -1.121,-0.293 -0.935,-1.17c0.73,0.108 0.906,-0.331 1.402,-0.467c0.205,-1.228 -1.15,-0.877 -0.936,-2.105c0.166,-0.372 1.141,0.047 0.936,-0.703c-0.303,-2.894 1.287,-4.804 0.691,-7.252c0.391,-0.331 0.313,-0.79 0.713,-1.403c0.264,-0.419 0.965,-0.809 1.17,-1.17c0.108,-0.204 0.069,-0.819 0.233,-1.169c0.273,-0.615 0.507,-0.527 0.468,-0.936c-0.078,-0.654 -0.593,-0.799 -0.935,-1.404l-0.352,0.118l-0.351,-0.118c-0.233,0 -0.467,0 -0.701,0c0,-0.156 0,-0.312 0,-0.468c0.234,0 0.468,0 0.701,0l0.351,0.118l0.352,0.116c0,-0.078 0,-0.156 0,-0.234c0.273,-0.272 0.818,-0.263 1.402,-0.234c0.117,-0.828 -0.828,-0.575 -0.701,-1.403c0.654,-0.194 1.443,-0.272 2.105,-0.469c-0.146,-1.705 0.907,-2.202 1.395,-3.274c-0.41,-0.215 -0.809,-0.439 -0.691,-1.17c0.466,0 0.935,0 1.402,0c0.361,-0.487 0.965,-0.74 1.17,-1.403c0.623,-0.157 0.887,-0.673 1.404,-0.936c-0.127,-1.755 1.49,-1.783 1.168,-3.742c0.83,-1.044 1.746,-1.99 3.043,-2.574c0.731,-0.118 0.818,0.419 1.637,0.234c0.594,-0.644 0.633,-1.853 1.871,-1.871c-0.039,-0.741 -0.01,-1.414 0.469,-1.638c0.437,-0.469 1.101,-0.118 1.636,0c0.44,-1.346 2.34,-1.249 1.871,-3.51c0.907,-0.409 1.825,-0.829 1.874,-2.105c-0.42,-0.136 -1.375,0.282 -1.405,-0.233c0.127,-0.731 0.701,-1.005 0.936,-1.638c0.965,0.302 1.705,0.623 2.806,0.233c0.342,-0.741 0.313,-1.861 1.161,-2.105c0.283,-0.273 0.828,-0.264 1.414,-0.234c0.945,-2.641 4.513,-2.661 5.146,-5.614c2.057,-0.974 2.418,-3.655 4.445,-4.679c0.118,-0.741 -0.517,-0.917 0,-1.404c0.555,-0.097 0.506,0.43 1.17,0.235c0.086,-0.292 0.291,-0.478 0.702,-0.468c1.003,-1.18 1.314,-3.042 2.339,-4.211c-0.166,-1.025 0.389,-1.316 0.223,-2.34c2.389,-0.341 0.508,-4.951 3.051,-5.146c0.127,-1.102 0.674,-1.433 0.234,-2.574c0.196,-0.575 0.858,-0.691 1.17,-1.169c-0.137,-2.242 0.723,-4.425 -0.478,-5.847c0.332,-0.303 0.234,-1.016 0.234,-1.639c0.176,-0.722 -0.633,-0.448 -0.467,-1.17c-0.068,-0.614 0.916,-0.185 0.711,-0.936c-0.877,-1.14 -0.156,-2.573 -0.478,-3.743c-0.116,-0.448 -0.545,-0.916 -0.692,-1.17c-0.447,-0.758 -0.613,-0.779 -1.179,-1.402c-0.448,-0.508 -0.702,-1.56 -1.393,-1.404l-0.117,0.35l-0.362,-0.116c-0.029,0.419 -0.408,-0.098 0,-0.234l0.127,-0.352l0.352,0.118c0.244,-1.462 -1.775,-2.564 -3.041,-3.276c-0.772,0.011 -0.566,1.005 -1.414,0.937c-0.225,-0.937 0.701,-0.703 0.478,-1.637c-0.625,-0.751 -1.619,-1.073 -2.349,-1.404c-0.078,-0.04 -0.117,-0.42 -0.235,-0.468c-0.449,-0.187 -1.17,-0.059 -1.636,-0.234c-0.811,-0.312 -1.561,-1.102 -2.799,-0.703c-1.236,-0.477 -1.5,-1.939 -3.285,-1.871c-0.039,-0.74 -0.157,-1.393 -0.926,-1.403c-2.018,-0.321 -4.016,2.281 -5.147,3.743c0.604,-0.068 1.17,-0.078 0.938,0.701c-0.908,0.264 -0.84,-0.829 -1.404,-0.233c-0.303,0.01 -0.332,0.301 -0.704,0.233c-0.457,0.536 -1.314,0.858 -1.636,1.17c-0.215,0.194 -0.176,0.068 -0.469,0.234c-1.111,0.604 -1.256,1.063 -2.113,1.872c-0.782,0.75 -1.58,1.189 -2.096,1.871c-0.654,0.838 -1.629,1.491 -2.105,2.106c-0.206,0.263 -0.284,0.857 -0.469,1.169c-0.108,0.155 -0.352,0.253 -0.469,0.468c-0.623,1.062 -1.139,2.183 -1.402,3.274c-1.17,0.937 -2.272,1.941 -2.809,3.51c-0.291,0.761 0.752,0.176 0.469,0.936c-0.535,1.023 -1.5,1.618 -2.106,2.574l0.352,0.272l-0.127,0.428c0.613,-0.135 0.848,0.099 0.711,0.703c-0.535,0.068 -0.887,-0.06 -0.936,-0.469l-0.427,0.118l-0.284,-0.352c-0.234,0 -0.273,0.185 -0.459,0.234c-0.652,-0.779 -1.101,0.606 -1.636,0.702c-0.225,0.985 0.935,2.476 -0.469,2.574c-0.574,-0.136 0.107,-1.511 -0.701,-1.405c-0.342,0.595 -0.633,1.248 -1.17,1.639c0.273,1.17 -0.225,1.892 -0.234,2.573c0.058,0.478 -0.536,0.195 -0.711,0.936c-0.479,0.42 0.632,1.228 0.466,2.105c-0.261,0.196 -0.623,0.311 -1.158,0.235c-0.068,-0.917 0.692,-1.941 -0.469,-2.107c-0.623,-0.155 -0.906,0.761 -1.169,1.17c-0.166,0.244 -0.264,0.604 -0.467,0.937c-0.733,1.139 -1.268,1.539 -1.873,2.572c-0.77,1.297 -1.014,2.662 -0.711,4.445c-0.225,0.546 -1.268,0.282 -1.627,0.702c0.506,0.039 0.496,0.585 0.467,1.17c-0.682,0.253 -1.666,0.214 -2.338,0.467c-0.655,1.385 -1.434,2.632 -2.106,3.978c0.516,0.419 1.852,1.247 1.168,2.105c-0.906,0.117 -0.926,-1.346 -1.637,-0.702c-1.433,1.385 -1.89,3.733 -3.275,5.146c-0.078,0.703 -0.303,1.697 -0.469,1.872c-0.427,0.439 -0.506,0.946 -0.701,1.404c-0.273,0.613 -0.828,1.481 -0.935,1.871c-0.108,0.352 0.136,0.839 0,1.17c-0.039,0.078 -0.42,0.146 -0.467,0.234c-0.127,0.195 -0.176,0.575 -0.244,0.701c-0.137,0.264 -0.098,0.498 -0.225,0.703c-0.088,0.136 -0.408,0.302 -0.467,0.467c-0.136,0.331 0.106,0.819 0,1.169c-0.224,0.702 -1.121,1.561 -0.937,2.575c-0.281,0.349 -0.594,0.662 -0.936,0.935c0.479,0.731 -0.476,2.017 -0.467,3.041l0.35,-0.117l0.117,0.351c0.664,-0.049 1.18,0.058 1.405,0.467c0.048,1.18 -1.219,0.528 -1.639,0.235l-0.125,0.351l-0.342,-0.118c-0.752,0.965 -0.791,2.643 -1.406,3.744c0.51,0.039 0.498,0.584 0.471,1.17c0.066,0.612 -0.918,0.185 -0.706,0.935c-0.212,1.736 -0.378,3.529 -0.703,5.147c-1.074,0.701 -1.892,2.183 -1.406,3.743c0.166,0.722 -0.643,0.448 -0.467,1.169c0.76,1.871 0.35,4.602 0.701,6.785Z" style="fill:#fff;fill-rule:nonzero;"></path><path d="M700.042,72.313l0.273,-0.352l0.418,0.118c0.147,-1.239 -1.052,-2.096 -2.095,-1.405c0,0.313 0,0.624 0,0.937c0,0.691 1.101,0.303 1.404,0.702Z" style="fill:#fff;fill-rule:nonzero;"></path><path d="M697.937,84.01c0,-0.128 -0.196,-0.263 -0.235,0c-0.01,0.125 0.186,0.262 0.235,0Z" style="fill:#fff;fill-rule:nonzero;"></path></svg> 