<?xml version="1.0" encoding="UTF-8"?> <!-- Generator: Adobe Illustrator 16.0.3, SVG Export Plug-In . SVG Version: 6.00 Build 0) --> <svg xmlns="http://www.w3.org/2000/svg" xmlns:xlink="http://www.w3.org/1999/xlink" version="1.1" id="Layer_1" x="0px" y="0px" width="1046.797px" height="503.015px" viewBox="0 0 1046.797 503.015" xml:space="preserve"> <g> <g> <path fill="#FFFFFF" d="M52.29,299.804c7.835,0,14.583,1.25,20.632,3.818c0.632,0.23,1.182,0.354,1.615,0.354 c0.733,0,1.482-0.305,1.482-2.561v-7.418c0-1.908-0.546-2.707-2.164-3.168c-6.976-2.324-13.264-3.762-23.105-3.762 C26.215,287.068,0,300.105,0,336.689c0,36.482,26.577,49.479,51.449,49.479c8.113,0,15.229-1.014,22.398-3.197 c1.519-0.506,2.172-1.328,2.172-2.75v-7.838c0-1.943-0.987-2.373-3.304-1.766c-5.953,1.986-12.552,2.955-20.146,2.955 c-22.495,0-37.03-14.533-37.03-37.023C15.539,313.884,29.621,299.804,52.29,299.804z"></path> <path fill="#FFFFFF" d="M157.986,287.767h-5.46c-3.857,0-4.69,0.859-4.69,4.83v35.625h-47.011v-35.625 c0-3.971-0.833-4.83-4.689-4.83h-5.601c-3.856,0-4.689,0.859-4.689,4.83v87.484c0,3.857,0.833,4.688,4.689,4.688h5.601 c3.856,0,4.689-0.83,4.689-4.688v-38.703h47.011v38.703c0,3.857,0.833,4.688,4.69,4.688h5.46c3.927,0,4.83-0.875,4.83-4.688 v-87.484C162.816,288.669,161.913,287.767,157.986,287.767z"></path> <path fill="#FFFFFF" d="M359.801,383.634c0.025-0.037,0.053-0.072,0.076-0.109c-0.024-0.059-0.054-0.111-0.076-0.17V383.634z"></path> <path fill="#FFFFFF" d="M366.456,384.769h28.851c23.928,0,51.869-12.59,51.869-48.08c0-36.07-27.373-48.922-52.989-48.922h-27.73 c-3.857,0-4.69,0.859-4.69,4.83v87.484C361.766,383.939,362.599,384.769,366.456,384.769z M376.605,299.945h17.581 c23.012,0,36.751,13.736,36.751,36.744c0,22.482-13.687,35.904-36.611,35.904h-17.721V299.945z"></path> <path fill="#FFFFFF" d="M515.623,372.16h-1.472h-40.865v-79.668c0-4.137-0.921-5.287-5.064-5.287h-5.295 c-4.144,0-5.295,1.15-5.295,5.287v87.484c0,4.137,1.151,5.285,5.295,5.285h52.696c3.465,0,4.834-0.809,5.191-3.488 c0.07-0.527,0.105-1.117,0.105-1.797v-2.529C520.92,373.08,519.768,372.16,515.623,372.16z"></path> </g> <path fill="#FFFFFF" d="M593.316,299.376c-7.434-8.984-18.451-14.049-32.797-14.049c-27.647,0-44.52,20.066-44.52,50.742 c0,5.389,0.522,10.498,1.535,15.256c2.73,11.467,10.233,28.191,30.824,33.99l-0.002-0.055c1.682,0.492,3.385,0.9,5.111,1.211 c0.002,0.002,0.004,0.002,0.006,0.002c0.041,0.008,0.086,0.014,0.127,0.021c0.563,0.1,1.127,0.186,1.693,0.27 c0.441,0.061,0.891,0.119,1.342,0.174c0.174,0.021,0.348,0.039,0.521,0.059c0.537,0.061,1.08,0.113,1.631,0.16 c0.169,0.012,0.34,0.023,0.51,0.035c0.469,0.037,0.94,0.068,1.416,0.092c4.506,0.22,9.055-0.066,13.5-0.777 c7.713-1.234,14.354-3.275,20.849-6.395c2.421-1.14,2.257-3.477,2.257-3.477l0.004,0.004l-0.002-3.584v-3.322 c0.004-0.139,0.01-0.525,0.01-1.482c0-1.274-0.954-1.303-1.253-1.281c-0.055,0.004-0.095,0.008-0.095,0.008l-0.001,0.004 c-0.595,0.015-1.328,0.471-2.166,0.842c-5.515,2.891-11.107,4.881-18.532,6.068c-2.649,0.424-5.258,0.615-7.805,0.597 c-0.118,0.004-0.235,0.007-0.355,0.009c-0.95,0.016-1.923,0.006-2.914-0.032c-1.206-0.046-2.438-0.141-3.686-0.283 c-4.172-0.487-8.497-1.58-12.525-3.673c-5.852-3.036-11.067-8.176-14.266-16.59c-0.127-0.33-0.248-0.672-0.368-1.014 c-0.637-1.818-1.186-3.775-1.627-5.895c-0.008,0.003-0.015,0.004-0.022,0.006c-0.315-1.832-0.546-3.744-0.691-5.738h16.261v-0.018 H589.5h0.482h0.498h0.656h8.1c1.477-0.029,2.72-0.996,3.18-2.336c0.102-0.326,0.176-0.672,0.267-1.006 C603.195,335.277,606.309,316.166,593.316,299.376z M588.807,328.265h-57.515c2.292-18.896,13.116-30.32,29.409-30.32 c13.475,0,22.906,7.859,26.879,21.666c0.688,2.529,0.989,4.908,1.121,6.527C588.809,327.447,588.808,328.265,588.807,328.265 L588.807,328.265z"></path> <path fill="#FFFFFF" d="M249.659,299.376c-7.434-8.984-18.45-14.049-32.793-14.049c-27.64,0-44.513,20.066-44.513,50.742 c0,5.389,0.522,10.498,1.536,15.256c2.729,11.467,10.233,28.191,30.823,33.99l-0.002-0.055c1.678,0.492,3.382,0.9,5.109,1.211 c0.002,0.002,0.004,0.002,0.005,0.002c0.042,0.008,0.085,0.014,0.126,0.021c0.563,0.1,1.127,0.186,1.692,0.27 c0.443,0.061,0.891,0.119,1.343,0.174c0.173,0.021,0.347,0.039,0.52,0.059c0.536,0.061,1.08,0.113,1.63,0.16 c0.169,0.012,0.34,0.023,0.51,0.035c0.467,0.037,0.938,0.068,1.415,0.092c4.502,0.22,9.052-0.066,13.497-0.777 c7.711-1.234,14.354-3.275,20.848-6.395c2.421-1.14,2.257-3.477,2.257-3.477l0.004,0.004l-0.001-3.584l-0.001-3.322 c0.004-0.139,0.011-0.525,0.011-1.482c0-1.274-0.954-1.303-1.253-1.281c-0.054,0.004-0.095,0.008-0.095,0.008l-0.001,0.004 c-0.594,0.015-1.328,0.471-2.166,0.842c-5.515,2.891-11.107,4.881-18.532,6.068c-2.65,0.424-5.258,0.615-7.804,0.597 c-0.119,0.004-0.236,0.007-0.355,0.009c-0.95,0.016-1.923,0.006-2.915-0.032c-1.206-0.046-2.437-0.141-3.682-0.283 c-4.17-0.487-8.494-1.58-12.521-3.673c-5.85-3.036-11.066-8.176-14.264-16.59c-0.126-0.33-0.248-0.672-0.368-1.014 c-0.636-1.818-1.186-3.775-1.627-5.895c-0.008,0.003-0.015,0.004-0.022,0.006c-0.315-1.832-0.545-3.744-0.691-5.738h16.261v-0.018 h42.204h0.482h0.498h0.656h8.1c1.477-0.029,2.719-0.996,3.179-2.336c0.102-0.326,0.176-0.672,0.267-1.006 C259.538,335.277,262.652,316.166,249.659,299.376z M245.148,328.265h-57.503c2.292-18.896,13.117-30.32,29.402-30.32 c13.471,0,22.904,7.859,26.875,21.666c0.688,2.529,0.99,4.908,1.122,6.527C245.151,327.447,245.149,328.265,245.148,328.265 L245.148,328.265z"></path> <path fill="#FFFFFF" d="M308.702,285.06c-24.817,0-40.127,14.842-40.127,47.068v47.309c0,4.172,0.93,5.332,5.336,5.332h3.941 c4.178,0,5.104-1.16,5.104-5.332v-25.029h51.492v25.029c0,4.172,1.16,5.332,5.334,5.332h3.943c4.177,0,5.336-1.16,5.336-5.332 v-47.309C349.061,299.902,333.522,285.06,308.702,285.06z M282.956,341.199v-9.533c0-22.023,8.814-34.082,25.747-34.082 c17.165,0,25.746,12.059,25.746,34.082v9.533H282.956z"></path> </g> <g> <polygon fill="#FFFFFF" points="802.021,336.964 802.021,287.312 796.989,287.312 796.989,308.65 769.076,308.65 769.076,287.312 764.114,287.312 764.114,336.964 769.076,336.964 769.076,313.472 796.989,313.472 796.989,336.964 "></polygon> <rect x="813.25" y="287.312" fill="#FFFFFF" width="4.961" height="49.652"></rect> <path fill="#FFFFFF" d="M869.797,329.664c-0.021,1.291-0.041,3.441-0.041,6.939v0.5h4.614v-25.674h-19.976v4.477h15.361v7.105 c-1.962,4.199-8.951,10.035-18.544,10.035c-11.993,0-20.698-8.793-20.698-20.908c0-12.113,8.676-20.906,20.629-20.906 c7.485,0,14.08,3.598,17.64,9.623l0.191,0.324L874,299.88l-0.32-0.568c-4.571-8.094-12.57-12.701-22.537-12.973 c-14.669,0-25.73,11.092-25.73,25.799c0,14.709,11.062,25.799,25.73,25.799C861.133,337.937,867.283,332.488,869.797,329.664z"></path> <polygon fill="#FFFFFF" points="887.919,313.472 915.834,313.472 915.834,336.964 920.864,336.964 920.864,287.312 915.834,287.312 915.834,308.65 887.919,308.65 887.919,287.312 882.957,287.312 882.957,336.964 887.919,336.964 "></polygon> <path fill="#FFFFFF" d="M779.689,375.617l-0.326-0.088c-6.459-1.766-13.138-3.592-13.138-9.02c0-5.229,4.661-8.605,11.871-8.605 c6.749,0,11.739,3.9,12.714,9.936l0.088,0.547l4.873-1.307l-0.085-0.455c-1.482-7.977-8.495-13.336-17.45-13.336 c-9.915,0-17.111,5.619-17.111,13.359c0,8.605,8.616,11.082,14.318,12.719l0.219,0.063c0.764,0.227,1.557,0.445,2.361,0.67 c6.22,1.723,13.268,3.676,13.268,10.457c0,5.771-5.078,9.648-12.637,9.648c-8.815,0-13.257-5.602-13.75-11.15l-0.053-0.596 l-4.819,1.313l0.056,0.434c1.163,8.92,8.396,14.684,18.428,14.684c10.566,0,17.945-5.922,17.945-14.4 C796.46,380.287,786.369,377.478,779.689,375.617z"></path> <path fill="#FFFFFF" d="M844.305,388.939c-3.459,6.777-10.506,10.988-18.391,10.988c-11.953,0-20.629-8.764-20.629-20.838 c0-12.115,8.676-20.908,20.629-20.908c7.485,0,14.08,3.598,17.639,9.623l0.191,0.324l5.027-1.299l-0.322-0.568 c-4.61-8.123-13.035-12.973-22.536-12.973c-14.669,0-25.73,11.092-25.73,25.801c0,14.707,11.062,25.799,25.73,25.799 c10.188,0,19.096-5.518,23.25-14.396l0.249-0.535l-4.922-1.381L844.305,388.939z"></path> <polygon fill="#FFFFFF" points="887.617,375.599 859.702,375.599 859.702,354.263 854.74,354.263 854.74,403.916 859.702,403.916 859.702,380.423 887.617,380.423 887.617,403.916 892.647,403.916 892.647,354.263 887.617,354.263 "></polygon> <path fill="#FFFFFF" d="M925.576,353.289c-14.669,0-25.73,11.092-25.73,25.801c0,14.707,11.061,25.799,25.73,25.799 c14.707,0,25.799-11.092,25.799-25.799C951.375,364.38,940.283,353.289,925.576,353.289z M925.576,399.996 c-11.953,0-20.629-8.793-20.629-20.906c0-12.115,8.676-20.908,20.629-20.908c11.993,0,20.699,8.793,20.699,20.908 C946.275,391.203,937.57,399.996,925.576,399.996z"></path> <path fill="#FFFFFF" d="M982.147,353.289c-14.669,0-25.73,11.092-25.73,25.801c0,14.707,11.062,25.799,25.73,25.799 c14.708,0,25.799-11.092,25.799-25.799C1007.946,364.38,996.856,353.289,982.147,353.289z M982.147,399.996 c-11.953,0-20.629-8.793-20.629-20.906c0-12.115,8.676-20.908,20.629-20.908c11.994,0,20.699,8.793,20.699,20.908 C1002.847,391.203,994.143,399.996,982.147,399.996z"></path> <polygon fill="#FFFFFF" points="1019.83,399.093 1019.83,354.263 1014.867,354.263 1014.867,403.916 1046.797,403.916 1046.797,399.093 "></polygon> </g> <path fill="#FFFFFF" d="M265.395,406.013h-5.459c-3.857,0-4.689,0.857-4.689,4.83v35.623h-47.012v-35.623 c0-3.973-0.832-4.83-4.689-4.83h-5.6c-3.857,0-4.69,0.857-4.69,4.83v87.482c0,3.859,0.833,4.689,4.69,4.689h5.6 c3.857,0,4.689-0.83,4.689-4.689v-38.703h47.012v38.703c0,3.859,0.832,4.689,4.689,4.689h5.459c3.928,0,4.83-0.875,4.83-4.689 v-87.482C270.225,406.916,269.323,406.013,265.395,406.013z"></path> <path fill="#FFFFFF" d="M429.391,490.406h-1.472h-37.181v-79.668c0-4.137-0.921-5.287-5.064-5.287h-5.295 c-4.145,0-5.295,1.15-5.295,5.287v87.482c0,4.139,1.15,5.285,5.295,5.285h49.012c3.465,0,4.834-0.807,5.191-3.488 c0.07-0.525,0.105-1.117,0.105-1.797v-2.527C434.688,491.326,433.535,490.406,429.391,490.406z"></path> <path fill="#FFFFFF" d="M358.195,406.101h-4.018c-4.258,0-5.2,1.139-5.2,5.25v47.035c0,21.682-8.983,33.555-26.239,33.555 c-17.494,0-26.238-11.873-26.238-33.555v-47.035c0-4.111-1.182-5.25-5.438-5.25h-4.019c-4.255,0-5.437,1.139-5.437,5.25v46.576 c0,31.73,15.836,46.346,41.13,46.346c25.293,0,40.896-14.615,40.896-46.346v-46.576C363.635,407.24,362.688,406.101,358.195,406.101 z"></path> <path fill="#FFFFFF" d="M555.552,436.689c0-17.521-14.476-31.777-32.269-31.777c-9.438,0-18.599,4.256-24.66,11.287 c-6.062-7.031-15.225-11.287-24.66-11.287c-17.794,0-32.27,14.256-32.27,31.777l-0.072,3.637v58c0,3.814,0.917,4.689,4.903,4.689 h5.403c3.825,0,4.761-0.918,4.761-4.689v-57.475l0.195-5.551c0-9.432,7.501-16.82,17.079-16.82c9.575,0,16.936,7.389,16.936,16.82 l0.047,5.566v57.459c0,3.771,0.936,4.689,4.762,4.689h2.902h0.026h2.902c3.826,0,4.762-0.918,4.762-4.689v-57.459l0.047-5.566 c0-9.432,7.36-16.82,16.937-16.82c9.577,0,17.078,7.389,17.078,16.82l0.196,5.551v57.475c0,3.771,0.935,4.689,4.761,4.689h5.402 c3.986,0,4.903-0.875,4.903-4.689v-58L555.552,436.689z"></path> <path fill="#FFFFFF" d="M639.641,417.623c-7.334-8.986-18.203-14.049-32.357-14.049c-27.271,0-43.919,20.066-43.919,50.742 c0,5.389,0.517,10.496,1.516,15.254c2.693,11.469,10.097,28.193,30.409,33.992l-0.002-0.055c1.656,0.49,3.338,0.898,5.041,1.211 c0.003,0.002,0.004,0.002,0.007,0.002c0.042,0.008,0.084,0.014,0.124,0.021c0.556,0.1,1.112,0.186,1.67,0.268 c0.438,0.063,0.88,0.121,1.326,0.176c0.171,0.02,0.342,0.039,0.514,0.059c0.528,0.059,1.064,0.113,1.607,0.158 c0.168,0.014,0.336,0.025,0.504,0.037c0.46,0.037,0.926,0.066,1.396,0.092c4.442,0.219,8.933-0.066,13.318-0.777 c7.609-1.234,14.164-3.275,20.57-6.396c2.389-1.139,2.227-3.475,2.227-3.475l0.004,0.004l-0.002-3.584v-3.324 c0.004-0.137,0.01-0.525,0.01-1.482c0-1.273-0.94-1.301-1.235-1.279c-0.055,0.004-0.094,0.008-0.094,0.008l-0.002,0.004 c-0.586,0.014-1.309,0.471-2.137,0.84c-5.441,2.893-10.959,4.883-18.285,6.068c-2.615,0.424-5.188,0.615-7.701,0.598 c-0.118,0.004-0.233,0.006-0.351,0.008c-0.938,0.016-1.898,0.006-2.877-0.031c-1.189-0.047-2.405-0.141-3.634-0.283 c-4.114-0.488-8.382-1.58-12.354-3.674c-5.773-3.035-10.917-8.174-14.072-16.588c-0.125-0.33-0.245-0.672-0.362-1.014 c-0.629-1.818-1.171-3.775-1.606-5.895c-0.007,0.002-0.015,0.002-0.021,0.004c-0.313-1.83-0.539-3.742-0.683-5.738h16.042v-0.016 h41.646h0.477h0.492h0.647h7.991c1.457-0.029,2.683-0.998,3.136-2.336c0.101-0.326,0.175-0.672,0.265-1.006 C649.39,453.521,652.461,434.412,639.641,417.623z M635.191,446.511h-56.739c2.261-18.896,12.94-30.32,29.009-30.32 c13.294,0,22.603,7.857,26.521,21.666c0.679,2.529,0.978,4.908,1.107,6.527C635.195,445.693,635.192,446.511,635.191,446.511 L635.191,446.511z"></path> <g> <path fill="#FFFFFF" d="M813.959,153.956c-1.402,0.38-2.282-0.614-3.5-0.702c-1.92-0.136-3.791,0.85-6.326,0.469 c-0.545,0.068-0.428,0.809-1.158,0.701c-0.449-0.419-1.551-0.175-2.34-0.233c-0.975,0.731-2.008,0.4-3.275,0.701 c-0.371,0.088-0.575,0.449-0.945,0.468c-0.283,0.02-0.84-0.214-1.16-0.233c-0.701-0.048-1.414,0.039-2.106,0 c-0.613-0.254-0.877-0.848-1.638-0.935c-0.906,0.447-1.764-0.195-2.572,0c-0.536,0.126-0.674,0.984-1.404,0.701 c-0.136,0.41,0.272,1.374-0.232,1.404c-0.459-0.098-0.186-0.907-0.936-0.702c-0.635,0.692-1.862,0.79-2.574,1.403 c-0.623-0.438-1.198-0.497-1.871-0.468c-1.238,0.049-2.203,1.053-3.051,1.404c-2.203-0.06-4.328,0.088-5.615,0.468 c-0.604,0.176-1.247,0.467-1.627,0.701c-0.936,0.565-1.082,0.937-1.871,1.404c-0.928,1.325-3.617,1.374-5.146,1.403 c-0.79,0.848-1.355,1.93-1.872,3.041c-1.569,0.702-3.363,1.17-5.614,1.17c-1.22,1.121-2.886,1.794-3.275,3.743 c-0.907,0.204-0.391-1.024-1.404-0.702c-1.18,0.225-2.135,0.672-3.508,0.702c-0.488,0.067-0.059,1.033-0.702,0.935 c-0.565,0.099-0.517-0.428-1.17-0.233c-0.79,1.403-2.769,1.599-3.743,2.808c-0.926,0.409-1.842,0.81-2.573,1.403 c-0.907-0.127-1.149,0.419-2.104,0.234c-0.527,0.78-1.832,1.023-2.584,1.402c-0.273,0.146-0.409,0.362-0.691,0.469 c-0.479,0.185-1.111,0.029-1.638,0.234c-0.087,0.028-0.331,0.39-0.478,0.468c-0.293,0.166-0.547,0.059-0.936,0.233 c-0.497,0.234-0.945,0.487-1.395,0.701c-0.564,0.264-1.082,0.108-1.871,0.234c-0.438,0.068-0.858,0.449-1.17,0.469 c-0.525,0.019-0.906-0.497-1.413-0.234c-0.731-0.039-0.78,0.624-1.628,0.469c-0.595-0.928-1.15-2.048-1.404-3.51 c-0.127-0.702,0.088-1.462,0-2.104c-0.234-1.668-1.003-2.516-2.105-3.276c-0.106-0.634-0.886-1.199-0.232-1.872 c-1.258-2.572-2.438-5.214-4.455-7.017c0.058-1.287-1.287-1.989-1.871-3.275c-0.713,0.165-0.849-0.244-1.395-0.233 c-0.429-0.519-0.634-1.249-1.17-1.639c0.068-0.312,0.332-0.448,0.225-0.936c-1.385-2.358-4.201-3.285-5.371-5.849 c-0.623-0.097-0.809-0.428-1.404-0.702c-0.448-0.194-1.149-0.204-1.646-0.468c-0.497-0.272-0.857-0.896-1.404-1.17 c-0.662-0.331-1.501-0.292-2.095-0.701c-0.995-0.673-1.374-1.938-2.349-2.573c-1.59-0.194-2.154,0.644-3.5,0.702 c-0.838-0.099-1.248-0.624-2.35-0.468c-0.429,0.185-0.936,0.302-1.17,0.702c-2.592,0.517-4.376,1.851-6.539,2.807 c-0.469,0.234-0.537,0.868-0.937,1.169c-0.409,0.02-0.731-0.048-0.936-0.233c0.039,0.771-1.023,1.229-1.413,1.404 c-0.059,0.028-0.166,0.409-0.225,0.467c-0.721,0.604-1.179,0.858-1.881,1.17c-0.663,0.303-0.858,1.481-1.638,1.638 c-1.228,0.088-1.833,0.809-2.329,1.638c0.701,1.364,4.113,1.843,2.807,3.742c1.628,1.415,3.626,2.447,4.913,4.211 c0.575,0.302,0.965-0.682,1.169,0c0.186,0.663-0.332,0.604-0.233,1.17c1.101,1.151,2.124,2.398,2.808,3.977 c0.262,0.194,0.623,0.311,1.17,0.233c-0.039,0.575-0.049,1.13,0.467,1.17c-0.039-0.381,1.434-0.381,1.404,0 c0.058,0.926-1.004,0.711-0.936,1.638c0.837,0.945,1.014,2.563,2.095,3.274c0.165,0.653,0.419,1.093,0.712,1.639 c0.205,0.409,0.857,0.867,0.691,1.637c0.645-0.146,0.673,0.536,0.937,0.936c0.839,1.229,1.179,2.777,2.114,3.743 c0.576-0.194,0.488-1.072,1.395-0.935c0.02,0.876-1.004,0.711-0.692,1.871c0.177,0.76,1.121,0.75,1.16,1.637 c0.37,0.341,0.214,1.2,0.243,1.872c0.819,0.896,0.955,2.465,2.106,3.04c-0.03,1.277,1.032,1.462,0.936,2.809 c-0.966,0.359-2.027,0.623-3.285,0.701c-0.507,0.186-0.303,1.102-0.926,1.17c-0.205-0.341-0.195-0.906-0.937-0.703 c-1.14,0.557-2.231-0.232-3.742,0c-0.049,0.664,0.195,1.609-0.479,1.639c-0.155,0-0.301,0-0.457,0l0.117,0.43l-0.352,0.271 c0.098,0.449,0.662,0.419,0.458,1.17c-0.955,0.674-1.765-0.467-1.638-1.638l-0.34,0.118l-0.117-0.352 c-0.947,0-1.512,0.37-1.872,0.936c-1.774,0.02-2.817,0.779-3.977,1.403c-0.692,0.059-0.722-0.525-1.413-0.468 c-0.293,0.556-0.439,1.268-1.161,1.404c-0.771-0.409-2.368,0.028-2.816-0.702c-1.589,1.209-4.854,0.751-6.54,1.871l0.351,0.273 l-0.116,0.429c0.662-0.049,1.266-0.029,1.169,0.702c-0.604,1.092-2.145-0.156-3.519,0.233c0.175-0.721-0.635-0.448-0.458-1.169 c-1.005,0.243-1.706,0.799-3.042,0.701c-0.506,0.517-1.141,0.887-2.349,0.701c-0.05-0.185-0.195-0.271-0.468-0.233 c-0.244-1.229-0.809-2.153-1.395-3.041c0.877-0.683,0.068-1.149,0-2.105c0.059-0.331,0.508-0.263,0.702-0.468 c-0.127-0.916-0.263-1.94-0.233-2.573c0.01-0.312,0.253-0.312,0.233-0.701c-0.068-0.937-0.517-1.853-0.468-2.809 c0.039-0.964,0.634-1.978,0.692-3.04c0.02-0.303-0.195-0.828-0.225-1.17c-0.088-0.849,0.049-1.726,0-2.573 c-0.088-1.444-0.448-3.148-0.468-4.68c-0.029-1.714,0.352-3.313,0.234-4.911c-0.059-0.684-0.42-1.434-0.469-2.106 c-0.068-0.741,0.117-1.365,0-1.872c-0.175-0.751-0.896-1.667-1.169-2.573c-0.117-0.351,0.077-0.81,0-1.169 c-0.03-0.088-0.429-0.575-0.468-0.703c-0.176-0.448-0.146-0.975-0.234-1.169c-0.37-0.721-1.082-1.18-1.403-1.871 c-0.156-0.321,0.136-0.84,0-1.171c-0.205-0.487-1.072,0.06-0.712-0.701c0.234-0.604,0.468-0.955,0.478-1.638 c0.01-0.799-0.478-1.569-0.702-2.105c-0.059-0.186-0.204-0.273-0.467-0.233l-0.117,0.351l-0.352-0.117c0,0.156,0,0.312,0,0.468 c-0.156,0-0.312,0-0.467,0c0-0.156,0-0.312,0-0.468l0.116-0.351l0.351,0.117c-0.254-0.877,0.575-0.663,0.469-1.404 c-0.907-0.944-1.872-2.31-3.041-2.807c-0.283-0.118-0.829-0.049-1.17-0.234c-0.195-0.097-0.469-0.536-0.702-0.702 c-0.849-0.594-1.364-0.623-2.339-0.935c-0.537-0.166-0.79-0.381-1.17-0.469c-1.063-0.234-2.164-0.126-3.275-0.468 c-0.779,0.078-0.838,0.887-1.403,1.171c-0.36,0.418-1.608-0.05-1.403,0.935c-0.8,0.438,0.398,0.818,0.233,1.404 c-0.438,1.979-0.595,4.25-1.403,5.848c0.137,0.877,0.877,1.15,0.936,2.104c-0.342,0.362-0.595,0.82-1.17,0.938l0.117,0.35 l-0.117,0.352c0.313,0,0.624,0,0.936,0c0.107,0.731-0.594,0.839-0.936,0.468l-0.234-0.116l-0.233-0.117 c-0.37,0.691-0.292,2.085-0.478,3.041c-0.156,0.848-0.537,1.696-0.691,2.573c-0.4,2.203-0.43,3.781-0.703,5.848 c-0.098,0.712-0.467,1.745-0.467,2.106c0,0.098,0.214,0.331,0.233,0.232c-0.263,1.96-0.81,3.637-0.936,5.381 c-0.156,1.989-0.38,3.423-0.468,4.913c-0.049,0.79,0.088,1.6,0,2.34c-0.049,0.359-0.449,0.614-0.468,0.935 c-0.039,0.459,0.263,1.103,0.233,1.639c-0.029,0.42-0.233,0.798-0.233,1.17c-0.011,0.359,0.263,0.759,0.233,1.168 c-0.049,0.557-0.399,1.034-0.468,1.639c-0.048,0.322,0.224,0.623,0.234,0.701c0,0.294-0.234,0.332-0.234,0.703 c-0.048,2.339,0.098,3.908-0.233,5.614c0.292,0.712,1.394,0.623,1.403,1.637c-0.468,0-0.936,0-1.403,0 c-0.557,1.687,1.199,5.955-1.872,6.083l0.117,0.35l-0.351,0.118c0.049,0.399-0.273,0.575-0.244,0l-0.342-0.118l0.117-0.35 c-0.877,0.282-1.822,0.019-2.572,0.234c-0.839,0.243-1.336,1.032-2.105,1.168c-0.565,0.099-0.518-0.428-1.17-0.233 c-0.429,0.673-0.887,1.307-1.404,1.871c-1.15,0.196-3.385,0.8-4.449,0.702c-0.566-0.059-1.025-0.458-1.64-0.468 c-1.297-0.02-2.622,0.497-4.211,0.234c-0.332,0.303-0.108,1.149-0.702,1.17c-0.722,0.165-0.692-0.4-1.403-0.233 c-1.365,0.769-3.042,0.028-4.212,1.169c-1.784-0.419-3.578,1.071-5.625,1.17c-0.089,0.711,0.623,1.188-0.225,1.403 c-1.53-1.015-3.432-0.283-5.625-0.702c-0.614,0.166-0.487,1.063-1.16,1.17c-0.683-0.029-0.409-0.995-1.17-0.936 c-1.111,0.225-2.359,0.644-3.052,0.936c-0.848,0.37-1.17,0.264-2.096,0.468c-0.41,0.087-0.955,0.331-1.404,0.468 c-1.082,0.322-1.657,0.614-2.573,0.234c-1.102,0.789-2.35,0.507-3.744,0.701c-2.086,0.283-5.225,1.823-6.55,2.573 c-1.14,0.644-2.231,1.268-3.274,1.639c-2.154,0.75-5.098,0.009-7.721,0.467c-0.525,0.088-1.15,0.478-1.881,0.702 c-0.313,0.098-0.819,0.146-1.16,0.233c-1.209,0.293-1.54,0.731-2.34,0.936c-1.063,0.273-2.251,0.195-3.275,0.469 c-0.028,0.37,0.03,0.809-0.467,0.701c-0.371-0.097-0.205-0.74-0.936-0.467c-1.502,0.398-3.09,1.159-4.68,1.637 c-1.433,0.429-2.339,0.224-3.508,0.234c-0.907,0.01-1.785,0.468-2.574,0.701c-0.381,0.108-1.043,0.088-1.403,0.234 c-0.536,0.205-0.634,0.614-1.17,0.702c-1.599-0.614-2.642,0.468-3.977,0.936c-0.526,0.175-1.044,0.272-1.638,0.468 c-0.517,0.166-1.18,0.39-1.638,0.468c-0.79,0.136-1.404-0.409-2.105,0.234c-0.994-0.984-3.236-0.225-3.977,0.467 c-0.916-0.497-2.69-0.117-3.978-0.233c0.02,1.346-0.838,1.813-1.403,2.573l0.117,0.352l-0.117,0.351 c0.264,0.272,0.264,0.829,0.233,1.403c-1.159,0.205-0.965-0.77-0.701-1.403c0.078,0,0.155,0,0.233,0l-0.116-0.351l0.116-0.352 c-0.165-0.848,0.966-0.906,0.234-1.637c-0.965-0.186-0.448,1.12-1.403,0.936c-0.244,0.623-0.946,0.77-1.403,1.169 c-0.557,1.404-0.479,3.432-0.702,5.146c1.501-0.185,2.3,0.352,3.742,0.234c0.663-0.117,0.332-1.219,1.404-0.936 c0.526,0.253,0.848,0.711,0.936,1.402c1.141-0.136,2.145,0.381,3.275,0.469c1.773,0.146,3.869-0.321,4.912-0.234 c0.264,0.021,0.644,0.391,0.937,0.469c1.529,0.438,2.476,0.38,3.509,0c0.848,0.945,2.242,1.063,3.977,1.17 c2.242,0.146,3.529-0.146,4.445-0.703c0.77,0.742,2.32-0.019,3.742,0c0.741,0.011,1.414,0.303,2.105,0.234 c0.576-0.058,0.945-0.36,1.404-0.467c0.857,0.701,2.379,0.73,3.977,0.701c0.517-0.8,0.585-2.066,1.871-2.105 c0.117,0.653,0.342,1.219,0.469,1.871c1.637-0.068,3.693,0.273,4.678-0.467c0.439,0.418,1.541,0.165,2.34,0.232 c0.585-0.271,0.78-0.936,1.638-0.936c0.683,0.177,0.448,1.268,1.403,1.17c2.008,0.059,3.606-0.292,5.146-0.701 c1.871,0.818,4.981,0.536,6.551,0c1.754,1.092,3.412-0.068,5.614-0.234c0.586-0.419-0.302-2.319,0.937-2.105 c-0.136,0.761,0.156,1.092,0.234,1.637c3.324-0.136,6.259-0.232,10.528-0.232c0.546-0.068,0.43-0.81,1.17-0.703 c2.555,1.063,5.47-0.691,8.892-0.232c0.429,0.34,0.614,0.936,1.404,0.936c0.321,0.009,0.507-0.107,0.701-0.234l-0.116-0.352 l0.351-0.117c0.048-0.185,0.195-0.271,0.468-0.232l0.233,0.116l0.234,0.116c0.458-0.828,1.755-0.896,3.042-0.701 c0.331,0.049,0.253,0.37,0.702,0.469c0.429,0.097,1.053-0.088,1.403,0c0.487,0.116,0.468,0.681,0.936,0.467 c1.092-0.506,3.22-1.081,4.686-0.467c0.302-0.858,1.774-0.479,2.573-0.703c1.004-0.292,2.174-0.984,2.339,0.234l0.234-0.117 l0.233,0.117c0.634-0.429,0.751,0.068,1.638,0c1.832-0.146,4.123-1.014,5.849-0.468c0.458,1.315,0.048,2.836,0.233,4.211 c0.107,0.868,0.984,1.588,0.468,2.339c0.38,0.313,0.8,0.596,0.937,1.17c-0.137,0.439-0.244,0.945-0.234,1.403 c0.01,0.956,0.74,3.49,0.701,4.211c-0.009,0.127-0.321,0.117-0.233,0.468c0.146,0.654,0.839,1.043,0.692,1.639 c-0.098,0.448-0.663,0.418-0.459,1.169c0.664,0.731,0.439,1.784,0.703,2.339c0.291,0.644,0.76,1.453,0.691,2.105 c0.487,0.302,1.189,0.371,1.18,1.17c-0.098,0.604-0.702,0.702-0.702,1.403c0.751,0,0.175,0.604,0.233,0.936 c0.029,0.205,0.459,0.586,0.47,0.936c0,0.294-0.323,0.333-0.234,0.703c0.127,0.575,0.447,0.575,0.467,1.17 c0.011,0.643-0.214,1.364-0.232,2.104c-0.099,0.556,1.063-0.127,0.701,0.701c0.293,1.023,0.068,1.044-0.234,1.873 c0.352,0.584,0.448,1.423,0.469,2.338c0.214,0.255,0.857,0.068,0.701,0.703c0.508,0.497-0.303,0.691-0.234,1.402 c0.518,3.003,1.794,6.15,2.106,8.891c0.126,1.207,0.233,1.568,0.468,2.338c0.361,1.209,0.244,1.824,0.936,2.34 c-0.566,1.258,0.545,1.023,0.701,2.105c-0.467,1.122-0.01,2.164,0.234,3.51c0.293,1.667,0.625,2.67,0.935,3.743 c0.614,2.163,0.79,4.249,1.872,5.614c-0.164,1.871,1.248,2.184,1.395,3.742c0.049,0.819-0.79,0.771-0.926,1.404 c0.439,0.028,0.156,0.771,0.701,0.702l0.116-0.353l0.353,0.117c0.154,0,0.311,0,0.467,0c0,0.157,0,0.313,0,0.469 c-0.156,0-0.313,0-0.467,0l-0.117,0.351l-0.352-0.117c0.41,1.112,0.498,1.882,0.693,2.809c0.262,1.169,0.71,1.743,0.945,2.572 c0.166,0.624,0.049,1.258,0.232,1.872c0.128,0.438,0.557,0.926,0.702,1.403c0.186,0.634,0.225,1.18,0.234,1.872 c0.916,0.945,1.237,2.494,1.637,3.977c0.565,0.36,0.926,0.936,1.404,1.403c0.819,1.053,0.584,2.768,0.936,3.51 c0.068,0.165,0.107,0.389,0.233,0.701c0.38,0.984,1.346,1.628,1.403,2.573c0.391,0,0.78,0,1.17,0 c-1.695,1.053,0.049,2.466,0.234,4.211c0.156,0.458,1.296-0.059,1.403,0.467c0.107,0.742-0.722,0.527-0.468,1.404 c0.565,1.229,0.77,2.816,1.628,3.743c-0.068,1.326,0.771,2.368,1.179,3.509c0.098,0.273-0.087,0.653,0,0.937 c0.088,0.302,0.313,0.584,0.469,0.936c0.448,1.052,0.984,1.91,1.403,2.808c0.087,0.193-0.098,0.506,0,0.701 c0.039,0.088,0.409,0.127,0.468,0.234c0.088,0.185-0.098,0.506,0,0.701c0.04,0.088,0.409,0.127,0.468,0.234 c0.341,0.652,0.663,1.267,0.928,1.871c0.135,0.302,0.107,0.838,0.243,1.17c0.126,0.322,0.341,0.623,0.468,0.936 c0.838,2.252,1.482,4.191,2.34,6.316c0.613,0.155,1.188,0.369,1.637,0.701c0.039,0.663-0.799,0.459-0.467,1.404 c0.019,0.604,0.906,0.331,0.935,0.936c0.662,2.379,2.224,3.85,2.563,6.549c0.479,0.313,0.801,0.771,0.945,1.404 c-0.078,2.643,1.872,3.275,2.34,5.381c0.137,0.399,1.102-0.02,1.17,0.468c0.088,0.565-0.43,0.507-0.234,1.17 c0.557,0.39,0.449,1.081,0.692,1.638c0.263,0.584,0.722,1.071,0.937,1.637c0.146,0.361,0.126,0.839,0.243,1.17 c0.645,1.969,1.813,3.471,2.808,4.912c0.408,0.615,0.905,1.189,1.403,1.871c2.017,2.799,3.47,6.814,5.615,9.125 c0.262,1.131,1.18,1.627,1.394,2.807c0.302,0.322,1.151,0.098,1.179,0.701c-0.496,0.547,0.039,0.84,0.234,1.17 c0.107,0.186,0.088,0.518,0.234,0.701c0.449,0.566,1.354,0.615,1.638,1.17c0.048,0.439-0.273,0.518-0.234,0.936 c2.33,2.584,4.68,5.148,6.083,8.656c1.326,0.068,1.267,1.531,2.105,2.105c0.136,0.752-0.439,0.721,0,1.17 c1.17,1.248,1.969,2.855,3.275,3.977c0.243,0.605,0.838,0.867,0.925,1.639c0.565,0.146,1.706-0.293,1.882,0.232 c0.244,0.879-0.586,0.664-0.478,1.404c0.672,0.975,1.208,2.066,1.881,3.041c0.779-0.029,1.238-0.467,1.638,0.234 c-0.254,0.945,0.088,1.287,0,2.572c1.56,1.561,2.886,3.354,4.445,4.912c0.682,0.4,0.486,1.688,1.871,1.404 c0.234-2.426-0.906-3.469-1.18-5.379c-0.244-0.537-0.906-0.654-1.16-1.17c0.469-0.498-0.341-1.043-0.468-1.639 c-0.857-0.283-1.853,0.469-2.114,0c-0.099-1.121,1.197-0.838,1.179-1.871c-0.536-0.877-1.188-1.619-1.647-2.574 c-0.779,0.088-2.076,0.703-1.871-0.701c-0.04-0.506,0.838-0.107,1.178-0.234c-0.243-1.627-1.423-2.318-1.637-3.977 c-0.352-0.273-0.965-0.291-1.18-0.701c0-0.557,0.41-0.691,0.244-1.404c-0.73-0.818-0.945-1.891-1.403-2.807 c-0.507-1.004-1.13-1.822-1.638-2.807c-0.175-0.342-0.088-0.828-0.234-1.17c-0.215-0.449-0.74-0.771-0.945-1.17 c-0.262-0.555-0.233-1.131-0.457-1.639c-0.459-1.004-1.131-1.939-1.414-3.041c-0.674,0.061-0.799-0.438-1.16-0.701 c-0.099-0.564,0.42-0.508,0.225-1.17c-0.916-1.023-1.559-2.328-1.861-3.977c-0.353-0.039-0.867,0.088-0.936-0.234 c0.076-0.828,0.643-0.574,0.233-1.402c-0.546-1.57-1.511-2.711-1.403-4.914c-0.75-0.887-1.033-2.24-1.881-3.041 c0.594-1.219-0.945-2.105-0.938-3.508c-0.526,0.066-0.877-0.059-0.926-0.469c0.645-1.014-0.195-2.135-0.234-3.508 c-0.049-1.152,0.448-2.389,0.234-3.51c-0.252-1.248-1.102-1.998-1.871-2.34c-0.186-0.877,0.283-1.121,0.234-1.871 c-0.488-0.77-0.557-1.949-1.414-2.34c0.146-1.695-0.673-3.547-1.16-5.381c-0.525-1.949-0.965-3.928-1.637-5.613 c-0.313-0.625-1.033-0.838-1.414-1.404c0.234-1.734-0.955-2.523-1.158-3.742c-0.109-0.586,0.232-1.414,0.232-2.105 c-0.011-1.6-1.646-5.283-0.945-5.848c0.156-0.117-0.234-0.295-0.224-0.234c-0.021-0.371-0.059-0.811,0-1.17 c0.194-1.326,1.911-1.873,2.095-3.041c0.244-1.473-1.188-3.061-1.637-4.68c-0.156-0.604,0.098-1.141,0-1.637 c-0.156-0.84-0.683-1.004-0.936-1.871c0.391-2.33-0.809-3.08-0.692-5.146c-0.233-0.635-0.81-0.906-0.936-1.639 c-0.029-0.633,0.38-0.469,0-0.936c-0.878-1.617-1.442-3.549-2.105-5.381c-0.351-0.273-0.966-0.293-1.179-0.701 c-0.244-0.877,0.584-0.664,0.477-1.404c-0.672-1.275-0.984-2.924-0.936-4.912c-0.303-0.711-0.867-1.17-0.936-2.105 c-0.078-0.936,0.41-1.297,0.233-2.34c-0.263-0.359-0.771-0.486-0.711-1.17c0.224-0.633,1.276-0.447,0.936-1.637 c0.321-1.023-0.896-0.498-0.692-1.404c0.566-1.646-1.209-2.592-0.936-4.678c-0.546-0.078-1.014-0.244-1.17-0.701 c0.458-0.469,0.068-1.152,0.234-1.873c0.137-0.604,0.536-0.564,0.468-1.402c-0.136-1.521-0.937-2.408-2.339-2.809 c-0.254-0.877,0.877-0.369,0.701-1.17c-0.623-2.105-0.955-4.512-1.637-6.549c-0.683-0.254-1.131-0.752-1.648-1.17 c0.01-0.701,0.614-0.801,0.713-1.404c-0.273-0.35-0.684-0.574-0.713-1.17c-0.145-1.285,0.021-2.447-0.234-3.742 c-0.174-0.965-0.759-1.871-0.925-2.809c-0.146-0.758,0.106-1.568,0-2.338c-0.215-1.471-1.218-2.857-1.403-4.445 c-0.088-0.711,0.117-1.646,0-2.338c-0.293-1.639-1.619-3.102-1.414-4.914c-0.205-0.408-0.857-0.391-0.926-0.936 c0.39-1.247-0.702-1.014-0.711-1.871c1.236-1.861-0.684-3.637-0.927-5.615c-0.146-1.141,0.604-2.096,0-3.273 c-0.536-0.322-1.462-0.254-1.403-1.17c0.244-0.801,0.818-1.016,0.936-1.873c0.264-1.949-1.111-2.622-1.403-3.976 c-0.088-0.361,0.233-0.896,0.233-1.17c-0.01-1.17-0.438-1.842-0.936-2.573c0.438-0.585-0.02-1.452,0-2.34 c0.02-1.335,0.663-2.826-0.234-3.742c0.332-1.189,0.625-2.71,0.234-3.977c0.176-0.048,0.264-0.195,0.234-0.467 c0.506-0.264,0.955-0.605,1.871-0.469c0.546-0.068,0.429-0.809,1.17-0.701c1.268,0.419,1.93,0,3.041-0.234 c3.217-0.672,6.024-1.092,8.88-1.638c1.237-0.233,2.437-0.721,3.509-0.936c0.936-0.186,1.248-0.049,1.871-0.234 c0.946-0.282,1.823-0.682,2.584-0.936l-0.117-0.429l0.352-0.272c-0.205-0.273-0.313-0.625-0.234-1.17 c0.399-0.02,0.721,0.049,0.936,0.234c0,0.233,0,0.467,0,0.702l0.352,0.273l-0.117,0.428c1.071,0.147,1.345-0.525,2.328-0.467 c0.361-0.352,0.078-1.336,0.945-1.17c2.321,1.053,4.689-0.995,7.487-0.935c0.106-0.595-0.858-2.027,0.233-2.106 c0.838-0.146,0.321,0.76,0.468,1.17c0.205,0.584,0.469,0.76,0.692,1.17c1.657,0.097,2.457-0.674,3.285-1.404h-0.244v-0.234 c-0.37-0.078,0.02-0.331,0.479-0.234l0.117-0.35l0.105,0.35c1.979-1.149,4.572-1.666,7.262-2.104 c-0.029,2.164,0.731,4.025,1.17,6.315c0.439,0.099,1.005,0.088,0.937,0.702c0.224,1.082-0.313,1.413-0.469,2.105 c0.469,1.608,0.331,3.246,0.469,4.913c0.097,1.335,0.536,2.651,0.692,3.977c0.116,0.868,0.155,1.892,0.243,2.807 c0.068,0.829,0.243,1.872,0.233,2.574c-0.01,0.448-0.264,0.75-0.233,1.169c0.068,1.443,0.409,3.022,0.468,4.445 c0.02,0.633-0.244,1.199-0.234,1.871c0,0.674,0.264,1.238,0.234,1.873c-0.029,0.398-0.254,0.789-0.234,1.17 c0.029,0.76,0.469,1.549,0.459,2.338c0,0.877-0.293,1.9-0.459,2.809c0.459,0.467,0.41,1.461,0.937,1.871 c-0.907,0.701-0.575,1.268-0.234,2.338c0,0.625-0.741,0.508-0.702,1.17c0.049,2.047,0.215,3.354,0,5.381 c-0.272,2.535-0.848,5.459-0.945,7.486c-0.059,1.355,0.02,2.262-0.224,3.041c-0.156,0.459-0.595,0.701-0.702,1.17 c-0.254,1.053,0,2.115-0.234,3.04c-0.156,0.586-0.672,1.034-0.711,1.639c-0.059,0.964,0.146,1.9,0.478,2.807 c-0.049,0.662-1.122,0.292-0.937,1.17c-0.369,0.867-0.262,1.773-0.468,2.807c-0.146,0.692-0.546,1.424-0.711,2.106 c-0.165,0.759-0.273,1.598-0.458,2.339c-0.215,0.809-0.604,1.638-0.702,2.105c-0.331,1.51-0.194,3.099-0.468,4.444 c-0.107,0.487-0.342,0.877-0.477,1.403c-0.273,1.141-0.654,1.92-0.928,2.808c-0.282,0.878-0.271,1.813-0.467,2.807 c-0.127,0.625-0.74,1.023-0.936,1.639c-0.117,0.351,0.088,0.809,0,1.169c-0.088,0.332-0.547,0.955-0.703,1.404 c-0.184,0.517-0.651,1.062-0.232,1.637c1.315,0.234,1.297-0.887,2.106-1.17c0.409,0.206,0.584,0.654,1.393,0.469 c0.41-0.341,0.897-0.653,1.414-0.936c0.458-0.254,1.229-0.41,1.637-0.702c0.488-0.352,0.849-1.082,1.404-1.638 c0.799-0.798,1.403-1.364,1.871-2.105c0.371-0.604,1.209-1.257,0.937-2.105c0.633-0.604,1.042-1.452,0.936-2.807 c1.12-0.907,1.628-2.418,1.872-4.211c-0.518-0.518-1.297,0.565-1.404-0.469c0.399-0.936,1.296,0.068,1.871-0.701 c0.264-0.653,0.264-1.219,0-1.872c0.818-0.272,0.712-1.462,0.691-2.572c1.219-1.287,1.736-3.257,1.647-5.849 c1.209-2.408,3.547-4.825,2.807-8.422c0.566-1.375,1.053-2.847,1.395-4.444l-0.42,0.116l-0.273-0.351 c-1.188,0.243-1.218-0.653-1.179-1.638c0.312,0,0.634,0,0.946,0c0.067,0.546,0.359,0.877,0.232,1.638l0.43-0.117l0.264,0.352 c0.244-0.049,0.204-0.205,0.233-0.469c0.273-2.125,0.634-4.98,0.712-7.954c0.166-0.721-0.644-0.448-0.477-1.169 c1.11-0.985,0.799-2.223,0.935-3.977c0.117-1.384,0.683-3.14,0.702-4.445c0.02-0.585-0.273-1.286-0.225-1.872 c0.039-0.535,0.351-1.014,0.458-1.637c0.282-1.501,0.526-3.051,0.243-3.977c0.801-1.111,0.069-2.623,0.234-3.978 c0.059-0.526,0.555-0.896,0.702-1.403c0.487-1.765-0.313-3.139,0.233-4.445c-0.155-0.701-0.906-0.818-0.701-1.871 c-0.254-0.878,0.877-0.37,0.701-1.17c-0.02-3.147-0.282-5.722,0.225-8.655c-0.068-0.556-0.81-0.438-0.692-1.17 c0.595-0.097,0.429-0.653,0.468-0.936c0.371-2.943-0.419-6.072-0.468-8.89c0.099-0.37,0.731-0.205,0.468-0.935 c-0.068-0.955-0.447-1.589-0.701-2.34c0.359-0.809,0.546-1.794,0.468-3.041c1.228-1.033,2.885-1.637,4.669-2.105 c0.137-0.341-0.273-1.209,0.244-1.17c0.848-0.154,0.896,0.508,1.627,0.468c0.965-0.682,2.057-1.219,3.285-1.638 c0.137-0.487-0.292-1.54,0.234-1.637c1.159-0.303,0.994,0.722,1.871,0.702c1.988-0.771,3.684-1.989,5.849-2.105 c0.954-1.218,3.129-1.238,4.2-2.34c-0.35-0.419-0.838-0.722-0.701-1.637c0.517-0.264,0.965-0.605,1.881-0.469 c0.039,0.984-1.15,0.722-0.945,1.872c2.252-0.644,3.724-2.047,5.849-2.808c0.487-0.067,0.058-1.032,0.711-0.936 c0.468,0,0.927,0,1.403,0c0.449-0.79,1.59-0.896,2.106-1.638c2.018-0.39,2.934-1.891,4.913-2.34 c0.35-0.506,0.252-1.452,0.936-1.637c0.73-0.117,0.525,0.722,1.393,0.469c2.369-1.688,4.68-3.442,7.262-4.914 c-0.312,0-0.301-0.653,0-0.701c0.518-0.546,0.906,0.078,1.639,0c1.92-0.965,3.227-2.535,5.146-3.51 c0.186-0.613-0.711-1.286,0-1.638c0.896-0.126,0.955,0.595,1.627,0.703c1.063-1.131,2.711-1.668,3.743-2.809 c0.039-0.722-0.546-1.325,0-1.871c0.761-0.137,1.092,0.156,1.647,0.234c0.75-0.692,1.414-1.315,2.33-1.872 c0.516-0.303,1.17-0.36,1.646-0.701c1.453-1.063,2.106-2.935,3.744-3.744c-0.283-1.919,1.004-2.261,1.17-3.742 c0.438-0.048,0.506,0.264,0.936,0.234l-0.117-0.351l0.34,0.116c0.801-0.76,0.995,0.39,1.648,0.468c0.457-0.438,0.068-0.857,0-1.403 c0.409-0.205,0.594-0.652,1.402-0.468c0.342-1.443,1.57-2.019,2.798-2.574c0.321-1.48,1.853-1.734,1.647-3.742 c0.303-0.234,0.857-0.234,1.17-0.468c0.312-2.262,1.773-3.372,3.031-4.679c0.254-1.472,1.326-2.115,1.871-3.275 c0.352-0.507,1.346-0.37,1.404-1.17C814.719,154.922,814.301,154.482,813.959,153.956z M688.11,151.383 c0.029-0.419-0.292-0.497-0.232-0.935c0.408,0.135,1.374-0.284,1.393,0.232C689.359,151.393,688.512,151.169,688.11,151.383z M690.451,167.29c0-0.155,0-0.312,0-0.468c0.469-0.078,0.73,0.05,0.691,0.468C690.908,167.29,690.686,167.29,690.451,167.29z M693.959,173.373c0-0.313,0-0.624,0-0.937c0.234,0,0.469,0,0.702,0C694.555,172.886,694.574,173.441,693.959,173.373z M695.598,175.479c-0.234,0-0.478,0-0.711,0c0-0.234,0-0.468,0-0.702c0.233,0,0.477,0,0.711,0 C695.598,175.011,695.598,175.244,695.598,175.479z M529.256,239.343c-0.517,0.039-0.75-0.195-0.701-0.702c0.233,0,0.468,0,0.701,0 C529.256,238.875,529.256,239.108,529.256,239.343z M538.38,235.365c-0.146-0.837,0.263-1.131,0.468-1.637 C539.307,233.981,539.248,235.668,538.38,235.365z M576.746,243.085c0-0.234,0-0.467,0-0.701 C577.427,242.043,577.427,243.427,576.746,243.085z M580.244,225.54c0-0.156,0-0.312,0-0.467c0.322,0,0.635,0,0.945,0 C581.423,225.774,580.664,225.491,580.244,225.54z M581.189,242.384c0-0.313,0-0.624,0-0.936c0.312,0,0.624,0,0.937,0 C582.234,242.179,581.922,242.491,581.189,242.384z M588.443,223.903c-0.098,0.448-0.303-0.147-0.234-0.469 C588.297,222.986,588.502,223.581,588.443,223.903z M597.793,222.266c-0.146,0-0.303,0-0.459,0c0-0.156,0-0.313,0-0.469 c0.156,0,0.313,0,0.459,0C597.793,221.953,597.793,222.109,597.793,222.266z M609.735,238.407c-0.157,0-0.313,0-0.468,0 c0-0.156,0-0.313,0-0.468c0.155,0,0.312,0,0.468,0C609.735,238.095,609.735,238.251,609.735,238.407z M611.606,239.811 c-0.907,0.185-0.907-1.121,0-0.936C611.606,239.187,611.606,239.499,611.606,239.811z M618.625,218.289c-0.154,0-0.311,0-0.467,0 c0-0.156,0-0.313,0-0.469c0.156,0,0.313,0,0.467,0C618.625,217.977,618.625,218.133,618.625,218.289z M622.139,217.119 c-1.025,0.155-0.636-1.083-0.703-1.872C622.394,215.121,622.625,216.515,622.139,217.119z M622.606,218.055 c0-0.156,0-0.313,0-0.469c0.47-0.078,0.733,0.05,0.705,0.469C623.076,218.055,622.842,218.055,622.606,218.055z M626.586,239.576 c-0.232,0-0.467,0-0.701,0c-0.068-0.38,0.215-0.399,0.234-0.701c0.156,0,0.313,0,0.468,0 C626.586,239.108,626.586,239.343,626.586,239.576z M634.541,213.375c0.604-0.067,1.004,0.089,0.935,0.702 C634.863,214.146,634.297,214.155,634.541,213.375z M637.581,212.675c0-0.234,0-0.469,0-0.703 C638.254,211.631,638.254,213.016,637.581,212.675z M643.897,161.677c-0.156,0-0.313,0-0.468,0c0-0.156,0-0.313,0-0.469 c0.155,0,0.312,0,0.468,0C643.897,161.364,643.897,161.521,643.897,161.677z M651.852,309.992c0-0.156,0-0.313,0-0.469 c0.469-0.078,0.73,0.049,0.701,0.469C652.32,309.992,652.085,309.992,651.852,309.992z M654.191,310.927 c0.467-0.078,0.73,0.049,0.701,0.467c-0.234,0-0.467,0-0.701,0C654.191,311.238,654.191,311.082,654.191,310.927z M654.426,317.945 c0-0.156,0-0.313,0-0.469c0.31,0,0.622,0,0.935,0C655.596,318.179,654.834,317.886,654.426,317.945z M657.223,176.882 c0.614-0.068,1.014,0.088,0.945,0.702C657.555,177.651,656.988,177.662,657.223,176.882z M658.168,182.262c0,0.234,0,0.469,0,0.702 c-0.234,0-0.469,0-0.701,0c0-0.233,0-0.468,0-0.702C657.699,182.262,657.934,182.262,658.168,182.262z M659.338,197.001 c-0.166,0-0.313,0-0.469,0c0-0.078,0-0.156,0-0.234l-0.35,0.116l-0.353-0.116c-0.37,0.02-0.185,0.594-0.701,0.469 c0.186-0.664-0.331-0.605-0.243-1.171c0.41-0.02,0.73,0.049,0.945,0.233c0,0.078,0,0.156,0,0.234l0.352-0.117l0.351,0.117 c0.156,0,0.302,0,0.468,0C659.338,196.688,659.338,196.845,659.338,197.001z M711.271,426.724c0.156,0,0.311,0,0.467,0 c0,0.156,0,0.313,0,0.469c-0.156,0-0.311,0-0.467,0C711.271,427.037,711.271,426.88,711.271,426.724z M709.4,422.513 c0.059,0.613-0.088,1.004-0.713,0.936C708.631,422.835,708.775,422.445,709.4,422.513z M701.445,411.519 c0.469-0.078,0.731,0.049,0.702,0.467c-0.234,0-0.468,0-0.702,0C701.445,411.83,701.445,411.675,701.445,411.519z M698.162,407.542 c0,0.623,0,1.246,0,1.871C696.416,409.941,696.729,407.113,698.162,407.542z M693.015,392.335 c-0.019,0.596-0.331,0.906-0.927,0.936c-0.184-0.203-0.253-0.525-0.232-0.936C692.244,392.335,692.635,392.335,693.015,392.335z M688.58,392.57c0.701-0.234,0.408,0.518,0.456,0.936c-0.223,0-0.456,0-0.691,0C688.238,393.019,688.502,392.882,688.58,392.57z M687.4,369.644c-0.498,0.877,0.457,0.711,0.243,1.871C686.728,371.886,686.563,369.527,687.4,369.644z M686.006,363.093 c-0.089,0.547-0.156,1.092-0.946,0.936C685.344,363.679,685.265,362.986,686.006,363.093z M681.552,334.789 c0.496-0.098,0.623,0.156,0.944,0.234c0.099,0.486-0.165,0.613-0.233,0.936c-0.429,0.029-0.498-0.283-0.945-0.234 C681.298,335.304,681.61,335.226,681.552,334.789z M680.391,377.363c0.439,1.17-1.607,1.309-1.402,0.234 C679.533,377.607,679.67,377.199,680.391,377.363z M678.287,373.154l-0.117-0.352l0.35,0.117c-0.039-0.418,0.225-0.545,0.693-0.467 c0.019,0.32-0.107,0.516-0.225,0.701c-0.157,0-0.313,0-0.469,0l0.107,0.35l-0.34-0.115c0,0.311,0,0.623,0,0.936 c-0.391,0-0.79,0-1.17,0C676.922,373.359,677.467,373.125,678.287,373.154z M675.702,304.376c-1.043,0.186-1.296-0.42-1.393-1.17 C675.147,302.759,675.869,303.197,675.702,304.376z M674.076,365.902c0.234,0,0.467,0,0.691,0c0,0.234,0,0.467,0,0.701 c-0.225,0-0.457,0-0.691,0C674.076,366.369,674.076,366.136,674.076,365.902z M671.727,287.533c0,0.313,0,0.625,0,0.936 c-0.867,0.176-1.132-0.264-1.161-0.936C670.956,287.533,671.346,287.533,671.727,287.533z M670.1,284.257 c0.467-0.078,0.73,0.049,0.701,0.469c-0.234,0-0.469,0-0.701,0C670.1,284.57,670.1,284.414,670.1,284.257z M663.314,253.144 c0.156,0,0.313,0,0.469,0c0.059,0.381-0.225,0.4-0.234,0.703c-0.156,0-0.313,0-0.478,0 C663.012,253.466,663.294,253.447,663.314,253.144z M664.016,261.8c-0.154,0-0.311,0-0.467,0c0-0.156,0-0.313,0-0.467 c0.156,0,0.313,0,0.467,0C664.016,261.488,664.016,261.644,664.016,261.8z M667.76,270.457c-0.625,0.068-0.77-0.322-0.702-0.936 c0.234,0,0.468,0,0.702,0C667.76,269.832,667.76,270.144,667.76,270.457z M667.291,267.181c0,0.232,0,0.467,0,0.701 c-0.516,0.039-0.75-0.195-0.701-0.701C666.824,267.181,667.057,267.181,667.291,267.181z M667.291,346.017 c0.254,0.975-1.666,0.975-1.402,0C666.619,346.134,666.794,345.509,667.291,346.017z M665.654,271.158c0.156,0,0.311,0,0.467,0 c0,0.156,0,0.313,0,0.469c-0.156,0-0.311,0-0.467,0C665.654,271.47,665.654,271.314,665.654,271.158z M665.186,267.414 c0.273,0.811-1.316,1.092-0.937,0C664.552,267.414,664.875,267.414,665.186,267.414z M665.419,205.422 c-0.185-0.37-0.75-0.351-0.701-0.936c0.341-0.273,0.584-0.273,0.936,0C665.684,204.905,665.36,204.983,665.419,205.422z M667.525,204.955c0-0.234,0-0.469,0-0.703c0.506-0.039,0.74,0.195,0.701,0.703C667.984,204.955,667.76,204.955,667.525,204.955z M671.035,204.955c0-0.234,0-0.469,0-0.703c0.506-0.039,0.74,0.195,0.691,0.703C671.492,204.955,671.269,204.955,671.035,204.955z M675.469,201.679c-0.156,0-0.302,0-0.458,0c0-0.155,0-0.312,0-0.468c0.157,0,0.302,0,0.458,0 C675.469,201.367,675.469,201.523,675.469,201.679z M685.294,200.978c0.273-0.196,0.634-0.313,1.17-0.234 C686.816,201.484,685.129,201.865,685.294,200.978z M686.941,225.774c-0.232,0-0.477,0-0.701,0c0-0.234,0-0.469,0-0.701 c0.225,0,0.469,0,0.701,0C686.941,225.306,686.941,225.54,686.941,225.774z M694.193,196.064c0.234,0,0.469,0,0.693,0 c0,0.233,0,0.468,0,0.702c-0.225,0-0.459,0-0.693,0C694.193,196.532,694.193,196.298,694.193,196.064z M694.887,198.872 c0-0.156,0-0.313,0-0.469c0.477-0.077,0.739,0.05,0.71,0.469C695.363,198.872,695.119,198.872,694.887,198.872z M698.863,196.767 c0.381-0.43,1.383-0.673,1.412,0.234C699.555,197.166,699.419,196.757,698.863,196.767z M700.734,149.745 c-0.507,0.039-0.74-0.195-0.691-0.702c0.232,0,0.467,0,0.691,0C700.734,149.277,700.734,149.511,700.734,149.745z M704.01,153.02 c0-0.155,0-0.311,0-0.467c0.479-0.078,0.739,0.048,0.701,0.467C704.488,153.02,704.254,153.02,704.01,153.02z M714.078,223.903 c-0.418-0.049-1.18,0.233-0.936-0.469c0.205-0.185,0.526-0.253,0.936-0.233C714.078,223.435,714.078,223.669,714.078,223.903z M714.537,164.951c-0.615-0.156-1.19-0.37-1.629-0.702c-0.147-0.926,1.277-0.273,1.863-0.467 C714.965,164.444,714.449,164.386,714.537,164.951z M713.844,307.417c-0.156,0-0.313,0-0.468,0c0-0.156,0-0.311,0-0.467 c0.155,0,0.312,0,0.468,0C713.844,307.107,713.844,307.261,713.844,307.417z M715.248,292.914c0-0.234,0-0.467,0-0.701 c0.264-0.195,0.624-0.313,1.16-0.234C716.574,292.845,716.047,293.011,715.248,292.914z M716.643,240.746c-0.157,0-0.313,0-0.459,0 c-0.068-0.38,0.215-0.399,0.224-0.702c0.157,0,0.313,0,0.478,0C716.943,240.425,716.66,240.443,716.643,240.746z M718.992,244.489 c-0.547,0.078-0.908-0.039-1.17-0.234c0.281-0.73,0.428-1.589,1.637-1.404c0.127,0.518-0.448,0.333-0.467,0.703 c0.008,0.848,0.574,1.131,0.701,1.871C719.068,245.493,718.923,245.104,718.992,244.489z M721.555,178.987 c-0.225,0-0.457,0-0.691,0c-0.069-0.381,0.214-0.399,0.234-0.702c0.154,0,0.31,0,0.456,0 C721.555,178.519,721.555,178.753,721.555,178.987z M725.307,222.266c-0.204-0.039-0.223,0.088-0.232,0.233 c-0.848-0.672,1.267-0.624,0.701,0.468C725.268,223.075,725.327,222.636,725.307,222.266z M725.541,268.583 c-0.078-0.613,0.322-0.77,0.927-0.701C726.545,268.498,726.146,268.654,725.541,268.583z M727.646,252.208 c-0.234,0-0.469,0-0.701,0c0-0.312,0-0.623,0-0.935C727.559,251.205,727.705,251.595,727.646,252.208z M731.623,180.157 c0.156-0.186,1.296-0.517,1.403,0C733.076,181.043,731.564,181.043,731.623,180.157z M734.897,210.569 c-0.643,0.165-0.477-0.469-0.945-0.469c-0.019-0.419,0.294-0.497,0.234-0.936C734.956,209.126,735.318,210.12,734.897,210.569z M737.695,177.584c-0.145,0-0.302,0-0.457,0c0-0.156,0-0.312,0-0.468c0.156,0,0.313,0,0.457,0 C737.695,177.272,737.695,177.428,737.695,177.584z M749.86,173.607c0-0.156,0-0.313,0-0.469c0.478-0.078,0.74,0.049,0.711,0.469 C750.338,173.607,750.105,173.607,749.86,173.607z M755.709,171.502c0-0.156,0-0.313,0-0.469c0.479-0.078,0.74,0.05,0.71,0.469 C756.188,171.502,755.952,171.502,755.709,171.502z M769.277,193.726c-0.76,0.058-1.121-0.283-1.16-0.936 c0.313-0.332,1.326-0.332,1.639,0C769.92,193.424,769.287,193.258,769.277,193.726z M782.387,183.666c-0.076,0-0.154,0-0.232,0 l0.117,0.351l-0.353-0.116c-0.098,0.292-0.302,0.477-0.701,0.467c0.019-0.281,0.069-0.555,0.467-0.467l-0.127-0.352l0.361,0.117 c0-0.155,0-0.312,0-0.468c0.156,0,0.313,0,0.468,0C782.387,183.354,782.387,183.511,782.387,183.666z M784.26,159.103 c0.195,0.43,0.594,0.644,0.691,1.17C784.035,160.564,784.26,159.718,784.26,159.103z M791.043,157.231c0.156,0,0.313,0,0.467,0 c0,0.155,0,0.312,0,0.468c-0.154,0-0.311,0-0.467,0C791.043,157.543,791.043,157.387,791.043,157.231z M793.383,178.753 c-1.248,0.146-1.365-0.818-2.584-0.701c-0.331-0.888,0.654-0.448,0.478-1.17c0.39,0,0.779,0,1.161,0 C791.988,178.266,793.646,177.554,793.383,178.753z M800.156,157.699c0-0.156,0-0.313,0-0.468c0.479-0.078,0.742,0.049,0.713,0.468 C800.635,157.699,800.39,157.699,800.156,157.699z M809.758,158.168c-0.234,0-0.478,0-0.702,0c0-0.234,0-0.469,0-0.703 c0.226,0,0.469,0,0.702,0C809.758,157.699,809.758,157.934,809.758,158.168z"></path> <path fill="#FFFFFF" d="M620.731,93.836c0.235,1.51,0.938,3.645,1.173,4.911c0.265,1.512,0.635,2.281,0.938,3.275 c0.528,1.755,0.889,3.373,1.406,4.913c0.341,0.039,0.857-0.088,0.936,0.234c-0.41-0.01-0.604,0.175-0.701,0.467 c0.486,1.414,1.334,3.061,1.871,3.978c0.487,0.848,0.936,1.188,1.403,1.871c0.185,0.282,0.292,0.644,0.468,0.936 c0.691,1.19,1.199,1.315,2.105,2.34c0.186,0.214,0.244,0.662,0.468,0.936c0.438,0.546,0.917,1.073,1.638,1.17 c0.409,0.994,1.111,1.696,2.105,2.105c0.546-0.068,0.965-0.459,1.403,0c0.165,0.711-0.409,0.691-0.233,1.403 c0.906,0.653,1.617,1.491,2.807,1.871c0.692,0.05,0.79-0.867,1.404-0.233c0.087,0.564-0.43,0.507-0.244,1.169 c1.316,0.712,2.242,1.813,3.986,2.106c0.215,0.887,1.277,1.101,1.861,1.403c0.342,0.176,0.479,0.585,0.713,0.702 c0.643,0.331,1.598,0.165,1.871,0.936c1.325-0.156,1.91,0.419,3.041,0.468c0.292,0.4,0.477,0.916,1.17,0.936 c1.228-0.137,1.764,0.409,3.041,0.233c-0.02,0.322,0.107,0.518,0.234,0.703c1.354,0.116,2.611,0.341,4.21,0.233 c0.634-0.146,0.575-0.975,1.403-0.937c0.342,0.273,0.273,0.975,0.927,0.937c2.202,0.254,3.558-0.341,4.922-0.937 c1.11,0.547,2.524,0.138,3.743,0.234c0.496,0.039,0.926,0.292,1.404,0.234c0.993-0.128,1.822-0.868,2.807-0.937 c0.722-0.02,1.111,0.283,1.637,0.468c0.518-0.644,1.648-0.681,2.34-1.168c0.146-0.624,0.098-1.462,0.458-1.871 c0.829,0.028,1.053,0.672,1.872,0.7c0.342-0.438,0.351-1.218,0.945-1.402c1.589,0.185,1.755-1.044,2.573-1.638 c1.11-0.137,2.154-0.341,3.509-0.234c0.664-0.506,1.023-1.315,2.105-1.402c0.391-0.459,0.547-1.171,1.17-1.404 c0.809-0.214,1.57-0.839,2.339-1.404c0.487-0.359,1.238-0.867,1.638-1.169c0.497-0.381,0.458-0.927,0.702-1.404 c0.097-0.204,0.662-0.613,0.692-0.701c0.107-0.273-0.069-0.653,0-0.937c0.059-0.204,0.468-0.39,0.477-0.468 c0.059-0.507-0.457-0.77-0.243-1.17c0.906-0.574,1.237-1.734,1.638-2.807c0.469-0.233,0.828-0.584,1.18-0.936 c0.107-1.346-0.342-1.774,0-2.808c0.564-0.574,1.344,0.508,1.403-0.467c0.604-0.479-1.218-0.487-0.936-1.404 c0.516-0.254,1.17-0.39,1.638-0.701c0.214-0.8,0.652-1.375,0.457-2.574c0.391-1.023,1.531-1.287,1.648-2.573 c-0.107-0.829-1.258-0.613-1.414-1.403c0.662,0.194,0.614-0.332,1.17-0.234c0.098-1.764,0.557-2.807,0.244-4.444 c0.301,0,0.613,0,0.936,0c0.604-1.833,2.389-3.11,1.627-5.614c1.404-1.677,0.43-4.854-0.233-6.55 c-0.497-0.585-1.442-0.741-1.872-1.404c-0.301-1.804-1.9-2.301-2.797-3.51c-0.156-0.935-0.585-1.607-0.945-2.339 c0.166-0.458,0.634-0.623,1.18-0.701c-0.663-0.896-0.663-3.021-1.414-3.509l-0.263,0.351l-0.429-0.117 c0.029,0.585-0.127,0.975-0.468,1.17c-0.722,0.165-0.692-0.4-1.413-0.234c0.058,1.881-2.154,2.379-1.404,4.211 c-0.672,0.039-0.643,0.682-0.926,1.169c-0.586,0.964-0.77,1.54-1.17,2.574c-0.107,0.273-0.342,0.644-0.469,0.935 c-0.877,1.96-1.705,3.898-2.573,5.849c-0.565,1.257-1.287,2.476-1.871,3.743c-0.272,0.585-0.254,1.179-0.479,1.638 c-0.039,0.087-0.409,0.116-0.456,0.235c-0.146,0.31-0.078,0.798-0.234,1.168c-0.186,0.428-0.857,0.615-0.47,1.17 c-0.604-0.049-0.838,0.517-1.169,0.936c-1.023,1.247-2.125,3.216-3.041,4.211c-0.438,0.458-0.644,0.8-0.935,1.169 c-0.585,0.712-0.917,1.268-1.413,1.871c-0.352,0.43-0.596,0.818-0.937,1.171c-0.556,0.585-1.315,0.896-1.628,1.403 c-0.76,1.228-1.969,2.096-3.041,2.807c0.049,0.439-0.273,0.518-0.244,0.937c-1.11,0.204-1.51,1.14-2.105,1.871 c-1.267,0.438-2.145,1.55-3.265,2.34c-0.107,0.068-0.351-0.05-0.478,0c-0.068,0.038-0.137,0.409-0.234,0.468 c-0.331,0.214-0.604,0.244-0.926,0.468c-0.585,0.409-1.033,0.877-1.638,1.17c-0.194,0.087-0.507-0.078-0.702,0 c-0.146,0.058-0.243,0.38-0.467,0.467c-0.469,0.166-0.966,0.059-1.404,0.234c-0.117,0.049-0.293,0.38-0.468,0.468 c-0.243,0.118-0.517,0.146-0.702,0.234c-0.399,0.175-1.053,0.293-1.403,0.468c-0.916,0.447-1.589,1.179-2.339,1.403 c-0.518,0.156-1.131-0.098-1.638,0c-0.595,0.107-0.575,0.429-1.18,0.468c-0.877-0.73-2.242-0.574-3.265-0.937 c-1.082-0.379-1.844-1.109-2.808-1.402c-0.332-1.063-1.54-1.599-2.106-2.573c-0.604-1.014-0.857-2.417-1.402-3.744 c-0.449-1.063-1.072-2.056-1.404-3.04c-0.273-0.79-0.244-1.619-0.468-2.34c-0.126-0.391-0.39-0.526-0.468-0.936 c-0.293-1.374-0.342-2.924-0.468-4.444c-0.049-0.662-1.121-0.293-0.936-1.17c0.731,0.107,0.906-0.332,1.403-0.468 c0.205-1.229-1.15-0.877-0.936-2.105c0.166-0.371,1.141,0.048,0.936-0.702c-0.303-2.895,1.287-4.805,0.691-7.252 c0.391-0.331,0.313-0.79,0.713-1.403c0.263-0.419,0.964-0.81,1.169-1.17c0.107-0.204,0.068-0.819,0.233-1.169 c0.273-0.615,0.508-0.527,0.469-0.937c-0.078-0.653-0.595-0.799-0.936-1.403l-0.352,0.117l-0.352-0.117c-0.232,0-0.467,0-0.701,0 c0-0.156,0-0.313,0-0.469c0.234,0,0.469,0,0.701,0l0.352,0.118l0.352,0.116c0-0.078,0-0.156,0-0.234 c0.272-0.271,0.818-0.263,1.402-0.233c0.117-0.828-0.828-0.575-0.701-1.403c0.653-0.194,1.443-0.272,2.105-0.469 c-0.146-1.705,0.906-2.202,1.395-3.274c-0.41-0.215-0.81-0.438-0.692-1.17c0.468,0,0.936,0,1.403,0 c0.361-0.487,0.965-0.74,1.17-1.403c0.623-0.156,0.887-0.673,1.403-0.936c-0.127-1.755,1.491-1.783,1.169-3.742 c0.829-1.044,1.746-1.99,3.042-2.574c0.731-0.117,0.818,0.419,1.638,0.234c0.594-0.644,0.633-1.853,1.871-1.871 c-0.039-0.741-0.01-1.414,0.469-1.638c0.438-0.469,1.101-0.118,1.637,0c0.438-1.346,2.34-1.249,1.871-3.51 c0.906-0.409,1.824-0.829,1.872-2.105c-0.419-0.136-1.374,0.282-1.403-0.233c0.127-0.73,0.701-1.005,0.936-1.638 c0.965,0.302,1.705,0.623,2.807,0.233c0.342-0.741,0.313-1.861,1.16-2.105c0.283-0.272,0.828-0.264,1.414-0.233 c0.945-2.642,4.513-2.661,5.146-5.614c2.057-0.975,2.417-3.655,4.444-4.679c0.117-0.741-0.517-0.917,0-1.404 c0.556-0.097,0.507,0.43,1.17,0.234c0.087-0.292,0.292-0.478,0.702-0.468c1.004-1.18,1.314-3.042,2.339-4.211 c-0.165-1.024,0.39-1.315,0.224-2.34c2.389-0.341,0.508-4.951,3.051-5.146c0.127-1.103,0.674-1.434,0.234-2.574 c0.195-0.575,0.857-0.691,1.17-1.169c-0.137-2.242,0.722-4.426-0.479-5.848c0.332-0.303,0.234-1.016,0.234-1.639 c0.176-0.722-0.634-0.448-0.468-1.17c-0.067-0.614,0.917-0.185,0.712-0.936c-0.878-1.141-0.156-2.573-0.479-3.743 c-0.116-0.448-0.545-0.916-0.691-1.17c-0.448-0.759-0.613-0.779-1.18-1.402c-0.448-0.508-0.701-1.561-1.393-1.404l-0.117,0.351 l-0.361-0.116c-0.029,0.419-0.409-0.099,0-0.234l0.127-0.352l0.352,0.118c0.243-1.462-1.775-2.564-3.042-3.276 c-0.771,0.011-0.565,1.005-1.413,0.937c-0.225-0.937,0.701-0.702,0.478-1.637c-0.624-0.751-1.618-1.073-2.349-1.404 c-0.078-0.039-0.117-0.42-0.234-0.468c-0.449-0.187-1.17-0.059-1.638-0.233c-0.81-0.313-1.56-1.103-2.798-0.703 c-1.237-0.478-1.501-1.939-3.285-1.871c-0.039-0.74-0.156-1.394-0.926-1.403c-2.018-0.321-4.016,2.281-5.146,3.743 c0.604-0.068,1.17-0.078,0.937,0.701c-0.907,0.264-0.839-0.829-1.404-0.233c-0.302,0.01-0.331,0.301-0.702,0.233 c-0.457,0.536-1.315,0.857-1.637,1.17c-0.215,0.194-0.176,0.068-0.469,0.234c-1.111,0.604-1.257,1.063-2.114,1.871 c-0.78,0.75-1.579,1.189-2.096,1.871c-0.653,0.838-1.628,1.491-2.105,2.106c-0.205,0.263-0.282,0.856-0.468,1.169 c-0.107,0.155-0.352,0.253-0.469,0.468c-0.623,1.063-1.14,2.184-1.402,3.274c-1.17,0.937-2.271,1.94-2.809,3.51 c-0.292,0.761,0.751,0.176,0.469,0.936c-0.536,1.023-1.501,1.618-2.105,2.574l0.351,0.272l-0.126,0.428 c0.613-0.135,0.848,0.099,0.711,0.703c-0.536,0.068-0.887-0.06-0.936-0.469l-0.429,0.118l-0.282-0.353 c-0.234,0-0.273,0.186-0.459,0.234c-0.652-0.779-1.102,0.605-1.637,0.702c-0.225,0.984,0.936,2.476-0.469,2.573 c-0.575-0.136,0.107-1.511-0.701-1.404c-0.342,0.595-0.634,1.248-1.17,1.639c0.273,1.17-0.225,1.892-0.234,2.573 c0.059,0.478-0.536,0.194-0.711,0.936c-0.479,0.42,0.633,1.229,0.467,2.105c-0.263,0.195-0.623,0.311-1.159,0.234 c-0.068-0.917,0.692-1.94-0.468-2.106c-0.624-0.155-0.906,0.761-1.17,1.17c-0.166,0.244-0.264,0.604-0.468,0.937 c-0.731,1.14-1.267,1.539-1.872,2.572c-0.77,1.297-1.014,2.662-0.711,4.445c-0.225,0.546-1.268,0.282-1.628,0.702 c0.507,0.039,0.497,0.585,0.468,1.17c-0.682,0.253-1.666,0.214-2.339,0.467c-0.653,1.385-1.433,2.632-2.105,3.978 c0.517,0.419,1.852,1.247,1.169,2.105c-0.906,0.117-0.926-1.346-1.637-0.702c-1.434,1.385-1.891,3.733-3.275,5.146 c-0.078,0.702-0.303,1.696-0.469,1.871c-0.428,0.439-0.506,0.946-0.701,1.404c-0.273,0.613-0.828,1.481-0.936,1.871 c-0.107,0.352,0.137,0.839,0,1.17c-0.039,0.078-0.42,0.146-0.468,0.234c-0.126,0.194-0.176,0.575-0.243,0.701 c-0.137,0.264-0.098,0.497-0.225,0.702c-0.088,0.137-0.409,0.303-0.468,0.468c-0.137,0.331,0.106,0.818,0,1.169 c-0.225,0.702-1.121,1.561-0.937,2.574c-0.282,0.35-0.594,0.662-0.936,0.936c0.479,0.73-0.478,2.017-0.467,3.041l0.35-0.117 l0.117,0.352c0.663-0.05,1.18,0.058,1.404,0.467c0.049,1.18-1.219,0.527-1.639,0.234l-0.126,0.352l-0.341-0.118 c-0.752,0.965-0.791,2.643-1.406,3.744c0.509,0.039,0.498,0.584,0.47,1.17c0.067,0.612-0.919,0.185-0.705,0.935 c-0.213,1.736-0.379,3.529-0.702,5.147c-1.074,0.701-1.894,2.183-1.406,3.743c0.164,0.722-0.645,0.447-0.468,1.169 C620.791,88.922,620.381,91.652,620.731,93.836z M704.945,90.092c0.622,0.078,0.799,0.614,0.945,1.17 c-0.215,0.185-0.536,0.253-0.945,0.234C704.496,91.057,704.877,90.638,704.945,90.092z M698.162,78.862c0.164,0,0.32,0,0.477,0 c0,0.156,0,0.313,0,0.469c-0.155,0-0.312,0-0.477,0C698.162,79.175,698.162,79.019,698.162,78.862z M696.758,83.542 c0.156,0,0.313,0,0.467,0l0.128-0.351l0.116,0.351c0.342-0.273,0.585-0.273,0.937,0c0.107,0.526-0.595,1.403-0.937,0.701 l-0.351,0.117l0.107-0.35c-0.155,0-0.312,0-0.468,0C696.758,83.854,696.758,83.698,696.758,83.542z M696.533,107.403 c0.467-0.078,0.73,0.048,0.691,0.468c-0.232,0-0.467,0-0.691,0C696.533,107.715,696.533,107.56,696.533,107.403z M694.193,116.059 c-0.059,0.293-0.467,0.233-0.467,0C693.824,115.718,693.932,116.078,694.193,116.059z M691.621,120.972 c0.574-0.029,1.119-0.04,1.394,0.234C692.927,121.644,691.269,122.15,691.621,120.972z M689.271,122.141c0.322,0,0.635,0,0.945,0 C690.393,123.037,689.096,123.037,689.271,122.141z M688.346,122.141c-0.723-0.165-0.459-0.165-1.18,0 C686.816,121.419,688.697,121.419,688.346,122.141z M659.104,123.077c0.156,0,0.313,0,0.469,0c0,0.155,0,0.312,0,0.468 c-0.156,0-0.313,0-0.469,0C659.104,123.389,659.104,123.232,659.104,123.077z M649.746,125.884c0.547,0,1.092,0,1.629,0 c-0.527,0.8-0.693,1.959-1.629,2.34C649.035,127.122,650.283,126.82,649.746,125.884z M648.811,120.27 c0.614-0.068,0.76,0.321,0.701,0.937c-0.614,0.067-1.014-0.089-0.936-0.702C648.771,120.543,648.791,120.416,648.811,120.27z M689.515,21.315c0.47-0.078,0.731,0.049,0.701,0.469c-0.232,0-0.467,0-0.701,0C689.515,21.628,689.515,21.472,689.515,21.315z M687.4,25.526c0.369,0.263,0.486,0.76,1.18,0.701c0.068,0.546-0.04,0.897-0.234,1.17c-0.701-0.165-0.857-0.858-1.404-1.17 C687.088,25.994,687.479,25.983,687.4,25.526z M686.239,30.204c0.47-0.078,0.731,0.05,0.702,0.469c-0.233,0-0.478,0-0.702,0 C686.239,30.517,686.239,30.36,686.239,30.204z M682.731,38.393c0.468-0.078,0.731,0.049,0.692,0.468c-0.234,0-0.458,0-0.692,0 C682.731,38.704,682.731,38.548,682.731,38.393z M680.391,40.264c0.157,0,0.313,0,0.469,0c0,0.234,0,0.468,0,0.702 c-0.244,0-0.469,0-0.701,0C680.09,40.585,680.373,40.566,680.391,40.264z M678.287,7.513c0.154,0,0.31,0,0.467,0 c0,0.156,0,0.313,0,0.469c-0.157,0-0.313,0-0.467,0C678.287,7.825,678.287,7.669,678.287,7.513z M677.34,43.772 c0.507-0.106,0.448,0.332,0.478,0.702c-0.243,0-0.478,0-0.701,0C677.234,44.29,677.36,44.094,677.34,43.772z M677.117,46.346 c0.145,0,0.302,0,0.457,0c0,0.156,0,0.313,0,0.469c-0.156,0-0.313,0-0.457,0C677.117,46.658,677.117,46.502,677.117,46.346z M675.012,46.814c0.156,0,0.302,0,0.457,0c0,0.156,0,0.313,0,0.468c-0.156,0-0.302,0-0.457,0 C675.012,47.127,675.012,46.971,675.012,46.814z M667.291,55.469c0.156,0,0.313,0,0.469,0l0.225,0.118l0.243,0.116 c0.195-0.575,0.536-1.013,1.394-0.935c0.244,1.091-0.4,1.306-1.394,1.169l-0.243,0.117l-0.225-0.117 c-0.059,0.186-0.205,0.272-0.469,0.234C667.291,55.938,667.291,55.703,667.291,55.469z M664.952,9.385 c-0.058,0.857-0.321,0.896,0,1.637c-0.429,0.029-0.497-0.281-0.936-0.234C664.239,10.232,664.084,9.307,664.952,9.385z M661.91,61.552c0.487-0.098,0.615,0.156,0.937,0.234C662.798,62.468,661.727,62.351,661.91,61.552z M657.934,62.488 c0.264,0.038,0.254,0.369,0.234,0.701l0.117,0.233l-0.117,0.234c0.545,0-0.088,0.634-0.469,0.468c0-0.155,0-0.312,0-0.468 l-0.115-0.351l0.35-0.117C657.836,62.857,657.652,62.79,657.934,62.488z M655.36,67.868c0.157,0,0.313,0,0.467,0 c0,0.156,0,0.313,0,0.469c-0.154,0-0.31,0-0.467,0C655.36,68.181,655.36,68.024,655.36,67.868z M653.723,70.208 c0.722-0.107,0.741,0.497,0.702,1.169c-0.391,0-0.78,0-1.17,0C653.051,70.627,653.615,70.655,653.723,70.208z M651.852,68.57 c0.662,0.116,0.662,0.887,0.935,1.403l0.303,0.303l0.166,0.398l-0.43,0.117l-0.272-0.35c-0.663,0.194-0.614-0.332-1.179-0.234 C651.402,69.282,652.397,69.496,651.852,68.57z M647.64,34.884c0.069,0.613-0.33,0.77-0.935,0.701 C646.627,34.971,647.027,34.815,647.64,34.884z M643.664,83.776c0.156,0,0.313,0,0.467,0c0,0.156,0,0.312,0,0.467 c-0.154,0-0.311,0-0.467,0C643.664,84.088,643.664,83.933,643.664,83.776z M642.261,40.966c0.507-0.04,0.098,0.828,0.233,1.169 C642.084,41.921,641.881,41.316,642.261,40.966z M641.793,109.509l-0.128-0.352l0.128-0.351c0-0.156,0-0.313,0-0.468 c0.36,0.02,0.809-0.029,0.701,0.468c-0.077,0-0.156,0-0.234,0l0.117,0.429l-0.35,0.273c-0.029,0.282-0.078,0.556-0.47,0.468 c0.195,0.508,0.604,0.799,0.47,1.638C640.994,111.878,641.081,109.548,641.793,109.509z M631.265,60.617 c0.799-0.099,1.326,0.067,1.17,0.935c-0.391,0-0.779,0-1.17,0C631.265,61.24,631.265,60.928,631.265,60.617z M630.798,63.892 c0.468-0.078,0.731,0.049,0.702,0.468c-0.234,0-0.47,0-0.702,0C630.798,64.203,630.798,64.047,630.798,63.892z M627.044,76.991 c0.088,0.868-0.575,0.975-1.16,1.171C625.923,77.431,626.314,77.04,627.044,76.991z M625.184,90.326 c-0.625,0.067-0.771-0.322-0.701-0.936C625.096,89.321,625.242,89.712,625.184,90.326z M624.248,80.968c0.234,0,0.467,0,0.701,0 c0,0.234,0,0.469,0,0.703c-0.234,0-0.467,0-0.701,0C624.248,81.437,624.248,81.202,624.248,80.968z M624.949,88.221 c-0.74,0.264-0.576-0.37-0.938-0.468C624.081,87.256,625.114,87.703,624.949,88.221z M623.076,83.542 c0.721-0.106,0.74,0.497,0.701,1.169c-0.311,0-0.634,0-0.937,0C622.764,84.166,622.871,83.814,623.076,83.542z"></path> <path fill="#FFFFFF" d="M700.043,72.313l0.272-0.352l0.419,0.117c0.146-1.238-1.053-2.096-2.096-1.404c0,0.313,0,0.624,0,0.937 C698.639,72.303,699.739,71.914,700.043,72.313z"></path> <path fill="#FFFFFF" d="M697.938,84.011c0-0.128-0.195-0.264-0.234,0C697.693,84.136,697.889,84.272,697.938,84.011z"></path> </g> </svg> 