<?xml version="1.0" encoding="UTF-8"?> <!-- Generator: Adobe Illustrator 22.1.0, SVG Export Plug-In . SVG Version: 6.00 Build 0) --> <svg xmlns="http://www.w3.org/2000/svg" xmlns:xlink="http://www.w3.org/1999/xlink" version="1.1" id="Layer_1" x="0px" y="0px" viewBox="0 0 601.1 425.3" style="enable-background:new 0 0 601.1 425.3;" xml:space="preserve"> <style type="text/css"> .st0{fill:#FFFFFF;} </style> <g> <g> <polygon class="st0" points="154.6,424.5 154.6,386.6 150.8,386.6 150.8,402.9 129.5,402.9 129.5,386.6 125.7,386.6 125.7,424.5 129.5,424.5 129.5,406.6 150.8,406.6 150.8,424.5 "></polygon> <rect x="163.2" y="386.6" class="st0" width="3.8" height="37.9"></rect> <path class="st0" d="M206.4,419c0,1,0,2.6,0,5.3v0.4h3.5V405h-15.3v3.4h11.7v5.4c-1.5,3.2-6.8,7.7-14.2,7.7 c-9.2,0-15.8-6.7-15.8-16c0-9.3,6.6-16,15.8-16c5.7,0,10.8,2.7,13.5,7.4l0.1,0.2l3.8-1l-0.2-0.4c-3.5-6.2-9.6-9.7-17.2-9.9 c-11.2,0-19.7,8.5-19.7,19.7c0,11.2,8.5,19.7,19.7,19.7C199.8,425.3,204.5,421.1,206.4,419z"></path> <polygon class="st0" points="220.2,406.6 241.6,406.6 241.6,424.5 245.4,424.5 245.4,386.6 241.6,386.6 241.6,402.9 220.2,402.9 220.2,386.6 216.5,386.6 216.5,424.5 220.2,424.5 "></polygon> </g> <g> <path class="st0" d="M276.8,402.9l-0.2-0.1c-4.9-1.3-10-2.7-10-6.9c0-4,3.6-6.6,9.1-6.6c5.2,0,9,3,9.7,7.6l0.1,0.4l3.7-1l-0.1-0.3 c-1.1-6.1-6.5-10.2-13.3-10.2c-7.6,0-13.1,4.3-13.1,10.2c0,6.6,6.6,8.5,10.9,9.7l0.2,0c0.6,0.2,1.2,0.3,1.8,0.5 c4.7,1.3,10.1,2.8,10.1,8c0,4.4-3.9,7.4-9.7,7.4c-6.7,0-10.1-4.3-10.5-8.5l0-0.5l-3.7,1l0,0.3c0.9,6.8,6.4,11.2,14.1,11.2 c8.1,0,13.7-4.5,13.7-11C289.6,406.5,281.9,404.3,276.8,402.9z"></path> <path class="st0" d="M326.1,413.1c-2.6,5.2-8,8.4-14,8.4c-9.1,0-15.8-6.7-15.8-15.9c0-9.2,6.6-16,15.8-16c5.7,0,10.8,2.7,13.5,7.3 l0.1,0.2l3.8-1l-0.3-0.4c-3.5-6.2-10-9.9-17.2-9.9c-11.2,0-19.7,8.5-19.7,19.7c0,11.2,8.4,19.7,19.7,19.7c7.8,0,14.6-4.2,17.8-11 l0.2-0.4l-3.8-1.1L326.1,413.1z"></path> <polygon class="st0" points="359.2,402.9 337.9,402.9 337.9,386.6 334.1,386.6 334.1,424.5 337.9,424.5 337.9,406.6 359.2,406.6 359.2,424.5 363,424.5 363,386.6 359.2,386.6 "></polygon> <path class="st0" d="M388.2,385.9c-11.2,0-19.7,8.5-19.7,19.7c0,11.2,8.5,19.7,19.7,19.7c11.2,0,19.7-8.5,19.7-19.7 C407.9,394.3,399.4,385.9,388.2,385.9z M388.2,421.5c-9.1,0-15.8-6.7-15.8-16c0-9.2,6.6-16,15.8-16c9.2,0,15.8,6.7,15.8,16 C404,414.8,397.4,421.5,388.2,421.5z"></path> <path class="st0" d="M431.4,385.9c-11.2,0-19.7,8.5-19.7,19.7c0,11.2,8.4,19.7,19.7,19.7c11.2,0,19.7-8.5,19.7-19.7 C451.1,394.3,442.6,385.9,431.4,385.9z M431.4,421.5c-9.1,0-15.8-6.7-15.8-16c0-9.2,6.6-16,15.8-16c9.2,0,15.8,6.7,15.8,16 C447.2,414.8,440.6,421.5,431.4,421.5z"></path> <polygon class="st0" points="460.2,420.9 460.2,386.6 456.4,386.6 456.4,424.5 480.8,424.5 480.8,420.9 "></polygon> </g> </g> <path class="st0" d="M118,343c0-2.1-0.4-3.4-1.3-4.1c-5.4-3.3-8.1-5.9-8.1-18.2v-60.9c0-4.2-1.2-5.3-5.3-5.3h-3.9 c-4.2,0-5.3,1.2-5.3,5.3v58.8c0,21.5,6.9,28,18.9,32.1c0.8,0.3,1.6,0.5,2.4,0.8c1.8,0.5,2.6-1.7,2.7-4.4c0,0.1,0,0.1,0,0.1 c0-0.1,0-0.2,0-0.5V343z M32.4,254.4H4.7c-3.9,0-4.7,0.9-4.7,4.8v87.6c0,3.9,0.8,4.7,4.7,4.7h28.9c23.9,0,51.9-12.6,51.9-48.1 C85.5,267.3,58.1,254.4,32.4,254.4z M32.6,339.3H14.9v-72.7h17.6c23,0,36.8,13.8,36.8,36.8C69.2,325.9,55.5,339.3,32.6,339.3z M595.7,250.1h-4c-4.3,0-5.2,1.1-5.2,5.3v16.6c0,21.7-8,33.6-25.3,33.6c-17.5,0-25.3-11.9-25.3-33.6v-16.6c0-4.1-1.2-5.3-5.4-5.3h-4 c-4.3,0-5.4,1.1-5.4,5.3v16.1c0,28.5,12,43.2,32.8,45.9v29.8c0,4.2,1.2,5.3,5.3,5.3h3.9c4.2,0,5.3-1.2,5.3-5.3v-29.7 c20.9-2.6,32.8-17.3,32.8-45.9v-16.1C601.1,251.2,600.2,250.1,595.7,250.1z M449.4,253.8h-4c-4.3,0-5.2,1.1-5.2,5.3V307 c0,21.7-9,33.6-26.3,33.6c-17.5,0-26.3-11.9-26.3-33.6v-47.9c0-4.1-1.2-5.3-5.4-5.3h-4c-4.3,0-5.4,1.1-5.4,5.3v47.4 c0,31.8,15.8,46.4,41.2,46.4c25.3,0,40.9-14.6,40.9-46.4v-47.4C454.9,255,453.9,253.8,449.4,253.8z M347.5,299.8l-3.4-0.3l3.4-0.7 c10.1-2.1,15.1-9,15.1-20.5c0-22.4-17.3-25.5-34.3-25.5h-28.6c-0.2,0-0.4,0-0.7,0h-4c-0.4,0-0.8,0-1.2,0c-3.4,0.1-4.2,1.1-4.2,4.9 v53.8c0,13,2.3,22.1,6.7,28.4l0,0c0,0,0,0,0.1,0.1c0,0,0,0,0,0c0,0.1,0.1,0.2,0.2,0.3c0,0,0,0,0,0c0.2,0.2,0.4,0.6,0.8,1 c0.1,0.1,0.1,0.2,0.2,0.3c0.1,0.1,0.1,0.1,0.2,0.2c2.7,2.9,9.1,8.5,20.7,10.6c1.7,0.3,3.5,0.5,5.5,0.7c0.1,0,0.1,0,0.2,0 c0.9,0.1,1.8,0.1,2.7,0.1c0.1,0,0.3,0,0.4,0c0.9,0,1.8,0,2.8,0l0.4,0c1,0,2.1-0.1,3.2-0.2c0,0,0,0,0,0c3.5-0.3,7.3-0.9,11.3-1.9 c0.2-0.1,0.5-0.1,0.7-0.2c0.6-0.2,1.3-0.3,1.9-0.5l0,0c13.1-3.7,19.4-12.3,19.4-25.8C367,304.5,353.3,300.3,347.5,299.8z M304.3,264.5h24c12.9,0,18.5,4.4,18.5,14.6c0,10.3-5.2,14.9-16.8,14.9h-25.8V264.5z M328.8,341h-1c-10.9,0-17.6-6.6-17.6-6.6 c-4.2-4.4-6-10.4-6-21.7v-6h26.8c9.7,0,20.9,2,20.9,17.8C352,335.6,344.4,341,328.8,341z M158.6,254.4h-27.8c-3.9,0-4.7,0.9-4.7,4.8 v87.6c0,3.9,0.8,4.7,4.7,4.7h28.9c23.9,0,51.9-12.6,51.9-48.1C211.6,267.3,184.2,254.4,158.6,254.4z M158.7,339.3H141v-72.7h17.6 c23,0,36.8,13.8,36.8,36.8C195.3,325.9,181.6,339.3,158.7,339.3z M510.1,249.9c-1.9-0.2-3.9-0.2-5.6-0.2 c-24.1,0-38.1,13.7-38.1,43.9v50.8c0,3.9,0.9,5.1,5.1,5.1h3.9c4.2,0,5.3-1.2,5.3-5.3v-50.6c0-20.2,8.4-30.6,23.7-30.6 c1.6,0,4.2,0.2,5.8,0.2c2.8,0,3.7-0.9,3.7-3.7v-4.9C514.1,251.3,512.9,249.9,510.1,249.9z M252.3,295.5c-13-3.2-23.6-5.3-23.6-16.7 c0-12.7,10.9-14.3,21.3-14.3c7.2,0,16,0.7,23.4,3.2c3.2,0.7,4.2,0.2,4.2-3v-5.3c0-2.1-0.9-3-3.5-3.9c-6.5-2.1-16-3-24.5-3 c-16.6,0-34.4,3.7-34.4,27.1c0,19.4,13.9,24.5,27.7,27.7c11.8,2.8,24.5,5.1,24.5,18c0,12.3-9,16.4-23.4,16.4 c-8.1,0-16.4-0.9-25.4-3.9c-3.2-0.7-4.4-0.2-4.4,3.2v5.1c0,2.8,0.9,3.7,4.2,4.4c9.9,3,17.8,3.7,27.1,3.7c20.8,0,35.6-6.7,35.6-28.9 C281,304.3,266.2,299,252.3,295.5z"></path> <g> <path class="st0" d="M295.6,127.6l-24.3,14.1c0.1,0.9,0.6,1.8,1.4,2.2l22.9,13.2c0.9,0.5,2,0.5,2.9,0l22.9-13.2 c0.8-0.5,1.3-1.3,1.4-2.3l-24.3-14C297.6,127,296.5,127,295.6,127.6z"></path> <path class="st0" d="M274.5,86.1c-0.5-0.9-1.5-1.5-2.5-1.5h-26.4c-1,0-2,0.6-2.5,1.5L229.8,109c-0.5,0.9-0.5,2,0,2.9l13.2,22.9 c0.5,0.9,1.5,1.5,2.5,1.5h18.7v-24.9c0-1.3,0.7-2.6,1.9-3.2L282,99L274.5,86.1z"></path> <path class="st0" d="M321.4,112.4l-22.9-13.2c-0.9-0.5-2-0.5-2.9,0l-22.9,13.2c-0.9,0.5-1.5,1.5-1.5,2.5v18.7l24-13.8 c1.2-0.7,2.6-0.7,3.7,0l24,13.8v-18.7C322.8,113.9,322.3,112.9,321.4,112.4z"></path> <path class="st0" d="M351,86.1c-0.5-0.9-1.5-1.5-2.5-1.5H322c-1,0-2,0.6-2.5,1.5L312.1,99l15.9,9.2c1.1,0.7,1.9,1.9,1.9,3.2v24.9 h18.7c1,0,2-0.6,2.5-1.5l13.2-22.9c0.5-0.9,0.5-2,0-2.9L351,86.1z"></path> <path class="st0" d="M385.6,52L303.2,4.5c-3.4-2-8.9-2-12.3,0L208.5,52c-3.4,2-6.2,6.8-6.2,10.7v95.1c0,3.9,2.8,8.7,6.2,10.7 l82.4,47.6c3.4,2,8.9,2,12.3,0l82.4-47.6c3.4-2,6.2-6.8,6.2-10.7V62.7C391.7,58.8,389,54,385.6,52z M372,112.3l-16.8,29.1 c-0.7,1.1-1.9,1.9-3.2,1.9h-22.2v1.7c0,1.3-0.7,2.5-1.9,3.2l-29.1,16.8c-1.1,0.7-2.6,0.7-3.7,0l-29.1-16.8 c-1.1-0.7-1.9-1.9-1.9-3.2v-1.7H242c-1.3,0-2.6-0.7-3.2-1.9L222,112.3c-0.7-1.2-0.7-2.6,0-3.7l16.8-29.1c0.7-1.1,1.9-1.9,3.2-1.9 h33.6c0.2,0,0.3,0,0.5,0.1v-8.9c0-1.3,0.7-2.6,1.9-3.2l17.3-10c0.6-0.3,1.2-0.5,1.9-0.5c0.6,0,1.3,0.2,1.9,0.5l17.3,10 c1.1,0.7,1.9,1.9,1.9,3.2v8.9c0.1,0,0.2,0,0.4,0H352c1.3,0,2.6,0.7,3.2,1.9l16.8,29.1C372.7,109.8,372.7,111.2,372,112.3z"></path> </g> </svg> 