<?xml version="1.0" encoding="UTF-8"?> <!-- Generator: Adobe Illustrator 22.1.0, SVG Export Plug-In . SVG Version: 6.00 Build 0) --> <svg xmlns="http://www.w3.org/2000/svg" xmlns:xlink="http://www.w3.org/1999/xlink" version="1.1" id="Layer_1" x="0px" y="0px" viewBox="0 0 278.7 304.5" style="enable-background:new 0 0 278.7 304.5;" xml:space="preserve"> <style type="text/css"> .st0{fill:#FFFFFF;} </style> <path class="st0" d="M50.5,261.2C50.6,261.2,50.6,261.1,50.5,261.2L50.5,261.2C50.6,261.1,50.6,261.2,50.5,261.2z"></path> <path class="st0" d="M44.3,290.5c0-3.8-2.8-6.3-7.4-6.3h-6.1v19.9h2.3v-7.4h3.7c0.3,0,0.7,0,1,0l4.5,7.4H45l-4.8-7.9 C42.8,295.3,44.3,293.3,44.3,290.5z M37.1,294.6h-3.9v-8.2h3.9c3,0,4.8,1.6,4.8,4.1C41.9,292.9,40.3,294.6,37.1,294.6z M224.6,283.8 c-5.7,0-10.3,4.3-10.3,10.3c0,6,4.6,10.3,10.3,10.3c5.7,0,10.3-4.3,10.3-10.3C234.9,288.1,230.3,283.8,224.6,283.8z M224.6,302.2 c-4.5,0-7.9-3.3-7.9-8.1c0-4.8,3.4-8.1,7.9-8.1c4.5,0,7.9,3.2,7.9,8.1C232.5,298.9,229.1,302.2,224.6,302.2z M66.8,292.6 c-1.7,2.9-2,3.7-2,3.7h0c0,0-0.3-0.8-2-3.7l-4.9-8.4h-2.2v19.9h2.3v-8.9c0-3.1-0.1-7-0.1-7h0c0,0,1,1.8,1.7,3l4.6,8.1h1.2l4.6-8.1 c0.7-1.2,1.7-3,1.7-3h0c0,0-0.1,3.9-0.1,7v8.9h2.3v-19.9h-2.2L66.8,292.6z M48.5,304.1h2.3v-19.9h-2.3V304.1z M240,301.9v-17.7h-2.3 v19.9h13v-2.2H240z M20.5,284.2h-6.1v19.9h2.3v-7.2h3.8c4.6,0,7.4-2.4,7.4-6.4C27.9,286.6,25.1,284.2,20.5,284.2z M20.5,294.7h-3.7 v-8.3h3.7c3.1,0,5.1,1.5,5.1,4.1C25.5,293.1,23.7,294.7,20.5,294.7z M143.2,292.7c-2.6-0.8-5.4-1.5-5.4-3.7c0-2,1.8-3.2,4.5-3.2 c2.5,0,4.5,1.4,5,3.9l2.2-0.6c-0.7-3.2-3.5-5.3-7.1-5.3c-4,0-6.9,2.3-6.9,5.4c0,3.4,3.4,4.5,5.6,5.2c2.8,0.9,6.2,1.5,6.2,4.4 c0,2.1-1.8,3.6-4.7,3.6c-3.2,0-5.1-2-5.4-4.3l-2.2,0.6c0.6,3.4,3.3,5.9,7.6,5.9c4.4,0,7.3-2.4,7.3-5.8 C149.8,294.8,146,293.6,143.2,292.7z M121.3,290.7c-0.5,0.7-1.2,1.6-1.2,1.6h0c0,0-0.7-0.9-1.2-1.6l-5-6.5h-2.6l7.7,10.1v9.8h2.3 v-9.8l7.7-10.1h-2.7L121.3,290.7z M186.4,292.7h-10.9v-8.5h-2.3v19.9h2.3v-9.2h10.9v9.2h2.3v-19.9h-2.3V292.7z M161.6,302.2 c-4.5,0-7.9-3.2-7.9-8c0-4.8,3.4-8.1,7.9-8.1c2.8,0,5.3,1.4,6.7,3.5l2.4-0.6c-1.8-3.2-5.1-5.2-9-5.2c-5.7,0-10.3,4.3-10.3,10.3 c0,6,4.6,10.3,10.3,10.3c4.1,0,7.7-2.3,9.3-5.8l-2.3-0.6C167.3,300.6,164.6,302.2,161.6,302.2z M201.9,283.8 c-5.7,0-10.3,4.3-10.3,10.3c0,6,4.6,10.3,10.3,10.3s10.3-4.3,10.3-10.3C212.2,288.1,207.6,283.8,201.9,283.8z M201.9,302.2 c-4.5,0-7.9-3.3-7.9-8.1c0-4.8,3.4-8.1,7.9-8.1c4.5,0,7.9,3.2,7.9,8.1C209.8,298.9,206.4,302.2,201.9,302.2z M84.5,284.2l-8.6,19.9 h2.5l2.2-5.2h10l2.2,5.2h2.5l-8.6-19.9H84.5z M81.5,296.8l3.2-7.4c0.4-1,0.9-2.4,0.9-2.4h0c0,0,0.5,1.4,0.9,2.4l3.2,7.4H81.5z M110.8,290.5c0-3.8-2.8-6.3-7.4-6.3h-6.1v19.9h2.3v-7.4h3.7c0.3,0,0.7,0,1,0l4.5,7.4h2.6l-4.8-7.9 C109.3,295.3,110.8,293.3,110.8,290.5z M103.6,294.6h-3.9v-8.2h3.9c3,0,4.8,1.6,4.8,4.1C108.4,292.9,106.8,294.6,103.6,294.6z"></path> <g> <g> <path class="st0" d="M67.3,0C30.1,0,0,30.1,0,67.3c0,37.1,30.1,67.3,67.3,67.3c0.5,0,1,0,1.6,0c-2.9-5.8-4.8-12.2-5.2-18.9 c-12.1-0.9-22.9-6.2-31-14.2c-8.9-8.9-14.4-21.1-14.4-34.7c0-13.5,5.5-25.8,14.4-34.7c8.9-8.9,21.1-14.4,34.7-14.4 c3.2,0,6.3,0.3,9.3,0.9c1.9,0.4,3.1,2.1,2.7,4c-0.4,1.9-2.1,3.1-4,2.7c-2.6-0.5-5.3-0.8-8-0.8c-11.7,0-22.2,4.7-29.8,12.4 C29.8,44.5,25.1,55,25.1,66.7c0,11.7,4.7,22.2,12.4,29.8c6.8,6.8,16,11.3,26.1,12.2c0-0.4,0-0.7,0.1-1.1l0-16.7 c-1.9-12.2-9-22.6-19-28.9c-1.6-1-2.1-3.1-1-4.7c1-1.6,3.1-2.1,4.7-1c6.2,4,11.5,9.3,15.4,15.6l0-2.2c0-0.1,0-0.3,0-0.4 c0.1-10.8,3.7-20.7,9.7-28.7C79.5,32.3,88.1,26.1,98,23c1.8-0.6,3.7,0.4,4.3,2.2c1.7,5,2.6,10.3,2.6,15.8c0,8.8-2.3,17.1-6.4,24.2 c4.4-1.4,9-2.1,13.8-2.1c0.2,0,0.4-0.1,0.5-0.1c0.8,0,1.5,0.3,1.9,0.6c0.4,0.3,0.7,0.6,0.8,0.8c0.3,0.4,0.4,0.7,0.4,0.8 c0.1,0.3,0.1,0.4,0.2,0.6c0,0.2,0,0.2,0,0.3l0,0.2l0,0.1v0.2c0,0.9,0,1.8-0.1,2.7c0,0.1,0,0.1,0,0.2c-0.7,12.9-6.4,24.5-15.2,32.9 c-8.1,7.7-18.8,12.6-30.6,13.4c0.5,6.7,2.6,12.9,5.9,18.3c32.9-4.4,58.2-32.6,58.2-66.6C134.5,30.1,104.4,0,67.3,0z M85.5,80 c-0.8,0.7-1.7,1.5-2.4,2.2c-6.8,6.9-11.3,16.1-12.2,26.3c10.2-0.9,19.4-5.4,26.2-12.2c6.8-6.9,11.3-16,12.2-26.2 c-0.1,0-0.1,0-0.2,0c-3.3,0.3-6.4,0.9-9.4,1.8c-4.3,1.4-8.4,3.5-11.9,6.2C87,78.8,86.2,79.4,85.5,80z M78.9,44.5 c-5.2,7-8.3,15.6-8.3,25h0c0,0,0,0,0,0l0,10.9c3.2-1.2,6.2-2.8,9-4.7c1.5-1.4,3.2-2.7,4.9-3.9c1.6-1.5,3.2-3.2,4.6-4.9 c5.6-7.2,9-16.2,9-26.1c0-3.6-0.4-7-1.3-10.2C89.6,33.6,83.5,38.5,78.9,44.5z"></path> </g> </g> <path class="st0" d="M125.8,214.2c-12.8,0-20.6,7.6-20.6,24.2v24.3c0,2.1,0.5,2.7,2.7,2.7h2c2.1,0,2.6-0.6,2.6-2.7v-24.6 c0-11.3,4.5-17.5,13.2-17.5c8.8,0,13.2,6.2,13.2,17.5v24.6c0,2.1,0.6,2.7,2.7,2.7h2c2.2,0,2.7-0.6,2.7-2.7v-24.3 C146.5,221.9,138.5,214.2,125.8,214.2z M192.9,260.1c-0.1,0-0.2,0-0.2,0c-0.8,0.1-1.2,0.1-1.8,0c-1.7-0.2-2.9-0.9-3.8-2.1 c-0.9-1.1-1.5-2.9-2.1-4.5c-0.7-2-1.3-3.8-2.2-5.6h0c-0.8-1.7-1.8-3.1-2.7-4c-0.1-0.1-0.1-0.1-0.2-0.2c0,0-0.1-0.1-0.1-0.1 c-0.7-0.7-1.3-1.2-1.6-1.4l0.2-0.1l0,0h0l1.2-0.5v0c4.1-1.8,7-4.6,8.6-8.7c1.5-3.8,1.8-8.6,0.9-14.5h0c0,0,0,0,0,0 c0-0.1,0-0.2-0.1-0.3c-0.1-0.3-0.2-0.6-0.3-0.9c-0.2-0.5-0.4-0.7-0.8-0.9c-0.4-0.2-0.9-0.3-1.7-0.3h-2.1c-0.5,0-0.9,0-1.3,0.1 c-0.5,0.1-0.7,0.3-0.8,0.7c-0.1,0.3-0.1,0.6,0,1.1c0,0.1,0,0.3,0.1,0.4c0,0,0,0.1,0,0.1c0,0,0,0,0,0h0l0.1,0.6 c0.5,3.1,0.7,5.8,0.4,8.1c-0.3,2.3-1,4.2-2.1,5.8c-1.3,1.9-3.3,3.2-5.8,4c-0.8,0.1-1.5,0.2-2.4,0.2h-12.5v-18.9h0 c0-0.4,0-0.8-0.1-1.1c-0.1-0.5-0.3-0.7-0.7-0.9c-0.3-0.2-0.9-0.3-1.7-0.3h-2.8c-0.3,0-0.5,0-0.8,0c-0.1,0-0.1,0-0.2,0 c-0.1,0-0.2,0-0.3,0.1c0,0,0,0-0.1,0c0,0,0,0,0,0c0,0,0,0,0,0c-0.2,0.1-0.3,0.1-0.4,0.2c-0.1,0-0.1,0.1-0.1,0.1c0,0-0.1,0.1-0.1,0.1 c0,0,0,0.1,0,0.1c0,0,0,0-0.1,0.1c-0.2,0.3-0.2,0.9-0.2,1.7v45c0,0.8,0.1,1.3,0.2,1.7c0.2,0.3,0.4,0.5,0.9,0.7 c0.3,0.1,0.7,0.1,1.3,0.1h2.8c0.8,0,1.3-0.1,1.7-0.3c0.3-0.2,0.5-0.4,0.7-0.9c0.1-0.3,0.1-0.7,0.1-1.2v-19.5h8v0c0.1,0,0.1,0,0.2,0 c0.8,0,1.6,0.1,2.3,0.4c0.5,0.2,1,0.4,1.5,0.7c0.8,0.5,1.4,1,1.9,1.5c0.8,0.9,1.3,1.7,1.4,1.8c0.1,0.1,0.1,0.2,0.2,0.3 c0.4,0.7,0.7,1.3,1.1,2.3c1.4,3.8,2.7,8.5,5.1,11.6c1.6,2,3.4,3.4,6.6,3.8c0.3,0,0.7,0,1,0c0.5,0,1.1,0,1.7-0.1c0.1,0,0.1,0,0.2,0 c0.2,0,0.3,0,0.5-0.1c0.3-0.1,0.6-0.1,0.9-0.3c0.4-0.2,0.7-0.3,0.9-0.6c0.3-0.3,0.4-0.7,0.4-1.2v-2.4c0.1-0.6,0-1-0.2-1.3 C193.4,260.3,193.2,260.2,192.9,260.1z M276.1,158.4h-2c-2.1,0-2.6,0.6-2.6,2.6v8.1c0,10.6-4.6,16.5-13,16.5c-8.6,0-13-5.8-13-16.5 V161c0-2-0.6-2.6-2.7-2.6h-2c-2.1,0-2.7,0.6-2.7,2.6v7.9c0,14,6.5,21.2,16.7,22.5v15.3c0,2,0.6,2.6,2.6,2.6h1.9c2,0,2.6-0.6,2.6-2.6 v-15.3c10.2-1.3,16.7-8.5,16.7-22.5V161C278.7,158.9,278.3,158.4,276.1,158.4z M36.4,208.9c0.8,0,1.5,0,2.2-0.1h0c0,0,0,0,0,0 c1.5-0.1,2.9-0.2,4.3-0.4c2.7-0.4,5.1-0.9,6.9-1.4c0.4-0.1,0.7-0.2,1-0.3c0.5-0.2,1-0.6,1.3-1.2c0.3-0.5,0.3-1.1,0.3-1.6v-20.1 c0-0.4,0-0.7-0.1-1.1c-0.1-0.3-0.2-0.5-0.4-0.8c-0.3-0.4-0.7-0.7-1.1-0.8c-0.4-0.1-0.8-0.1-1.2-0.1H36.7c-0.4,0-0.7,0-1.1,0.1 c-0.3,0.1-0.5,0.2-0.8,0.4c-0.4,0.3-0.7,0.7-0.8,1.1c-0.1,0.4-0.1,0.8-0.1,1.2v0.8c0,0.4,0,0.7,0.1,1.1c0.1,0.3,0.2,0.5,0.4,0.8 c0.3,0.4,0.7,0.7,1.1,0.8c0.4,0.1,0.8,0.1,1.2,0.1h8.6v14.1c-2.5,0.6-5.3,1-8.4,1c-11.6,0-18.4-7.5-18.4-19.1 c0-11.7,7.3-18.9,18.9-18.9c4,0,7.5,0.6,10.6,2c0.3,0.1,0.6,0.2,0.8,0.2c0.4,0,0.8-0.2,0.8-1.3v-3.8c0-1-0.3-1.4-1.1-1.6 c-3.6-1.2-6.8-1.9-11.9-1.9c-12.6,0-26.2,6.7-26.2,25.6C10.5,202.2,23.5,208.9,36.4,208.9z M156.4,209L156.4,209c0,0,0.1,0,0.2,0.1 c0,0,0.1,0,0.1,0c0,0,0,0,0,0c0,0,0,0,0,0c0.1,0,0.2,0,0.3,0.1v0c0,0,0.5,0.1,1.5,0.3c0.2,0,0.5,0.1,0.8,0.1 c0.7,0.1,1.5,0.2,2.4,0.4c0.3,0,0.6,0.1,0.9,0.1c0.1,0,0.1,0,0.2,0l0,0c0.8,0.1,1.5,0.1,2.3,0.2c2.6,0.2,5.6,0.2,8.6-0.1l0,0 c8.7-0.7,14.7-4.6,14.7-14.8c0-10.9-7.4-13.5-14.4-15.3c-6.5-1.7-11.8-2.8-11.8-8.6c0-6.6,5.5-7.4,10.7-7.4c3.6,0,8,0.4,11.7,1.7 c1.6,0.4,2.1,0.1,2.1-1.6v-2.7c0-1.1-0.5-1.6-1.7-2c-3.2-1.1-8-1.6-12.3-1.6c-8.4,0-17.3,1.9-17.3,14c0,10.1,7,12.7,13.9,14.4 c5.9,1.4,12.3,2.6,12.3,9.3c0,6.3-4.5,8.5-11.7,8.5c-4.1,0-8.2,0-12.8-1.5c-1.6-0.4-2.2-0.1-2.2,1.7v0.6l0,0v2.3 c0,0.6,0.2,1,0.4,1.3C155.6,208.6,156,208.8,156.4,209z M81.4,209.3c14.2,0,24.7-10.1,24.7-25.9c0-15.8-10.5-25.8-24.7-25.8 c-14.1,0-24.6,10.1-24.6,25.8C56.8,199.2,67.3,209.3,81.4,209.3z M81.4,164c9.8,0,17.5,7.4,17.5,19.4c0,11.9-7.6,19.4-17.5,19.4 c-9.8,0-17.5-7.5-17.5-19.4C64,171.5,71.7,164,81.4,164z M152.3,203.9c0-0.6-0.1-1-0.3-1.3c-0.2-0.2-0.4-0.3-0.7-0.3 c-0.1,0-0.2,0-0.2,0c-0.8,0.1-1.2,0.2-1.8,0.2c-1.7,0-3-0.6-4-1.7c-1-1-1.8-2.7-2.5-4.3c-1.5-3.1-2.6-6.1-5.4-8.7l-0.3-0.3l0.4-0.1 c2.7-0.9,5.2-2.3,7-4.6c1.8-2.2,2.9-5.2,2.9-9.3c0-6-2.6-9.8-6.2-12.1c-3.6-2.3-8.2-3.1-12.2-3.1h-16.1c-0.6,0-1.1,0-1.4,0.1 c-0.3,0.1-0.5,0.2-0.7,0.5c-0.1,0.1-0.2,0.3-0.2,0.6c-0.1,0.3-0.1,0.8-0.1,1.3v45c0,0.8,0.1,1.3,0.2,1.7c0.2,0.3,0.4,0.5,0.9,0.7 c0.3,0.1,0.7,0.1,1.3,0.1h2.8c0.8,0,1.3-0.1,1.7-0.3c0.3-0.2,0.5-0.4,0.7-0.9c0.1-0.3,0.1-0.7,0.1-1.2v-17.2h8.1c2.1,0,3.7,0.8,5,2 c1.3,1.2,1.9,2.2,2.8,4c1.8,3.6,3.6,8.2,6.3,11c1.8,1.9,3.9,3.1,7.4,3.1c0.8,0,1.6,0,2.4-0.2c0.8-0.1,1.4-0.4,1.8-0.9 c0.3-0.3,0.4-0.7,0.4-1.2V203.9z M136.4,180.3c-1.8,1.5-4.4,2.2-7.4,2.2h-10.8v-17.5h10.8c3,0,5.6,0.7,7.4,2.1 c1.8,1.4,2.9,3.6,2.9,6.5C139.3,176.6,138.2,178.8,136.4,180.3z M213.6,157.6c-13.8,0-22.2,10.2-22.2,25.7c0,2.7,0.3,5.3,0.8,7.7 c1.4,5.8,5.1,14.3,15.4,17.2v0c0.8,0.2,1.7,0.5,2.6,0.6h0c0,0,0,0,0.1,0c0.3,0.1,0.6,0.1,0.8,0.1c0.2,0,0.4,0.1,0.7,0.1 c0.1,0,0.2,0,0.3,0c0.3,0,0.5,0.1,0.8,0.1c0.1,0,0.2,0,0.3,0c0.2,0,0.5,0,0.7,0c2.3,0.1,4.5,0,6.7-0.4c3.8-0.6,7.2-1.7,10.4-3.2 c1.2-0.6,1.1-1.8,1.1-1.8h0v-3.5c0-0.1,0-0.3,0-0.8c0-0.6-0.5-0.7-0.6-0.6c0,0,0,0,0,0v0c-0.3,0-0.7,0.2-1.1,0.4 c-2.8,1.5-5.5,2.5-9.3,3.1c-1.3,0.2-2.6,0.3-3.9,0.3c-0.1,0-0.1,0-0.2,0c-0.5,0-1,0-1.5,0c-0.6,0-1.2-0.1-1.8-0.1 c-2.1-0.2-4.2-0.8-6.3-1.9c-2.9-1.5-5.5-4.1-7.1-8.4c-0.1-0.2-0.1-0.3-0.2-0.5c-0.3-0.9-0.6-1.9-0.8-3c0,0,0,0,0,0 c-0.2-0.9-0.3-1.9-0.3-2.9h34.1c0.7,0,1.4-0.5,1.6-1.2c0.1-0.2,0.1-0.3,0.1-0.5c0.3-1.3,1.8-11-4.7-19.5 C226.2,160.2,220.7,157.6,213.6,157.6z M199,179.3c1.1-9.6,6.5-15.3,14.7-15.3c6.7,0,11.4,4,13.4,11c0.3,1.3,0.5,2.5,0.6,3.3 c0.1,0.7,0.1,1.1,0.1,1.1H199z M44.3,239.1l-1.7-0.1l1.7-0.4c5-1.1,7.6-4.9,7.6-10.6c0-11.3-9-12.8-17.5-12.8H19.7 c-0.1,0-0.2,0-0.3,0h-2c-0.2,0-0.4,0-0.6,0c-1.7,0.1-2.1,0.5-2.1,2.5V245c0,6.5,1.2,11.1,3.4,14.3l0,0c0,0,0,0,0,0c0,0,0,0,0,0 c0,0,0.1,0.1,0.1,0.1c0,0,0,0,0,0c0.1,0.1,0.2,0.3,0.4,0.5c0,0,0.1,0.1,0.1,0.1c0,0,0.1,0.1,0.1,0.1c1.3,1.5,4.6,4.3,10.4,5.3 c0.9,0.1,1.8,0.3,2.7,0.3c0,0,0.1,0,0.1,0c0.4,0,0.9,0,1.4,0.1h0.5c0.5,0,1.2,0,1.7,0l0.2,0c0.5,0,1.1-0.1,1.6-0.1c0,0,0,0,0,0 c1.8-0.2,3.6-0.5,5.7-0.9c0.1,0,0.2-0.1,0.4-0.1c0.3-0.1,0.6-0.1,1-0.2l0,0c0.6-0.2,1.1-0.3,1.6-0.5c1.6-0.7,3.2-1.6,4.5-2.8 c0,0,0,0,0.1-0.1c2.4-2.3,3.5-5.5,3.5-9.6C54.1,241.5,47.3,239.4,44.3,239.1z M22.1,221.1h12.4c6.5,0,9.6,2.2,9.6,7.3 c0,5.2-2.6,7.8-8.4,7.8H22.1V221.1z M34.7,259.8h-0.5c-5.5,0-9.1-3.3-9.1-3.3c-2.1-2.2-3-5.2-3-10.9v-3h14.1c4.9,0,10.5,1,10.5,8.9 C46.6,257.1,42.5,259.8,34.7,259.8z M78.7,214.2c-12.8,0-20.7,7.6-20.7,24.3v24.4c0,2.2,0.5,2.8,2.7,2.8h2c2.2,0,2.6-0.6,2.6-2.8 V250H92v12.9c0,2.2,0.6,2.8,2.7,2.8h2c2.2,0,2.7-0.6,2.7-2.8v-24.4C99.5,221.9,91.5,214.2,78.7,214.2z M92,243.2H65.4v-4.9 c0-11.4,4.5-17.6,13.3-17.6c8.8,0,13.3,6.2,13.3,17.6V243.2z"></path> </svg> 