<?xml version="1.0" encoding="UTF-8"?> <!-- Generator: Adobe Illustrator 22.1.0, SVG Export Plug-In . SVG Version: 6.00 Build 0) --> <svg xmlns="http://www.w3.org/2000/svg" xmlns:xlink="http://www.w3.org/1999/xlink" version="1.1" id="Layer_1" x="0px" y="0px" viewBox="0 0 714.8 301.2" style="enable-background:new 0 0 714.8 301.2;" xml:space="preserve"> <style type="text/css"> .st0{fill:#FFFFFF;} </style> <title>Hazel_Grove</title> <g id="Layer_2_1_"> <path class="st0" d="M371.2,107.6h3.8c4,0,4.9-1.1,4.9-5.1V78.3h49.6v24.1c0,4,1.1,5.1,5.1,5.1h3.8c4,0,5.1-1.1,5.1-5.1V56.8 c0-31.1-15-45.4-38.9-45.4S366,25.7,366,56.8v45.6C366,106.4,366.9,107.6,371.2,107.6 M379.9,56.4c0-21.2,8.5-32.8,24.8-32.8 c16.5,0,24.8,11.6,24.8,32.9v9.2h-49.6L379.9,56.4z"></path> <path class="st0" d="M682.2,107.6c3.4,0,4.7-0.8,5.1-3.4c0.1-0.6,0.1-1.2,0.1-1.8v-2.5c0-4.3-1.1-5.2-5.2-5.2h-41.5V16.6 c0-4.1-0.9-5.2-5-5.2h-5.2c-4.1,0-5.2,1.1-5.2,5.2v85.8c0,4.1,1.1,5.2,5.2,5.2L682.2,107.6z"></path> <path class="st0" d="M561.6,107.4c1.6,0.5,3.3,0.9,5,1.2l0,0h0.1l1.7,0.3l1.3,0.2l0.5,0.1c0.5,0.1,1.1,0.1,1.6,0.1h0.5 c0.5,0,0.9,0.1,1.4,0.1c4.4,0.2,8.9-0.1,13.2-0.8c7.1-1.1,14-3.2,20.4-6.3c1.4-0.6,2.2-1.9,2.2-3.4l0,0v-6.8c0-0.1,0-0.5,0-1.5 c0-1.3-0.9-1.3-1.2-1.3h-0.1c-0.8,0.2-1.5,0.4-2.1,0.8c-5.7,3-11.8,5-18.2,5.9c-2.5,0.4-5.1,0.6-7.7,0.6h-0.3c-0.9,0-1.9,0-2.9,0 c-1.2,0-2.4-0.1-3.6-0.3c-4.3-0.4-8.4-1.6-12.3-3.6c-5.7-3-10.8-8-14-16.3c-0.1-0.3-0.3-0.7-0.4-1c-0.7-1.9-1.2-3.8-1.6-5.8l0,0 c-0.3-1.8-0.5-3.7-0.7-5.6h66.9c1.4,0,2.7-1,3.1-2.3c0.1-0.3,0.2-0.7,0.3-1c0.5-2.6,3.6-21.3-9.2-37.8 c-7.3-8.8-18.1-13.8-32.1-13.8c-27.1,0-43.6,19.7-43.6,49.8c0,5,0.5,10,1.5,14.9C534.1,85.4,541.4,101.8,561.6,107.4L561.6,107.4z M573.6,21.8c13.2,0,22.5,7.7,26.3,21.2c0.6,2.1,0.9,4.2,1.1,6.4c0.1,1.3,0.1,2.1,0.1,2.1h-56.4C547.1,33,557.7,21.8,573.6,21.8"></path> <path class="st0" d="M349.6,11.4h-5.4c-3.8,0-4.6,0.9-4.6,4.8v35.3H293V16.2c0-3.9-0.8-4.8-4.6-4.8h-5.5c-3.8,0-4.6,0.9-4.6,4.8 v86.7c0,3.8,0.8,4.6,4.6,4.6h5.5c3.8,0,4.6-0.8,4.6-4.6V64.6h46.6v38.4c0,3.8,0.8,4.6,4.6,4.6h5.4c3.9,0,4.8-0.9,4.8-4.6V16.2 C354.4,12.3,353.5,11.4,349.6,11.4"></path> <path class="st0" d="M454.3,107.7h50.3l0,0c3.9,0.1,7.8-0.5,11.6-1.6c4.5-1.3,8.2-4.5,10.3-8.7c0.2-0.5,0.5-1.1,0.7-1.7 c0.3-1,0.6-1.9,0.9-2.9c0-0.1,0.1-0.2,0.1-0.3c0.1-0.3,0.1-0.6,0.2-0.9c0.1-0.5,0.1-1.1,0.1-1.6c0-0.7-0.1-1.3-0.4-1.9 c-0.4-0.7-1-1.1-1.7-1.4l-4-1.5c-0.7-0.4-1.4-0.6-2.2-0.5c-0.5,0.1-0.9,0.4-1.1,0.8c-0.1,0.1-0.1,0.3-0.1,0.4c-0.2,1-0.6,2-1,3 c-1.1,2.4-3.2,4.3-5.7,5.1c-2.5,0.6-5,0.9-7.5,0.7h-30.7l46.5-68.2l5.2-8c0.3-0.5,0.5-1.1,0.5-1.7c0-1.7-1.4-3.1-3.1-3.1h-63.9 c-3.3,0-4.7,0.8-5,3.4c-0.1,0.6-0.1,1.2-0.1,1.8v2.5c0,4.3,1.1,5.2,5.1,5.2h44l-45.9,68.2l-5.5,8.1c-0.3,0.5-0.5,1.1-0.5,1.7 C451.2,106.3,452.5,107.7,454.3,107.7"></path> <path class="st0" d="M353.4,166.7c-0.5-0.7-1.3-1.3-2.2-1.5c-0.8-0.2-1.5-0.3-2.3-0.3h-25.1c-0.7,0-1.4,0.1-2.1,0.2 c-0.6,0.1-1.1,0.4-1.6,0.7c-0.7,0.5-1.3,1.3-1.5,2.2c-0.2,0.8-0.3,1.5-0.3,2.3v1.6c0,0.7,0,1.4,0.2,2.1c0.1,0.6,0.4,1.1,0.7,1.6 c0.5,0.7,1.3,1.3,2.2,1.5c0.8,0.2,1.6,0.3,2.3,0.3h16.9v27.6c-5.4,1.3-10.9,1.9-16.5,1.9c-22.7,0-36.1-14.7-36.1-37.4 c0-22.9,14.2-37.1,37.1-37.1c7.1-0.1,14.2,1.2,20.8,3.9c0.5,0.2,1.1,0.3,1.6,0.4c0.7,0,1.5-0.3,1.5-2.6v-7.5c0-1.9-0.5-2.7-2.2-3.2 c-7.5-2.6-15.4-3.9-23.3-3.8c-24.8,0-51.2,13.2-51.2,50.1s25.5,49.9,50.7,49.9c1.5,0,2.9-0.1,4.4-0.1l0,0c2.8-0.1,5.6-0.4,8.4-0.8 c4.5-0.7,9-1.6,13.4-2.8c0.7-0.1,1.4-0.3,2-0.6c1.1-0.5,2-1.3,2.5-2.3c0.4-1,0.6-2,0.6-3.1v-39.4c0-0.7-0.1-1.4-0.2-2.1 C353.9,167.7,353.7,167.2,353.4,166.7"></path> <path class="st0" d="M705,133.3c-7.3-8.8-18.1-13.8-32.2-13.8c-27.1,0-43.6,19.7-43.6,49.7c0,5,0.5,10,1.5,15 c2.7,11.2,10,27.6,30.2,33.3l0,0c1.6,0.5,3.3,0.9,5,1.2l0,0h0.1l1.7,0.3l1.3,0.2l0.5,0.1l1.6,0.2h0.5c0.5,0,0.9,0.1,1.4,0.1 c4.4,0.2,8.9,0,13.2-0.8c7.1-1.1,14-3.2,20.4-6.3c1.4-0.6,2.2-1.9,2.2-3.4l0,0v-8.2c0-1.3-0.9-1.3-1.2-1.3h-0.1 c-0.7,0.2-1.5,0.4-2.1,0.8c-5.7,3-11.8,5-18.2,5.9c-2.5,0.4-5.1,0.6-7.7,0.6h-0.3c-0.9,0-1.9,0-2.8,0c-1.2,0-2.4-0.1-3.6-0.3 c-4.3-0.4-8.4-1.7-12.3-3.6c-5.7-3-10.8-8-14-16.3l-0.4-1c-0.7-1.9-1.2-3.8-1.6-5.8l0,0c-0.3-1.8-0.5-3.7-0.7-5.6h66.9 c1.4,0,2.7-0.9,3.1-2.3c0.1-0.3,0.2-0.7,0.3-1C714.6,168.5,717.7,149.8,705,133.3 M700.5,161.6h-56.4c2.3-18.5,12.8-29.7,28.8-29.7 c13.2,0,22.5,7.7,26.3,21.2c0.6,2.1,0.9,4.2,1.1,6.4C700.5,160.9,700.5,161.7,700.5,161.6"></path> <path class="st0" d="M490,119.5c-27.3,0-47.6,19.4-47.6,49.9s20.3,50.1,47.6,50.1c27.3,0,47.8-19.6,47.8-50.1 S517.5,119.5,490,119.5 M523.5,169.5c0,22-13.8,37.4-33.5,37.4s-33.5-15.4-33.5-37.4s13.8-37.2,33.5-37.2S523.5,147.6,523.5,169.5"></path> <path class="st0" d="M441.9,206c-0.1,0-0.3,0-0.4,0c-1.1,0.3-2.3,0.4-3.4,0.4c-2.9,0.1-5.6-1.1-7.6-3.1c-2-1.9-3.4-5.2-4.9-8.1 c-2.8-5.9-4.9-11.7-10.3-16.7l-0.6-0.6l0.8-0.3c5.2-1.6,9.8-4.6,13.3-8.7c3.4-4.2,5.6-9.9,5.6-17.6c0-11.5-5-18.6-11.9-23 s-15.8-5.9-23.3-5.9h-30.7c-0.9,0-1.8,0.1-2.7,0.3c-0.5,0.1-1,0.4-1.3,0.9c-0.2,0.3-0.4,0.7-0.4,1.1c-0.2,0.8-0.2,1.6-0.2,2.5v85.8 c-0.1,1.1,0.1,2.2,0.5,3.2c0.3,0.7,1,1.1,1.7,1.2c0.8,0.2,1.6,0.2,2.4,0.2h5.4c1.1,0.1,2.2-0.1,3.2-0.5c0.7-0.4,1.1-1,1.2-1.7 c0.2-0.8,0.2-1.6,0.2-2.4v-32.8h15.4c3.5-0.1,7,1.3,9.5,3.7c2.3,2.1,4.1,4.7,5.4,7.6c3.4,6.9,6.8,15.7,12.1,21 c3.6,4,8.8,6.2,14.2,6c1.5,0,3-0.1,4.5-0.4c1.3-0.2,2.5-0.7,3.5-1.6c0.5-0.6,0.8-1.4,0.8-2.2V209c0.1-0.8-0.1-1.7-0.6-2.4 C442.9,206.2,442.4,206,441.9,206 M413.3,164c-3.5,2.8-8.4,4.2-14.2,4.2h-20.7v-33.3h20.7c5.8,0,10.7,1.3,14.2,4s5.5,6.9,5.5,12.4 S416.9,161.2,413.3,164"></path> <path class="st0" d="M616.9,121.8h-3.8c-4,0-4.9,1.1-4.9,5v26.2c0,11.1-1.3,17.1-2.1,19.8c-2,6.1-5.6,11.6-10.4,16L583.4,200 l-12.3-11.2c-4.8-4.4-8.4-9.9-10.4-16c-0.8-2.7-2.1-8.7-2.1-19.8v-26.2c0-3.9-0.9-5-4.9-5h-3.8c-4.3,0-5.2,1.1-5.2,5v32.1 c0,0.2,0,0.4,0,0.6c0.2,5.6,1.1,11.2,2.7,16.6c2.2,6.4,7.3,16.1,18.5,26.4l13.2,12.1c1.9,1.8,2.9,2.7,4.2,2.7s2.3-0.9,4.2-2.7 l13.2-12.1c11.3-10.3,16.3-20,18.5-26.4c1.6-5.4,2.5-11,2.7-16.6c0-0.2,0-0.4,0-0.6v-32.1C622.1,122.8,621.2,121.7,616.9,121.8"></path> <polygon class="st0" points="306.6,287.7 306.6,250.2 302.8,250.2 302.8,266.3 281.8,266.3 281.8,250.2 278,250.2 278,287.7 281.8,287.7 281.8,270 302.8,270 302.8,287.7 "></polygon> <rect x="315.1" y="250.2" class="st0" width="3.7" height="37.4"></rect> <path class="st0" d="M357.7,282.2c0,1,0,2.6,0,5.2v0.4h3.5v-19.4h-15.1v3.4h11.6v5.4c-1.5,3.2-6.8,7.6-14,7.6 c-9,0-15.6-6.6-15.6-15.8s6.5-15.8,15.5-15.8c5.4-0.1,10.5,2.6,13.3,7.3l0.1,0.3l3.8-1l-0.3-0.4c-3.4-6.1-9.5-9.6-17-9.8 c-10.7,0.2-19.2,9.1-19,19.9c0.2,10.4,8.6,18.8,19,19C348.9,288.4,354.1,286.1,357.7,282.2"></path> <polygon class="st0" points="371.3,270 392.4,270 392.4,287.7 396.2,287.7 396.2,250.2 392.4,250.2 392.4,266.3 371.3,266.3 371.3,250.2 367.6,250.2 367.6,287.7 371.3,287.7 "></polygon> <path class="st0" d="M427.1,266.3l-0.2-0.1c-4.9-1.3-9.9-2.7-9.9-6.8c0-3.9,3.5-6.5,9-6.5c5.1,0,8.8,2.9,9.6,7.5l0.1,0.4l3.7-1 l-0.1-0.3c-1.1-6-6.4-10-13.1-10c-7.5,0-12.9,4.2-12.9,10.1c0,6.5,6.5,8.4,10.8,9.6h0.2c0.6,0.2,1.2,0.3,1.8,0.5 c4.7,1.3,10,2.8,10,7.9c0,4.3-3.8,7.3-9.5,7.3c-6.6,0-10-4.2-10.4-8.4V276l-3.6,1v0.3c0.9,6.7,6.3,11.1,13.9,11.1 c8,0,13.5-4.5,13.5-10.8C439.7,269.8,432.1,267.7,427.1,266.3"></path> <path class="st0" d="M475.8,276.4c-2.7,5.2-8,8.4-13.9,8.3c-9,0-15.5-6.6-15.5-15.7c0-9.1,6.5-15.7,15.5-15.7 c5.4-0.1,10.5,2.6,13.3,7.2l0.1,0.2l3.8-1l-0.3-0.4c-3.5-6.1-10-9.9-17-9.8c-10.7,0-19.4,8.8-19.4,19.5c0,10.7,8.8,19.4,19.5,19.4 c7.4,0,14.2-4.2,17.4-10.9l0.2-0.4l-3.7-1L475.8,276.4z"></path> <polygon class="st0" points="508.4,266.3 487.4,266.3 487.4,250.2 483.7,250.2 483.7,287.7 487.4,287.7 487.4,270 508.4,270 508.4,287.7 512.2,287.7 512.2,250.2 508.4,250.2 "></polygon> <path class="st0" d="M537,249.5c-10.7,0-19.5,8.7-19.5,19.4c0,10.7,8.7,19.5,19.4,19.5c10.7,0,19.5-8.7,19.5-19.4c0,0,0,0,0,0 c0.2-10.5-8.1-19.2-18.5-19.4C537.6,249.5,537.3,249.5,537,249.5 M537,284.7c-9,0-15.5-6.6-15.5-15.8s6.5-15.8,15.5-15.8 s15.6,6.6,15.6,15.8S546.1,284.7,537,284.7"></path> <path class="st0" d="M579.7,249.5c-10.7,0-19.5,8.7-19.5,19.4c0,10.7,8.7,19.5,19.4,19.5c10.7,0,19.5-8.7,19.5-19.4c0,0,0,0,0,0 c0.2-10.5-8.1-19.2-18.5-19.4C580.3,249.5,580,249.5,579.7,249.5 M579.7,284.7c-9,0-15.5-6.6-15.5-15.8s6.5-15.8,15.5-15.8 s15.6,6.6,15.6,15.8S588.7,284.7,579.7,284.7"></path> <polygon class="st0" points="608.1,284 608.1,250.2 604.3,250.2 604.3,287.7 628.4,287.7 628.4,284 "></polygon> <path class="st0" d="M119.6,4.1c69.1,0,115.5,23.9,115.5,23.9v113.8c0,0,2.9,125.1-115.5,155.3C1.2,266.8,4.1,141.7,4.1,141.7V27.9 C4.1,27.9,50.5,4.1,119.6,4.1 M119.6,0C90.9,0,62.3,4.1,34.8,12.1c-20.4,6-32.1,12-32.6,12.2L0,25.5v116.2 c0,1.9-0.4,32.8,13.7,67.9c8.4,20.9,20.2,38.8,35.1,53.4c18.6,18.2,42.1,31,69.8,38l1,0.3l1-0.3c27.7-7.1,51.2-19.9,69.8-38 c14.9-14.5,26.7-32.5,35.1-53.4c14.1-35,13.7-66,13.7-67.9V25.4l-2.2-1.1c-0.5-0.3-12.2-6.2-32.6-12.2C176.9,4.1,148.3,0,119.6,0 L119.6,0z"></path> <polygon class="st0" points="72,109.4 72,119.4 86.9,119.4 93.3,114.4 86.9,109.4 "></polygon> <path class="st0" d="M148,195.8l-0.2-0.1l-1.1-0.5L123.5,215l41.1,34.9l20.1,2.5c5.8-5.8,11.1-12.1,15.7-18.9l-5.8-18.6L148,195.8z "></path> <path class="st0" d="M73.6,153.8L51.1,135H10.9v7.1c0,0.2-0.3,14.8,4.1,34.7h51.2C68.9,168.4,72.4,157.7,73.6,153.8z"></path> <path class="st0" d="M74.6,249.9l41.2-34.9l-23.3-19.7l-1.2,0.5l-46.5,19.1L39,233.7c4.6,6.8,9.9,13.1,15.7,18.9v-0.1L74.6,249.9z"></path> <path class="st0" d="M119.6,218.2l-41.2,34.9l2.5,19.6c12.1,7,25.1,12.3,38.7,15.7c13.6-3.4,26.7-8.7,38.8-15.8l2.5-19.4 L119.6,218.2z"></path> <polygon class="st0" points="49.5,90.9 10.9,52.3 10.9,130.1 49.5,130.1 "></polygon> <path class="st0" d="M84.8,193.2c-3.1-2-8.3-5.3-17.6-11.4H16.2c1.9,7.9,4.4,15.6,7.4,23.1l18.8,5.8L84.8,193.2z"></path> <path class="st0" d="M228.3,45.3v-13c-3.4-1.6-32.1-14.4-75.2-19.2v39l34.2,34.2L228.3,45.3z"></path> <polygon class="st0" points="228.3,130.1 228.3,52.3 189.7,90.9 189.7,130.1 "></polygon> <path class="st0" d="M86.1,52.2v-39C43,18,14.3,30.8,10.9,32.4v13l41,41L86.1,52.2z"></path> <path class="st0" d="M148.2,52.4V12.6c-9.5-0.9-19.1-1.4-28.6-1.4s-19.1,0.5-28.6,1.4v39.8l28.6,28.6L148.2,52.4z"></path> <path class="st0" d="M172,181.7c-9.3,6.1-14.4,9.5-17.6,11.4l42.6,17.5l18.6-5.8c3-7.5,5.5-15.2,7.5-23.1H172z"></path> <path class="st0" d="M102.5,130.4l-23.8,23.8c-1.1,3.4-6,18.7-7.7,24c7.7,5,16.8,11,19.6,12.6c3.9-1.6,18.8-7.7,26.7-10.9V174 l-19.2-19.1c-0.5-0.5-0.7-1.2-0.5-1.9L102.5,130.4z"></path> <path class="st0" d="M228.3,142.2V135h-40.1l-22.5,18.8c1.2,3.8,4.6,14.2,7.4,23h51.2C226.8,165.4,228.2,153.8,228.3,142.2z"></path> <path class="st0" d="M168.3,178.2c-2.1-6.5-6.7-20.7-7.7-24l-23.8-23.8l4.9,22.5c0.2,0.7,0,1.4-0.5,1.9L122.1,174v5.9 c6.4,2.6,22.5,9.3,26.7,10.9C151.5,189.2,160.7,183.3,168.3,178.2z"></path> <path class="st0" d="M141.6,193.2l-22-9l-22,9l22,18.6L141.6,193.2z"></path> <path class="st0" d="M54.5,131.4l21.9,18.2l26.8-26.8l-6.7-5.3l-7.3,5.6c-0.4,0.3-1,0.5-1.5,0.5H70.2c-1.4,0-2.5-1.1-2.5-2.5v-13.7 c0-1.4,1.1-2.5,2.5-2.5h0h17.4c0.6,0,1.1,0.2,1.5,0.5l19.2,15.1c0.6,0.4,0.9,1.1,0.9,1.8v0.1l-0.1,0.6l-6.6,28.2h34.2l-6.6-28.2 c-0.2-0.9,0.1-1.9,0.9-2.5l19.2-15.1c0.4-0.3,1-0.5,1.5-0.5h17.4c1.4,0,2.5,1.1,2.5,2.5v0v13.7c0,1.4-1.1,2.5-2.5,2.5h-17.4 c-0.5,0-1.1-0.2-1.5-0.5l-7.3-5.6l-6.7,5.3l26.8,26.8l21.9-18.2V90.9l-34.1-34.1l-29.4,29.4c-1,0.9-2.5,0.9-3.5,0L88.5,56.8 l-34,34.1V131.4z"></path> <polygon class="st0" points="167.2,119.4 167.2,109.4 152.4,109.4 146,114.4 152.3,119.4 "></polygon> <polygon class="st0" points="132.3,156.5 107,156.5 119.6,169.1 "></polygon> </g> </svg> 