<?xml version="1.0" encoding="UTF-8"?> <!-- Generator: Adobe Illustrator 22.1.0, SVG Export Plug-In . SVG Version: 6.00 Build 0) --> <svg xmlns="http://www.w3.org/2000/svg" xmlns:xlink="http://www.w3.org/1999/xlink" version="1.1" id="Layer_1" x="0px" y="0px" viewBox="0 0 778.4 595.9" style="enable-background:new 0 0 778.4 595.9;" xml:space="preserve"> <style type="text/css"> .st0{fill:#FFFFFF;} </style> <path class="st0" d="M451.5,506.3c8.1,0,15.1,1.3,21.4,4c0.7,0.2,1.2,0.4,1.7,0.4c0.8,0,1.5-0.3,1.5-2.7v-7.7c0-2-0.6-2.8-2.2-3.3 c-7.2-2.4-13.8-3.9-24-3.9c-25.4,0-52.6,13.5-52.6,51.5c0,37.8,27.6,51.3,53.4,51.3c8.4,0,15.8-1.1,23.2-3.3 c1.6-0.5,2.3-1.4,2.3-2.9v-8.1c0-2-1-2.5-3.4-1.8c-6.2,2.1-13,3.1-20.9,3.1c-23.3,0-38.4-15.1-38.4-38.4 C413.4,520.9,428,506.3,451.5,506.3z"></path> <path class="st0" d="M380.1,507.3c-7.5-9-18.5-14.1-32.9-14.1c-27.7,0-44.6,20.1-44.6,50.9c0,5.4,0.5,10.5,1.5,15.3 c2.7,11.5,10.3,28.3,30.9,34.1l0-0.1c1.7,0.5,3.4,0.9,5.1,1.2l0,0c0,0,0.1,0,0.1,0c0.6,0.1,1.1,0.2,1.7,0.3c0.4,0.1,0.9,0.1,1.3,0.2 c0.2,0,0.3,0,0.5,0.1c0.5,0.1,1.1,0.1,1.6,0.2c0.2,0,0.3,0,0.5,0c0.5,0,0.9,0.1,1.4,0.1c4.5,0.2,9.1-0.1,13.5-0.8 c7.7-1.2,14.4-3.3,20.9-6.4c2.4-1.1,2.3-3.5,2.3-3.5l0,0l0-3.6l0-3.3c0-0.1,0-0.5,0-1.5c0-1.3-1-1.3-1.3-1.3c-0.1,0-0.1,0-0.1,0v0 c-0.6,0-1.3,0.5-2.2,0.8c-5.5,2.9-11.1,4.9-18.6,6.1c-2.7,0.4-5.3,0.6-7.8,0.6c-0.1,0-0.2,0-0.4,0c-1,0-1.9,0-2.9,0 c-1.2,0-2.4-0.1-3.7-0.3c-4.2-0.5-8.5-1.6-12.6-3.7c-5.9-3-11.1-8.2-14.3-16.6c-0.1-0.3-0.2-0.7-0.4-1c-0.6-1.8-1.2-3.8-1.6-5.9 c0,0,0,0,0,0c-0.3-1.8-0.5-3.8-0.7-5.8h16.3v0h42.3h0.5h0.5h0.7h8.1c1.5,0,2.7-1,3.2-2.3c0.1-0.3,0.2-0.7,0.3-1 C390,543.3,393.1,524.1,380.1,507.3z M375.5,536.2h-57.6c2.3-18.9,13.1-30.4,29.5-30.4c13.5,0,23,7.9,26.9,21.7 c0.7,2.5,1,4.9,1.1,6.5C375.5,535.4,375.5,536.2,375.5,536.2L375.5,536.2z"></path> <path class="st0" d="M528.3,493.7c-1.8-0.2-3.9-0.2-5.6-0.2c-24.1,0-38,13.7-38,43.8V588c0,3.9,0.9,5.1,5.1,5.1h3.9 c4.2,0,5.3-1.2,5.3-5.3v-50.5c0-20.2,8.3-30.6,23.6-30.6c1.6,0,4.2,0.2,5.8,0.2c2.8,0,3.7-0.9,3.7-3.7v-4.9 C532.3,495.1,531.1,493.7,528.3,493.7z"></path> <path class="st0" d="M773.1,496.1h-29.5h-5.1h-29.8c-4.1,0-5.3,1.2-5.3,5.3v2.5c0,4.4,1.2,5.3,5.3,5.3h24.5v78.3 c0,1,0.1,1.8,0.2,2.5c0.4,2.2,1.7,2.8,4.9,2.8h0.2h5.1h0.2c3.2,0,4.4-0.7,4.9-2.8c0.2-0.7,0.2-1.5,0.2-2.5v-78.3h24.2 c4.1,0,5.3-0.9,5.3-5.3v-2.5C778.4,497.2,777.3,496.1,773.1,496.1z"></path> <path class="st0" d="M575.3,492.8c28.2,0,49.1,20,49.1,51.3c0,31.3-20.9,51.5-49.1,51.5c-28,0-48.9-20.1-48.9-51.5 C526.3,512.7,547.2,492.8,575.3,492.8z M575.3,582.7c19.5,0,34.7-14.9,34.7-38.6c0-23.7-15.1-38.5-34.7-38.5 c-19.4,0-34.7,14.8-34.7,38.5C540.6,567.8,555.9,582.7,575.3,582.7z"></path> <path class="st0" d="M143.2,592.8c0.6,0.2,1.4,0.2,2.5,0.2h5.5c1.5,0,2.6-0.2,3.2-0.5c0.7-0.4,1-0.9,1.3-1.8 c0.2-0.6,0.2-1.4,0.2-2.4v-34.2h15.8c4.1,0,7.2,1.5,9.7,3.8c2.5,2.3,4.4,5.6,6.1,9.1c3.5,7.1,6.3,15.4,11.7,20.9 c3.6,3.7,8.3,6.1,15.2,6.1c1.5,0,3.1-0.1,4.6-0.4c1.5-0.3,2.8-0.8,3.5-1.7c0.5-0.6,0.8-1.3,0.8-2.3v-5.4c0-1.2-0.2-2-0.6-2.4 c-0.3-0.4-0.8-0.6-1.3-0.6c-0.1,0-0.3,0-0.5,0l0,0c-1.5,0.3-2.3,0.4-3.5,0.4c-3.3,0-5.8-1.2-7.8-3.2c-2-2-3.5-4.7-5-7.7 c-2.9-6-5.6-13.2-11.2-18.3l-0.6-0.6l0.8-0.3c5.2-1.7,10.1-4.6,13.6-8.9c3.5-4.3,5.7-10.2,5.7-18.1c0-11.7-5.1-19.1-12.2-23.6 c-7.1-4.5-16.1-6.1-23.8-6.1h-31.4c-1.2,0-2.1,0.1-2.7,0.3c-0.7,0.2-1.1,0.5-1.3,0.9c-0.2,0.3-0.4,0.7-0.5,1.1 c-0.1,0.6-0.2,1.5-0.2,2.5v88.4c0,1.5,0.1,2.6,0.5,3.2C141.8,592.1,142.3,592.5,143.2,592.8z M155.9,507.8h21.1 c5.9,0,11,1.3,14.5,4.1c3.6,2.8,5.6,7,5.6,12.7c0,5.7-2.1,10.1-5.7,13c-3.6,2.9-8.6,4.3-14.5,4.3h-20.6h-0.5V507.8z"></path> <path class="st0" d="M291.9,495.9h-3.8c-4,0-4.9,1.1-4.9,5v15.7c0,20.6-7.6,31.9-24,31.9c-16.6,0-24-11.3-24-31.9v-15.7 c0-3.9-1.1-5-5.2-5h-3.8c-4,0-5.2,1.1-5.2,5v15.3c0,27.1,11.4,41,31.1,43.5v28.4c0,4,1.1,5,5,5h3.7c4,0,5-1.1,5-5v-28.4 c19.8-2.5,31.1-16.4,31.1-43.6v-15.3C297.1,496.9,296.2,495.9,291.9,495.9z"></path> <path class="st0" d="M691.9,496.2c-1.9,0-20.7,0-22.3,0c-24,0-37.9,10.8-37.9,40.9v51c0,3.9,0.9,5.1,5.1,5.1h3.9 c4.2,0,5.3-1.2,5.3-5.3v-32.5h36.9c4.1,0,5.3-0.9,5.3-5.3v-2.5c0-4.1-1.2-5.3-5.3-5.3h-36.9v-5.1c0-20.1,8.3-27.7,23.6-27.7 c1.6,0,20.9,0,22.5,0c2.8,0,3.7-0.8,3.7-3.6V501C695.9,497.7,694.7,496.2,691.9,496.2z"></path> <g> <path class="st0" d="M156.7,465.6h46.8c4.2,0,5.3,0.9,5.3,5.3v2.6c0,4.2-1.2,5.3-5.3,5.3h-57.3c-4.2,0-5.3-1.2-5.3-5.3v-86.7 c0-4.2,1.2-5.3,5.3-5.3h5.3c4.2,0,5.1,1.2,5.1,5.3V465.6z"></path> <path class="st0" d="M373.7,386.8c0-4.2,0.9-5.3,5.1-5.3h3.9c4.4,0,5.3,1.2,5.3,5.3v47.3c0,32.2-15.3,47.1-40.1,47.1 c-24.8,0-40.4-14.8-40.4-47.1v-47.3c0-4.2,1.2-5.3,5.3-5.3h3.9c4.2,0,5.3,1.2,5.3,5.3v47.8c0,22,8.6,34.1,25.7,34.1 c16.9,0,25.7-12.1,25.7-34.1V386.8z"></path> <path class="st0" d="M447.1,384v4.9c0,2.8-0.9,3.7-3.7,3.7c-1.6,0-4.2-0.2-5.8-0.2c-15.3,0-23.7,10.4-23.7,30.6v50.6 c0,4.2-1.2,5.3-5.3,5.3h-3.9c-4.2,0-5.1-1.2-5.1-5.1v-50.8c0-30.2,13.9-43.8,38-43.8c1.6,0,3.7,0,5.6,0.2 C445.9,379.3,447.1,380.7,447.1,384z"></path> <path class="st0" d="M523,386.8c0-4.2,0.9-5.3,5.1-5.3h3.9c4.4,0,5.3,1.2,5.3,5.3v47.3c0,32.2-15.3,47.1-40.1,47.1 c-24.8,0-40.4-14.8-40.4-47.1v-47.3c0-4.2,1.2-5.3,5.3-5.3h3.9c4.2,0,5.3,1.2,5.3,5.3v47.8c0,22,8.6,34.1,25.7,34.1 c16.9,0,25.7-12.1,25.7-34.1V386.8z"></path> <path class="st0" d="M577.5,481.2c-9.3,0-17.2-0.7-27.1-3.7c-3.2-0.7-4.2-1.6-4.2-4.4v-5.1c0-3.5,1.2-3.9,4.4-3.2 c9,3,17.4,3.9,25.5,3.9c14.4,0,23.4-4.2,23.4-16.5c0-13-12.8-15.3-24.6-18.1c-13.9-3.2-27.8-8.3-27.8-27.8 c0-23.4,17.9-27.1,34.6-27.1c8.6,0,18.1,0.9,24.6,3c2.6,0.9,3.5,1.9,3.5,3.9v5.3c0,3.2-0.9,3.7-4.2,3c-7.4-2.6-16.2-3.2-23.4-3.2 c-10.4,0-21.3,1.6-21.3,14.4c0,11.4,10.7,13.5,23.7,16.7c13.9,3.5,28.8,8.8,28.8,29.9C613.2,474.4,598.4,481.2,577.5,481.2z"></path> <path class="st0" d="M256.7,379.1c-24.8,0-40.1,14.8-40.1,47.1v47.3c0,4.2,0.9,5.3,5.3,5.3h3.9c4.2,0,5.1-1.2,5.1-5.3v-25h51.5v25 c0,4.2,1.2,5.3,5.3,5.3h3.9c4.2,0,5.3-1.2,5.3-5.3v-47.3C297,394,281.5,379.1,256.7,379.1z M230.9,435.3v-9.5 c0-22,8.8-34.1,25.7-34.1c17.2,0,25.7,12.1,25.7,34.1v9.5H230.9z"></path> </g> <path class="st0" d="M207.7,135.7l0-0.2c-9.2-1.8-19-3-28.2-3.2c-0.5,0-1,0-1.5,0.1c-2.4-0.1-4.5-0.1-6.5-0.1c-3.3,0-6.7,0.1-10,0.3 c-0.6,0-1.2,0.1-1.8,0.1c-10.8,0.9-21.6,2.8-32,5.6c-11.4,3-22.6,7.2-33.1,12.3c-1.1,0.6-2.2,1.1-3.1,1.6c-15.2,7.9-29.1,18-41.4,30 L50,182l-0.5,0.6l0-0.1c-28,27.6-45.2,63.2-48.5,100.4l-0.9,10l8.6,5.2c24.2,14.5,52.5,22.1,81.9,22.1c21,0,43.1-4.3,63.2-12.2 c-10.3-7.1-19.9-15.3-28.6-24.2c-11.3,2.9-23.3,4.4-34.6,4.4c-19.6,0-39-4.3-56-12.5l-0.3-0.2l0.1-0.4c4.3-23.8,15.7-46.2,33-65l0,0 c0.1-0.1,8.5-10.7,25.2-21.6c1.4-0.9,2.8-1.8,4.2-2.7l0.6-0.4l0,0.1c0.4-0.2,0.7-0.4,1.1-0.7c9.6-5.6,20.1-10.2,31-13.5 c5.9-1.8,12.1-3.3,18.6-4.5l0.2-0.1c0.1,0,9.7-2.3,25-2.5l0.4,0c1.3,0,2.7-0.1,4.1-0.1c0.1,0,0.1,0,0.2,0c0.1,0,0.2,0,0.2,0h0.5v0 c0.5,0,1,0.1,1.5,0.1l0.7,0c8.5,0.3,17.4,1.3,25.9,3l0.1-0.9C208.3,156.3,208.6,146,207.7,135.7z"></path> <path class="st0" d="M105.5,213.2c0.2,0.4,0.4,0.8,0.5,1.3c0.4,0.9,0.8,1.9,1.2,2.8c0.2,0.5,0.4,0.9,0.6,1.4 c0.4,0.9,0.8,1.8,1.2,2.7c0.2,0.5,0.5,1,0.7,1.5c0.4,0.8,0.8,1.7,1.2,2.5c0.3,0.5,0.5,1,0.8,1.5c0.4,0.8,0.8,1.6,1.3,2.4 c0.3,0.6,0.7,1.2,1,1.8c0.4,0.7,0.8,1.4,1.2,2.1c0.4,0.7,0.9,1.5,1.3,2.2c0.3,0.6,0.7,1.1,1,1.7c0.5,0.8,0.9,1.5,1.4,2.3 c0.3,0.5,0.6,1,1,1.5c0.6,0.9,1.1,1.7,1.7,2.6c0.3,0.4,0.5,0.8,0.7,1.1c0.6,0.9,1.2,1.7,1.8,2.6c0.3,0.4,0.5,0.7,0.8,1.1 c0.6,0.8,1.2,1.7,1.8,2.5c0.3,0.4,0.6,0.8,0.8,1.1c0.6,0.8,1.3,1.6,1.9,2.4c0.3,0.4,0.6,0.7,0.9,1.1c0.6,0.8,1.3,1.6,2,2.4 c0.3,0.4,0.6,0.7,0.9,1.1c0.7,0.8,1.4,1.7,2.2,2.5c0.3,0.3,0.5,0.6,0.8,0.9c0.6,0.7,1.3,1.4,1.9,2c0.4,0.4,0.8,0.9,1.2,1.3 c1,1.1,2.1,2.2,3.2,3.2c1.9,1.9,4,3.8,6.3,5.9c9.1,8.2,19.1,15.5,29.6,21.7c1.1,0.6,2.1,1.2,3.2,1.8c2,1.1,3.7,2,5.3,2.8 c24.5,12.5,51.7,19.1,78.7,19.1c29.3,0,57.6-7.7,81.9-22.1l8.6-5.1l-0.9-10c-2.1-22.9-9.6-45.9-21.9-66.5 c-12-20.1-28.6-38.1-48.1-51.9c-1.3,15.4-4.1,27.9-6.3,35.8c22.7,20.2,38,46.7,43.1,74.8l0.1,0.4l-0.3,0.2 c-9.1,4.4-18.9,7.7-29.3,9.8l-0.4,0.1c-8,1.8-16.9,2.7-26.4,2.7c-14.5,0-25.5-2.2-25.6-2.2l-0.6-0.1l0,0c-10.8-2-21.5-5.5-31.7-10.5 l-0.4-0.2l-0.3-0.1l0,0l0,0l-0.1,0c-9.9-4.9-19.4-11.1-28.1-18.4c-8.8-7.4-13.6-13.3-13.6-13.4l0,0c-13.3-13.7-23.8-30.8-30.2-49.4 c-0.5,0.2-1,0.3-1.5,0.5c-9.8,3.4-19.1,8-27.7,13.6l-0.1,0.1c-0.5,0.3-0.9,0.6-1.4,0.9c0.1,0.4,0.3,0.8,0.5,1.2 C104.7,211.2,105.1,212.2,105.5,213.2z"></path> <path class="st0" d="M223.8,257.5c14.8-17.8,26.1-39,32.1-60.6c1-3.6,1.8-7.2,2.6-10.8c0.1-0.6,0.3-1.3,0.4-1.9 c0.3-1.3,0.5-2.7,0.8-4.4c1.7-9.7,2.8-19.5,3-29.1c0.1-2,0.1-4,0.1-6.2c-0.8-57.1-29.7-110.4-75.5-139.2L178.8,0l-8.5,5.3 c-19.9,12.5-37.3,30.2-50.1,51c-12.6,20.5-20.9,44.3-24,68.5c11.1-4.6,22.6-8.3,34.4-10.9c7.3-30.5,24.4-57.5,47.9-75.5l0.3-0.2 l0.3,0.2c20.7,15.8,36.7,38.8,45,65.1l0,0l0.3,0.7c0,0.1,5,13.7,6.3,33.6c0.1,1.4,0.2,2.9,0.2,4.6c0.3,10-0.4,19.8-2.1,29.4 c-0.5,2.5-1,5.1-1.6,7.6c-0.5,2.1-1.1,4.2-1.7,6.3c-5.7,20.4-16.4,39.6-30.1,54.8l0,0c8.7,6.9,18.2,12.5,28.1,16.9 C223.7,257.5,223.7,257.5,223.8,257.5z"></path> </svg> 