<?xml version="1.0" encoding="UTF-8"?> <!-- Generator: Adobe Illustrator 16.0.3, SVG Export Plug-In . SVG Version: 6.00 Build 0) --> <svg xmlns="http://www.w3.org/2000/svg" xmlns:xlink="http://www.w3.org/1999/xlink" version="1.1" id="Layer_1" x="0px" y="0px" width="472.2959px" height="485.7944px" viewBox="0 0 472.2959 485.7944" xml:space="preserve"> <g> <path fill="#ABB696" d="M315.2295,203.0913c0.0039-0.0127,0.0059-0.0234,0.0098-0.0361 c3.5059-14.7471,5.3691-30.0625,5.3691-45.7842c0-62.1426-28.8809-118.0195-74.8877-156.8501 C245.4629,0.1616,245.1084,0,244.7139,0c-0.6455,0-1.1855,0.4351-1.3574,1.0254l-0.002,0.0005 c-0.0039,0.0122-0.0068,0.0244-0.0107,0.0371c-0.0088,0.0332-0.0176,0.0664-0.0234,0.1011 c-3.8633,15.334-5.8701,31.1597-5.8701,47.2163c0,59.4766,27.416,115.8174,75.373,155.3789 c0.2578,0.2715,0.6211,0.4424,1.0254,0.4424c0.6445,0,1.1875-0.4365,1.3555-1.0283l0.0078-0.0029 C315.2178,203.144,315.2236,203.1167,315.2295,203.0913z"></path> <path fill="#625368" d="M311.6201,213.0991l0.0039-0.0039l-0.4102-0.3203c-51.9775-41.21-81.7676-101.0771-81.7676-164.3945 c0-15.4063,2.2324-31.9219,5.6543-46.7007V1.6782c0.0166-0.0889,0.0264-0.1792,0.0264-0.2729c0-0.7827-0.6357-1.418-1.418-1.418 c-0.3604,0-0.6855,0.1387-0.9365,0.3608l-0.0098-0.0054C187.6016,39.1182,158.875,95.7856,158.875,157.271 c0,64.2598,30.8877,121.8477,79.6816,160.7891c0.3457,0.2129,0.751,0.334,1.1855,0.334c0.4355,0,0.8438-0.123,1.1885-0.3359 c33.6758-26.875,58.8047-62.6387,71.1543-103.3408l-0.0059-0.0146c0.0508-0.1475,0.084-0.3037,0.084-0.4678 C312.1631,213.7749,311.9482,213.3706,311.6201,213.0991z"></path> </g> <g> <path fill="#625368" d="M15.7725,470.2554h46.8301c4.1758,0,5.3359,0.9277,5.3359,5.334v2.5527c0,4.1738-1.1602,5.334-5.3359,5.334 H5.335c-4.1758,0-5.335-1.1602-5.335-5.334v-86.7383c0-4.1758,1.1592-5.3359,5.335-5.3359h5.334 c4.1758,0,5.1035,1.1602,5.1035,5.3359V470.2554z"></path> <path fill="#625368" d="M232.7822,391.4038c0-4.1758,0.9258-5.3359,5.1016-5.3359h3.9414c4.4082,0,5.3359,1.1602,5.3359,5.3359 v47.3145c0,32.2324-15.3086,47.0762-40.124,47.0762c-24.8193,0-40.3584-14.8438-40.3584-47.0762v-47.3145 c0-4.1758,1.1592-5.3359,5.3359-5.3359h3.9414c4.1758,0,5.334,1.1602,5.334,5.3359v47.7793 c0,22.0254,8.583,34.0879,25.7471,34.0879c16.9316,0,25.7451-12.0625,25.7451-34.0879V391.4038z"></path> <path fill="#625368" d="M306.1045,388.6206v4.8691c0,2.7852-0.9297,3.7129-3.7109,3.7129c-1.623,0-4.1758-0.2324-5.7988-0.2324 c-15.3066,0-23.6563,10.4375-23.6563,30.6172v50.5547c0,4.1738-1.1621,5.334-5.3359,5.334h-3.9434 c-4.1758,0-5.1016-1.1602-5.1016-5.1035v-50.7852c0-30.1523,13.916-43.8379,38.0371-43.8379c1.623,0,3.7109,0,5.5684,0.2324 C304.9443,383.9819,306.1045,385.3726,306.1045,388.6206z"></path> <path fill="#625368" d="M382.0693,391.4038c0-4.1758,0.9258-5.3359,5.1035-5.3359h3.9414c4.4063,0,5.3359,1.1602,5.3359,5.3359 v47.3145c0,32.2324-15.3105,47.0762-40.127,47.0762c-24.8203,0-40.3594-14.8438-40.3594-47.0762v-47.3145 c0-4.1758,1.1602-5.3359,5.3359-5.3359h3.9434c4.1738,0,5.334,1.1602,5.334,5.3359v47.7793 c0,22.0254,8.5801,34.0879,25.7461,34.0879c16.9316,0,25.7461-12.0625,25.7461-34.0879V391.4038z"></path> <path fill="#625368" d="M436.5771,485.7944c-9.2793,0-17.1641-0.6953-27.1387-3.709c-3.2461-0.6973-4.1738-1.627-4.1738-4.4082 v-5.1016c0-3.4805,1.1602-3.9434,4.4063-3.248c9.0449,3.0137,17.3965,3.9434,25.5156,3.9434 c14.3789,0,23.4238-4.1758,23.4238-16.4688c0-12.9844-12.7559-15.3047-24.5859-18.084c-13.916-3.2461-27.832-8.3477-27.832-27.8301 c0-23.4277,17.8594-27.1387,34.5586-27.1387c8.582,0,18.0918,0.9277,24.5859,3.0156c2.5508,0.9277,3.4805,1.8555,3.4805,3.9434 v5.334c0,3.248-0.9297,3.7109-4.1738,3.0156c-7.4238-2.5527-16.2383-3.248-23.4277-3.248c-10.4375,0-21.3398,1.625-21.3398,14.3809 c0,11.3652,10.6699,13.4531,23.6602,16.7012c13.9141,3.4785,28.7598,8.8125,28.7598,29.9102 C472.2959,479.0698,457.4502,485.7944,436.5771,485.7944z"></path> <path fill="#625368" d="M115.7764,383.7495c-24.8164,0-40.127,14.8438-40.127,47.0762v47.3145c0,4.1758,0.9277,5.3359,5.334,5.3359 h3.9434c4.1777,0,5.1016-1.1602,5.1016-5.3359v-25.0332h51.4932v25.0332c0,4.1758,1.1602,5.3359,5.334,5.3359h3.9434 c4.1758,0,5.3359-1.1602,5.3359-5.3359v-47.3145C156.1348,398.5933,140.5957,383.7495,115.7764,383.7495z M90.0283,439.896v-9.5332 c0-22.0273,8.8164-34.0879,25.748-34.0879c17.165,0,25.7451,12.0605,25.7451,34.0879v9.5332H90.0283z"></path> </g> <g> </g> <g> </g> <g> </g> <g> </g> <g> </g> <g> </g> </svg> 