<?xml version="1.0" encoding="UTF-8"?> <!-- Generator: Adobe Illustrator 22.1.0, SVG Export Plug-In . SVG Version: 6.00 Build 0) --> <svg xmlns="http://www.w3.org/2000/svg" xmlns:xlink="http://www.w3.org/1999/xlink" version="1.1" id="Layer_1" x="0px" y="0px" viewBox="0 0 857.7 593.2" style="enable-background:new 0 0 857.7 593.2;" xml:space="preserve"> <style type="text/css"> .st0{fill:#FFFFFF;} </style> <g> <path class="st0" d="M301.6,473.8c8.1,0,15.2-1,22.4-3.2c1.5-0.5,2.2-1.3,2.2-2.8V460c0-1.9-1-2.4-3.3-1.8c-6,2-12.6,3-20.1,3 c-22.5,0-37-14.5-37-37c0-22.7,14.1-36.7,36.8-36.7c7.8,0,14.6,1.3,20.6,3.8c0.6,0.2,1.2,0.4,1.6,0.4c0.7,0,1.5-0.3,1.5-2.6v-7.4 c0-1.9-0.5-2.7-2.2-3.2c-7-2.3-13.3-3.8-23.1-3.8c-24.5,0-50.7,13-50.7,49.6C250.2,460.8,276.8,473.8,301.6,473.8z"></path> <path class="st0" d="M351,467.7V429h52.7v38.7c0,3.9,0.8,4.7,4.7,4.7h5.5c3.9,0,4.8-0.9,4.8-4.7v-87.5c0-3.9-0.9-4.8-4.8-4.8h-5.5 c-3.9,0-4.7,0.9-4.7,4.8v35.6H351v-35.6c0-4-0.8-4.8-4.7-4.8h-5.6c-3.9,0-4.7,0.9-4.7,4.8v87.5c0,3.9,0.8,4.7,4.7,4.7h5.6 C350.2,472.4,351,471.6,351,467.7z"></path> <path class="st0" d="M615.7,471.2c0-0.1-0.1-0.1-0.1-0.2v0.3C615.7,471.2,615.7,471.2,615.7,471.2z"></path> <path class="st0" d="M650.1,375.4h-27.7c-3.9,0-4.7,0.9-4.7,4.8v87.5c0,3.9,0.8,4.7,4.7,4.7h28.9c23.9,0,51.9-12.6,51.9-48.1 C703,388.2,675.7,375.4,650.1,375.4z M650.2,460.2h-17.7v-72.7h17.6c23,0,36.8,13.7,36.8,36.7C686.8,446.8,673.1,460.2,650.2,460.2 z"></path> <path class="st0" d="M333.1,493.6h-5.5c-3.9,0-4.7,0.9-4.7,4.8v35.6h-52.1v-35.6c0-4-0.8-4.8-4.7-4.8h-5.6c-3.9,0-4.7,0.9-4.7,4.8 v87.5c0,3.9,0.8,4.7,4.7,4.7h5.6c3.9,0,4.7-0.8,4.7-4.7v-38.7H323v38.7c0,3.9,0.8,4.7,4.7,4.7h5.5c3.9,0,4.8-0.9,4.8-4.7v-87.5 C337.9,494.5,337,493.6,333.1,493.6z"></path> <path class="st0" d="M770.1,459.8h-1.5h-39.4v-79.7c0-4.1-0.9-5.3-5.1-5.3h-5.3c-4.1,0-5.3,1.2-5.3,5.3v87.5c0,4.1,1.2,5.3,5.3,5.3 h51.3c3.5,0,4.8-0.8,5.2-3.5c0.1-0.5,0.1-1.1,0.1-1.8v-2.5C775.4,460.7,774.2,459.8,770.1,459.8z"></path> <path class="st0" d="M497.1,578h-1.5h-37.2v-79.7c0-4.1-0.9-5.3-5.1-5.3h-5.3c-4.1,0-5.3,1.2-5.3,5.3v87.5c0,4.1,1.2,5.3,5.3,5.3 h49c3.5,0,4.8-0.8,5.2-3.5c0.1-0.5,0.1-1.1,0.1-1.8v-2.5C502.4,578.9,501.3,578,497.1,578z"></path> <path class="st0" d="M425.9,493.7h-4c-4.3,0-5.2,1.1-5.2,5.3v47c0,21.7-9,33.6-26.2,33.6c-17.5,0-26.2-11.9-26.2-33.6v-47 c0-4.1-1.2-5.3-5.4-5.3h-4c-4.3,0-5.4,1.1-5.4,5.3v46.6c0,31.7,15.8,46.3,41.1,46.3s40.9-14.6,40.9-46.3v-46.6 C431.3,494.8,430.4,493.7,425.9,493.7z"></path> <path class="st0" d="M591,492.5c-9.4,0-18.6,4.3-24.7,11.3c-6.1-7-15.2-11.3-24.7-11.3c-17.8,0-32.3,14.3-32.3,31.8l-0.1,3.6v58 c0,3.8,0.9,4.7,4.9,4.7h5.4c3.8,0,4.8-0.9,4.8-4.7v-57.5l0.2-5.6c0-9.4,7.5-16.8,17.1-16.8c9.6,0,16.9,7.4,16.9,16.8l0,5.6v57.5 c0,3.8,0.9,4.7,4.8,4.7h2.9h0h2.9c3.8,0,4.8-0.9,4.8-4.7v-57.5l0-5.6c0-9.4,7.4-16.8,16.9-16.8c9.6,0,17.1,7.4,17.1,16.8l0.2,5.6 v57.5c0,3.8,0.9,4.7,4.8,4.7h5.4c4,0,4.9-0.9,4.9-4.7v-58l-0.1-3.6C623.3,506.8,608.8,492.5,591,492.5z"></path> <path class="st0" d="M847.8,387c-7.4-9-18.4-14.1-32.8-14.1c-27.6,0-44.5,20.1-44.5,50.7c0,5.4,0.5,10.5,1.5,15.3 c2.7,11.5,10.2,28.2,30.8,34l0-0.1c1.7,0.5,3.4,0.9,5.1,1.2c0,0,0,0,0,0c0,0,0.1,0,0.1,0c0.6,0.1,1.1,0.2,1.7,0.3 c0.4,0.1,0.9,0.1,1.3,0.2c0.2,0,0.3,0,0.5,0.1c0.5,0.1,1.1,0.1,1.6,0.2c0.2,0,0.3,0,0.5,0c0.5,0,0.9,0.1,1.4,0.1 c4.5,0.2,9.1-0.1,13.5-0.8c7.7-1.2,14.4-3.3,20.8-6.4c2.4-1.1,2.3-3.5,2.3-3.5l0,0v-3.6l0-3.3c0-0.1,0-0.5,0-1.5 c0-1.3-1-1.3-1.3-1.3c-0.1,0-0.1,0-0.1,0l0,0c-0.6,0-1.3,0.5-2.2,0.8c-5.5,2.9-11.1,4.9-18.5,6.1c-2.7,0.4-5.3,0.6-7.8,0.6 c-0.1,0-0.2,0-0.4,0c-1,0-1.9,0-2.9,0c-1.2,0-2.4-0.1-3.7-0.3c-4.2-0.5-8.5-1.6-12.5-3.7c-5.9-3-11.1-8.2-14.3-16.6 c-0.1-0.3-0.2-0.7-0.4-1c-0.6-1.8-1.2-3.8-1.6-5.9c0,0,0,0,0,0c-0.3-1.8-0.5-3.7-0.7-5.7h16.3v0h42.2h0.5h0.5h0.7h8.1 c1.5,0,2.7-1,3.2-2.3c0.1-0.3,0.2-0.7,0.3-1C857.6,422.9,860.8,403.8,847.8,387z M843.3,415.9h-57.5c2.3-18.9,13.1-30.3,29.4-30.3 c13.5,0,22.9,7.9,26.9,21.7c0.7,2.5,1,4.9,1.1,6.5C843.3,415.1,843.3,415.9,843.3,415.9L843.3,415.9z"></path> <path class="st0" d="M509.5,464.3L509.5,464.3l0-3.6l0-3.3c0-0.1,0-0.5,0-1.5c0-1.3-1-1.3-1.3-1.3c-0.1,0-0.1,0-0.1,0v0 c-0.6,0-1.3,0.5-2.2,0.8c-5.5,2.9-11.1,4.9-18.5,6.1c-2.6,0.4-5.3,0.6-7.8,0.6c-0.1,0-0.2,0-0.4,0c-1,0-1.9,0-2.9,0 c-1.2,0-2.4-0.1-3.7-0.3c-4.2-0.5-8.5-1.6-12.5-3.7c-5.8-3-11.1-8.2-14.3-16.6c-0.1-0.3-0.2-0.7-0.4-1c-0.6-1.8-1.2-3.8-1.6-5.9 c0,0,0,0,0,0c-0.3-1.8-0.5-3.7-0.7-5.7h16.3v0h42.2h0.5h0.5h0.7h8.1c1.5,0,2.7-1,3.2-2.3c0.1-0.3,0.2-0.7,0.3-1 c0.5-2.6,3.6-21.8-9.4-38.5c-7.4-9-18.4-14.1-32.8-14.1c-27.6,0-44.5,20.1-44.5,50.7c0,5.4,0.5,10.5,1.5,15.3 c2.7,11.5,10.2,28.2,30.8,34l0-0.1c1.7,0.5,3.4,0.9,5.1,1.2c0,0,0,0,0,0c0,0,0.1,0,0.1,0c0.6,0.1,1.1,0.2,1.7,0.3 c0.4,0.1,0.9,0.1,1.3,0.2c0.2,0,0.3,0,0.5,0.1c0.5,0.1,1.1,0.1,1.6,0.2c0.2,0,0.3,0,0.5,0c0.5,0,0.9,0.1,1.4,0.1 c4.5,0.2,9.1-0.1,13.5-0.8c7.7-1.2,14.4-3.3,20.8-6.4C509.7,466.6,509.5,464.3,509.5,464.3z M472.9,385.6 c13.5,0,22.9,7.9,26.9,21.7c0.7,2.5,1,4.9,1.1,6.5c0.1,1.3,0.1,2.1,0.1,2.1h-57.5C445.8,397,456.6,385.6,472.9,385.6z"></path> <path class="st0" d="M675,491.2c-27.3,0-43.9,20.1-43.9,50.7c0,5.4,0.5,10.5,1.5,15.3c2.7,11.5,10.1,28.2,30.4,34l0-0.1 c1.7,0.5,3.3,0.9,5,1.2c0,0,0,0,0,0c0,0,0.1,0,0.1,0c0.6,0.1,1.1,0.2,1.7,0.3c0.4,0.1,0.9,0.1,1.3,0.2c0.2,0,0.3,0,0.5,0.1 c0.5,0.1,1.1,0.1,1.6,0.2c0.2,0,0.3,0,0.5,0c0.5,0,0.9,0.1,1.4,0.1c4.4,0.2,8.9-0.1,13.3-0.8c7.6-1.2,14.2-3.3,20.6-6.4 c2.4-1.1,2.2-3.5,2.2-3.5l0,0l0-3.6v-3.3c0-0.1,0-0.5,0-1.5c0-1.3-0.9-1.3-1.2-1.3c-0.1,0-0.1,0-0.1,0l0,0c-0.6,0-1.3,0.5-2.1,0.8 c-5.4,2.9-11,4.9-18.3,6.1c-2.6,0.4-5.2,0.6-7.7,0.6c-0.1,0-0.2,0-0.3,0c-0.9,0-1.9,0-2.9,0c-1.2,0-2.4-0.1-3.6-0.3 c-4.1-0.5-8.4-1.6-12.4-3.7c-5.8-3-10.9-8.2-14.1-16.6c-0.1-0.3-0.2-0.7-0.4-1c-0.6-1.8-1.2-3.8-1.6-5.9c0,0,0,0,0,0 c-0.3-1.8-0.5-3.7-0.7-5.7h16v0h41.6h0.5h0.5h0.6h8c1.5,0,2.7-1,3.1-2.3c0.1-0.3,0.2-0.7,0.3-1c0.5-2.6,3.6-21.8-9.2-38.5 C700,496.2,689.2,491.2,675,491.2z M702.9,534.1h-56.7c2.3-18.9,12.9-30.3,29-30.3c13.3,0,22.6,7.9,26.5,21.7 c0.7,2.5,1,4.9,1.1,6.5C702.9,533.3,702.9,534.1,702.9,534.1L702.9,534.1z"></path> <path class="st0" d="M524.4,419.8v47.3c0,4.2,0.9,5.3,5.3,5.3h3.9c4.2,0,5.1-1.2,5.1-5.3v-25h51.5v25c0,4.2,1.2,5.3,5.3,5.3h3.9 c4.2,0,5.3-1.2,5.3-5.3v-47.3c0-32.2-15.5-47.1-40.4-47.1C539.8,372.7,524.4,387.5,524.4,419.8z M564.6,385.2 c17.2,0,25.7,12.1,25.7,34.1v9.5h-51.5v-9.5C538.8,397.3,547.6,385.2,564.6,385.2z"></path> <path class="st0" d="M271.6,262.2c0-4.2-0.9-5.3-5.1-5.3h-5.3c-4.2,0-5.3,1.2-5.3,5.3v86.7c0,4.2,1.2,5.3,5.3,5.3h57.3 c4.2,0,5.3-1.2,5.3-5.3v-2.6c0-4.4-1.2-5.3-5.3-5.3h-46.8V262.2z"></path> <path class="st0" d="M462.9,356.5c24.8,0,40.1-14.8,40.1-47.1v-47.3c0-4.2-0.9-5.3-5.3-5.3h-3.9c-4.2,0-5.1,1.2-5.1,5.3v47.8 c0,22-8.8,34.1-25.7,34.1c-17.2,0-25.7-12.1-25.7-34.1v-47.8c0-4.2-1.2-5.3-5.3-5.3h-3.9c-4.2,0-5.3,1.2-5.3,5.3v47.3 C422.6,341.7,438.1,356.5,462.9,356.5z"></path> <path class="st0" d="M519.5,354.2h3.9c4.2,0,5.3-1.2,5.3-5.3v-50.6c0-20.2,8.3-30.6,23.7-30.6c1.6,0,4.2,0.2,5.8,0.2 c2.8,0,3.7-0.9,3.7-3.7v-4.9c0-3.2-1.2-4.6-3.9-4.6c-1.9-0.2-3.9-0.2-5.6-0.2c-24.1,0-38,13.7-38,43.8v50.8 C514.4,353.1,515.4,354.2,519.5,354.2z"></path> <path class="st0" d="M612.2,356.5c24.8,0,40.1-14.8,40.1-47.1v-47.3c0-4.2-0.9-5.3-5.3-5.3H643c-4.2,0-5.1,1.2-5.1,5.3v47.8 c0,22-8.8,34.1-25.7,34.1c-17.2,0-25.7-12.1-25.7-34.1v-47.8c0-4.2-1.2-5.3-5.3-5.3h-3.9c-4.2,0-5.3,1.2-5.3,5.3v47.3 C571.8,341.7,587.4,356.5,612.2,356.5z"></path> <path class="st0" d="M336.9,354.2h3.9c4.2,0,5.1-1.2,5.1-5.3v-25h51.5v25c0,4.2,1.2,5.3,5.3,5.3h3.9c4.2,0,5.3-1.2,5.3-5.3v-47.3 c0-32.2-15.5-47.1-40.4-47.1c-24.8,0-40.1,14.8-40.1,47.1v47.3C331.5,353.1,332.4,354.2,336.9,354.2z M371.6,267 c17.2,0,25.7,12.1,25.7,34.1v9.5h-51.5v-9.5C345.9,279.1,354.7,267,371.6,267z"></path> <path class="st0" d="M665.3,352.8c10,3,17.9,3.7,27.1,3.7c20.9,0,35.7-6.7,35.7-29c0-21.1-14.8-26.4-28.8-29.9 c-13-3.2-23.7-5.3-23.7-16.7c0-12.8,10.9-14.4,21.3-14.4c7.2,0,16,0.7,23.4,3.2c3.2,0.7,4.2,0.2,4.2-3v-5.3c0-2.1-0.9-3-3.5-3.9 c-6.5-2.1-16-3-24.6-3c-16.7,0-34.6,3.7-34.6,27.1c0,19.5,13.9,24.6,27.8,27.8c11.8,2.8,24.6,5.1,24.6,18.1 c0,12.3-9,16.5-23.4,16.5c-8.1,0-16.5-0.9-25.5-3.9c-3.2-0.7-4.4-0.2-4.4,3.2v5.1C661.1,351.2,662.1,352.1,665.3,352.8z"></path> <path class="st0" d="M256.9,191.6c0.5-0.5,0.9,0.1,1.6,0c1.9-1,3.2-2.5,5.1-3.5c0.2-0.6-0.7-1.3,0-1.6c0.9-0.1,1,0.6,1.6,0.7 c1.1-1.1,2.7-1.7,3.7-2.8c0-0.7-0.5-1.3,0-1.9c0.8-0.1,1.1,0.2,1.6,0.2c0.8-0.7,1.4-1.3,2.3-1.9c0.5-0.3,1.2-0.4,1.6-0.7 c1.5-1.1,2.1-2.9,3.7-3.7c-0.3-1.9,1-2.3,1.2-3.7c0.4,0,0.5,0.3,0.9,0.2l-0.1-0.4l0.3,0.1c0.8-0.8,1,0.4,1.6,0.5 c0.5-0.4,0.1-0.9,0-1.4c0.4-0.2,0.6-0.7,1.4-0.5c0.3-1.4,1.6-2,2.8-2.6c0.3-1.5,1.9-1.7,1.6-3.7c0.3-0.2,0.9-0.2,1.2-0.5 c0.3-2.3,1.8-3.4,3-4.7c0.3-1.5,1.3-2.1,1.9-3.3c0.4-0.5,1.3-0.4,1.4-1.2c-0.4-0.4-0.8-0.9-1.2-1.4c-1.4,0.4-2.3-0.6-3.5-0.7 c-1.9-0.1-3.8,0.8-6.3,0.5c-0.5,0.1-0.4,0.8-1.2,0.7c-0.4-0.4-1.6-0.2-2.3-0.2c-1,0.7-2,0.4-3.3,0.7c-0.4,0.1-0.6,0.4-0.9,0.5 c-0.3,0-0.8-0.2-1.2-0.2c-0.7,0-1.4,0-2.1,0c-0.6-0.3-0.9-0.8-1.6-0.9c-0.9,0.4-1.8-0.2-2.6,0c-0.5,0.1-0.7,1-1.4,0.7 c-0.1,0.4,0.3,1.4-0.2,1.4c-0.5-0.1-0.2-0.9-0.9-0.7c-0.6,0.7-1.9,0.8-2.6,1.4c-0.6-0.4-1.2-0.5-1.9-0.5c-1.2,0-2.2,1.1-3.1,1.4 c-2.2-0.1-4.3,0.1-5.6,0.5c-0.6,0.2-1.2,0.5-1.6,0.7c-0.9,0.6-1.1,0.9-1.9,1.4c-0.9,1.3-3.6,1.4-5.1,1.4c-0.8,0.8-1.4,1.9-1.9,3 c-1.6,0.7-3.4,1.2-5.6,1.2c-1.2,1.1-2.9,1.8-3.3,3.7c-0.9,0.2-0.4-1-1.4-0.7c-1.2,0.2-2.1,0.7-3.5,0.7c-0.5,0.1-0.1,1-0.7,0.9 c-0.6,0.1-0.5-0.4-1.2-0.2c-0.8,1.4-2.8,1.6-3.7,2.8c-0.9,0.4-1.8,0.8-2.6,1.4c-0.9-0.1-1.2,0.4-2.1,0.2c-0.5,0.8-1.8,1-2.6,1.4 c-0.3,0.1-0.4,0.4-0.7,0.5c-0.5,0.2-1.1,0-1.6,0.2c-0.1,0-0.3,0.4-0.5,0.5c-0.3,0.2-0.5,0.1-0.9,0.2c-0.5,0.2-0.9,0.5-1.4,0.7 c-0.6,0.3-1.1,0.1-1.9,0.2c-0.4,0.1-0.9,0.4-1.2,0.5c-0.5,0-0.9-0.5-1.4-0.2c-0.7,0-0.8,0.6-1.6,0.5c-0.6-0.9-1.2-2-1.4-3.5 c-0.1-0.7,0.1-1.5,0-2.1c-0.2-1.7-1-2.5-2.1-3.3c-0.1-0.6-0.9-1.2-0.2-1.9c-1.3-2.6-2.4-5.2-4.5-7c0.1-1.3-1.3-2-1.9-3.3 c-0.7,0.2-0.8-0.2-1.4-0.2c-0.4-0.5-0.6-1.2-1.2-1.6c0.1-0.3,0.3-0.4,0.2-0.9c-1.4-2.4-4.2-3.3-5.4-5.8c-0.6-0.1-0.8-0.4-1.4-0.7 c-0.4-0.2-1.1-0.2-1.6-0.5c-0.5-0.3-0.9-0.9-1.4-1.2c-0.7-0.3-1.5-0.3-2.1-0.7c-1-0.7-1.4-1.9-2.3-2.6c-1.6-0.2-2.2,0.6-3.5,0.7 c-0.8-0.1-1.2-0.6-2.3-0.5c-0.4,0.2-0.9,0.3-1.2,0.7c-2.6,0.5-4.4,1.9-6.5,2.8c-0.5,0.2-0.5,0.9-0.9,1.2c-0.4,0-0.7,0-0.9-0.2 c0,0.8-1,1.2-1.4,1.4c-0.1,0-0.2,0.4-0.2,0.5c-0.7,0.6-1.2,0.9-1.9,1.2c-0.7,0.3-0.9,1.5-1.6,1.6c-1.2,0.1-1.8,0.8-2.3,1.6 c0.7,1.4,4.1,1.8,2.8,3.7c1.6,1.4,3.6,2.4,4.9,4.2c0.6,0.3,1-0.7,1.2,0c0.2,0.7-0.3,0.6-0.2,1.2c1.1,1.2,2.1,2.4,2.8,4 c0.3,0.2,0.6,0.3,1.2,0.2c0,0.6,0,1.1,0.5,1.2c0-0.4,1.4-0.4,1.4,0c0.1,0.9-1,0.7-0.9,1.6c0.8,0.9,1,2.6,2.1,3.3 c0.2,0.7,0.4,1.1,0.7,1.6c0.2,0.4,0.9,0.9,0.7,1.6c0.6-0.1,0.7,0.5,0.9,0.9c0.8,1.2,1.2,2.8,2.1,3.7c0.6-0.2,0.5-1.1,1.4-0.9 c0,0.9-1,0.7-0.7,1.9c0.2,0.8,1.1,0.8,1.2,1.6c0.4,0.3,0.2,1.2,0.2,1.9c0.8,0.9,1,2.5,2.1,3c0,1.3,1,1.5,0.9,2.8 c-1,0.4-2,0.6-3.3,0.7c-0.5,0.2-0.3,1.1-0.9,1.2c-0.2-0.3-0.2-0.9-0.9-0.7c-1.1,0.6-2.2-0.2-3.7,0c0,0.7,0.2,1.6-0.5,1.6 c-0.2,0-0.3,0-0.5,0l0.1,0.4l-0.4,0.3c0.1,0.4,0.7,0.4,0.5,1.2c-1,0.7-1.8-0.5-1.6-1.6l-0.3,0.1l-0.1-0.4c-0.9,0-1.5,0.4-1.9,0.9 c-1.8,0-2.8,0.8-4,1.4c-0.7,0.1-0.7-0.5-1.4-0.5c-0.3,0.6-0.4,1.3-1.2,1.4c-0.8-0.4-2.4,0-2.8-0.7c-1.6,1.2-4.9,0.8-6.5,1.9 l0.4,0.3l-0.1,0.4c0.7,0,1.3,0,1.2,0.7c-0.6,1.1-2.1-0.2-3.5,0.2c0.2-0.7-0.6-0.4-0.5-1.2c-1,0.2-1.7,0.8-3,0.7 c-0.5,0.5-1.1,0.9-2.3,0.7c0-0.2-0.2-0.3-0.5-0.2c-0.2-1.2-0.8-2.2-1.4-3c0.9-0.7,0.1-1.1,0-2.1c0.1-0.3,0.5-0.3,0.7-0.5 c-0.1-0.9-0.3-1.9-0.2-2.6c0-0.3,0.3-0.3,0.2-0.7c-0.1-0.9-0.5-1.9-0.5-2.8c0-1,0.6-2,0.7-3c0-0.3-0.2-0.8-0.2-1.2 c-0.1-0.8,0-1.7,0-2.6c-0.1-1.4-0.4-3.1-0.5-4.7c0-1.7,0.4-3.3,0.2-4.9c-0.1-0.7-0.4-1.4-0.5-2.1c-0.1-0.7,0.1-1.4,0-1.9 c-0.2-0.8-0.9-1.7-1.2-2.6c-0.1-0.4,0.1-0.8,0-1.2c0-0.1-0.4-0.6-0.5-0.7c-0.2-0.4-0.1-1-0.2-1.2c-0.4-0.7-1.1-1.2-1.4-1.9 c-0.2-0.3,0.1-0.8,0-1.2c-0.2-0.5-1.1,0.1-0.7-0.7c0.2-0.6,0.5-1,0.5-1.6c0-0.8-0.5-1.6-0.7-2.1c-0.1-0.2-0.2-0.3-0.5-0.2l-0.1,0.4 l-0.4-0.1c0,0.2,0,0.3,0,0.5c-0.2,0-0.3,0-0.5,0c0-0.2,0-0.3,0-0.5l0.1-0.4l0.4,0.1c-0.3-0.9,0.6-0.7,0.5-1.4 c-0.9-0.9-1.9-2.3-3-2.8c-0.3-0.1-0.8,0-1.2-0.2c-0.2-0.1-0.5-0.5-0.7-0.7c-0.8-0.6-1.4-0.6-2.3-0.9c-0.5-0.2-0.8-0.4-1.2-0.5 c-1.1-0.2-2.2-0.1-3.3-0.5c-0.8,0.1-0.8,0.9-1.4,1.2c-0.4,0.4-1.6,0-1.4,0.9c-0.8,0.4,0.4,0.8,0.2,1.4c-0.4,2-0.6,4.3-1.4,5.8 c0.1,0.9,0.9,1.2,0.9,2.1c-0.3,0.4-0.6,0.8-1.2,0.9l0.1,0.3l-0.1,0.4c0.3,0,0.6,0,0.9,0c0.1,0.7-0.6,0.8-0.9,0.5l-0.2-0.1l-0.2-0.1 c-0.4,0.7-0.3,2.1-0.5,3c-0.2,0.8-0.5,1.7-0.7,2.6c-0.4,2.2-0.4,3.8-0.7,5.8c-0.1,0.7-0.5,1.7-0.5,2.1c0,0.1,0.2,0.3,0.2,0.2 c-0.3,2-0.8,3.6-0.9,5.4c-0.2,2-0.4,3.4-0.5,4.9c0,0.8,0.1,1.6,0,2.3c0,0.4-0.4,0.6-0.5,0.9c0,0.5,0.3,1.1,0.2,1.6 c0,0.4-0.2,0.8-0.2,1.2c0,0.4,0.3,0.8,0.2,1.2c0,0.6-0.4,1-0.5,1.6c0,0.3,0.2,0.6,0.2,0.7c0,0.3-0.2,0.3-0.2,0.7 c0,2.3,0.1,3.9-0.2,5.6c0.3,0.7,1.4,0.6,1.4,1.6c-0.5,0-0.9,0-1.4,0c-0.6,1.7,1.2,6-1.9,6.1l0.1,0.3l-0.4,0.1c0,0.4-0.3,0.6-0.2,0 l-0.3-0.1l0.1-0.3c-0.9,0.3-1.8,0-2.6,0.2c-0.8,0.2-1.3,1-2.1,1.2c-0.6,0.1-0.5-0.4-1.2-0.2c-0.4,0.7-0.9,1.3-1.4,1.9 c-1.2,0.2-3.4,0.8-4.4,0.7c-0.6-0.1-1-0.5-1.6-0.5c-1.3,0-2.6,0.5-4.2,0.2c-0.3,0.3-0.1,1.1-0.7,1.2c-0.7,0.2-0.7-0.4-1.4-0.2 c-1.4,0.8-3,0-4.2,1.2c-1.8-0.4-3.6,1.1-5.6,1.2c-0.1,0.7,0.6,1.2-0.2,1.4c-1.5-1-3.4-0.3-5.6-0.7c-0.6,0.2-0.5,1.1-1.2,1.2 c-0.7,0-0.4-1-1.2-0.9c-1.1,0.2-2.4,0.6-3.1,0.9c-0.8,0.4-1.2,0.3-2.1,0.5c-0.4,0.1-1,0.3-1.4,0.5c-1.1,0.3-1.7,0.6-2.6,0.2 c-1.1,0.8-2.3,0.5-3.7,0.7c-2.1,0.3-5.2,1.8-6.5,2.6c-1.1,0.6-2.2,1.3-3.3,1.6c-2.2,0.8-5.1,0-7.7,0.5c-0.5,0.1-1.2,0.5-1.9,0.7 c-0.3,0.1-0.8,0.1-1.2,0.2c-1.2,0.3-1.5,0.7-2.3,0.9c-1.1,0.3-2.3,0.2-3.3,0.5c0,0.4,0,0.8-0.5,0.7c-0.4-0.1-0.2-0.7-0.9-0.5 c-1.5,0.4-3.1,1.2-4.7,1.6c-1.4,0.4-2.3,0.2-3.5,0.2c-0.9,0-1.8,0.5-2.6,0.7c-0.4,0.1-1,0.1-1.4,0.2c-0.5,0.2-0.6,0.6-1.2,0.7 c-1.6-0.6-2.6,0.5-4,0.9c-0.5,0.2-1,0.3-1.6,0.5c-0.5,0.2-1.2,0.4-1.6,0.5c-0.8,0.1-1.4-0.4-2.1,0.2c-1-1-3.2-0.2-4,0.5 c-0.9-0.5-2.7-0.1-4-0.2c0,1.3-0.8,1.8-1.4,2.6l0.1,0.4l-0.1,0.4c0.3,0.3,0.3,0.8,0.2,1.4c-1.2,0.2-1-0.8-0.7-1.4 c0.1,0,0.2,0,0.2,0l-0.1-0.4l0.1-0.4c-0.2-0.8,1-0.9,0.2-1.6c-1-0.2-0.4,1.1-1.4,0.9c-0.2,0.6-0.9,0.8-1.4,1.2 c-0.6,1.4-0.5,3.4-0.7,5.1c1.5-0.2,2.3,0.4,3.7,0.2c0.7-0.1,0.3-1.2,1.4-0.9c0.5,0.3,0.8,0.7,0.9,1.4c1.1-0.1,2.1,0.4,3.3,0.5 c1.8,0.1,3.9-0.3,4.9-0.2c0.3,0,0.6,0.4,0.9,0.5c1.5,0.4,2.5,0.4,3.5,0c0.8,0.9,2.2,1.1,4,1.2c2.2,0.1,3.5-0.1,4.4-0.7 c0.8,0.7,2.3,0,3.7,0c0.7,0,1.4,0.3,2.1,0.2c0.6-0.1,0.9-0.4,1.4-0.5c0.9,0.7,2.4,0.7,4,0.7c0.5-0.8,0.6-2.1,1.9-2.1 c0.1,0.7,0.3,1.2,0.5,1.9c1.6-0.1,3.7,0.3,4.7-0.5c0.4,0.4,1.5,0.2,2.3,0.2c0.6-0.3,0.8-0.9,1.6-0.9c0.7,0.2,0.4,1.3,1.4,1.2 c2,0.1,3.6-0.3,5.1-0.7c1.9,0.8,5,0.5,6.6,0c1.8,1.1,3.4-0.1,5.6-0.2c0.6-0.4-0.3-2.3,0.9-2.1c-0.1,0.8,0.2,1.1,0.2,1.6 c3.3-0.1,6.3-0.2,10.5-0.2c0.5-0.1,0.4-0.8,1.2-0.7c2.6,1.1,5.5-0.7,8.9-0.2c0.4,0.3,0.6,0.9,1.4,0.9c0.3,0,0.5-0.1,0.7-0.2 l-0.1-0.4l0.4-0.1c0-0.2,0.2-0.3,0.5-0.2l0.2,0.1l0.2,0.1c0.5-0.8,1.8-0.9,3-0.7c0.3,0,0.3,0.4,0.7,0.5c0.4,0.1,1.1-0.1,1.4,0 c0.5,0.1,0.5,0.7,0.9,0.5c1.1-0.5,3.2-1.1,4.7-0.5c0.3-0.9,1.8-0.5,2.6-0.7c1-0.3,2.2-1,2.3,0.2l0.2-0.1l0.2,0.1 c0.6-0.4,0.8,0.1,1.6,0c1.8-0.1,4.1-1,5.8-0.5c0.5,1.3,0,2.8,0.2,4.2c0.1,0.9,1,1.6,0.5,2.3c0.4,0.3,0.8,0.6,0.9,1.2 c-0.1,0.4-0.2,0.9-0.2,1.4c0,1,0.7,3.5,0.7,4.2c0,0.1-0.3,0.1-0.2,0.5c0.1,0.7,0.8,1,0.7,1.6c-0.1,0.4-0.7,0.4-0.5,1.2 c0.7,0.7,0.4,1.8,0.7,2.3c0.3,0.6,0.8,1.5,0.7,2.1c0.5,0.3,1.2,0.4,1.2,1.2c-0.1,0.6-0.7,0.7-0.7,1.4c0.8,0,0.2,0.6,0.2,0.9 c0,0.2,0.5,0.6,0.5,0.9c0,0.3-0.3,0.3-0.2,0.7c0.1,0.6,0.4,0.6,0.5,1.2c0,0.6-0.2,1.4-0.2,2.1c-0.1,0.6,1.1-0.1,0.7,0.7 c0.3,1,0.1,1-0.2,1.9c0.4,0.6,0.4,1.4,0.5,2.3c0.2,0.3,0.9,0.1,0.7,0.7c0.5,0.5-0.3,0.7-0.2,1.4c0.5,3,1.8,6.2,2.1,8.9 c0.1,1.2,0.2,1.6,0.5,2.3c0.4,1.2,0.2,1.8,0.9,2.3c-0.6,1.3,0.5,1,0.7,2.1c-0.5,1.1,0,2.2,0.2,3.5c0.3,1.7,0.6,2.7,0.9,3.7 c0.6,2.2,0.8,4.2,1.9,5.6c-0.2,1.9,1.2,2.2,1.4,3.7c0,0.8-0.8,0.8-0.9,1.4c0.4,0,0.2,0.8,0.7,0.7l0.1-0.4l0.4,0.1 c0.2,0,0.3,0,0.5,0c0,0.2,0,0.3,0,0.5c-0.2,0-0.3,0-0.5,0l-0.1,0.4l-0.4-0.1c0.4,1.1,0.5,1.9,0.7,2.8c0.3,1.2,0.7,1.7,0.9,2.6 c0.2,0.6,0,1.3,0.2,1.9c0.1,0.4,0.6,0.9,0.7,1.4c0.2,0.6,0.2,1.2,0.2,1.9c0.9,0.9,1.2,2.5,1.6,4c0.6,0.4,0.9,0.9,1.4,1.4 c0.8,1.1,0.6,2.8,0.9,3.5c0.1,0.2,0.1,0.4,0.2,0.7c0.4,1,1.3,1.6,1.4,2.6c0.4,0,0.8,0,1.2,0c-1.7,1.1,0,2.5,0.2,4.2 c0.2,0.5,1.3-0.1,1.4,0.5c0.1,0.7-0.7,0.5-0.5,1.4c0.6,1.2,0.8,2.8,1.6,3.7c-0.1,1.3,0.8,2.4,1.2,3.5c0.1,0.3-0.1,0.7,0,0.9 c0.1,0.3,0.3,0.6,0.5,0.9c0.4,1.1,1,1.9,1.4,2.8c0.1,0.2-0.1,0.5,0,0.7c0,0.1,0.4,0.1,0.5,0.2c0.1,0.2-0.1,0.5,0,0.7 c0,0.1,0.4,0.1,0.5,0.2c0.3,0.7,0.7,1.3,0.9,1.9c0.1,0.3,0.1,0.8,0.2,1.2c0.1,0.3,0.3,0.6,0.5,0.9c0.8,2.3,1.5,4.2,2.3,6.3 c0.6,0.2,1.2,0.4,1.6,0.7c0,0.7-0.8,0.5-0.5,1.4c0,0.6,0.9,0.3,0.9,0.9c0.7,2.4,2.2,3.9,2.6,6.6c0.5,0.3,0.8,0.8,0.9,1.4 c-0.1,2.6,1.9,3.3,2.3,5.4c0.1,0.4,1.1,0,1.2,0.5c0.1,0.6-0.4,0.5-0.2,1.2c0.6,0.4,0.4,1.1,0.7,1.6c0.3,0.6,0.7,1.1,0.9,1.6 c0.1,0.4,0.1,0.8,0.2,1.2c0.6,2,1.8,3.5,2.8,4.9c0.4,0.6,0.9,1.2,1.4,1.9c2,2.8,3.5,6.8,5.6,9.1c0.3,1.1,1.2,1.6,1.4,2.8 c0.3,0.3,1.2,0.1,1.2,0.7c-0.5,0.5,0,0.8,0.2,1.2c0.1,0.2,0.1,0.5,0.2,0.7c0.4,0.6,1.4,0.6,1.6,1.2c0,0.4-0.3,0.5-0.2,0.9 c2.3,2.6,4.7,5.1,6.1,8.7c1.3,0.1,1.3,1.5,2.1,2.1c0.1,0.8-0.4,0.7,0,1.2c1.2,1.2,2,2.9,3.3,4c0.2,0.6,0.8,0.9,0.9,1.6 c0.6,0.1,1.7-0.3,1.9,0.2c0.2,0.9-0.6,0.7-0.5,1.4c0.7,1,1.2,2.1,1.9,3c0.8,0,1.2-0.5,1.6,0.2c-0.3,0.9,0.1,1.3,0,2.6 c1.6,1.6,2.9,3.4,4.4,4.9c0.7,0.4,0.5,1.7,1.9,1.4c0.2-2.4-0.9-3.5-1.2-5.4c-0.2-0.5-0.9-0.7-1.2-1.2c0.5-0.5-0.3-1-0.5-1.6 c-0.9-0.3-1.9,0.5-2.1,0c-0.1-1.1,1.2-0.8,1.2-1.9c-0.5-0.9-1.2-1.6-1.6-2.6c-0.8,0.1-2.1,0.7-1.9-0.7c0-0.5,0.8-0.1,1.2-0.2 c-0.2-1.6-1.4-2.3-1.6-4c-0.3-0.3-1-0.3-1.2-0.7c0-0.6,0.4-0.7,0.2-1.4c-0.7-0.8-0.9-1.9-1.4-2.8c-0.5-1-1.1-1.8-1.6-2.8 c-0.2-0.3-0.1-0.8-0.2-1.2c-0.2-0.4-0.7-0.8-0.9-1.2c-0.3-0.6-0.2-1.1-0.5-1.6c-0.5-1-1.1-1.9-1.4-3c-0.7,0.1-0.8-0.4-1.2-0.7 c-0.1-0.6,0.4-0.5,0.2-1.2c-0.9-1-1.6-2.3-1.9-4c-0.4,0-0.9,0.1-0.9-0.2c0.1-0.8,0.6-0.6,0.2-1.4c-0.5-1.6-1.5-2.7-1.4-4.9 c-0.8-0.9-1-2.2-1.9-3c0.6-1.2-0.9-2.1-0.9-3.5c-0.5,0.1-0.9-0.1-0.9-0.5c0.6-1-0.2-2.1-0.2-3.5c0-1.2,0.4-2.4,0.2-3.5 c-0.3-1.2-1.1-2-1.9-2.3c-0.2-0.9,0.3-1.1,0.2-1.9c-0.5-0.8-0.6-2-1.4-2.3c0.1-1.7-0.7-3.5-1.2-5.4c-0.5-2-1-3.9-1.6-5.6 c-0.3-0.6-1-0.8-1.4-1.4c0.2-1.7-1-2.5-1.2-3.7c-0.1-0.6,0.2-1.4,0.2-2.1c0-1.6-1.6-5.3-0.9-5.8c0.2-0.1-0.2-0.3-0.2-0.2 c0-0.4-0.1-0.8,0-1.2c0.2-1.3,1.9-1.9,2.1-3c0.2-1.5-1.2-3.1-1.6-4.7c-0.2-0.6,0.1-1.1,0-1.6c-0.2-0.8-0.7-1-0.9-1.9 c0.4-2.3-0.8-3.1-0.7-5.1c-0.2-0.6-0.8-0.9-0.9-1.6c0-0.6,0.4-0.5,0-0.9c-0.9-1.6-1.4-3.5-2.1-5.4c-0.3-0.3-1-0.3-1.2-0.7 c-0.2-0.9,0.6-0.7,0.5-1.4c-0.7-1.3-1-2.9-0.9-4.9c-0.3-0.7-0.9-1.2-0.9-2.1c-0.1-0.9,0.4-1.3,0.2-2.3c-0.3-0.4-0.8-0.5-0.7-1.2 c0.2-0.6,1.3-0.4,0.9-1.6c0.3-1-0.9-0.5-0.7-1.4c0.6-1.6-1.2-2.6-0.9-4.7c-0.5-0.1-1-0.2-1.2-0.7c0.5-0.5,0.1-1.2,0.2-1.9 c0.1-0.6,0.5-0.6,0.5-1.4c-0.1-1.5-0.9-2.4-2.3-2.8c-0.3-0.9,0.9-0.4,0.7-1.2c-0.6-2.1-1-4.5-1.6-6.5c-0.7-0.3-1.1-0.8-1.6-1.2 c0-0.7,0.6-0.8,0.7-1.4c-0.3-0.3-0.7-0.6-0.7-1.2c-0.1-1.3,0-2.4-0.2-3.7c-0.2-1-0.8-1.9-0.9-2.8c-0.1-0.8,0.1-1.6,0-2.3 c-0.2-1.5-1.2-2.9-1.4-4.4c-0.1-0.7,0.1-1.6,0-2.3c-0.3-1.6-1.6-3.1-1.4-4.9c-0.2-0.4-0.9-0.4-0.9-0.9c0.4-1.2-0.7-1-0.7-1.9 c1.2-1.9-0.7-3.6-0.9-5.6c-0.1-1.1,0.6-2.1,0-3.3c-0.5-0.3-1.5-0.3-1.4-1.2c0.2-0.8,0.8-1,0.9-1.9c0.3-1.9-1.1-2.6-1.4-4 c-0.1-0.4,0.2-0.9,0.2-1.2c0-1.2-0.4-1.8-0.9-2.6c0.4-0.6,0-1.5,0-2.3c0-1.3,0.7-2.8-0.2-3.7c0.3-1.2,0.6-2.7,0.2-4 c0.2,0,0.3-0.2,0.2-0.5c0.5-0.3,1-0.6,1.9-0.5c0.5-0.1,0.4-0.8,1.2-0.7c1.3,0.4,1.9,0,3-0.2c3.2-0.7,6-1.1,8.9-1.6 c1.2-0.2,2.4-0.7,3.5-0.9c0.9-0.2,1.2,0,1.9-0.2c0.9-0.3,1.8-0.7,2.6-0.9l-0.1-0.4l0.4-0.3c-0.2-0.3-0.3-0.6-0.2-1.2 c0.4,0,0.7,0,0.9,0.2c0,0.2,0,0.5,0,0.7l0.4,0.3l-0.1,0.4c1.1,0.1,1.3-0.5,2.3-0.5c0.4-0.4,0.1-1.3,0.9-1.2c2.3,1.1,4.7-1,7.5-0.9 c0.1-0.6-0.9-2,0.2-2.1c0.8-0.1,0.3,0.8,0.5,1.2c0.2,0.6,0.5,0.8,0.7,1.2c1.7,0.1,2.5-0.7,3.3-1.4h-0.2v-0.2 c-0.4-0.1,0-0.3,0.5-0.2l0.1-0.3l0.1,0.3c2-1.1,4.6-1.7,7.3-2.1c0,2.2,0.7,4,1.2,6.3c0.4,0.1,1,0.1,0.9,0.7 c0.2,1.1-0.3,1.4-0.5,2.1c0.5,1.6,0.3,3.2,0.5,4.9c0.1,1.3,0.5,2.7,0.7,4c0.1,0.9,0.2,1.9,0.2,2.8c0.1,0.8,0.2,1.9,0.2,2.6 c0,0.4-0.3,0.8-0.2,1.2c0.1,1.4,0.4,3,0.5,4.4c0,0.6-0.2,1.2-0.2,1.9c0,0.7,0.3,1.2,0.2,1.9c0,0.4-0.3,0.8-0.2,1.2 c0,0.8,0.5,1.5,0.5,2.3c0,0.9-0.3,1.9-0.5,2.8c0.5,0.5,0.4,1.5,0.9,1.9c-0.9,0.7-0.6,1.3-0.2,2.3c0,0.6-0.7,0.5-0.7,1.2 c0,2,0.2,3.4,0,5.4c-0.3,2.5-0.8,5.5-0.9,7.5c-0.1,1.4,0,2.3-0.2,3c-0.2,0.5-0.6,0.7-0.7,1.2c-0.3,1.1,0,2.1-0.2,3 c-0.2,0.6-0.7,1-0.7,1.6c-0.1,1,0.1,1.9,0.5,2.8c0,0.7-1.1,0.3-0.9,1.2c-0.4,0.9-0.3,1.8-0.5,2.8c-0.1,0.7-0.5,1.4-0.7,2.1 c-0.2,0.8-0.3,1.6-0.5,2.3c-0.2,0.8-0.6,1.6-0.7,2.1c-0.3,1.5-0.2,3.1-0.5,4.4c-0.1,0.5-0.3,0.9-0.5,1.4c-0.3,1.1-0.7,1.9-0.9,2.8 c-0.3,0.9-0.3,1.8-0.5,2.8c-0.1,0.6-0.7,1-0.9,1.6c-0.1,0.4,0.1,0.8,0,1.2c-0.1,0.3-0.5,1-0.7,1.4c-0.2,0.5-0.7,1.1-0.2,1.6 c1.3,0.2,1.3-0.9,2.1-1.2c0.4,0.2,0.6,0.7,1.4,0.5c0.4-0.3,0.9-0.7,1.4-0.9c0.5-0.3,1.2-0.4,1.6-0.7c0.5-0.4,0.8-1.1,1.4-1.6 c0.8-0.8,1.4-1.4,1.9-2.1c0.4-0.6,1.2-1.3,0.9-2.1c0.6-0.6,1-1.5,0.9-2.8c1.1-0.9,1.6-2.4,1.9-4.2c-0.5-0.5-1.3,0.6-1.4-0.5 c0.4-0.9,1.3,0.1,1.9-0.7c0.3-0.7,0.3-1.2,0-1.9c0.8-0.3,0.7-1.5,0.7-2.6c1.2-1.3,1.7-3.3,1.6-5.8c1.2-2.4,3.5-4.8,2.8-8.4 c0.6-1.4,1.1-2.8,1.4-4.4l-0.4,0.1l-0.3-0.4c-1.2,0.2-1.2-0.7-1.2-1.6c0.3,0,0.6,0,0.9,0c0.1,0.5,0.4,0.9,0.2,1.6l0.4-0.1l0.3,0.4 c0.2,0,0.2-0.2,0.2-0.5c0.3-2.1,0.6-5,0.7-8c0.2-0.7-0.6-0.4-0.5-1.2c1.1-1,0.8-2.2,0.9-4c0.1-1.4,0.7-3.1,0.7-4.4 c0-0.6-0.3-1.3-0.2-1.9c0-0.5,0.3-1,0.5-1.6c0.3-1.5,0.5-3.1,0.2-4c0.8-1.1,0.1-2.6,0.2-4c0.1-0.5,0.6-0.9,0.7-1.4 c0.5-1.8-0.3-3.1,0.2-4.4c-0.2-0.7-0.9-0.8-0.7-1.9c-0.3-0.9,0.9-0.4,0.7-1.2c0-3.1-0.3-5.7,0.2-8.7c-0.1-0.6-0.8-0.4-0.7-1.2 c0.6-0.1,0.4-0.7,0.5-0.9c0.4-2.9-0.4-6.1-0.5-8.9c0.1-0.4,0.7-0.2,0.5-0.9c-0.1-1-0.4-1.6-0.7-2.3c0.4-0.8,0.5-1.8,0.5-3 c1.2-1,2.9-1.6,4.7-2.1c0.1-0.3-0.3-1.2,0.2-1.2c0.8-0.2,0.9,0.5,1.6,0.5c1-0.7,2.1-1.2,3.3-1.6c0.1-0.5-0.3-1.5,0.2-1.6 c1.2-0.3,1,0.7,1.9,0.7c2-0.8,3.7-2,5.8-2.1c1-1.2,3.1-1.2,4.2-2.3c-0.3-0.4-0.8-0.7-0.7-1.6c0.5-0.3,1-0.6,1.9-0.5 c0,1-1.2,0.7-0.9,1.9c2.3-0.6,3.7-2,5.8-2.8c0.5-0.1,0.1-1,0.7-0.9c0.5,0,0.9,0,1.4,0c0.4-0.8,1.6-0.9,2.1-1.6 c2-0.4,2.9-1.9,4.9-2.3c0.3-0.5,0.3-1.5,0.9-1.6c0.7-0.1,0.5,0.7,1.4,0.5c2.4-1.7,4.7-3.4,7.3-4.9 C256.6,192.3,256.6,191.7,256.9,191.6z M289.6,157.5c0.2,0,0.5,0,0.7,0c0,0.2,0,0.5,0,0.7c-0.2,0-0.5,0-0.7,0 C289.6,157.9,289.6,157.7,289.6,157.5z M280.7,157.2c0.5-0.1,0.7,0,0.7,0.5c-0.2,0-0.5,0-0.7,0 C280.7,157.5,280.7,157.4,280.7,157.2z M271.6,157.2c0.2,0,0.3,0,0.5,0c0,0.2,0,0.3,0,0.5c-0.2,0-0.3,0-0.5,0 C271.6,157.5,271.6,157.4,271.6,157.2z M271.8,176.9c0.4,0,0.8,0,1.2,0c-0.4,1.4,1.2,0.7,0.9,1.9c-1.2,0.1-1.4-0.8-2.6-0.7 C271,177.2,272,177.6,271.8,176.9z M264.8,159.1c0.2,0.4,0.6,0.6,0.7,1.2C264.6,160.6,264.8,159.7,264.8,159.1z M262.3,183.9 l-0.1-0.4l0.4,0.1c0-0.2,0-0.3,0-0.5c0.2,0,0.3,0,0.5,0c0,0.2,0,0.3,0,0.5c-0.1,0-0.2,0-0.2,0l0.1,0.4l-0.4-0.1 c-0.1,0.3-0.3,0.5-0.7,0.5C261.8,184.1,261.9,183.8,262.3,183.9z M168.7,151.4c0-0.4-0.3-0.5-0.2-0.9c0.4,0.1,1.4-0.3,1.4,0.2 C169.9,151.4,169.1,151.2,168.7,151.4z M171,167.3c0-0.2,0-0.3,0-0.5c0.5-0.1,0.7,0,0.7,0.5C171.5,167.3,171.3,167.3,171,167.3z M174.5,173.4c0-0.3,0-0.6,0-0.9c0.2,0,0.5,0,0.7,0C175.1,172.9,175.1,173.4,174.5,173.4z M176.2,175.5c-0.2,0-0.5,0-0.7,0 c0-0.2,0-0.5,0-0.7c0.2,0,0.5,0,0.7,0C176.2,175,176.2,175.2,176.2,175.5z M9.8,239.3c-0.5,0-0.8-0.2-0.7-0.7c0.2,0,0.5,0,0.7,0 C9.8,238.9,9.8,239.1,9.8,239.3z M18.9,235.4c-0.1-0.8,0.3-1.1,0.5-1.6C19.9,234,19.8,235.7,18.9,235.4z M57.3,243.1 c0-0.2,0-0.5,0-0.7C58,242,58,243.4,57.3,243.1z M60.8,225.5c0-0.2,0-0.3,0-0.5c0.3,0,0.6,0,0.9,0C62,225.8,61.2,225.5,60.8,225.5z M61.8,242.4c0-0.3,0-0.6,0-0.9c0.3,0,0.6,0,0.9,0C62.8,242.2,62.5,242.5,61.8,242.4z M69,223.9c-0.1,0.4-0.3-0.1-0.2-0.5 C68.9,223,69.1,223.6,69,223.9z M78.4,222.3c-0.1,0-0.3,0-0.5,0c0-0.2,0-0.3,0-0.5c0.2,0,0.3,0,0.5,0 C78.4,222,78.4,222.1,78.4,222.3z M90.3,238.4c-0.2,0-0.3,0-0.5,0c0-0.2,0-0.3,0-0.5c0.2,0,0.3,0,0.5,0 C90.3,238.1,90.3,238.3,90.3,238.4z M92.2,239.8c-0.9,0.2-0.9-1.1,0-0.9C92.2,239.2,92.2,239.5,92.2,239.8z M99.2,218.3 c-0.2,0-0.3,0-0.5,0c0-0.2,0-0.3,0-0.5c0.2,0,0.3,0,0.5,0C99.2,218,99.2,218.1,99.2,218.3z M102.7,217.1c-1,0.2-0.6-1.1-0.7-1.9 C103,215.1,103.2,216.5,102.7,217.1z M103.2,218.1c0-0.2,0-0.3,0-0.5c0.5-0.1,0.7,0,0.7,0.5C103.6,218.1,103.4,218.1,103.2,218.1z M107.2,239.6c-0.2,0-0.5,0-0.7,0c-0.1-0.4,0.2-0.4,0.2-0.7c0.2,0,0.3,0,0.5,0C107.2,239.1,107.2,239.3,107.2,239.6z M115.1,213.4 c0.6-0.1,1,0.1,0.9,0.7C115.4,214.1,114.9,214.2,115.1,213.4z M118.2,212.7c0-0.2,0-0.5,0-0.7C118.8,211.6,118.8,213,118.2,212.7z M124.5,161.7c-0.2,0-0.3,0-0.5,0c0-0.2,0-0.3,0-0.5c0.2,0,0.3,0,0.5,0C124.5,161.4,124.5,161.5,124.5,161.7z M132.4,310 c0-0.2,0-0.3,0-0.5c0.5-0.1,0.7,0,0.7,0.5C132.9,310,132.7,310,132.4,310z M134.8,310.9c0.5-0.1,0.7,0,0.7,0.5c-0.2,0-0.5,0-0.7,0 C134.8,311.2,134.8,311.1,134.8,310.9z M135,317.9c0-0.2,0-0.3,0-0.5c0.3,0,0.6,0,0.9,0C136.2,318.2,135.4,317.9,135,317.9z M137.8,176.9c0.6-0.1,1,0.1,0.9,0.7C138.1,177.7,137.6,177.7,137.8,176.9z M138.7,182.3c0,0.2,0,0.5,0,0.7c-0.2,0-0.5,0-0.7,0 c0-0.2,0-0.5,0-0.7C138.3,182.3,138.5,182.3,138.7,182.3z M139.9,197c-0.2,0-0.3,0-0.5,0c0-0.1,0-0.2,0-0.2l-0.4,0.1l-0.4-0.1 c-0.4,0-0.2,0.6-0.7,0.5c0.2-0.7-0.3-0.6-0.2-1.2c0.4,0,0.7,0,0.9,0.2c0,0.1,0,0.2,0,0.2l0.4-0.1l0.4,0.1c0.2,0,0.3,0,0.5,0 C139.9,196.7,139.9,196.8,139.9,197z M191.8,426.7c0.2,0,0.3,0,0.5,0c0,0.2,0,0.3,0,0.5c-0.2,0-0.3,0-0.5,0 C191.8,427,191.8,426.9,191.8,426.7z M190,422.5c0.1,0.6-0.1,1-0.7,0.9C189.2,422.8,189.3,422.5,190,422.5z M182,411.5 c0.5-0.1,0.7,0,0.7,0.5c-0.2,0-0.5,0-0.7,0C182,411.8,182,411.7,182,411.5z M178.7,407.5c0,0.6,0,1.2,0,1.9 C177,409.9,177.3,407.1,178.7,407.5z M173.6,392.3c0,0.6-0.3,0.9-0.9,0.9c-0.2-0.2-0.3-0.5-0.2-0.9 C172.8,392.3,173.2,392.3,173.6,392.3z M169.1,392.6c0.7-0.2,0.4,0.5,0.5,0.9c-0.2,0-0.5,0-0.7,0 C168.8,393,169.1,392.9,169.1,392.6z M168,369.6c-0.5,0.9,0.5,0.7,0.2,1.9C167.3,371.9,167.1,369.5,168,369.6z M166.6,363.1 c-0.1,0.5-0.2,1.1-0.9,0.9C165.9,363.7,165.8,363,166.6,363.1z M162.1,334.8c0.5-0.1,0.6,0.2,0.9,0.2c0.1,0.5-0.2,0.6-0.2,0.9 c-0.4,0-0.5-0.3-0.9-0.2C161.9,335.3,162.2,335.2,162.1,334.8z M161,377.4c0.4,1.2-1.6,1.3-1.4,0.2 C160.1,377.6,160.2,377.2,161,377.4z M158.9,373.2l-0.1-0.4l0.4,0.1c0-0.4,0.2-0.5,0.7-0.5c0,0.3-0.1,0.5-0.2,0.7 c-0.2,0-0.3,0-0.5,0l0.1,0.4l-0.3-0.1c0,0.3,0,0.6,0,0.9c-0.4,0-0.8,0-1.2,0C157.5,373.4,158,373.1,158.9,373.2z M156.3,304.4 c-1,0.2-1.3-0.4-1.4-1.2C155.7,302.8,156.4,303.2,156.3,304.4z M154.6,365.9c0.2,0,0.5,0,0.7,0c0,0.2,0,0.5,0,0.7 c-0.2,0-0.5,0-0.7,0C154.6,366.4,154.6,366.1,154.6,365.9z M152.3,287.5c0,0.3,0,0.6,0,0.9c-0.9,0.2-1.1-0.3-1.2-0.9 C151.5,287.5,151.9,287.5,152.3,287.5z M150.7,284.3c0.5-0.1,0.7,0,0.7,0.5c-0.2,0-0.5,0-0.7,0 C150.7,284.6,150.7,284.4,150.7,284.3z M143.9,253.1c0.2,0,0.3,0,0.5,0c0.1,0.4-0.2,0.4-0.2,0.7c-0.2,0-0.3,0-0.5,0 C143.6,253.5,143.9,253.4,143.9,253.1z M144.6,261.8c-0.2,0-0.3,0-0.5,0c0-0.2,0-0.3,0-0.5c0.2,0,0.3,0,0.5,0 C144.6,261.5,144.6,261.6,144.6,261.8z M148.3,270.5c-0.6,0.1-0.8-0.3-0.7-0.9c0.2,0,0.5,0,0.7,0 C148.3,269.8,148.3,270.1,148.3,270.5z M147.9,267.2c0,0.2,0,0.5,0,0.7c-0.5,0-0.8-0.2-0.7-0.7 C147.4,267.2,147.6,267.2,147.9,267.2z M147.9,346c0.3,1-1.7,1-1.4,0C147.2,346.1,147.4,345.5,147.9,346z M146.2,271.2 c0.2,0,0.3,0,0.5,0c0,0.2,0,0.3,0,0.5c-0.2,0-0.3,0-0.5,0C146.2,271.5,146.2,271.3,146.2,271.2z M145.8,267.4 c0.3,0.8-1.3,1.1-0.9,0C145.1,267.4,145.4,267.4,145.8,267.4z M146,205.4c-0.2-0.4-0.8-0.4-0.7-0.9c0.3-0.3,0.6-0.3,0.9,0 C146.3,204.9,145.9,205,146,205.4z M148.1,205c0-0.2,0-0.5,0-0.7c0.5,0,0.7,0.2,0.7,0.7C148.6,205,148.3,205,148.1,205z M151.6,205 c0-0.2,0-0.5,0-0.7c0.5,0,0.7,0.2,0.7,0.7C152.1,205,151.8,205,151.6,205z M156,201.7c-0.2,0-0.3,0-0.5,0c0-0.2,0-0.3,0-0.5 c0.2,0,0.3,0,0.5,0C156,201.4,156,201.5,156,201.7z M165.9,201c0.3-0.2,0.6-0.3,1.2-0.2C167.4,201.5,165.7,201.9,165.9,201z M167.5,225.8c-0.2,0-0.5,0-0.7,0c0-0.2,0-0.5,0-0.7c0.2,0,0.5,0,0.7,0C167.5,225.3,167.5,225.5,167.5,225.8z M174.8,196.1 c0.2,0,0.5,0,0.7,0c0,0.2,0,0.5,0,0.7c-0.2,0-0.5,0-0.7,0C174.8,196.5,174.8,196.3,174.8,196.1z M175.5,198.9c0-0.2,0-0.3,0-0.5 c0.5-0.1,0.7,0,0.7,0.5C175.9,198.9,175.7,198.9,175.5,198.9z M179.4,196.8c0.4-0.4,1.4-0.7,1.4,0.2 C180.1,197.2,180,196.8,179.4,196.8z M181.3,149.7c-0.5,0-0.7-0.2-0.7-0.7c0.2,0,0.5,0,0.7,0C181.3,149.3,181.3,149.5,181.3,149.7z M184.6,153c0-0.2,0-0.3,0-0.5c0.5-0.1,0.7,0,0.7,0.5C185.1,153,184.8,153,184.6,153z M194.6,223.9c-0.4,0-1.2,0.2-0.9-0.5 c0.2-0.2,0.5-0.3,0.9-0.2C194.6,223.4,194.6,223.7,194.6,223.9z M195.1,165c-0.6-0.2-1.2-0.4-1.6-0.7c-0.1-0.9,1.3-0.3,1.9-0.5 C195.5,164.4,195,164.4,195.1,165z M194.4,307.4c-0.2,0-0.3,0-0.5,0c0-0.2,0-0.3,0-0.5c0.2,0,0.3,0,0.5,0 C194.4,307.1,194.4,307.3,194.4,307.4z M195.8,292.9c0-0.2,0-0.5,0-0.7c0.3-0.2,0.6-0.3,1.2-0.2C197.1,292.8,196.6,293,195.8,292.9 z M197.2,240.7c-0.2,0-0.3,0-0.5,0c-0.1-0.4,0.2-0.4,0.2-0.7c0.2,0,0.3,0,0.5,0C197.5,240.4,197.2,240.4,197.2,240.7z M199.6,244.5 c-0.5,0.1-0.9,0-1.2-0.2c0.3-0.7,0.4-1.6,1.6-1.4c0.1,0.5-0.4,0.3-0.5,0.7c0,0.8,0.6,1.1,0.7,1.9 C199.6,245.5,199.5,245.1,199.6,244.5z M202.1,179c-0.2,0-0.5,0-0.7,0c-0.1-0.4,0.2-0.4,0.2-0.7c0.2,0,0.3,0,0.5,0 C202.1,178.5,202.1,178.8,202.1,179z M205.9,222.3c-0.2,0-0.2,0.1-0.2,0.2c-0.8-0.7,1.3-0.6,0.7,0.5 C205.8,223.1,205.9,222.6,205.9,222.3z M206.1,268.6c-0.1-0.6,0.3-0.8,0.9-0.7C207.1,268.5,206.7,268.7,206.1,268.6z M208.2,252.2 c-0.2,0-0.5,0-0.7,0c0-0.3,0-0.6,0-0.9C208.1,251.2,208.3,251.6,208.2,252.2z M212.2,180.2c0.2-0.2,1.3-0.5,1.4,0 C213.6,181,212.1,181,212.2,180.2z M215.5,210.6c-0.6,0.2-0.5-0.5-0.9-0.5c0-0.4,0.3-0.5,0.2-0.9 C215.5,209.1,215.9,210.1,215.5,210.6z M218.3,177.6c-0.1,0-0.3,0-0.5,0c0-0.2,0-0.3,0-0.5c0.2,0,0.3,0,0.5,0 C218.3,177.3,218.3,177.4,218.3,177.6z M230.4,173.6c0-0.2,0-0.3,0-0.5c0.5-0.1,0.7,0,0.7,0.5C230.9,173.6,230.7,173.6,230.4,173.6 z M236.3,171.5c0-0.2,0-0.3,0-0.5c0.5-0.1,0.7,0,0.7,0.5C236.8,171.5,236.5,171.5,236.3,171.5z M249.8,193.7 c-0.8,0.1-1.1-0.3-1.2-0.9c0.3-0.3,1.3-0.3,1.6,0C250.5,193.4,249.9,193.3,249.8,193.7z"></path> <path class="st0" d="M101.3,93.8c0.2,1.5,0.9,3.6,1.2,4.9c0.3,1.5,0.6,2.3,0.9,3.3c0.5,1.8,0.9,3.4,1.4,4.9c0.3,0,0.9-0.1,0.9,0.2 c-0.4,0-0.6,0.2-0.7,0.5c0.5,1.4,1.3,3.1,1.9,4c0.5,0.8,0.9,1.2,1.4,1.9c0.2,0.3,0.3,0.6,0.5,0.9c0.7,1.2,1.2,1.3,2.1,2.3 c0.2,0.2,0.2,0.7,0.5,0.9c0.4,0.5,0.9,1.1,1.6,1.2c0.4,1,1.1,1.7,2.1,2.1c0.5-0.1,1-0.5,1.4,0c0.2,0.7-0.4,0.7-0.2,1.4 c0.9,0.7,1.6,1.5,2.8,1.9c0.7,0,0.8-0.9,1.4-0.2c0.1,0.6-0.4,0.5-0.2,1.2c1.3,0.7,2.2,1.8,4,2.1c0.2,0.9,1.3,1.1,1.9,1.4 c0.3,0.2,0.5,0.6,0.7,0.7c0.6,0.3,1.6,0.2,1.9,0.9c1.3-0.2,1.9,0.4,3,0.5c0.3,0.4,0.5,0.9,1.2,0.9c1.2-0.1,1.8,0.4,3,0.2 c0,0.3,0.1,0.5,0.2,0.7c1.4,0.1,2.6,0.3,4.2,0.2c0.6-0.1,0.6-1,1.4-0.9c0.3,0.3,0.3,1,0.9,0.9c2.2,0.3,3.6-0.3,4.9-0.9 c1.1,0.5,2.5,0.1,3.7,0.2c0.5,0,0.9,0.3,1.4,0.2c1-0.1,1.8-0.9,2.8-0.9c0.7,0,1.1,0.3,1.6,0.5c0.5-0.6,1.6-0.7,2.3-1.2 c0.1-0.6,0.1-1.5,0.5-1.9c0.8,0,1.1,0.7,1.9,0.7c0.3-0.4,0.4-1.2,0.9-1.4c1.6,0.2,1.8-1,2.6-1.6c1.1-0.1,2.2-0.3,3.5-0.2 c0.7-0.5,1-1.3,2.1-1.4c0.4-0.5,0.5-1.2,1.2-1.4c0.8-0.2,1.6-0.8,2.3-1.4c0.5-0.4,1.2-0.9,1.6-1.2c0.5-0.4,0.5-0.9,0.7-1.4 c0.1-0.2,0.7-0.6,0.7-0.7c0.1-0.3-0.1-0.7,0-0.9c0.1-0.2,0.5-0.4,0.5-0.5c0.1-0.5-0.5-0.8-0.2-1.2c0.9-0.6,1.2-1.7,1.6-2.8 c0.5-0.2,0.8-0.6,1.2-0.9c0.1-1.3-0.3-1.8,0-2.8c0.6-0.6,1.3,0.5,1.4-0.5c0.6-0.5-1.2-0.5-0.9-1.4c0.5-0.3,1.2-0.4,1.6-0.7 c0.2-0.8,0.7-1.4,0.5-2.6c0.4-1,1.5-1.3,1.6-2.6c-0.1-0.8-1.3-0.6-1.4-1.4c0.7,0.2,0.6-0.3,1.2-0.2c0.1-1.8,0.6-2.8,0.2-4.4 c0.3,0,0.6,0,0.9,0c0.6-1.8,2.4-3.1,1.6-5.6c1.4-1.7,0.4-4.9-0.2-6.5c-0.5-0.6-1.4-0.7-1.9-1.4c-0.3-1.8-1.9-2.3-2.8-3.5 c-0.2-0.9-0.6-1.6-0.9-2.3c0.2-0.5,0.6-0.6,1.2-0.7c-0.7-0.9-0.7-3-1.4-3.5l-0.3,0.4l-0.4-0.1c0,0.6-0.1,1-0.5,1.2 c-0.7,0.2-0.7-0.4-1.4-0.2c0.1,1.9-2.2,2.4-1.4,4.2c-0.7,0-0.6,0.7-0.9,1.2c-0.6,1-0.8,1.5-1.2,2.6c-0.1,0.3-0.3,0.6-0.5,0.9 c-0.9,2-1.7,3.9-2.6,5.8c-0.6,1.3-1.3,2.5-1.9,3.7c-0.3,0.6-0.3,1.2-0.5,1.6c0,0.1-0.4,0.1-0.5,0.2c-0.1,0.3-0.1,0.8-0.2,1.2 c-0.2,0.4-0.9,0.6-0.5,1.2c-0.6,0-0.8,0.5-1.2,0.9c-1,1.2-2.1,3.2-3,4.2c-0.4,0.5-0.6,0.8-0.9,1.2c-0.6,0.7-0.9,1.3-1.4,1.9 c-0.4,0.4-0.6,0.8-0.9,1.2c-0.6,0.6-1.3,0.9-1.6,1.4c-0.8,1.2-2,2.1-3,2.8c0,0.4-0.3,0.5-0.2,0.9c-1.1,0.2-1.5,1.1-2.1,1.9 c-1.3,0.4-2.1,1.5-3.3,2.3c-0.1,0.1-0.3,0-0.5,0c-0.1,0-0.1,0.4-0.2,0.5c-0.3,0.2-0.6,0.2-0.9,0.5c-0.6,0.4-1,0.9-1.6,1.2 c-0.2,0.1-0.5-0.1-0.7,0c-0.1,0.1-0.2,0.4-0.5,0.5c-0.5,0.2-1,0.1-1.4,0.2c-0.1,0-0.3,0.4-0.5,0.5c-0.2,0.1-0.5,0.1-0.7,0.2 c-0.4,0.2-1.1,0.3-1.4,0.5c-0.9,0.4-1.6,1.2-2.3,1.4c-0.5,0.2-1.1-0.1-1.6,0c-0.6,0.1-0.6,0.4-1.2,0.5c-0.9-0.7-2.2-0.6-3.3-0.9 c-1.1-0.4-1.8-1.1-2.8-1.4c-0.3-1.1-1.5-1.6-2.1-2.6c-0.6-1-0.9-2.4-1.4-3.7c-0.4-1.1-1.1-2.1-1.4-3c-0.3-0.8-0.2-1.6-0.5-2.3 c-0.1-0.4-0.4-0.5-0.5-0.9c-0.3-1.4-0.3-2.9-0.5-4.4c0-0.7-1.1-0.3-0.9-1.2c0.7,0.1,0.9-0.3,1.4-0.5c0.2-1.2-1.2-0.9-0.9-2.1 c0.2-0.4,1.1,0,0.9-0.7c-0.3-2.9,1.3-4.8,0.7-7.3c0.4-0.3,0.3-0.8,0.7-1.4c0.3-0.4,1-0.8,1.2-1.2c0.1-0.2,0.1-0.8,0.2-1.2 c0.3-0.6,0.5-0.5,0.5-0.9c-0.1-0.7-0.6-0.8-0.9-1.4l-0.4,0.1l-0.4-0.1c-0.2,0-0.5,0-0.7,0c0-0.2,0-0.3,0-0.5c0.2,0,0.5,0,0.7,0 l0.4,0.1l0.4,0.1c0-0.1,0-0.2,0-0.2c0.3-0.3,0.8-0.3,1.4-0.2c0.1-0.8-0.8-0.6-0.7-1.4c0.7-0.2,1.4-0.3,2.1-0.5 c-0.1-1.7,0.9-2.2,1.4-3.3c-0.4-0.2-0.8-0.4-0.7-1.2c0.5,0,0.9,0,1.4,0c0.4-0.5,1-0.7,1.2-1.4c0.6-0.2,0.9-0.7,1.4-0.9 c-0.1-1.8,1.5-1.8,1.2-3.7c0.8-1,1.7-2,3-2.6c0.7-0.1,0.8,0.4,1.6,0.2c0.6-0.6,0.6-1.9,1.9-1.9c0-0.7,0-1.4,0.5-1.6 c0.4-0.5,1.1-0.1,1.6,0c0.4-1.3,2.3-1.2,1.9-3.5c0.9-0.4,1.8-0.8,1.9-2.1c-0.4-0.1-1.4,0.3-1.4-0.2c0.1-0.7,0.7-1,0.9-1.6 c1,0.3,1.7,0.6,2.8,0.2c0.3-0.7,0.3-1.9,1.2-2.1c0.3-0.3,0.8-0.3,1.4-0.2c0.9-2.6,4.5-2.7,5.1-5.6c2.1-1,2.4-3.7,4.4-4.7 c0.1-0.7-0.5-0.9,0-1.4c0.6-0.1,0.5,0.4,1.2,0.2c0.1-0.3,0.3-0.5,0.7-0.5c1-1.2,1.3-3,2.3-4.2c-0.2-1,0.4-1.3,0.2-2.3 c2.4-0.3,0.5-5,3.1-5.1c0.1-1.1,0.7-1.4,0.2-2.6c0.2-0.6,0.9-0.7,1.2-1.2c-0.1-2.2,0.7-4.4-0.5-5.8c0.3-0.3,0.2-1,0.2-1.6 c0.2-0.7-0.6-0.4-0.5-1.2c-0.1-0.6,0.9-0.2,0.7-0.9c-0.9-1.1-0.2-2.6-0.5-3.7c-0.1-0.4-0.5-0.9-0.7-1.2c-0.4-0.8-0.6-0.8-1.2-1.4 c-0.4-0.5-0.7-1.6-1.4-1.4l-0.1,0.4l-0.4-0.1c0,0.4-0.4-0.1,0-0.2l0.1-0.4l0.4,0.1c0.2-1.5-1.8-2.6-3-3.3c-0.8,0-0.6,1-1.4,0.9 c-0.2-0.9,0.7-0.7,0.5-1.6c-0.6-0.8-1.6-1.1-2.3-1.4c-0.1,0-0.1-0.4-0.2-0.5c-0.4-0.2-1.2-0.1-1.6-0.2c-0.8-0.3-1.6-1.1-2.8-0.7 c-1.2-0.5-1.5-1.9-3.3-1.9c0-0.7-0.2-1.4-0.9-1.4c-2-0.3-4,2.3-5.1,3.7c0.6-0.1,1.2-0.1,0.9,0.7c-0.9,0.3-0.8-0.8-1.4-0.2 c-0.3,0-0.3,0.3-0.7,0.2c-0.5,0.5-1.3,0.9-1.6,1.2c-0.2,0.2-0.2,0.1-0.5,0.2c-1.1,0.6-1.3,1.1-2.1,1.9c-0.8,0.7-1.6,1.2-2.1,1.9 c-0.7,0.8-1.6,1.5-2.1,2.1c-0.2,0.3-0.3,0.9-0.5,1.2c-0.1,0.2-0.4,0.3-0.5,0.5c-0.6,1.1-1.1,2.2-1.4,3.3c-1.2,0.9-2.3,1.9-2.8,3.5 c-0.3,0.8,0.8,0.2,0.5,0.9c-0.5,1-1.5,1.6-2.1,2.6l0.4,0.3l-0.1,0.4c0.6-0.1,0.8,0.1,0.7,0.7c-0.5,0.1-0.9-0.1-0.9-0.5l-0.4,0.1 l-0.3-0.4c-0.2,0-0.3,0.2-0.5,0.2c-0.7-0.8-1.1,0.6-1.6,0.7c-0.2,1,0.9,2.5-0.5,2.6c-0.6-0.1,0.1-1.5-0.7-1.4 c-0.3,0.6-0.6,1.2-1.2,1.6c0.3,1.2-0.2,1.9-0.2,2.6c0.1,0.5-0.5,0.2-0.7,0.9c-0.5,0.4,0.6,1.2,0.5,2.1c-0.3,0.2-0.6,0.3-1.2,0.2 c-0.1-0.9,0.7-1.9-0.5-2.1c-0.6-0.2-0.9,0.8-1.2,1.2c-0.2,0.2-0.3,0.6-0.5,0.9c-0.7,1.1-1.3,1.5-1.9,2.6c-0.8,1.3-1,2.7-0.7,4.4 c-0.2,0.5-1.3,0.3-1.6,0.7c0.5,0,0.5,0.6,0.5,1.2c-0.7,0.3-1.7,0.2-2.3,0.5c-0.7,1.4-1.4,2.6-2.1,4c0.5,0.4,1.9,1.2,1.2,2.1 c-0.9,0.1-0.9-1.3-1.6-0.7c-1.4,1.4-1.9,3.7-3.3,5.1c-0.1,0.7-0.3,1.7-0.5,1.9c-0.4,0.4-0.5,0.9-0.7,1.4c-0.3,0.6-0.8,1.5-0.9,1.9 c-0.1,0.4,0.1,0.8,0,1.2c0,0.1-0.4,0.1-0.5,0.2c-0.1,0.2-0.2,0.6-0.2,0.7c-0.1,0.3-0.1,0.5-0.2,0.7c-0.1,0.1-0.4,0.3-0.5,0.5 c-0.1,0.3,0.1,0.8,0,1.2c-0.2,0.7-1.1,1.6-0.9,2.6c-0.3,0.3-0.6,0.7-0.9,0.9c0.5,0.7-0.5,2-0.5,3l0.3-0.1l0.1,0.4 c0.7,0,1.2,0.1,1.4,0.5c0,1.2-1.2,0.5-1.6,0.2l-0.1,0.4l-0.3-0.1c-0.8,1-0.8,2.6-1.4,3.7c0.5,0,0.5,0.6,0.5,1.2 c0.1,0.6-0.9,0.2-0.7,0.9c-0.2,1.7-0.4,3.5-0.7,5.1c-1.1,0.7-1.9,2.2-1.4,3.7c0.2,0.7-0.6,0.4-0.5,1.2 C101.4,88.9,100.9,91.7,101.3,93.8z M185.5,90.1c0.6,0.1,0.8,0.6,0.9,1.2c-0.2,0.2-0.5,0.3-0.9,0.2 C185.1,91.1,185.4,90.6,185.5,90.1z M178.7,78.9c0.2,0,0.3,0,0.5,0c0,0.2,0,0.3,0,0.5c-0.2,0-0.3,0-0.5,0 C178.7,79.2,178.7,79,178.7,78.9z M177.3,83.5c0.2,0,0.3,0,0.5,0l0.1-0.4l0.1,0.4c0.3-0.3,0.6-0.3,0.9,0c0.1,0.5-0.6,1.4-0.9,0.7 l-0.4,0.1l0.1-0.3c-0.2,0-0.3,0-0.5,0C177.3,83.9,177.3,83.7,177.3,83.5z M177.1,107.4c0.5-0.1,0.7,0,0.7,0.5c-0.2,0-0.5,0-0.7,0 C177.1,107.7,177.1,107.6,177.1,107.4z M174.8,116.1c-0.1,0.3-0.5,0.2-0.5,0C174.4,115.7,174.5,116.1,174.8,116.1z M172.2,121 c0.6,0,1.1,0,1.4,0.2C173.5,121.6,171.8,122.2,172.2,121z M169.8,122.1c0.3,0,0.6,0,0.9,0C171,123,169.7,123,169.8,122.1z M168.9,122.1c-0.7-0.2-0.5-0.2-1.2,0C167.4,121.4,169.3,121.4,168.9,122.1z M139.7,123.1c0.2,0,0.3,0,0.5,0c0,0.2,0,0.3,0,0.5 c-0.2,0-0.3,0-0.5,0C139.7,123.4,139.7,123.2,139.7,123.1z M130.3,125.9c0.5,0,1.1,0,1.6,0c-0.5,0.8-0.7,2-1.6,2.3 C129.6,127.1,130.9,126.8,130.3,125.9z M129.4,120.3c0.6-0.1,0.8,0.3,0.7,0.9c-0.6,0.1-1-0.1-0.9-0.7 C129.3,120.5,129.4,120.4,129.4,120.3z M170.1,21.3c0.5-0.1,0.7,0,0.7,0.5c-0.2,0-0.5,0-0.7,0C170.1,21.6,170.1,21.5,170.1,21.3z M168,25.5c0.4,0.3,0.5,0.8,1.2,0.7c0.1,0.5,0,0.9-0.2,1.2c-0.7-0.2-0.9-0.9-1.4-1.2C167.7,26,168,26,168,25.5z M166.8,30.2 c0.5-0.1,0.7,0,0.7,0.5c-0.2,0-0.5,0-0.7,0C166.8,30.5,166.8,30.4,166.8,30.2z M163.3,38.4c0.5-0.1,0.7,0,0.7,0.5 c-0.2,0-0.5,0-0.7,0C163.3,38.7,163.3,38.5,163.3,38.4z M161,40.3c0.2,0,0.3,0,0.5,0c0,0.2,0,0.5,0,0.7c-0.2,0-0.5,0-0.7,0 C160.7,40.6,160.9,40.6,161,40.3z M158.9,7.5c0.2,0,0.3,0,0.5,0c0,0.2,0,0.3,0,0.5c-0.2,0-0.3,0-0.5,0 C158.9,7.8,158.9,7.7,158.9,7.5z M157.9,43.8c0.5-0.1,0.4,0.3,0.5,0.7c-0.2,0-0.5,0-0.7,0C157.8,44.3,157.9,44.1,157.9,43.8z M157.7,46.3c0.1,0,0.3,0,0.5,0c0,0.2,0,0.3,0,0.5c-0.2,0-0.3,0-0.5,0C157.7,46.7,157.7,46.5,157.7,46.3z M155.6,46.8 c0.2,0,0.3,0,0.5,0c0,0.2,0,0.3,0,0.5c-0.2,0-0.3,0-0.5,0C155.6,47.1,155.6,47,155.6,46.8z M147.9,55.5c0.2,0,0.3,0,0.5,0l0.2,0.1 l0.2,0.1c0.2-0.6,0.5-1,1.4-0.9c0.2,1.1-0.4,1.3-1.4,1.2l-0.2,0.1l-0.2-0.1c-0.1,0.2-0.2,0.3-0.5,0.2 C147.9,55.9,147.9,55.7,147.9,55.5z M145.5,9.4c-0.1,0.9-0.3,0.9,0,1.6c-0.4,0-0.5-0.3-0.9-0.2C144.8,10.2,144.7,9.3,145.5,9.4z M142.5,61.6c0.5-0.1,0.6,0.2,0.9,0.2C143.4,62.5,142.3,62.4,142.5,61.6z M138.5,62.5c0.3,0,0.3,0.4,0.2,0.7l0.1,0.2l-0.1,0.2 c0.5,0-0.1,0.6-0.5,0.5c0-0.2,0-0.3,0-0.5l-0.1-0.4l0.4-0.1C138.4,62.9,138.2,62.8,138.5,62.5z M135.9,67.9c0.2,0,0.3,0,0.5,0 c0,0.2,0,0.3,0,0.5c-0.2,0-0.3,0-0.5,0C135.9,68.2,135.9,68,135.9,67.9z M134.3,70.2c0.7-0.1,0.7,0.5,0.7,1.2c-0.4,0-0.8,0-1.2,0 C133.6,70.6,134.2,70.7,134.3,70.2z M132.4,68.6c0.7,0.1,0.7,0.9,0.9,1.4l0.3,0.3l0.2,0.4l-0.4,0.1l-0.3-0.3 c-0.7,0.2-0.6-0.3-1.2-0.2C132,69.3,133,69.5,132.4,68.6z M128.2,34.9c0.1,0.6-0.3,0.8-0.9,0.7C127.2,35,127.6,34.8,128.2,34.9z M124.2,83.8c0.2,0,0.3,0,0.5,0c0,0.2,0,0.3,0,0.5c-0.2,0-0.3,0-0.5,0C124.2,84.1,124.2,83.9,124.2,83.8z M122.8,41 c0.5,0,0.1,0.8,0.2,1.2C122.7,41.9,122.4,41.3,122.8,41z M122.4,109.5l-0.1-0.4l0.1-0.4c0-0.2,0-0.3,0-0.5c0.4,0,0.8,0,0.7,0.5 c-0.1,0-0.2,0-0.2,0l0.1,0.4l-0.4,0.3c0,0.3-0.1,0.6-0.5,0.5c0.2,0.5,0.6,0.8,0.5,1.6C121.6,111.9,121.7,109.5,122.4,109.5z M111.8,60.6c0.8-0.1,1.3,0.1,1.2,0.9c-0.4,0-0.8,0-1.2,0C111.8,61.2,111.8,60.9,111.8,60.6z M111.4,63.9c0.5-0.1,0.7,0,0.7,0.5 c-0.2,0-0.5,0-0.7,0C111.4,64.2,111.4,64,111.4,63.9z M107.6,77c0.1,0.9-0.6,1-1.2,1.2C106.5,77.4,106.9,77,107.6,77z M105.8,90.3 c-0.6,0.1-0.8-0.3-0.7-0.9C105.7,89.3,105.8,89.7,105.8,90.3z M104.8,81c0.2,0,0.5,0,0.7,0c0,0.2,0,0.5,0,0.7c-0.2,0-0.5,0-0.7,0 C104.8,81.4,104.8,81.2,104.8,81z M105.5,88.2c-0.7,0.3-0.6-0.4-0.9-0.5C104.7,87.3,105.7,87.7,105.5,88.2z M103.6,83.5 c0.7-0.1,0.7,0.5,0.7,1.2c-0.3,0-0.6,0-0.9,0C103.3,84.2,103.4,83.8,103.6,83.5z"></path> <path class="st0" d="M180.6,72.3l0.3-0.4l0.4,0.1c0.1-1.2-1.1-2.1-2.1-1.4c0,0.3,0,0.6,0,0.9C179.2,72.3,180.3,71.9,180.6,72.3z"></path> <path class="st0" d="M178.5,84c0-0.1-0.2-0.3-0.2,0C178.3,84.1,178.5,84.3,178.5,84z"></path> </g> </svg> 